<?xml version="1.0" standalone="no"?>
<!DOCTYPE svg PUBLIC "-//W3C//DTD SVG 1.1//EN" "http://www.w3.org/Graphics/SVG/1.1/DTD/svg11.dtd">
<svg xmlns="http://www.w3.org/2000/svg">
  <defs>
    <font id="MPLUSRounded1c" horiz-adv-x="901">
      <font-face font-family="Rounded Mplus 1c" units-per-em="1000" panose-1="2 11 5 2 2 2 3 2 2 7" ascent="1075" descent="-320" alphabetic="0" />
      <glyph unicode=" " glyph-name="space" horiz-adv-x="270" />
      <glyph unicode="!" glyph-name="exclam" horiz-adv-x="322" d="M187,214q-11-11-26-11t-26,11t-11,26l-9,443q0,20 13.5,33.5T161,730t32.5-13.5T207,683l-9-443q0-15-11-26ZM130.5,110.5Q143,123 161,123t30.5-12.5T204,80V43q0-18-12.5-30.5T161,0T130.5,12.5T118,43V80q0,18 12.5,30.5Z" />
      <glyph unicode="&quot;" glyph-name="quotedbl" horiz-adv-x="396" d="M130.5,531.5Q122,523 109,523t-21.5,8.5T78,553L71,730q-1,17 10.5,28.5t28,11.5T137,758.5T147,730l-7-177q-1-13-9.5-21.5Zm180,0Q302,523 289,523t-21.5,8.5T258,553l-7,177q-1,17 10.5,28.5t28,11.5T317,758.5T327,730l-7-177q-1-13-9.5-21.5Z" />
      <glyph unicode="#" glyph-name="numbersign" horiz-adv-x="678" d="M287,486L247,264q-2-8 7-8H384q8,0 10,8l39,222q2,8-7,8H297q-8,0-10-8ZM82,192q-14,0-23,9t-9,23t9,23t23,9h82q8,0 10,8l39,222q2,8-7,8H133q-13,0-22.5,9T101,526t9.5,23t22.5,9h85q8,0 10,9l22,127q3,16 15,26t28,10q14,0 23.5-11t7.5-25L301,567q-1-3 1.5-6t5.5-3H438q8,0 10,9l22,127q3,16 15,26t28,10q14,0 23.5-11t7.5-25L521,567q-1-3 1.5-6t5.5-3h68q14,0 23-9t9-23t-9-23t-23-9H517q-8,0-10-8L467,264q-2-8 7-8h71q13,0 22.5-9t9.5-23t-9.5-23T545,192H463q-8,0-10-9L427,36q-3-16-15-26T384,0q-14,0-23,11t-7,25l26,147q1,3-1.5,6t-5.5,3H243q-8,0-10-9L207,36q-3-16-15-26T164,0q-14,0-23,11t-7,25l26,147q1,3-1.5,6t-5.5,3H82Z" />
      <glyph unicode="$" glyph-name="dollar" horiz-adv-x="565" d="M239,647Q130,634 130,543q0-87 111-122q3-1 5,1.5t2,5.5V640q0,9-9,7ZM433,200q0,49-26,79.5T320,330q-8,2-8-6V91q0-9 9-7q112,18 112,116ZM240,351Q55,405 55,543q0,72 47.5,117T239,713q9,0 9,9v61q0,13 9.5,22.5T280,815t22.5-9.5T312,783V723q0-9 9-9q70-5 131-19q15-4 25-16.5T487,650q0-13-11-21t-24-4q-65,19-131,23q-9,0-9-8V412q0-9 9-11q105-29 147-78t42-123q0-78-49-125T321,18q-9-2-9-10V-53q0-13-9.5-22.5T280-85t-22.5,9.5T248-53V7q0,9-8,9q-76,5-140,26Q84,47 74.5,61T65,92q0,13 11,20t23,2q71-28 141-32q8,0 8,8V340q0,9-8,11Z" />
      <glyph unicode="%" glyph-name="percent" horiz-adv-x="820" d="M610,730q14,0 21-12t0-24L270,36Q250,0 210,0q-14,0-21,12t0,24L550,694q20,36 60,36Zm2-680q91,0 91,132q0,131-91,131q-92,0-92-131q0-132 92-132ZM487.5,323Q532,373 612,373t124-50t44-141T736,40.5T612-10T487.5,40.5T443,182t44.5,141ZM208,680q-91,0-91-132q0-131 91-131q92,0 92,131q0,132-92,132ZM332.5,407Q288,357 208,357T84,407T40,548T84,689.5T208,740t124.5-50.5T377,548T332.5,407Z" />
      <glyph unicode="&amp;" glyph-name="ampersand" horiz-adv-x="689" d="M276,344q-77-51-109-91t-32-80q0-57 40.5-88T292,54q60,0 105.5,14.5T492,119q7,5 1,11L289,343q-6,6-13,1ZM204,593q0-32 16-60.5T293,444q7-7 14-1q76,52 100,82.5T431,593q0,40-29,62t-85,22q-53,0-83-23t-30-61ZM289-10Q174-10 114.5,36.5T55,170q0,55 40,107.5T231,394q7,3 0,10l-6,7q-55,57-77.5,99T125,593q0,66 51.5,106.5T317,740q91,0 139.5-38T505,597q0-54-33.5-99T352,394q-7-5-1-11L518,206q2-2 4-1t2,3V380q0,16 10.5,27T561,418t27-11t11-27V129q0-10 5-15l75-79q9-9 3.5-22T664,0q-48,0-81,35L555,65q-5,7-13,1Q421-10 289-10Z" />
      <glyph unicode="&apos;" glyph-name="quotesingle" horiz-adv-x="234" d="M142,533q-10-10-24-10T94,533T83,557L76,727q-1,18 11.5,30.5T118,770t30.5-12.5T160,727l-7-170q-1-14-11-24Z" />
      <glyph unicode="(" glyph-name="parenleft" horiz-adv-x="363" d="M302-140q-40,0-65,27Q70,62 70,315T237,743q25,27 65,27q10,0 14.5-10T313,742Q147,567 147,315T313-112q7-8 3-18t-14-10Z" />
      <glyph unicode=")" glyph-name="parenright" horiz-adv-x="363" d="M65-140q-11,0-15,10t4,18Q220,63 220,315T54,742q-7,8-3,18t14,10q39,0 65-27q81-85 124-194.5T297,315T254,81.5T130-113q-26-27-65-27Z" />
      <glyph unicode="*" glyph-name="asterisk" horiz-adv-x="511" d="M75,562q-12,4-18,15.5T54.5,602t16,19T95,622l125-42q3-1 5.5,1t2.5,5l-2,132q0,14 9.5,23t23,9t22.5-9t9-23l-2-132q0-3 2.5-5t5.5-1l125,42q13,5 25.5-1t16-19T460,577.5T441,562L314,523q-2-1-3-4.5t0-5.5l80-106q8-11 6-23.5T384.5,363t-24-5.5T339,370L263,478q-1,2-4.5,2t-5.5-2L177,370q-7-10-20.5-12.5t-24,5.5t-13,20.5T125,407l80,106q2,2 1,5.5t-4,4.5L75,562Z" />
      <glyph unicode="+" glyph-name="plus" horiz-adv-x="734" d="M112,258q-13,0-22.5,9.5T80,290t9.5,22.5T112,322H325q9,0 9,8V547q0,13 10,23t23,10t23-10t10-23V330q0-8 9-8H622q13,0 22.5-9.5T654,290t-9.5-22.5T622,258H409q-9,0-9-8V33q0-13-10-23T367,0T344,10T334,33V250q0,8-9,8H112Z" />
      <glyph unicode="," glyph-name="comma" horiz-adv-x="278" d="M91-110q-13,0-21.5,11T65-75L113,89q6,21 24.5,34.5T178,137q18,0 28-15t3-32L142-76q-6-16-20-25t-31-9Z" />
      <glyph unicode="-" glyph-name="hyphen" horiz-adv-x="466" d="M111,255q-13,0-22,9.5T80,287t9,22t22,9H355q13,0 22-9t9-22t-9-22.5T355,255H111Z" />
      <glyph unicode="." glyph-name="period" horiz-adv-x="284" d="M175.5,14Q162,0 142,0T108.5,14T95,47V90q0,20 13.5,33.5T142,137t33.5-13.5T189,90V47q0-19-13.5-33Z" />
      <glyph unicode="/" glyph-name="slash" horiz-adv-x="479" d="M65-40Q51-40 44-29T42-5L355,695q8,16 22.5,25.5T409,730q14,0 21-11t2-24L119-5q-8-16-22.5-25.5T65-40Z" />
      <glyph unicode="0" glyph-name="zero" horiz-adv-x="620" d="M447.5,601.5Q402,675 310,675T172.5,601.5T127,365t45.5-236.5T310,55t137.5,73.5T493,365T447.5,601.5ZM504,77Q435-10 310-10T116,77T47,365t69,288t194,87t194-87t69-288T504,77Z" />
      <glyph unicode="1" glyph-name="one" horiz-adv-x="620" d="M144,503q-10-8-22-2.5T110,519q0,44 34,72L286,705q31,25 71,25q17,0 28.5-12T397,690V40q0-16-11.5-28T357,0T328.5,12T317,40V640q0,1-1,1l-2-1L144,503Z" />
      <glyph unicode="2" glyph-name="two" horiz-adv-x="620" d="M471,685.5Q530,631 530,533T459,334.5T194,69q-1,0-1-1t1-1H500q13,0 23-10t10-24q0-13-9.5-23T500,0H117Q103,0 93,10T83,33q0,34 26,55Q306,253 377,347.5T448,527q0,71-39,108T295,672q-76,0-162-40q-12-5-23.5,1.5T98,653q0,40 36,55q81,32 171,32q107,0 166-54.5Z" />
      <glyph unicode="3" glyph-name="three" horiz-adv-x="620" d="M118,663q-13,0-23,10T85,697q0,13 9.5,23T118,730H490q14,0 23.5-10t9.5-23q0-34-23-57L284,429v-2q0-1 1-1h29q106,0 162.5-51T533,227q0-114-67.5-175.5T273-10q-77,0-145,24Q92,27 92,66q0,13 11,20t23,2q73-31 147-31q88,0 134,43t46,127q0,71-47.5,105.5T254,367H212q-13,0-22,9t-9,22q0,31 22,53L420,661v1q0,1-1,1H118Z" />
      <glyph unicode="4" glyph-name="four" horiz-adv-x="620" d="M97,238v-2q0-1 1-1H356q9,0 9,9V612q0,1-1,1q-2,0-2-1L97,238ZM48,170q-14,0-23.5,10T15,203q0,32 19,59L342,698q22,32 62,32q17,0 28.5-11.5T444,691V244q0-9 8-9h84q14,0 23-9.5t9-22.5q0-14-9.5-23.5T536,170H452q-8,0-8-9V39q0-16-11.5-27.5T404,0q-16,0-27.5,11T365,39V161q0,9-9,9H48Z" />
      <glyph unicode="5" glyph-name="five" horiz-adv-x="620" d="M130,14Q95,27 95,66q0,13 11,20.5T129,89q80-32 144-32q93,0 141,46.5T462,240q0,77-41,117.5T303,398q-55,0-102-26q-36-20-64-20q-14,0-24,10.5T104,387l16,286q2,24 19,40.5T180,730H478q14,0 24-10t10-23t-10-23.5T478,663H205q-9,0-9-8L182,428q0-1 1-1h2q58,35 132,35q107,0 166-58t59-164q0-122-68.5-186T273-10q-75,0-143,24Z" />
      <glyph unicode="6" glyph-name="six" horiz-adv-x="620" d="M320,425q-79,0-129.5-48.5T140,253t44-135.5T317,57q83,0 129.5,49T493,247q0,81-47.5,129.5T320,425ZM317-10Q57-10 57,320q0,211 77.5,315.5T355,740q56,0 114-14q15-4 24-16.5t9-28.5q0-13-10.5-20.5T469,657q-52,16-114,16q-92,0-149.5-69.5T141,403q0-1 1-1q2,0 2,1q61,84 193,84q108,0 172-65.5T573,247q0-120-69.5-188.5T317-10Z" />
      <glyph unicode="7" glyph-name="seven" horiz-adv-x="620" d="M112,730H515q13,0 23-10t10-23q0-33-17-62Q378,377 271,39q-5-17-20-28T217,0q-16,0-25,12.5T188,40Q301,383 470,660v1l1,1q0,1-1,1H112q-14,0-24,10.5T78,697t10,23t24,10Z" />
      <glyph unicode="8" glyph-name="eight" horiz-adv-x="620" d="M298,355q-86-19-130.5-59T123,200q0-68 50-107T310,54T446,93.5T495,200q0,119-179,155q-9,1-18,0ZM150,558q0-48 39.5-84T302,422q8-1 16,0q73,16 113.5,52.5T472,558q0,55-42.5,86.5T310,676q-76,0-118-31.5T150,558ZM503,46Q433-10 310-10T117,46T47,197q0,64 42.5,113.5T212,385q1,0 1,2q0,1-1,1q-66,25-102.5,71.5T73,565q0,79 63.5,127T310,740t173.5-48T547,565q0-120-139-170q-1,0-1-2q0-1 1-1q165-51 165-195q0-95-70-151Z" />
      <glyph unicode="9" glyph-name="nine" horiz-adv-x="620" d="M305,673q-81,0-129-47.5T128,493q0-87 47.5-137.5T302,305q80,0 129.5,50T481,487q0,30-9.5,60.5t-29,59.5t-55,47.5T305,673ZM285,243q-109,0-173,67T48,493q0,113 71,180t186,67q260,0 260-320q0-223-76-326.5T267-10Q206-10 145,4q-16,4-25.5,16.5T110,49q0,13 11,20.5T145,73q62-16 122-16q97,0 154,68t59,203q0,2-1,2q-2,0-2-1q-62-86-192-86Z" />
      <glyph unicode=":" glyph-name="colon" horiz-adv-x="364" d="M215.5,404Q202,390 182,390t-33.5,14T135,437v43q0,20 13.5,33.5T182,527t33.5-13.5T229,480V437q0-19-13.5-33Zm0-390Q202,0 182,0T148.5,14T135,47V90q0,20 13.5,33.5T182,137t33.5-13.5T229,90V47q0-19-13.5-33Z" />
      <glyph unicode=";" glyph-name="semicolon" horiz-adv-x="362" d="M111-110q-13,0-21.5,11T85-75L133,89q6,21 24.5,34.5T198,137q18,0 28-15t3-32L162-76q-6-16-20-25t-31-9Zm45,623.5Q170,527 189.5,527t33-13.5T236,480V437q0-19-13.5-33t-33-14T156,404t-14,33v43q0,20 14,33.5Z" />
      <glyph unicode="&lt;" glyph-name="less" horiz-adv-x="667" d="M103,232q-38,17-38,58t38,58L540,549q11,5 21.5-1.5T572,528q0-36-32-50L116,291q-1,0-1-1t1-1L540,102q32-14 32-50q0-13-10.5-19.5T540,31L103,232Z" />
      <glyph unicode="=" glyph-name="equal" horiz-adv-x="754" d="M122,373q-13,0-22.5,9.5T90,405t9.5,22.5T122,437H632q13,0 22.5-9.5T664,405t-9.5-22.5T632,373H122Zm0-230q-13,0-22.5,9.5T90,175t9.5,22.5T122,207H632q13,0 22.5-9.5T664,175t-9.5-22.5T632,143H122Z" />
      <glyph unicode="&gt;" glyph-name="greater" horiz-adv-x="667" d="M127,102L551,289q1,0 1,1t-1,1L127,478q-32,14-32,50q0,13 10.5,19.5T127,549L564,348q38-17 38-58t-38-58L127,31q-11-5-21.5,1.5T95,52q0,36 32,50Z" />
      <glyph unicode="?" glyph-name="question" horiz-adv-x="623" d="M121,646q-14-4-25,4T85,671q0,17 9.5,29.5T120,717q98,23 195,23q117,0 180-43.5T558,577q0-36-9.5-64t-31-51T480,426t-46-33q-36-24-55-39t-39.5-44T312,246q-3-17-15.5-28T268,207q-17,0-28,12t-9,28q5,34 18,61t36,50.5t38,35T369,426q37,25 54.5,39.5T458,508t17,62q0,102-170,102q-92,0-184-26ZM225,80q0,18 12.5,30.5T268,123t31-12.5T312,80V43q0-18-13-30.5T268,0T237.5,12.5T225,43V80Z" />
      <glyph unicode="@" glyph-name="at" horiz-adv-x="824" d="M505,251v18q0,66-29,102.5T397,408q-51,0-79.5-38.5T289,260t29.5-109.5T397,112q50,0 79,36.5T505,251ZM412-112Q252-112 146-8T40,260q0,163 105.5,267.5T412,632q164,0 268-103T784,260q0-81-30-154q-10-24-33-37.5T671,55H560q-21,0-35.5,14.5T509,105l-1,7l-1,1q-1,0-1-1Q457,47 375,47q-74,0-119.5,56T210,260q0,102 44.5,157.5T375,473q82,0 131-63q0-1 2-1h1v17q0,16 11.5,27.5T548,465t27.5-11.5T587,426V124q0-9 8-9h88q9,0 12,8q29,64 29,137q0,140-86,226T412,572q-138,0-225-87T100,260T187,35T412-52q89,0 160,40q10,6 23,4t20-12t5-22.5T607-61q-84-51-195-51Z" />
      <glyph unicode="A" glyph-name="A" horiz-adv-x="639" d="M321,657L199,285q-1-3 1-5.5t5-2.5H440q3,0 4.5,2.5T446,285L324,657q0,1-1,1q-2,0-2-1ZM64,0Q49,0 40,12.5T36,39L264,688q7,19 23.5,30.5T324,730t36.5-11.5T384,688L611,40q5-15-4-27.5T583,0q-20,0-35.5,11.5T526,41L473,205q-3,8-12,8H184q-8,0-11-8L118,39q-6-18-20.5-28.5T64,0Z" />
      <glyph unicode="B" glyph-name="B" horiz-adv-x="598" d="M165,352V73q0-9 7-10q50-8 99-8q208,0 208,162q0,144-248,144H173q-8,0-8-9Zm0,305V433q0-8 8-8h58q218,0 218,128q0,62-45,92T261,675q-43,0-88-8q-8-2-8-10ZM141-3q-24,3-40,21.5T85,62V668q0,25 15.5,43.5T140,733q55,7 121,7q264,0 264-177q0-61-40.5-105.5T375,398q-1,0-1-1t2-1q86-14 134-64.5T558,210Q558-10 271-10q-71,0-130,7Z" />
      <glyph unicode="C" glyph-name="C" horiz-adv-x="613" d="M358-10Q214-10 127,88.5T40,365q0,177 83.5,276T355,740q78,0 139-15q15-4 24.5-17t9.5-29q0-13-10.5-20.5T494,655q-59,18-132,18q-113,0-177-81T121,365q0-145 66.5-226.5T365,57q74,0 134,18q13,4 23.5-3.5T533,51q0-16-9.5-28.5T499,6Q432-10 358-10Z" />
      <glyph unicode="D" glyph-name="D" horiz-adv-x="658" d="M165,656V74q0-8 9-10q39-7 88-7q145,0 212.5,75T542,375q0,153-68.5,225.5T262,673q-49,0-88-7q-9-2-9-10ZM141-3q-24,3-40,21.5T85,62V668q0,25 15.5,43.5T141,733q55,7 121,7q356,0 356-365Q618-10 262-10q-66,0-121,7Z" />
      <glyph unicode="E" glyph-name="E" horiz-adv-x="587" d="M142,0q-23,0-40,17T85,57V673q0,23 17,40t40,17H478q14,0 24-10t10-23t-10-23.5T478,663H174q-9,0-9-8V433q0-8 9-8H460q14,0 23-9.5t9-22.5t-9-22.5T460,361H174q-9,0-9-9V75q0-8 9-8H478q14,0 24-10.5T512,33T502,10T478,0H142Z" />
      <glyph unicode="F" glyph-name="F" horiz-adv-x="572" d="M153.5,12Q142,0 125,0T96.5,12T85,40V673q0,23 17,40t40,17H468q14,0 24-10t10-23t-10-23.5T468,663H174q-9,0-9-8V423q0-8 9-8H450q14,0 23-9.5t9-22.5t-9-22.5T450,351H174q-9,0-9-9V40q0-16-11.5-28Z" />
      <glyph unicode="G" glyph-name="G" horiz-adv-x="687" d="M380-10Q230-10 135,91.5T40,365q0,174 96,274.5T397,740q79,0 143-15q15-3 24.5-15.5T574,682q0-13-11-21t-24-4q-65,18-135,18q-133,0-207.5-81.5T122,365q0-143 72.5-226.5T387,55q73,0 135,21q8,3 8,12V352q0,9-8,9H326q-14,0-23,9.5T294,393t9,22.5t23,9.5H550q23,0 40-17t17-40V91q0-26-14.5-47.5T554,14Q478-10 380-10Z" />
      <glyph unicode="H" glyph-name="H" horiz-adv-x="676" d="M153.5,12Q142,0 125,0T96.5,12T85,40V690q0,16 11.5,28T125,730t28.5-12T165,690V433q0-8 8-8H503q8,0 8,8V690q0,16 11.5,28T551,730t28.5-12T591,690V40q0-16-11.5-28T551,0T522.5,12T511,40V352q0,9-8,9H173q-8,0-8-9V40q0-16-11.5-28Z" />
      <glyph unicode="I" glyph-name="I" horiz-adv-x="316" d="M188.5,12.5Q176,0 158,0T127.5,12.5T115,43V687q0,18 12.5,30.5T158,730t30.5-12.5T201,687V43q0-18-12.5-30.5Z" />
      <glyph unicode="J" glyph-name="J" horiz-adv-x="529" d="M76,9Q60,14 50,27T40,57q0,13 11,21t24,3q69-24 142-24q79,0 116,47t37,156V688q0,17 12.5,29.5T412,730t29.5-12.5T454,688V240q0-130-58-190T217-10Q146-10 76,9Z" />
      <glyph unicode="K" glyph-name="K" horiz-adv-x="586" d="M153.5,12Q142,0 125,0T96.5,12T85,40V690q0,16 11.5,28T125,730t28.5-12T165,690V406q0-1 1-1h2L439,695q33,35 81,35q14,0 19.5-12.5T535,695L243,386q-6-6-1-12L546,36q9-10 3-23T530,0q-49,0-80,36L168,355q-1,1-2,1t-1-2V40q0-16-11.5-28Z" />
      <glyph unicode="L" glyph-name="L" horiz-adv-x="582" d="M142,0q-23,0-40,17T85,57V688q0,17 12.5,29.5T127,730t29.5-12.5T169,688V77q0-9 8-9H488q14,0 24-10t10-24T512,10T488,0H142Z" />
      <glyph unicode="M" glyph-name="M" horiz-adv-x="816" d="M150.5,11.5Q139,0 123,0T96,11.5T85,39V689q0,17 11.5,29T125,730q41,0 61-36L405,291q0-1 2-1q1,0 1,1L627,693q19,37 62,37q17,0 29.5-12.5T731,688V40q0-16-11.5-28T691,0T662.5,12T651,40V595q0,1-1,1t-1-1L462,250q-18-33-55-33t-55,33L164,595q0,1-1,1t-1-1V39q0-16-11.5-27.5Z" />
      <glyph unicode="N" glyph-name="N" horiz-adv-x="686" d="M151.5,11Q140,0 124,0T96.5,11T85,39V689q0,17 12,29t29,12q41,0 62-36L520,131q0-1 2-1q1,0 1,1V691q0,17 11.5,28T562,730t27.5-11T601,691V41q0-17-12-29T560,0q-41,0-62,36L166,599q0,1-2,1q-1,0-1-1V39q0-17-11.5-28Z" />
      <glyph unicode="O" glyph-name="O" horiz-adv-x="714" d="M531.5,595Q471,673 357,673T182.5,595T122,365t60.5-230T357,57t174.5,78T592,365T531.5,595Zm58-506.5Q505-10 357-10T124.5,88.5T40,365t84.5,276.5T357,740t232.5-98.5T674,365T589.5,88.5Z" />
      <glyph unicode="P" glyph-name="P" horiz-adv-x="600" d="M165,657V363q0-8 9-10q48-7 108-7q99,0 151.5,43T486,512T434.5,633.5T282,675q-54,0-108-8q-9-2-9-10ZM153.5,12Q142,0 125,0T96.5,12T85,40V668q0,24 16,42.5T141,732q77,8 147,8q136,0 206.5-57.5T565,518q0-116-71-176T288,282q-54,0-114,5q-9,0-9-7V40q0-16-11.5-28Z" />
      <glyph unicode="Q" glyph-name="Q" horiz-adv-x="722" d="M531,595q-61,78-175,78T181.5,595T121,365t60.5-230T356,57t175,78t61,230T531,595ZM356-10Q209-10 124.5,88.5T40,365t84.5,276.5T356,740q148,0 232.5-98.5T673,365q0-123-44.5-209.5T503,29q-1,0-1-1q0-2 1-2Q636-6 722-112q9-11 2-24.5T702-150q-45,0-76,38Q578-56 517-33T356-10Z" />
      <glyph unicode="R" glyph-name="R" horiz-adv-x="606" d="M165,657V391q0-9 9-9h71q119,0 175,38.5T476,535q0,140-211,140q-45,0-91-8q-9-2-9-10ZM153.5,12Q142,0 125,0T96.5,12T85,40V668q0,25 16,43.5T141,733q59,7 131,7q140,0 211.5-51.5T555,542q0-76-40.5-126.5T399,346q-1,0-1-2q0-1 1-1q43-25 88-130L559,38q6-13-2.5-25.5T533,0q-19,0-34.5,11T476,39L406,211q-30,72-56.5,89.5T245,318H174q-9,0-9-8V40q0-16-11.5-28Z" />
      <glyph unicode="S" glyph-name="S" horiz-adv-x="553" d="M267,343Q60,413 60,562q0,84 54,131t151,47q90,0 167-27q16-6 26-20.5T468,660q0-13-11-19.5T434,639q-81,36-163,36q-60,0-96.5-28T138,562q0-98 131-142q124-41 174-94t50-136q0-98-59-149T261-10q-86,0-155,31Q71,37 71,77q0,13 11,19t22,0q68-39 151-39q158,0 158,133q0,54-34,90T267,343Z" />
      <glyph unicode="T" glyph-name="T" horiz-adv-x="634" d="M94,662q-14,0-24,10T60,696t10,24t24,10H540q14,0 24-10t10-24t-10-24t-24-10H366q-9,0-9-9V40q0-16-11.5-28T317,0T288.5,12T277,40V653q0,9-9,9H94Z" />
      <glyph unicode="U" glyph-name="U" horiz-adv-x="656" d="M516,55.5Q451-10 328-10T140,55.5T75,250V689q0,17 12,29t28,12q17,0 29-12t12-29V247q0-97 42.5-143T329,58t131,46t43,143V691q0,17 11.5,28T542,730t27.5-11T581,691V250q0-129-65-194.5Z" />
      <glyph unicode="V" glyph-name="V" horiz-adv-x="639" d="M263,42L36,690q-5,15 3.5,27.5T64,730q19,0 35-11.5T121,689L323,80q0-1 1-1q2,0 2,1L528,691q6,18 21,28.5T583,730q15,0 24-12.5t4-26.5L383,42q-7-19-23.5-30.5T323,0T286.5,11.5T263,42Z" />
      <glyph unicode="W" glyph-name="W" horiz-adv-x="864" d="M188,49L48,690q-3,16 6.5,28T80,730q18,0 31.5-11.5T129,690L248,87q0-1 1-1t1,1L373,679q4,22 21.5,36.5t40,14.5T475,715.5T498,679L621,87q0-1 1-1t1,1L742,691q3,17 16,28t31,11q15,0 25-12t7-27L680,49q-5-22-22-35.5T619,0T579.5,13.5T558,49L435,643q0,1-1,1t-1-1L310,49q-5-22-22-35.5T249,0T209.5,13.5T188,49Z" />
      <glyph unicode="X" glyph-name="X" horiz-adv-x="610" d="M88,0Q73,0 65.5,13T65,39L257,362q6,8 0,15L71,690q-7,14 0,27t22,13q22,0 41-10.5T163,690L312,426h1h2L465,691q23,39 67,39q15,0 22.5-13T554,691L367,377q-5-7 0-15L558,40q9-14 1-27T535,0q-21,0-40,11T465,41L312,313q0,1-1,1q-2,0-2-1L156,40Q134,0 88,0Z" />
      <glyph unicode="Y" glyph-name="Y" horiz-adv-x="610" d="M266,316L41,690q-8,14-0.5,27T64,730q47,0 70-41L312,377q0-1 1-1q2,0 2,1L493,690q22,40 68,40q15,0 22.5-13T583,691L358,316q-4-7-4-16V42q0-17-12.5-29.5T312,0T282.5,12.5T270,42V300q0,9-4,16Z" />
      <glyph unicode="Z" glyph-name="Z" horiz-adv-x="616" d="M92,95L447,660l1,1v1q0,1-1,1H108q-13,0-23,10T75,697q0,13 9.5,23T108,730H508q14,0 23.5-10t9.5-23q0-37-17-62L169,70l-1-1V68q0-1 1-1H508q13,0 23-10t10-24q0-13-9.5-23T508,0H108Q94,0 84.5,10T75,33q0,37 17,62Z" />
      <glyph unicode="[" glyph-name="bracketleft" horiz-adv-x="470" d="M172-140q-23,0-40,17T115-83V713q0,23 17,40t40,17H355q13,0 21.5-8.5T385,740t-8.5-21.5T355,710H196q-7,0-7-8V-71q0-9 8-9H355q13,0 21.5-8.5T385-110t-8.5-21.5T355-140H172Z" />
      <glyph unicode="\" glyph-name="backslash" horiz-adv-x="479" d="M370-5L57,695q-5,13 2,24t21,11q17,0 31.5-9.5T134,695L447-5q5-13-2-24T424-40q-17,0-31.5,9.5T370-5Z" />
      <glyph unicode="]" glyph-name="bracketright" horiz-adv-x="470" d="M273-80q8,0 8,8V701q0,9-7,9H114q-12,0-20.5,9T85,740q0,13 8.5,21.5T115,770H298q23,0 40-17t17-40V-83q0-23-17-40t-40-17H115q-13,0-21.5,8.5T85-110t8.5,21.5T115-80H273Z" />
      <glyph unicode="^" glyph-name="asciicircum" horiz-adv-x="602" d="M72,280q-14,0-21.5,12T50,317L238,687q10,20 29,31.5T308,730t41-11.5T378,687L566,317q7-13-0.5-25T544,280q-19,0-35.5,10T484,317L308,678v1v-1L132,317q-8-17-24.5-27T72,280Z" />
      <glyph unicode="_" glyph-name="underscore" horiz-adv-x="562" d="M28-140q-13,0-21.5,8.5T-2-110T6.5-88.5T28-80H534q13,0 21.5-8.5T564-110t-8.5-21.5T534-140H28Z" />
      <glyph unicode="`" glyph-name="grave" horiz-adv-x="238" d="M132,586L26,766q-8,14 0,29t24,15q23,0 42.5-12.5T122,764l81-177q5-10-1.5-20T183,557q-33,0-51,29Z" />
      <glyph unicode="a" glyph-name="a" horiz-adv-x="534" d="M327,275q-99,0-149.5-32T127,153q0-45 25.5-72.5T220,53q72,0 119.5,48T387,228v38q0,9-9,9H327ZM204-10Q136-10 93,33T50,147q0,83 66,133t211,50h51q9,0 9,8v19q0,61-28,85.5T260,467q-69,0-149-26q-12-4-22,3T79,464q0,35 33,45q74,21 148,21q115,0 159.5-42T464,337V36q0-15-10.5-25.5T428,0T402,10.5T391,36l-1,52q0,1-1,1q-2,0-2-2Q328-10 204-10Z" />
      <glyph unicode="b" glyph-name="b" horiz-adv-x="578" d="M157,337V183q0-52 46-92.5T307,50q71,0 110.5,53T457,260q0,210-150,210q-59,0-104.5-41T157,337ZM142,10.5Q131,0 116,0T90.5,10.5T80,36V712q0,16 11,27t27,11t27.5-11T157,712V453q0-1 1-1t2,1q65,77 163,77q97,0 153.5-70.5T533,260q0-125-58.5-197.5T323-10Q223-10 156,73q-1,1-2,1t-1-1V36q0-15-11-25.5Z" />
      <glyph unicode="c" glyph-name="c" horiz-adv-x="493" d="M285-10Q167-10 103.5,58.5T40,260q0,132 61.5,201T275,530q52,0 110-11q14-3 23.5-14.5T418,478q0-12-10.5-19T385,455q-51,13-105,13q-160,0-160-208q0-108 42-158T290,52q56,0 102,15q11,4 21-3t10-19q0-15-9-27T390,2Q343-10 285-10Z" />
      <glyph unicode="d" glyph-name="d" horiz-adv-x="578" d="M271,470q-150,0-150-210q0-104 39.5-157T271,50q58,0 104,40.5T421,183V337q0,51-45.5,92T271,470ZM255-10q-93,0-151.5,72.5T45,260q0,129 56.5,199.5T255,530q98,0 163-77q1-1 2-1t1,1V712q0,16 11.5,27T460,750t27-11t11-27V36q0-15-10.5-25.5T462,0T436,10.5T425,36V73q0,1-1,1t-2-1Q355-10 255-10Z" />
      <glyph unicode="e" glyph-name="e" horiz-adv-x="524" d="M270,472q-139,0-152-165q0-8 9-8H396q8,0 8,8q-6,165-134,165ZM291-10Q168-10 104,57.5T40,260q0,139 61.5,204.5T270,530q197,0 209-233q1-24-16.5-40.5T421,240H125q-8,0-8-9Q126,48 298,48q57,0 117,21q11,4 21-2.5T446,48q0-34-31-42Q351-10 291-10Z" />
      <glyph unicode="f" glyph-name="f" horiz-adv-x="508" d="M85,440q-13,0-21.5,8.5T55,470t8.5,21.5T85,500h84q9,0 9,9v48q0,96 40.5,139.5T348,740q33,0 61-7q13-3 21-13.5t8-24.5q0-11-9-17.5T410,674q-24,6-49,6q-58,0-80.5-25.5T258,560V509q0-9 9-9H398q13,0 21.5-8.5T428,470t-8.5-21.5T398,440H267q-9,0-9-9V40q0-16-12-28T218,0T190,12T178,40V431q0,9-9,9H85Z" />
      <glyph unicode="g" glyph-name="g" horiz-adv-x="563" d="M267,470q-145,0-145-203q0-101 38.5-154T267,60q58,0 101.5,43T412,206V322q0,60-43.5,104T267,470ZM247,0Q156,0 100.5,70.5T45,267q0,133 55.5,198T247,530q101,0 165-83q1-1 2-1t1,1l1,37q0,15 10.5,25.5T452,520t25.5-10.5T488,484V30q0-135-58-197.5T248-230q-62,0-114,13q-32,8-32,42q0,12 9.5,19.5T132-152q56-18 116-18q87,0 125.5,46T412,27V76q0,1-1,1t-2-1Q348,0 247,0Z" />
      <glyph unicode="h" glyph-name="h" horiz-adv-x="570" d="M146,11Q135,0 119,0T91.5,11T80,38V712q0,16 11.5,27T119,750t27-11t11-27V442q0-1 1-1t2,1q72,88 167,88q91,0 132-50.5T500,310V38q0-16-10.5-27T463,0T436,11T425,38V297q0,101-26.5,135.5T307,467q-52,0-101-49.5T157,316V38q0-16-11-27Z" />
      <glyph unicode="i" glyph-name="i" horiz-adv-x="310" d="M183.5,12Q172,0 155,0T126.5,12T115,40V480q0,16 11.5,28T155,520t28.5-12T195,480V40q0-16-11.5-28Zm0,642.5Q172,643 155,643t-28.5,11.5T115,683v27q0,16 11.5,28T155,750t28.5-12T195,710V683q0-17-11.5-28.5Z" />
      <glyph unicode="j" glyph-name="j" horiz-adv-x="355" d="M22-220q-14,0-23,9t-9,23q0,13 9,22.5T22-155q87,3 112.5,32T160-3V480q0,16 12,28t28,12t28-12t12-28V-3q0-124-43.5-168.5T22-220ZM160,710q0,16 12,28t28,12t28-12t12-28V683q0-17-12-28.5T200,643t-28,11.5T160,683v27Z" />
      <glyph unicode="k" glyph-name="k" horiz-adv-x="523" d="M145,11Q134,0 118,0T91,11T80,38V712q0,16 11,27t27,11t27-11t11-27V289q0-1 1-1l2,1L375,488q34,32 82,32q13,0 17.5-12T470,488L238,276q-6-6-1-12L473,33q8-8 3-20.5T459,0q-47,0-80,33L159,251q-1,1-2,1t-1-1V38q0-16-11-27Z" />
      <glyph unicode="l" glyph-name="l" horiz-adv-x="310" d="M183.5,12Q172,0 155,0T126.5,12T115,40V710q0,16 11.5,28T155,750t28.5-12T195,710V40q0-16-11.5-28Z" />
      <glyph unicode="m" glyph-name="m" horiz-adv-x="785" d="M141,11Q130,0 114,0T86.5,11T75,38V483q0,15 11,26t26,11t26-11t11-26l1-33q0-1 1-1q2,0 2,2q57,79 136,79q48,0 77.5-21T415,439q0-2 1-2q2,0 2,2q56,91 146,91q80,0 115.5-46T715,330V38q0-16-10.5-27T678,0T651,11T640,38V310q0,93-21.5,126.5T543,470q-37,0-73-39.5T434,349V38q0-16-11-27T396,0T369,11T358,38V310q0,93-21.5,126.5T262,470q-37,0-73.5-39.5T152,349V38q0-16-11-27Z" />
      <glyph unicode="n" glyph-name="n" horiz-adv-x="565" d="M140.5,11Q129,0 113,0T86,11T75,38V484q0,15 10.5,25.5T111,520t26-10.5T148,484V443q0-1 1-1t2,1q72,87 171,87q91,0 132-51t41-169V38q0-16-10.5-27T458,0T431,11T420,38V300q0,99-27,134.5T302,470q-52,0-101-48.5T152,322V38q0-16-11.5-27Z" />
      <glyph unicode="o" glyph-name="o" horiz-adv-x="556" d="M438,260q0,210-160,210T118,260T278,50T438,260ZM453,61Q390-10 278-10T103,61T40,260t63,199t175,71t175-71t63-199T453,61Z" />
      <glyph unicode="p" glyph-name="p" horiz-adv-x="574" d="M152,331V189q0-57 45-98T302,50q71,0 110.5,53.5T452,260q0,210-150,210q-61,0-105.5-41.5T152,331ZM141-209q-11-11-27-11T86.5-209T75-182V484q0,15 10.5,25.5T111,520t26-10.5T148,484l1-38q0-1 1-1l2,2q66,83 167,83q97,0 153.5-70.5T529,260q0-125-58.5-197.5T319-10Q217-10 155,67q-1,1-2,1t-1-1V-182q0-16-11-27Z" />
      <glyph unicode="q" glyph-name="q" horiz-adv-x="574" d="M272,470q-150,0-150-210q0-103 39.5-156.5T272,50q60,0 105,41t45,98V331q0,56-44.5,97.5T272,470ZM255-10q-93,0-151.5,72.5T45,260q0,129 56.5,199.5T255,530q101,0 167-83l2-2q1,0 1,1l1,38q0,15 11,25.5T463,520t25.5-10.5T499,484V-182q0-16-11.5-27T460-220t-27,11t-11,27V67q0,1-1,1t-2-1Q357-10 255-10Z" />
      <glyph unicode="r" glyph-name="r" horiz-adv-x="450" d="M143.5,12Q132,0 115,0T86.5,12T75,40V482q0,16 11,27t27,11t27-11t11-27V405q0-1 1-1q2,0 2,2q30,50 84.5,80.5T361,520q14,1 24-9t10-24q0-13-9.5-23T362,453q-99-4-153-57.5T155,246V40q0-16-11.5-28Z" />
      <glyph unicode="s" glyph-name="s" horiz-adv-x="497" d="M240,233q-97,23-138.5,59.5T60,387q0,66 49.5,104.5T251,530q69,0 137-18q31-8 31-41q0-12-9-18t-21-3q-66,20-132,20q-120,0-120-77q0-34 24-56.5T248,300q108-24 148.5-61T437,133q0-67-51.5-105T240-10q-73,0-139,22Q70,22 70,55q0,11 10,17.5T101,75q65-25 133-25q126,0 126,83q0,36-25.5,60T240,233Z" />
      <glyph unicode="t" glyph-name="t" horiz-adv-x="502" d="M80,440q-13,0-21.5,8.5T50,470t8.5,21.5T80,500h73q9,0 9,9V652q0,16 11,27t27,11t27-11t11-27V509q0-9 9-9H397q13,0 21.5-8.5T427,470t-8.5-21.5T397,440H247q-9,0-9-9V167q0-72 19-94.5T330,50q32,0 53,5q11,2 20.5-4.5T413,33q0-14-8.5-25T383-5q-26-5-66-5q-88,0-121.5,36.5T162,160V431q0,9-9,9H80Z" />
      <glyph unicode="u" glyph-name="u" horiz-adv-x="560" d="M238-10q-87,0-127.5,48T70,197V482q0,16 10.5,27T107,520t27-11t11-27V207q0-90 27-123.5T258,50q54,0 102,46.5T408,198V482q0,16 11.5,27T447,520t27-11t11-27V36q0-15-10.5-25.5T449,0T423,10.5T412,36V77q0,1-1,1t-2-1Q340-10 238-10Z" />
      <glyph unicode="v" glyph-name="v" horiz-adv-x="523" d="M196,49L41,481q-5,14 3.5,26.5T68,520q19,0 34-11t21-29L265,46q0-1 1-1q2,0 2,1L410,482q5,17 20,27.5T463,520q15,0 23.5-12t3.5-26L334,49q-8-22-27-35.5T265,0T222.5,13.5T196,49Z" />
      <glyph unicode="w" glyph-name="w" horiz-adv-x="770" d="M169,48L50,480q-4,15 5.5,27.5T81,520q18,0 32.5-11T132,480L231,67q0-1 1-1t1,1l94,403q6,22 23.5,36t40,14T431,506t23-36L547,67q0-1 2-1q1,0 1,1l99,414q5,17 18.5,28T699,520q15,0 24-12.5t5-26.5L609,48q-6-21-23.5-34.5T546.5,0t-39,14T484,49L390,446q0,1-1,1t-1-1L294,49q-5-21-22.5-35t-39-14T193,13.5T169,48Z" />
      <glyph unicode="x" glyph-name="x" horiz-adv-x="504" d="M78,0Q65,0 58.5,12T60,35L209,257q6,7 0,15L65,484q-8,11-1.5,23.5T84,520q45,0 67-36L258,314q0-1 1-1q2,0 2,1L369,485q22,35 64,35q13,0 19.5-12T451,485L307,272q-6-8 0-15L456,36q7-11 0.5-23.5T437,0q-45,0-67,36L258,215h-1h-2L142,35Q120,0 78,0Z" />
      <glyph unicode="y" glyph-name="y" horiz-adv-x="522" d="M216,12L41,482q-5,14 3.5,26T68,520q18,0 32.5-10.5T121,482L258,93q0-1 1-1q2,0 2,1L412,484q6,16 20.5,26T465,520q14,0 21.5-11.5T489,484L214-184q-7-16-21.5-26T160-220q-14,0-21,11.5T137-184L216-4q3,8 0,16Z" />
      <glyph unicode="z" glyph-name="z" horiz-adv-x="536" d="M93,84L369,457v2q0,1-1,1H105q-13,0-21.5,8.5T75,490t8.5,21.5T105,520H431q13,0 21.5-8.5T461,490q0-30-18-54L167,63V61q0-1 1-1H431q13,0 21.5-8.5T461,30T452.5,8.5T431,0H105Q92,0 83.5,8.5T75,30q0,30 18,54Z" />
      <glyph unicode="{" glyph-name="braceleft" horiz-adv-x="514" d="M92,283q-13,0-22.5,9.5T60,315t9.5,22.5T92,347h12q83,0 83,123V620q0,80 32.5,115T324,770h70q13,0 21.5-8.5T424,740t-8.5-21.5T394,710H357q-54,0-75.5-21T260,600V467q0-112-82-150q-1,0-1-2t1-2q82-38 82-150V30q0-68 21.5-89T357-80h37q13,0 21.5-8.5T424-110t-8.5-21.5T394-140H324q-72,0-104.5,35T187,10V160q0,123-83,123H92Z" />
      <glyph unicode="|" glyph-name="bar" horiz-adv-x="344" d="M198-209q-11-11-26-11t-26,11t-11,26V773q0,15 11,26t26,11t26-11t11-26V-183q0-15-11-26Z" />
      <glyph unicode="}" glyph-name="braceright" horiz-adv-x="514" d="M336,313q1,0 1,2t-1,2q-82,38-82,150V600q0,68-21.5,89T157,710H120q-13,0-21.5,8.5T90,740t8.5,21.5T120,770h70q72,0 104.5-35T327,620V470q0-123 83-123h12q13,0 22.5-9.5T454,315t-9.5-22.5T422,283H410q-83,0-83-123V10q0-80-32.5-115T190-140H120q-13,0-21.5,8.5T90-110t8.5,21.5T120-80h37q54,0 75.5,21T254,30V163q0,112 82,150Z" />
      <glyph unicode="~" glyph-name="asciitilde" horiz-adv-x="674" d="M68,268q-10,8-11.5,20.5T62,311q61,79 154,79q75,0 140-65q51-51 104-51q62,0 107,53q8,9 19.5,10.5T608,332q10-8 11.5-20.5T614,289q-61-79-154-79q-75,0-140,65q-51,51-104,51q-62,0-107-53q-8-9-19.5-10.5T68,268Z" />
      <glyph unicode="&#xa0;" glyph-name="uni00A0" horiz-adv-x="270" />
      <glyph unicode="&#xa1;" glyph-name="exclamdown" horiz-adv-x="322" d="M193.5-206.5Q180-220 161-220t-32.5,13.5T115-173l9,453q0,15 11,26t26,11t26-11t11-26l9-453q0-20-13.5-33.5Zm-2,616Q179,397 161,397t-30.5,12.5T118,440v37q0,18 12.5,30.5T161,520t30.5-12.5T204,477V440q0-18-12.5-30.5Z" />
      <glyph unicode="&#xa2;" glyph-name="cent" horiz-adv-x="505" d="M248,464q-65-12-96.5-62T120,260t31-140.5T248,57q8-2 8,7V457q0,9-8,7ZM248-6Q40,21 40,260q0,121 53,189t155,79q8,2 8,9V660q0,13 8.5,21.5T286,690t21.5-8.5T316,660V538q0-9 8-9q31-1 77-10q15-3 24.5-14.5T435,478q0-12-10-19.5T403,454q-39,10-79,13q-8,0-8-8V60q0-8 9-8q41,1 83,15q11,4 21.5-3T440,45q0-15-9-27T407,2Q370-7 324-9q-8,0-8-9V-150q0-13-8.5-21.5T286-180t-21.5,8.5T256-150V-16q0,8-8,10Z" />
      <glyph unicode="&#xa3;" glyph-name="sterling" horiz-adv-x="614" d="M109,0Q95,0 85,10T75,33q0,26 33,43t53.5,58T182,233v97q0,8-9,8H124q-13,0-21.5,8.5T94,368t8.5,21.5T124,398h49q9,0 9,9V540q0,95 57.5,147.5T404,740q43,0 87-11q15-4 24-16.5t9-28.5q0-13-11-20t-23-3q-39,11-78,11q-150,0-150-140V407q0-9 9-9H447q13,0 21.5-8.5T477,368t-8.5-21.5T447,338H271q-9,0-9-8V233q0-57-20-100.5T189,69q-1,0-1-1t1-1H505q13,0 23.5-10.5T539,33T529,10T505,0H109Z" />
      <glyph unicode="&#xa4;" glyph-name="currency" horiz-adv-x="648" d="M439.5,480Q392,528 324,528T208.5,480T161,365t47.5-115T324,202t115.5,48T487,365T439.5,480ZM69,153l67,66q6,6 0,13Q94,290 94,365t42,133q6,7 0,13L69,577q-9,9-9,21.5T69,620t21.5,9t21.5-9l66-67q6-6 13,0q58,42 133,42t133-42q7-6 13,0l66,67q9,9 21.5,9t21.5-9t9-21.5T579,577l-67-66q-6-6 0-13q42-58 42-133T512,232q-6-7 0-13l67-66q9-9 9-21.5T579,110t-21.5-9T536,110l-66,67q-6,6-13,0q-58-42-133-42T191,177q-7,6-13,0l-66-67q-9-9-21.5-9T69,110t-9,21.5T69,153Z" />
      <glyph unicode="&#xa5;" glyph-name="yen" horiz-adv-x="620" d="M244,361L46,690q-8,14-0.5,27T69,730q47,0 70-41L317,377q0-1 1-1q2,0 2,1L498,690q22,40 68,40q15,0 22.5-13T588,691L390,361q-2-2-0.5-5t4.5-3H537q11,0 19-7.5t8-18.5t-8-19t-19-8H367q-8,0-8-9V214q0-9 8-9H537q11,0 19-8t8-19t-8-18.5T537,152H367q-8,0-8-9V42q0-17-12.5-29.5T317,0T287.5,12.5T275,42V143q0,9-8,9H97q-11,0-19,7.5T70,178t8,19t19,8H267q8,0 8,9v77q0,9-8,9H97q-11,0-19,8t-8,19t8,18.5T97,353H240q3,0 4.5,3t-0.5,5Z" />
      <glyph unicode="&#xa6;" glyph-name="brokenbar" horiz-adv-x="344" d="M198-129q-11-11-26-11t-26,11t-11,26V183q0,15 11,26t26,11t26-11t11-26V-103q0-15-11-26Zm0,510q-11-11-26-11t-26,11t-11,26V693q0,15 11,26t26,11t26-11t11-26V407q0-15-11-26Z" />
      <glyph unicode="&#xa7;" glyph-name="section" horiz-adv-x="520" d="M190,410q-65-29-65-98q0-48 32-76.5T266,191q28-7 47-12q7-3 17,1q65,29 65,98q0,48-32,76.5T254,399q-28,7-47,12q-7,3-17-1ZM60,301q0,87 73,134q2,1 2,4t-2,5Q65,489 65,575q0,72 54,118.5T260,740q77,0 144-23q33-12 33-48q0-13-11-19.5T404,648q-70,27-137,27q-60,0-94.5-27.5T138,575q0-42 27.5-68T263,467q105-21 151-64.5T460,289q0-87-73-134q-2-1-2-4t2-5q68-45 68-131q0-72-54-118.5T260-150q-77,0-144,23Q83-115 83-79q0,13 11,19.5T116-58q70-27 137-27q60,0 94.5,27.5T382,15q0,42-27.5,68T257,123q-105,21-151,64.5T60,301Z" />
      <glyph unicode="&#xa8;" glyph-name="dieresis" horiz-adv-x="444" d="M348,621q-11-11-26-11t-26,11t-11,26v53q0,15 11,26t26,11t26-11t11-26V647q0-15-11-26Zm-200,0q-11-11-26-11T96,621T85,647v53q0,15 11,26t26,11t26-11t11-26V647q0-15-11-26Z" />
      <glyph unicode="&#xa9;" glyph-name="copyright" horiz-adv-x="816" d="M426,148q-93,0-147.5,56.5T224,365q0,103 52.5,160T422,582q50,0 86-8q28-7 28-36q0-11-9-17t-20-3q-39,10-77,10q-63,0-98.5-42.5T296,365q0-77 37.5-120T434,202q44,0 79,10q10,3 18.5-3t8.5-17q0-29-28-36q-36-8-86-8ZM630.5,588Q538,680 408,680T185.5,588T93,365t92.5-223T408,50t222.5,92T723,365T630.5,588ZM668,105Q560-3 408-3T148,105T40,365T148,625T408,733T668,625T776,365T668,105Z" />
      <glyph unicode="&#xaa;" glyph-name="ordfeminine" horiz-adv-x="630" d="M115,203q-11,0-18,7t-7,17q0,11 7,18t18,7H515q11,0 18-7t7-18q0-10-7-17t-18-7H115ZM408,496v31q0,8-9,8H361q-70,0-114.5-23.5T202,439q0-36 20.5-57.5T276,360q59,0 95.5,37T408,496Zm-9,85q9,0 9,8v15q0,48-21.5,67.5T308,691q-54,0-120-21q-9-3-17.5,2.5T162,688q0,28 25,35q62,17 121,17q92,0 127-34t35-121V345q0-12-8.5-20.5T441,316t-21,8.5T411,345l-1,33l-1,1q-1,0-1-1q-48-70-146-70q-54,0-88,34t-34,91q0,69 55,108.5T361,581h38Z" />
      <glyph unicode="&#xab;" glyph-name="guillemotleft" horiz-adv-x="720" d="M382,241q-23,18-23,49t23,49L597,508q8,7 18,2t10-16q0-36-28-58L409,292q-1-1-1-2l1-2L597,144q28-22 28-58q0-11-10-16t-18,2L382,241ZM303,436L115,292v-2v-2L303,144q29-23 29-58q0-11-10-16t-18,2L89,241q-24,19-24,49t24,49L304,508q8,7 18,2t10-16q0-35-29-58Z" />
      <glyph unicode="&#xac;" glyph-name="logicalnot" horiz-adv-x="656" d="M91,373q-13,0-22,9.5T60,405t9,22.5T91,437H510q23,0 39.5-17T566,380V188q0-14-10.5-24.5T531,153t-24.5,10.5T496,188V365q0,8-8,8H91Z" />
      <glyph unicode="&#xad;" glyph-name="uni00AD" horiz-adv-x="466" d="M113,257q-13,0-23,9.5T80,290t10,23.5t23,9.5H353q13,0 23-9.5T386,290t-10-23.5T353,257H113Z" />
      <glyph unicode="&#xae;" glyph-name="registered" horiz-adv-x="816" d="M329,517V388q0-9 9-9h40q126,0 126,78q0,73-117,73q-25,0-49-3q-9-2-9-10ZM318.5,163.5Q308,153 294,153t-24.5,10.5T259,188V517q0,24 16,43t40,20q25,2 76,2q183,0 183-119q0-42-26-72t-72-41q-1,0-1-1l1-1q30-14 57-74l39-87q5-12-2-23t-20-11q-36,0-51,34l-35,82q-18,39-33,49t-55,10H338q-9,0-9-9V188q0-14-10.5-24.5ZM630.5,588Q538,680 408,680T185.5,588T93,365t92.5-223T408,50t222.5,92T723,365T630.5,588ZM668,105Q560-3 408-3T148,105T40,365T148,625T408,733T668,625T776,365T668,105Z" />
      <glyph unicode="&#xaf;" glyph-name="macron" horiz-adv-x="466" d="M90,643q-13,0-21.5,8.5T60,673t8.5,21.5T90,703H376q13,0 21.5-8.5T406,673t-8.5-21.5T376,643H90Z" />
      <glyph unicode="&#xb0;" glyph-name="degree" horiz-adv-x="396" d="M264,653q-27,27-66,27t-66-27t-27-66t27-66.5T198,493t66,27.5T291,587t-27,66Zm42.5-175Q262,433 198,433T89.5,478T45,587T89.5,695.5T198,740t108.5-44.5T351,587T306.5,478Z" />
      <glyph unicode="&#xb1;" glyph-name="plusminus" horiz-adv-x="754" d="M122-40q-14,0-23,9T90-8q0,13 9.5,22T122,23H632q14,0 23-9t9-22t-9.5-22.5T632-40H122Zm0,382q-14,0-23,9t-9,22t9.5,22.5T122,405H335q9,0 9,9V617q0,13 10,23t23,10t23-10t10-23V414q0-9 9-9H632q13,0 22.5-9.5T664,373t-9.5-22T632,342H419q-9,0-9-9V130q0-14-10-23.5T377,97t-23,9.5T344,130V333q0,9-9,9H122Z" />
      <glyph unicode="&#xb2;" glyph-name="uni00B2" horiz-adv-x="380" d="M75,292q-11,0-18.5,8T49,318q0,25 21,43q116,98 154.5,148.5T263,606q0,77-82,77q-43,0-96-22q-9-4-18,1.5T58,678q0,30 27,40q54,18 103,18q66,0 101.5-33T325,611q0-55-40.5-111.5T133,346q-1-1-1-2H304q10,0 18-8t8-18t-8-18t-18-8H75Z" />
      <glyph unicode="&#xb3;" glyph-name="uni00B3" horiz-adv-x="380" d="M76,678q-10,0-18,8t-8,18t8,18t18,8H295q11,0 18.5-8t7.5-18q0-26-19-43L182,550l-1-1h1h12q64,0 98.5-32T327,426q0-140-157-140q-45,0-89,14q-26,8-26,38q0,10 8.5,15T81,354q45-17 84-17q102,0 102,88q0,38-24.5,59T147,505H131q-9,0-15.5,6.5T109,527q0,21 16,37L245,677v1H76Z" />
      <glyph unicode="&#xb4;" glyph-name="acute" horiz-adv-x="225" d="M65,590q-12,0-17.5,10.5T49,621l64,94q29,42 79,42q15,0 21-14t-3-25l-83-99q-25-29-62-29Z" />
      <glyph unicode="&#xb5;" glyph-name="mu" horiz-adv-x="565" d="M136.5-209.5Q126-220 111-220T85.5-209.5T75-184V484q0,15 10.5,25.5T111,520t25.5-10.5T147,484V197q0-80 26.5-112T263,53q60,0 107,54.5T417,237V483q0,15 10.5,26T453,520t26-11t11-26V35q0-14-10.5-24.5T455,0T430.5,10.5T420,35l-1,57q0,1-1,1q-2,0-2-2q-27-47-71-74T251-10q-66,0-99,34q-2,2-3.5,1T147,22V-184q0-15-10.5-25.5Z" />
      <glyph unicode="&#xb6;" glyph-name="paragraph" horiz-adv-x="630" d="M256,270q-92,4-156.5,70.5T35,500q0,95 67.5,162.5T265,730H489q23,0 39.5-17T545,673V-105q0-14-10.5-24.5T510-140t-24.5,10.5T475-105V658q0,9-8,9H344q-9,0-9-9V-105q0-14-10.5-24.5T300-140t-24.5,10.5T265-105V262q0,8-9,8Z" />
      <glyph unicode="&#xb7;" glyph-name="periodcentered" horiz-adv-x="284" d="M175.5,234Q162,220 142,220t-33.5,14T95,267v46q0,19 13.5,33T142,360t33.5-14T189,313V267q0-19-13.5-33Z" />
      <glyph unicode="&#xb8;" glyph-name="cedilla" horiz-adv-x="410" d="M81-209q-14,4-22.5,15.5T50-167q0,11 9.5,17T80-148q36-12 73-12q110,0 110,76q0,30-18,57q-5,8-1,17.5T258,0q39,0 57-30q20-34 20-72q0-52-42.5-85T160-220q-38,0-79,11Z" />
      <glyph unicode="&#xb9;" glyph-name="uni00B9" horiz-adv-x="380" d="M81,586q-8-7-18-2.5T53,599q0,34 28,57l67,54q25,20 57,20q13,0 22.5-9t9.5-23V324q0-14-9.5-23T205,292t-22.5,9T173,324V659v1l-1-1L81,586Z" />
      <glyph unicode="&#xba;" glyph-name="ordmasculine" horiz-adv-x="630" d="M115,203q-11,0-18,7t-7,17q0,11 7,18t18,7H515q11,0 18-7t7-18q0-10-7-17t-18-7H115ZM315,357q127,0 127,167T315,691T188,524T315,357Zm-140.5,7.5Q124,421 124,524t50.5,159.5T315,740t140.5-56.5T506,524T455.5,364.5T315,308T174.5,364.5Z" />
      <glyph unicode="&#xbb;" glyph-name="guillemotright" horiz-adv-x="720" d="M338,339q23-18 23-49t-23-49L123,72q-8-7-18-2T95,86q0,36 28,58L311,288q1,0 1,2l-1,2L123,436q-28,22-28,58q0,11 10,16t18-2L338,339Zm79-195L605,288v2v2L417,436q-29,23-29,58q0,11 10,16t18-2L631,339q24-19 24-49t-24-49L416,72q-8-7-18-2T388,86q0,35 29,58Z" />
      <glyph unicode="&#xbc;" glyph-name="onequarter" horiz-adv-x="820" d="M655,156V359v1l-1-1L502,149v-1l1-1H647q8,0 8,9Zm68-9h38q11,0 18-7.5t7-17.5t-7-17.5T761,97H723q-9,0-9-9V30q0-12-8.5-21T685,0T664,9t-9,21V88q0,9-8,9H470q-10,0-17.5,7.5T445,122q0,28 14,46L638,414q18,24 47,24q12,0 20.5-9t8.5-21V156q0-9 9-9ZM676,730q11,0 17-10t-1-20L236,30Q214,0 180,0q-11,0-17,10t1,20L620,700q22,30 56,30ZM65,586q-8-7-17.5-2.5T38,599q0,35 27,57l67,54q25,20 58,20q14,0 23-9t9-23V324q0-14-9-23t-23-9t-23.5,9.5T157,324V659v1l-1-1L65,586Z" />
      <glyph unicode="&#xbd;" glyph-name="onehalf" horiz-adv-x="820" d="M776,319q0-55-40.5-111T583,54q-1-1-1-2h1H754q10,0 18-8t8-18T772,8T754,0H525q-11,0-18.5,8T499,26q0,25 21,43q116,98 154.5,148.5T713,314q0,77-82,77q-43,0-96-22q-9-4-18,1.5T508,386q0,30 27,40q54,18 103,18q66,0 102-33t36-92ZM639,730q11,0 17-10t-1-20L199,30Q177,0 143,0q-11,0-17,10t1,20L583,700q22,30 56,30ZM65,586q-8-7-17.5-2.5T38,599q0,35 27,57l67,54q25,20 58,20q14,0 23-9t9-23V324q0-14-9-23t-23-9t-23.5,9.5T157,324V659v1l-1-1L65,586Z" />
      <glyph unicode="&#xbe;" glyph-name="threequarters" horiz-adv-x="820" d="M655,156V359v1l-1-1L502,149v-1l1-1H647q8,0 8,9Zm68-9h38q11,0 18-7.5t7-17.5t-7-17.5T761,97H723q-9,0-9-9V30q0-12-8.5-21T685,0T664,9t-9,21V88q0,9-8,9H470q-10,0-17.5,7.5T445,122q0,28 14,46L638,414q18,24 47,24q12,0 20.5-9t8.5-21V156q0-9 9-9ZM684,730q11,0 17-10t-1-20L244,30Q222,0 188,0q-11,0-17,10t1,20L628,700q22,30 56,30ZM74,678q-10,0-18,8t-8,18t8,18t18,8H294q10,0 18-8t8-18q0-25-20-43L180,550l-1-1h1h13q64,0 98.5-32T326,426q0-69-40.5-104.5T168,286q-44,0-88,14q-12,4-19.5,14.5T53,338q0,10 8.5,15T79,354q45-17 84-17q102,0 102,88q0,38-24.5,59T145,505H129q-9,0-15.5,6.5T107,527q0,21 16,37L243,677l1,1h-1H74Z" />
      <glyph unicode="&#xbf;" glyph-name="questiondown" horiz-adv-x="603" d="M311,477q0,18 13,30.5T355,520t30.5-12.5T398,477V440q0-18-12.5-30.5T355,397t-31,12.5T311,440v37Zm-3-707q-117,0-180,43.5T65-67q0,36 9.5,64T105,48.5T142,85t47,35q35,24 54.5,40.5t40,47T311,273q3,17 15.5,28.5T355,313q17,0 28-12t9-28q-7-45-31-83t-46.5-57T254,87q-36-26-54-40.5T165,3T148-60q0-102 170-102q92,0 184,26q14,4 25-4t11-21q0-17-9.5-29.5T503-207q-98-23-195-23Z" />
      <glyph unicode="&#xc0;" glyph-name="Agrave" horiz-adv-x="639" d="M199,285q-1-3 1-5.5t5-2.5H440q3,0 4.5,2.5T446,285L324,657q0,1-1,1q-2,0-2-1L199,285ZM64,0Q49,0 40,12.5T36,39L264,688q7,19 23.5,30.5T324,730t36.5-11.5T384,688L611,40q5-15-4-27.5T583,0q-20,0-35.5,11.5T526,41L473,205q-3,8-12,8H184q-8,0-11-8L118,40q-6-18-21-29T64,0ZM221,957q50,0 79-42l64-94q7-10 1.5-20.5T348,790q-38,0-62,29l-83,99q-10,11-3.5,25T221,957Z" />
      <glyph unicode="&#xc1;" glyph-name="Aacute" horiz-adv-x="639" d="M199,285q-1-3 1-5.5t5-2.5H440q3,0 4.5,2.5T446,285L324,657q0,1-1,1q-2,0-2-1L199,285ZM64,0Q49,0 40,12.5T36,39L264,688q7,19 23.5,30.5T324,730t36.5-11.5T384,688L611,40q5-15-4-27.5T583,0q-20,0-35.5,11.5T526,41L473,205q-3,8-12,8H184q-8,0-11-8L118,40q-6-18-21-29T64,0ZM348,915q29,42 79,42q15,0 21.5-14T445,918l-83-99q-24-29-62-29q-12,0-17.5,10.5T284,821l64,94Z" />
      <glyph unicode="&#xc2;" glyph-name="Acircumflex" horiz-adv-x="639" d="M199,285q-1-3 1-5.5t5-2.5H440q3,0 4.5,2.5T446,285L324,657q0,1-1,1q-2,0-2-1L199,285ZM64,0Q49,0 40,12.5T36,39L264,688q7,19 23.5,30.5T324,730t36.5-11.5T384,688L611,40q5-15-4-27.5T583,0q-20,0-35.5,11.5T526,41L473,205q-3,8-12,8H184q-8,0-11-8L118,40q-6-18-21-29T64,0ZM234,914q35,43 90,43t90-43l73-89q8-11 2-23t-19-12q-46,0-72,36l-72,95q0,1-2,1l-2-1l-71-95q-27-36-73-36q-14,0-20,12t3,23l73,89Z" />
      <glyph unicode="&#xc3;" glyph-name="Atilde" horiz-adv-x="639" d="M199,285q-1-3 1-5.5t5-2.5H440q3,0 4.5,2.5T446,285L324,657q0,1-1,1q-2,0-2-1L199,285ZM64,0Q49,0 40,12.5T36,39L264,688q7,19 23.5,30.5T324,730t36.5-11.5T384,688L611,40q5-15-4-27.5T583,0q-20,0-35.5,11.5T526,41L473,205q-3,8-12,8H184q-8,0-11-8L118,40q-6-18-21-29T64,0ZM444,899q1,13 10.5,22t22.5,9t22.5-9.5T508,898q-10-98-81-98q-45,0-114,46q-54,36-77,36q-28,0-32-50q-2-13-11-22.5T171,800t-22.5,9T140,831q8,109 81,109q45,0 113-45q55-37 78-37q26,0 32,41Z" />
      <glyph unicode="&#xc4;" glyph-name="Adieresis" horiz-adv-x="639" d="M199,285q-1-3 1-5.5t5-2.5H440q3,0 4.5,2.5T446,285L324,657q0,1-1,1q-2,0-2-1L199,285ZM64,0Q49,0 40,12.5T36,39L264,688q7,19 23.5,30.5T324,730t36.5-11.5T384,688L611,40q5-15-4-27.5T583,0q-20,0-35.5,11.5T526,41L473,205q-3,8-12,8H184q-8,0-11-8L118,39q-6-18-20.5-28.5T64,0ZM387,900q0,15 11,26t26,11t26-11t11-26V847q0-15-11-26t-26-11t-26,11t-11,26v53Zm-200,0q0,15 11,26t26,11t26-11t11-26V847q0-15-11-26t-26-11t-26,11t-11,26v53Z" />
      <glyph unicode="&#xc5;" glyph-name="Aring" horiz-adv-x="639" d="M199,285q-1-3 1-5.5t5-2.5H440q3,0 4.5,2.5T446,285L324,657q0,1-1,1q-2,0-2-1L199,285ZM64,0Q49,0 40,12.5T36,39L264,688q7,19 23.5,30.5T324,730t36.5-11.5T384,688L611,40q5-15-4-27.5T583,0q-20,0-35.5,11.5T526,41L473,205q-3,8-12,8H184q-8,0-11-8L118,39q-6-18-20.5-28.5T64,0ZM378,835.5Q401,858 401,890t-23,54.5T323.5,967t-54-22.5T247,890t22.5-54.5t54-22.5T378,835.5ZM237,803q-36,36-36,87t36,87t87,36t87-36t36-87t-36-87t-87-36t-87,36Z" />
      <glyph unicode="&#xc6;" glyph-name="AE" horiz-adv-x="796" d="M200,285q-1-3 1-5.5t5-2.5H360q9,0 9,8V655q0,8-9,8H339q-8,0-11-8L200,285ZM62,0Q47,0 39,12T36,37L269,677q9,24 29.5,38.5T345,730H692q13,0 23-10t10-23.5T715,673t-23-10H454q-9,0-9-8V433q0-8 9-8H673q13,0 22.5-9.5T705,393t-9.5-22.5T673,361H454q-9,0-9-9V75q0-8 9-8H692q13,0 23-10t10-23.5T715,10T692,0H425q-23,0-39.5,17T369,57V204q0,9-9,9H184q-9,0-12-8L115,38q-6-17-20.5-27.5T62,0Z" />
      <glyph unicode="&#xc7;" glyph-name="Ccedilla" horiz-adv-x="613" d="M331-9Q199,0 119.5,98T40,365q0,177 83.5,276T355,740q78,0 139-15q15-4 24.5-17t9.5-29q0-13-10.5-20.5T494,655q-59,18-132,18q-113,0-177-81T121,365q0-145 66.5-226.5T365,57q74,0 134,18q13,4 23.5-3.5T533,51q0-16-9.5-28.5T499,6Q453-5 417-8q-8,0-3-8q29-41 29-86q0-52-42.5-85T268-220q-38,0-79,11q-14,4-22.5,15.5T158-167q0,11 9.5,17t20.5,2q36-12 73-12q110,0 110,76q0,36-26,68q-5,7-14,7Z" />
      <glyph unicode="&#xc8;" glyph-name="Egrave" horiz-adv-x="587" d="M227,957q50,0 79-42l64-94q7-10 1.5-20.5T354,790q-38,0-62,29l-83,99q-10,11-3.5,25T227,957ZM142,0q-23,0-40,17T85,57V673q0,23 17,40t40,17H478q14,0 24-10t10-23t-10-23.5T478,663H174q-9,0-9-8V433q0-8 9-8H460q14,0 23-9.5t9-22.5t-9-22.5T460,361H174q-9,0-9-9V75q0-8 9-8H478q14,0 24-10.5T512,33T502,10T478,0H142Z" />
      <glyph unicode="&#xc9;" glyph-name="Eacute" horiz-adv-x="587" d="M294,915q29,42 79,42q15,0 21.5-14T391,918l-83-99q-24-29-62-29q-12,0-17.5,10.5T230,821l64,94ZM142,0q-23,0-40,17T85,57V673q0,23 17,40t40,17H478q14,0 24-10t10-23t-10-23.5T478,663H174q-9,0-9-8V433q0-8 9-8H460q14,0 23-9.5t9-22.5t-9-22.5T460,361H174q-9,0-9-9V75q0-8 9-8H478q14,0 24-10.5T512,33T502,10T478,0H142Z" />
      <glyph unicode="&#xca;" glyph-name="Ecircumflex" horiz-adv-x="587" d="M210,914q35,43 90,43t90-43l73-89q8-11 2-23t-19-12q-45,0-72,36l-72,95q0,1-2,1l-2-1l-71-95q-27-36-73-36q-14,0-20,12t3,23l73,89ZM142,0q-23,0-40,17T85,57V673q0,23 17,40t40,17H478q14,0 24-10t10-23t-10-23.5T478,663H174q-9,0-9-8V433q0-8 9-8H460q14,0 23-9.5t9-22.5t-9-22.5T460,361H174q-9,0-9-9V75q0-8 9-8H478q14,0 24-10.5T512,33T502,10T478,0H142Z" />
      <glyph unicode="&#xcb;" glyph-name="Edieresis" horiz-adv-x="587" d="M363,900q0,15 11,26t26,11t26-11t11-26V847q0-15-11-26t-26-11t-26,11t-11,26v53Zm-200,0q0,15 11,26t26,11t26-11t11-26V847q0-15-11-26t-26-11t-26,11t-11,26v53ZM142,0q-23,0-40,17T85,57V673q0,23 17,40t40,17H478q14,0 24-10t10-23t-10-23.5T478,663H174q-9,0-9-8V433q0-8 9-8H460q14,0 23-9.5t9-22.5t-9-22.5T460,361H174q-9,0-9-9V75q0-8 9-8H478q14,0 24-10.5T512,33T502,10T478,0H142Z" />
      <glyph unicode="&#xcc;" glyph-name="Igrave" horiz-adv-x="290" d="M83,819L0,918q-10,11-3.5,25T18,957q51,0 80-42l63-94q6-10 1-20.5T145,790q-38,0-62,29ZM96,687q0,18 12.5,30.5T139,730t30.5-12.5T182,687V43q0-18-12.5-30.5T139,0T108.5,12.5T96,43V687Z" />
      <glyph unicode="&#xcd;" glyph-name="Iacute" horiz-adv-x="290" d="M199,915q29,42 80,42q15,0 21.5-14T297,918l-83-99q-24-29-62-29q-12,0-17.5,10.5T136,821l63,94ZM188.5,12.5Q176,0 158,0T127.5,12.5T115,43V687q0,18 12.5,30.5T158,730t30.5-12.5T201,687V43q0-18-12.5-30.5Z" />
      <glyph unicode="&#xce;" glyph-name="Icircumflex" horiz-adv-x="267" d="M-5,790q-14,0-20,12t3,23l73,89q35,43 90,43t90-43l73-89q8-11 2-23t-19-12q-47,0-73,36l-71,95q-1,1-2,1l-2-1L67,826Q40,790-5,790ZM98,687q0,18 12.5,30.5T141,730t30.5-12.5T184,687V43q0-18-12.5-30.5T141,0T110.5,12.5T98,43V687Z" />
      <glyph unicode="&#xcf;" glyph-name="Idieresis" horiz-adv-x="318" d="M285,821q-11-11-26-11t-26,11t-11,26v53q0,15 11,26t26,11t26-11t11-26V847q0-15-11-26ZM85,821q-11-11-26-11T33,821T22,847v53q0,15 11,26t26,11t26-11t11-26V847q0-15-11-26ZM189.5,12.5Q177,0 159,0T128.5,12.5T116,43V687q0,18 12.5,30.5T159,730t30.5-12.5T202,687V43q0-18-12.5-30.5Z" />
      <glyph unicode="&#xd0;" glyph-name="Eth" horiz-adv-x="725" d="M232,340V74q0-8 9-10q39-7 88-7q145,0 212.5,75T609,375q0,153-68.5,225.5T329,673q-49,0-88-7q-9-2-9-10V422q0-9 9-9H383q13,0 22.5-9.5T415,381t-9.5-22.5T383,349H241q-9,0-9-9ZM67,349q-13,0-22.5,9.5T35,381t9.5,22.5T67,413h76q9,0 9,9V668q0,25 15.5,43.5T208,733q55,7 121,7q356,0 356-365Q685-10 329-10q-66,0-121,7q-24,3-40,21.5T152,62V340q0,9-9,9H67Z" />
      <glyph unicode="&#xd1;" glyph-name="Ntilde" horiz-adv-x="686" d="M151.5,11Q140,0 124,0T96.5,11T85,39V689q0,17 12,29t29,12q42,0 63-36L520,131q0-1 2-1q1,0 1,2V691q0,17 11.5,28T562,730t27.5-11T601,691V41q0-17-12-29T560,0q-41,0-62,36L166,599q0,1-2,1q-1,0-1-1V39q0-17-11.5-28ZM474,921q9,9 22,9t22.5-9.5T527,898q-9-98-81-98q-45,0-114,46q-53,36-77,36q-27,0-32-50q-2-13-11-22.5T190,800t-22.5,9T159,831q8,109 81,109q46,0 113-45q55-37 78-37q27,0 32,41q2,13 11,22Z" />
      <glyph unicode="&#xd2;" glyph-name="Ograve" horiz-adv-x="714" d="M531.5,595Q471,673 357,673T182.5,595T122,365t60.5-230T357,57t174.5,78T592,365T531.5,595Zm58-506.5Q505-10 357-10T124.5,88.5T40,365t84.5,276.5T357,740t232.5-98.5T674,365T589.5,88.5ZM254,957q50,0 79-42l64-94q7-10 1.5-20.5T381,790q-38,0-62,29l-83,99q-10,11-3.5,25T254,957Z" />
      <glyph unicode="&#xd3;" glyph-name="Oacute" horiz-adv-x="714" d="M531.5,595Q471,673 357,673T182.5,595T122,365t60.5-230T357,57t174.5,78T592,365T531.5,595Zm58-506.5Q505-10 357-10T124.5,88.5T40,365t84.5,276.5T357,740t232.5-98.5T674,365T589.5,88.5ZM381,915q29,42 79,42q15,0 21.5-14T478,918l-83-99q-24-29-62-29q-12,0-17.5,10.5T317,821l64,94Z" />
      <glyph unicode="&#xd4;" glyph-name="Ocircumflex" horiz-adv-x="714" d="M531.5,595Q471,673 357,673T182.5,595T122,365t60.5-230T357,57t174.5,78T592,365T531.5,595Zm58-506.5Q505-10 357-10T124.5,88.5T40,365t84.5,276.5T357,740t232.5-98.5T674,365T589.5,88.5ZM267,914q35,43 90,43t90-43l73-89q8-11 2-23t-19-12q-46,0-73,36l-71,95q0,1-2,1l-2-1l-71-95q-27-36-73-36q-13,0-19,12t2,23l73,89Z" />
      <glyph unicode="&#xd5;" glyph-name="Otilde" horiz-adv-x="714" d="M531.5,595Q471,673 357,673T182.5,595T122,365t60.5-230T357,57t174.5,78T592,365T531.5,595Zm58-506.5Q505-10 357-10T124.5,88.5T40,365t84.5,276.5T357,740t232.5-98.5T674,365T589.5,88.5ZM477,899q2,13 11,22t22,9t22.5-9.5T541,898q-9-98-81-98q-45,0-114,46q-53,36-77,36q-27,0-32-50q-2-13-11-22.5T204,800t-22.5,9T173,831q8,109 81,109q46,0 113-45q55-37 78-37q27,0 32,41Z" />
      <glyph unicode="&#xd6;" glyph-name="Odieresis" horiz-adv-x="714" d="M531.5,595Q471,673 357,673T182.5,595T122,365t60.5-230T357,57t174.5,78T592,365T531.5,595Zm58-506.5Q505-10 357-10T124.5,88.5T40,365t84.5,276.5T357,740t232.5-98.5T674,365T589.5,88.5ZM420,900q0,15 11,26t26,11t26-11t11-26V847q0-15-11-26t-26-11t-26,11t-11,26v53Zm-200,0q0,15 11,26t26,11t26-11t11-26V847q0-15-11-26t-26-11t-26,11t-11,26v53Z" />
      <glyph unicode="&#xd7;" glyph-name="multiply" horiz-adv-x="577" d="M56,106L232,284q6,6 0,12L56,474q-11,10-11,24t10.5,25T80,534t24-11L282,346q6-6 12,0L472,523q11,11 25,11t24.5-11T532,498t-10-24L344,296q-6-6 0-12L522,106q10-10 10-24T521.5,57T497,46T472,57L294,234q-6,6-12,0L104,57Q94,46 80,46T55.5,57T45,82t11,24Z" />
      <glyph unicode="&#xd8;" glyph-name="Oslash" horiz-adv-x="724" d="M362,673q-114,0-174.5-78T127,365q0-135 48-212q1-2 5-2t5,2L489,629q4,8-2,11q-51,33-125,33Zm177-96L235,101q-4-8 2-11q51-33 125-33q114,0 174.5,78T597,365q0,135-48,212q-1,2-5,2t-5-2ZM133,73q4,6-1,13Q45,185 45,365q0,178 84.5,276.5T362,740q93,0 163-41q8-4 11,3l18,28q8,12 22,15t26-5t15-22.5T612,691l-21-34q-4-6 1-13q87-99 87-279q0-178-84.5-276.5T362-10q-93,0-163,41q-8,4-11-3L170,0q-8-12-22-15t-26,5T107,12.5T112,39l21,34Z" />
      <glyph unicode="&#xd9;" glyph-name="Ugrave" horiz-adv-x="656" d="M516,55.5Q451-10 328-10T140,55.5T75,250V689q0,17 12,29t28,12q17,0 29-12t12-29V247q0-97 42.5-143T329,58t131,46t43,143V691q0,17 11.5,28T542,730t27.5-11T581,691V250q0-129-65-194.5ZM255,957q50,0 79-42l64-94q7-10 1.5-20.5T382,790q-38,0-62,29l-83,99q-10,11-3.5,25T255,957Z" />
      <glyph unicode="&#xda;" glyph-name="Uacute" horiz-adv-x="656" d="M516,55.5Q451-10 328-10T140,55.5T75,250V689q0,17 12,29t28,12q17,0 29-12t12-29V247q0-97 42.5-143T329,58t131,46t43,143V691q0,17 11.5,28T542,730t27.5-11T581,691V250q0-129-65-194.5ZM322,915q29,42 79,42q15,0 21.5-14T419,918l-83-99q-24-29-62-29q-12,0-17.5,10.5T258,821l64,94Z" />
      <glyph unicode="&#xdb;" glyph-name="Ucircumflex" horiz-adv-x="656" d="M516,55.5Q451-10 328-10T140,55.5T75,250V689q0,17 12,29t28,12q17,0 29-12t12-29V247q0-97 42.5-143T329,58t131,46t43,143V691q0,17 11.5,28T542,730t27.5-11T581,691V250q0-129-65-194.5ZM238,914q35,43 90,43t90-43l73-89q8-11 2-23t-19-12q-46,0-73,36l-71,95q-1,1-2,1l-2-1l-71-95q-27-36-73-36q-14,0-20,12t3,23l73,89Z" />
      <glyph unicode="&#xdc;" glyph-name="Udieresis" horiz-adv-x="656" d="M516,55.5Q451-10 328-10T140,55.5T75,250V689q0,17 12,29t28,12q17,0 29-12t12-29V247q0-97 42.5-143T329,58t131,46t43,143V691q0,17 11.5,28T542,730t27.5-11T581,691V250q0-129-65-194.5ZM391,900q0,15 11,26t26,11t26-11t11-26V847q0-15-11-26t-26-11t-26,11t-11,26v53Zm-200,0q0,15 11,26t26,11t26-11t11-26V847q0-15-11-26t-26-11t-26,11t-11,26v53Z" />
      <glyph unicode="&#xdd;" glyph-name="Yacute" horiz-adv-x="610" d="M266,316L41,690q-8,14-0.5,27T64,730q47,0 70-41L312,377q0-1 1-1q2,0 2,1L493,690q22,40 68,40q15,0 22.5-13T583,691L358,316q-4-7-4-16V42q0-17-12.5-29.5T312,0T282.5,12.5T270,42V300q0,9-4,16Zm40,599q29,42 79,42q15,0 21.5-14T403,918l-83-99q-24-29-62-29q-12,0-17.5,10.5T242,821l64,94Z" />
      <glyph unicode="&#xde;" glyph-name="Thorn" horiz-adv-x="610" d="M165,537V243q0-8 9-10q48-7 108-7q99,0 151.5,43T486,392T434.5,513.5T282,555q-54,0-108-8q-9-2-9-10ZM153.5,12Q142,0 125,0T96.5,12T85,40V690q0,16 11.5,28T125,730t28.5-12T165,690V622q0-8 8-8q57,6 115,6q136,0 206.5-57.5T565,398q0-116-71-176T288,162q-54,0-114,5q-9,0-9-7V40q0-16-11.5-28Z" />
      <glyph unicode="&#xdf;" glyph-name="germandbls" horiz-adv-x="594" d="M148,12Q136,0 120,0T92,12T80,40V543q0,116 50.5,166.5T300,760q105,0 159.5-35.5T514,623q0-33-17.5-70t-39-63t-39-50.5T401,405q0-11 24-37t52.5-55T530,240.5T554,155Q554-10 364-10Q315-10 258,2q-16,3-25.5,15.5T223,46q0,13 11,21t24,5q54-14 96-14q120,0 120,109q0,30-24,66.5T396.5,298T343,356t-24,49q0,20 30,56.5t60,79T439,617q0,78-135,78q-83,0-113.5-31.5T160,545V40q0-16-12-28Z" />
      <glyph unicode="&#xe0;" glyph-name="agrave" horiz-adv-x="534" d="M204-10Q136-10 93,33T50,147q0,83 66,133t211,50h32q11,0 19.5-8.5T387,302v55q0,61-28,85.5T260,467q-69,0-149-26q-12-4-22,3T79,464q0,35 33,45q74,21 148,21q115,0 159.5-42T464,337V36q0-15-10.5-25.5T428,0T402,10.5T391,36l-1,52q0,1-1,1q-2,0-2-2Q328-10 204-10ZM164,757q50,0 79-42l64-94q7-10 1.5-20.5T291,590q-38,0-62,29l-83,99q-10,11-3.5,25T164,757ZM387,302q0-11-8.5-19T359,275H327q-99,0-149.5-32T127,153q0-45 25.5-72.5T220,53q72,0 119.5,48T387,228v74Z" />
      <glyph unicode="&#xe1;" glyph-name="aacute" horiz-adv-x="534" d="M204-10Q136-10 93,33T50,147q0,83 66,133t211,50h32q11,0 19.5-8.5T387,302v55q0,61-28,85.5T260,467q-69,0-149-26q-12-4-22,3T79,464q0,35 33,45q74,21 148,21q115,0 159.5-42T464,337V36q0-15-10.5-25.5T428,0T402,10.5T391,36l-1,52q0,1-1,1q-2,0-2-2Q328-10 204-10Zm87,725q29,42 79,42q15,0 21.5-14T388,718l-83-99q-24-29-62-29q-12,0-17.5,10.5T227,621l64,94Zm96-413q0-11-8.5-19T359,275H327q-99,0-149.5-32T127,153q0-45 25.5-72.5T220,53q72,0 119.5,48T387,228v74Z" />
      <glyph unicode="&#xe2;" glyph-name="acircumflex" horiz-adv-x="534" d="M204-10Q136-10 93,33T50,147q0,83 66,133t211,50h32q11,0 19.5-8.5T387,302v55q0,61-28,85.5T260,467q-69,0-149-26q-12-4-22,3T79,464q0,35 33,45q74,21 148,21q115,0 159.5-42T464,337V36q0-15-10.5-25.5T428,0T402,10.5T391,36l-1,52q0,1-1,1q-2,0-2-2Q328-10 204-10ZM177,714q35,43 90,43t90-43l73-89q8-11 2-23t-19-12q-45,0-72,36l-72,95q0,1-2,1l-2-1l-71-95q-27-36-73-36q-14,0-20,12t3,23l73,89ZM387,302q0-11-8.5-19T359,275H327q-99,0-149.5-32T127,153q0-45 25.5-72.5T220,53q72,0 119.5,48T387,228v74Z" />
      <glyph unicode="&#xe3;" glyph-name="atilde" horiz-adv-x="534" d="M327,275q-99,0-149.5-32T127,153q0-45 25.5-72.5T220,53q72,0 119.5,48T387,228v38q0,9-9,9H327ZM204-10Q136-10 93,33T50,147q0,83 66,133t211,50h51q9,0 9,8v19q0,61-28,85.5T260,467q-69,0-149-26q-12-4-22,3T79,464q0,35 33,45q74,21 148,21q115,0 159.5-42T464,337V36q0-15-10.5-25.5T428,0T402,10.5T391,36l-1,52q0,1-1,1q-2,0-2-2Q328-10 204-10ZM398,711q9,9 22,9t22.5-9.5T451,688q-9-98-81-98q-45,0-114,46q-53,36-77,36q-27,0-32-50q-2-13-11-22.5T114,590t-22.5,9T83,621q8,109 81,109q46,0 113-45q55-37 78-37q27,0 32,41q2,13 11,22Z" />
      <glyph unicode="&#xe4;" glyph-name="adieresis" horiz-adv-x="534" d="M327,275q-99,0-149.5-32T127,153q0-45 25.5-72.5T220,53q72,0 119.5,48T387,228v38q0,9-9,9H327ZM204-10Q136-10 93,33T50,147q0,83 66,133t211,50h51q9,0 9,8v19q0,61-28,85.5T260,467q-69,0-149-26q-12-4-22,3T79,464q0,35 33,45q74,21 148,21q115,0 159.5-42T464,337V36q0-15-10.5-25.5T428,0T402,10.5T391,36l-1,52q0,1-1,1q-2,0-2-2Q328-10 204-10ZM341,726q11,11 26,11t26-11t11-26V647q0-15-11-26t-26-11t-26,11t-11,26v53q0,15 11,26ZM130,700q0,15 11,26t26,11t26-11t11-26V647q0-15-11-26t-26-11t-26,11t-11,26v53Z" />
      <glyph unicode="&#xe5;" glyph-name="aring" horiz-adv-x="534" d="M327,275q-99,0-149.5-32T127,153q0-45 25.5-72.5T220,53q72,0 119.5,48T387,228v38q0,9-9,9H327ZM204-10Q136-10 93,33T50,147q0,83 66,133t211,50h51q9,0 9,8v19q0,61-28,85.5T260,467q-69,0-149-26q-12-4-22,3T79,464q0,35 33,45q74,21 148,21q115,0 159.5-42T464,337V36q0-15-10.5-25.5T428,0T402,10.5T391,36l-1,52q0,1-1,1q-2,0-2-2Q328-10 204-10Zm9,635.5Q236,603 267,603t54,22.5T344,680t-23,54.5T267,757t-54-22.5T190,680t23-54.5ZM180,767q36,36 87,36t87-36t36-87t-36-87t-87-36t-87,36t-36,87t36,87Z" />
      <glyph unicode="&#xe6;" glyph-name="ae" horiz-adv-x="864" d="M327,275q-99,0-149.5-32T127,153q0-47 28.5-73.5T233,53q65,0 109.5,47.5T387,223v43q0,9-9,9H327ZM612,472q-134,0-147-167q0-8 8-8H736q9,0 9,8q-6,167-133,167ZM223-10Q142-10 96,32T50,147q0,83 66,133t211,50h51q9,0 9,9v21q0,61-28,85.5T260,470T109,444q-11-4-21,3T78,466q0,15 8.5,26.5T109,508q79,22 151,22t114.5-15.5T438,464q4-5 9,0q57,66 165,66q195,0 207-235q1-24-16-40.5T762,238H472q-8,0-8-9q5-91 50-136T637,48q57,0 117,21q11,4 21-2.5T785,48q0-15-9-26.5T753,6Q689-10 630-10Q487-10 427,91q-4,6-8,0Q357-10 223-10Z" />
      <glyph unicode="&#xe7;" glyph-name="ccedilla" horiz-adv-x="493" d="M261-9Q155-2 97.5,66T40,260q0,132 61.5,201T275,530q52,0 110-11q14-3 23.5-14.5T418,478q0-12-10.5-19T385,455q-51,13-105,13q-160,0-160-208q0-108 42-158T290,52q56,0 102,15q11,4 21-3t10-19q0-15-9-26.5T391,3q-23-6-45-9q-7-2-3-8q30-41 30-88q0-52-42.5-85T198-220q-38,0-79,11q-14,4-22.5,15.5T88-167q0,11 9.5,17t20.5,2q36-12 73-12q110,0 110,76q0,36-26,68q-5,7-14,7Z" />
      <glyph unicode="&#xe8;" glyph-name="egrave" horiz-adv-x="524" d="M270,472q-139,0-152-165q0-8 9-8H396q8,0 8,8q-6,165-134,165ZM291-10Q168-10 104,57.5T40,260q0,139 61.5,204.5T270,530q197,0 209-233q1-24-16.5-40.5T421,240H125q-8,0-8-9Q126,48 298,48q57,0 117,21q11,4 21-2.5T446,48q0-34-31-42Q351-10 291-10ZM195,757q50,0 79-42l64-94q7-10 1.5-20.5T322,590q-38,0-62,29l-83,99q-10,11-3.5,25T195,757Z" />
      <glyph unicode="&#xe9;" glyph-name="eacute" horiz-adv-x="524" d="M270,472q-139,0-152-165q0-8 9-8H396q8,0 8,8q-6,165-134,165ZM291-10Q168-10 104,57.5T40,260q0,139 61.5,204.5T270,530q197,0 209-233q1-24-16.5-40.5T421,240H125q-8,0-8-9Q126,48 298,48q57,0 117,21q11,4 21-2.5T446,48q0-34-31-42Q351-10 291-10ZM262,715q29,42 79,42q15,0 21.5-14T359,718l-83-99q-24-29-62-29q-12,0-17.5,10.5T198,621l64,94Z" />
      <glyph unicode="&#xea;" glyph-name="ecircumflex" horiz-adv-x="524" d="M270,472q-139,0-152-165q0-8 9-8H396q8,0 8,8q-6,165-134,165ZM291-10Q168-10 104,57.5T40,260q0,139 61.5,204.5T270,530q197,0 209-233q1-24-16.5-40.5T421,240H125q-8,0-8-9Q126,48 298,48q57,0 117,21q11,4 21-2.5T446,48q0-34-31-42Q351-10 291-10ZM178,714q35,43 90,43t90-43l73-89q8-11 2-23t-19-12q-45,0-72,36l-72,95q0,1-2,1l-2-1l-71-95q-27-36-73-36q-14,0-20,12t3,23l73,89Z" />
      <glyph unicode="&#xeb;" glyph-name="edieresis" horiz-adv-x="524" d="M270,472q-139,0-152-165q0-8 9-8H396q8,0 8,8q-6,165-134,165ZM291-10Q168-10 104,57.5T40,260q0,139 61.5,204.5T270,530q197,0 209-233q1-24-16.5-40.5T421,240H125q-8,0-8-9Q126,48 298,48q57,0 117,21q11,4 21-2.5T446,48q0-34-31-42Q351-10 291-10Zm40,710q0,15 11,26t26,11t26-11t11-26V647q0-15-11-26t-26-11t-26,11t-11,26v53Zm-200,0q0,15 11,26t26,11t26-11t11-26V647q0-15-11-26t-26-11t-26,11t-11,26v53Z" />
      <glyph unicode="&#xec;" glyph-name="igrave" horiz-adv-x="293" d="M85,619L1,718q-10,11-3.5,25T19,757q51,0 80-42l64-94q6-10 0.5-20.5T146,590q-37,0-61,29Zm20-139q0,16 11.5,28t28,12T173,508t12-28V40q0-16-12-28T144.5,0t-28,12T105,40V480Z" />
      <glyph unicode="&#xed;" glyph-name="iacute" horiz-adv-x="293" d="M201,715q29,42 80,42q15,0 21.5-14T299,718l-84-99q-24-29-61-29q-12,0-18,10.5t1,20.5l64,94ZM183.5,12Q172,0 155,0T126.5,12T115,40V480q0,16 11.5,28T155,520t28.5-12T195,480V40q0-16-11.5-28Z" />
      <glyph unicode="&#xee;" glyph-name="icircumflex" horiz-adv-x="259" d="M-9,590q-14,0-20,12t3,23l73,89q35,43 90,43t90-43l73-89q8-11 2-23t-19-12q-47,0-73,36l-71,95q-1,1-2,1l-2-1L63,626Q36,590-9,590ZM97,480q0,16 11.5,28t28,12T165,508t12-28V40q0-16-12-28T136.5,0t-28,12T97,40V480Z" />
      <glyph unicode="&#xef;" glyph-name="idieresis" horiz-adv-x="308" d="M280,621q-11-11-26-11t-26,11t-11,26v53q0,15 11,26t26,11t26-11t11-26V647q0-15-11-26ZM80,621q-11-11-26-11T28,621T17,647v53q0,15 11,26t26,11t26-11t11-26V647q0-15-11-26ZM182,12Q170,0 154,0T126,12T114,40V480q0,16 12,28t28,12t28-12t12-28V40q0-16-12-28Z" />
      <glyph unicode="&#xf0;" glyph-name="eth" horiz-adv-x="560" d="M280,50q72,0 116,55t44,155q0,98-42.5,152.5T280,467T162.5,412.5T120,260t46-154T280,50ZM390,639q-8-4-2-10Q515,500 515,260q0-125-64.5-197.5T280-10Q177-10 111,63T45,260q0,119 64,191t171,72q71,0 120-44h1q1,0 1,1q-26,73-80,121q-7,5-15,2L156,538q-10-5-20.5-0.5T121,552q-10,24 15,35l119,52q2,1 2,3.5t-2,3.5q-45,22-99,30q-13,2-22,11.5T125,710q0,12 9,20.5t21,7.5q99-12 173-60q6-5 15-1l110,47q10,5 20.5,0.5T488,710q10-24-14-35l-84-36Z" />
      <glyph unicode="&#xf1;" glyph-name="ntilde" horiz-adv-x="565" d="M140.5,11Q129,0 113,0T86,11T75,38V484q0,15 10.5,25.5T111,520t26-10.5T148,484V443q0-1 1-1t2,1q72,87 171,87q91,0 132-51t41-169V38q0-16-10.5-27T458,0T431,11T420,38V300q0,99-27,134.5T302,470q-52,0-101-48.5T152,322V38q0-16-11.5-27ZM411,711q9,9 22,9t22.5-9.5T464,688q-9-98-81-98q-45,0-114,46q-53,36-77,36q-27,0-32-50q-2-13-11-22.5T127,590t-22.5,9T96,621q8,109 81,109q45,0 113-45q56-37 78-37q27,0 32,41q2,13 11,22Z" />
      <glyph unicode="&#xf2;" glyph-name="ograve" horiz-adv-x="556" d="M438,260q0,210-160,210T118,260T278,50T438,260ZM453,61Q390-10 278-10T103,61T40,260t63,199t175,71t175-71t63-199T453,61ZM175,757q50,0 79-42l64-94q7-10 1.5-20.5T302,590q-38,0-62,29l-83,99q-10,11-3.5,25T175,757Z" />
      <glyph unicode="&#xf3;" glyph-name="oacute" horiz-adv-x="556" d="M438,260q0,210-160,210T118,260T278,50T438,260ZM453,61Q390-10 278-10T103,61T40,260t63,199t175,71t175-71t63-199T453,61ZM302,715q29,42 79,42q15,0 21.5-14T399,718l-83-99q-24-29-62-29q-12,0-17.5,10.5T238,621l64,94Z" />
      <glyph unicode="&#xf4;" glyph-name="ocircumflex" horiz-adv-x="556" d="M438,260q0,210-160,210T118,260T278,50T438,260ZM453,61Q390-10 278-10T103,61T40,260t63,199t175,71t175-71t63-199T453,61ZM368,714l73-89q8-11 2-23t-19-12q-46,0-73,36l-71,95q0,1-2,1l-2-1l-71-95q-27-36-73-36q-14,0-20,12t3,23l73,89q35,43 90,43t90-43Z" />
      <glyph unicode="&#xf5;" glyph-name="otilde" horiz-adv-x="556" d="M438,260q0,210-160,210T118,260T278,50T438,260ZM453,61Q390-10 278-10T103,61T40,260t63,199t175,71t175-71t63-199T453,61ZM398,689q2,13 11,22t22,9t22.5-9.5T462,688q-9-98-81-98q-45,0-114,46q-53,36-77,36q-27,0-32-50q-2-13-11-22.5T125,590t-22.5,9T94,621q8,109 81,109q45,0 113-45q56-37 78-37q27,0 32,41Z" />
      <glyph unicode="&#xf6;" glyph-name="odieresis" horiz-adv-x="556" d="M438,260q0,210-160,210T118,260T278,50T438,260ZM453,61Q390-10 278-10T103,61T40,260t63,199t175,71t175-71t63-199T453,61ZM341,700q0,15 11,26t26,11t26-11t11-26V647q0-15-11-26t-26-11t-26,11t-11,26v53Zm-200,0q0,15 11,26t26,11t26-11t11-26V647q0-15-11-26t-26-11t-26,11t-11,26v53Z" />
      <glyph unicode="&#xf7;" glyph-name="divide" horiz-adv-x="734" d="M410,43q0-18-12.5-30.5T367,0T336.5,12.5T324,43V93q0,18 12.5,31T367,137t30.5-13T410,93V43ZM324,537q0,18 12.5,30.5T367,580t30.5-12.5T410,537V487q0-18-12.5-31T367,443t-30.5,13T324,487v50ZM112,258q-13,0-22.5,9.5T80,290t9.5,22.5T112,322H622q13,0 22.5-9.5T654,290t-9.5-22.5T622,258H112Z" />
      <glyph unicode="&#xf8;" glyph-name="oslash" horiz-adv-x="566" d="M283,470q-160,0-160-210q0-80 24-130q1-3 4.5-3t4.5,2L374,433q6,7-2,13q-36,24-89,24Zm136-80q-1,3-4.5,3t-4.5-2L192,87q-6-7 2-13q36-24 89-24q160,0 160,210q0,80-24,130ZM103,54q4,6-1,13Q45,138 45,260q0,128 63,199t175,71q75,0 128-32q7-4 12,3l16,23q7,9 17.5,11t19.5-5t11-17.5T482,493l-19-27q-4-6 1-13q57-71 57-193q0-128-63-199T283-10q-75,0-128,32q-7,4-12-3L127-4q-7-9-17.5-11T90-10T79,7.5T84,27l19,27Z" />
      <glyph unicode="&#xf9;" glyph-name="ugrave" horiz-adv-x="560" d="M238-10q-87,0-127.5,48T70,197V482q0,16 11,27t27,11t26.5-11T145,482V207q0-90 27-123.5T258,50q54,0 102,46.5T408,198V482q0,16 11.5,27T447,520t27-11t11-27V36q0-15-10.5-25.5T449,0T423,10.5T412,36V77q0,1-1,1t-2-1Q340-10 238-10ZM212,757q50,0 79-42l64-94q7-10 1.5-20.5T339,590q-38,0-62,29l-83,99q-10,11-3.5,25T212,757Z" />
      <glyph unicode="&#xfa;" glyph-name="uacute" horiz-adv-x="560" d="M238-10q-87,0-127.5,48T70,197V482q0,16 11,27t27,11t26.5-11T145,482V207q0-90 27-123.5T258,50q54,0 102,46.5T408,198V482q0,16 11.5,27T447,520t27-11t11-27V36q0-15-10.5-25.5T449,0T423,10.5T412,36V77q0,1-1,1t-2-1Q340-10 238-10Zm41,725q29,42 79,42q15,0 21.5-14T376,718l-83-99q-24-29-62-29q-12,0-17.5,10.5T215,621l64,94Z" />
      <glyph unicode="&#xfb;" glyph-name="ucircumflex" horiz-adv-x="560" d="M238-10q-87,0-127.5,48T70,197V482q0,16 10.5,27T107,520t27-11t11-27V207q0-90 27-123.5T258,50q54,0 102,46.5T408,198V482q0,16 11.5,27T447,520t27-11t11-27V36q0-15-10.5-25.5T449,0T423,10.5T412,36V77q0,1-1,1t-2-1Q340-10 238-10ZM375,714l73-89q8-11 2-23t-19-12q-46,0-73,36l-71,95q-1,1-2,1l-2-1l-71-95q-27-36-73-36q-14,0-20,12t3,23l73,89q35,43 90,43t90-43Z" />
      <glyph unicode="&#xfc;" glyph-name="udieresis" horiz-adv-x="560" d="M238-10q-87,0-127.5,48T70,197V482q0,16 10.5,27T107,520t27-11t11-27V207q0-90 27-123.5T258,50q54,0 102,46.5T408,198V482q0,16 11.5,27T447,520t27-11t11-27V36q0-15-10.5-25.5T449,0T423,10.5T412,36V77q0,1-1,1t-2-1Q340-10 238-10ZM348,700q0,15 11,26t26,11t26-11t11-26V647q0-15-11-26t-26-11t-26,11t-11,26v53Zm-200,0q0,15 11,26t26,11t26-11t11-26V647q0-15-11-26t-26-11t-26,11t-11,26v53Z" />
      <glyph unicode="&#xfd;" glyph-name="yacute" horiz-adv-x="522" d="M216,12L41,482q-5,14 3.5,26T68,520q18,0 32.5-10.5T121,482L258,93q0-1 1-1q2,0 2,1L412,484q6,16 20.5,26T465,520q14,0 21.5-11.5T489,484L214-184q-7-16-21.5-26T160-220q-14,0-21,11.5T137-184L216-4q3,8 0,16Zm42,703q29,42 79,42q15,0 21.5-14T355,718l-83-99q-24-29-62-29q-12,0-17.5,10.5T194,621l64,94Z" />
      <glyph unicode="&#xfe;" glyph-name="thorn" horiz-adv-x="573" d="M152,337V183q0-52 46-92.5T302,50q71,0 110.5,53T452,260q0,210-150,210q-59,0-104.5-41T152,337ZM136.5-209.5Q126-220 111-220T85.5-209.5T75-184V712q0,16 11,27t27,11t27.5-11T152,712V453q0-1 1-1t2,1q65,77 163,77q97,0 153.5-70.5T528,260q0-125-58.5-197.5T318-10Q213-10 150,67q-1,1-2,1t-1-1V-184q0-15-10.5-25.5Z" />
      <glyph unicode="&#xff;" glyph-name="ydieresis" horiz-adv-x="522" d="M216,12L41,482q-5,14 3.5,26T68,520q18,0 32.5-10.5T121,482L258,93q0-1 1-1q2,0 2,1L412,484q6,16 20.5,26T465,520q14,0 21.5-11.5T489,484L214-184q-7-16-21.5-26T160-220q-14,0-21,11.5T137-184L216-4q3,8 0,16ZM327,700q0,15 11,26t26,11t26-11t11-26V647q0-15-11-26t-26-11t-26,11t-11,26v53ZM138,726q11,11 26,11t26-11t11-26V647q0-15-11-26t-26-11t-26,11t-11,26v53q0,15 11,26Z" />
      <glyph unicode="&#x2013;" glyph-name="endash" horiz-adv-x="472" d="M447,317q11,0 19-8t8-19t-8-19t-19-8H25q-11,0-19,8t-8,19t8,19t19,8H447Z" />
      <glyph unicode="&#x2014;" glyph-name="emdash" horiz-adv-x="946" d="M921,317q11,0 19-8t8-19t-8-19t-19-8H25q-11,0-19,8t-8,19t8,19t19,8H921Z" />
      <glyph unicode="&#x2018;" glyph-name="quoteleft" horiz-adv-x="263" d="M85,523q-18,0-28,15t-4,32l68,166q6,16 20,25t30,9q14,0 22.5-11t4.5-24L149,571q-6-21-23.5-34.5T85,523Z" />
      <glyph unicode="&#x2019;" glyph-name="quoteright" horiz-adv-x="263" d="M101,523q-13,0-21.5,11.5T75,559l49,163q6,21 24,34.5T188,770q18,0 28-15t3-32L152,558q-6-16-20-25.5T101,523Z" />
      <glyph unicode="&#x201a;" glyph-name="quotesinglbase" horiz-adv-x="278" d="M91-110q-13,0-21.5,11T65-75L113,89q6,21 24.5,34.5T178,137q18,0 28-15t3-32L142-76q-6-16-20-25t-31-9Z" />
      <glyph unicode="&#x201c;" glyph-name="quotedblleft" horiz-adv-x="434" d="M263,523q-16,0-25.5,14T234,567l70,172q13,31 46,31q13,0 20.5-10t3.5-22L324,568q-6-20-23-32.5T263,523ZM77,523q-16,0-25.5,14T48,567l70,172q13,31 46,31q13,0 20.5-10t3.5-22L137,568q-6-20-22.5-32.5T77,523Z" />
      <glyph unicode="&#x201d;" glyph-name="quotedblright" horiz-adv-x="434" d="M280,523q-13,0-20.5,10T256,555l51,170q6,20 22.5,32.5T367,770q17,0 26-13.5t3-29.5L326,554q-13-31-46-31ZM94,523q-13,0-20.5,10T70,555l50,170q6,20 23,32.5T181,770q17,0 26-13.5t3-29.5L140,554q-13-31-46-31Z" />
      <glyph unicode="&#x201e;" glyph-name="quotedblbase" horiz-adv-x="449" d="M270-110q-13,0-20.5,10T246-78L297,92q6,20 22.5,32.5T357,137q17,0 26-14t3-30L316-79q-13-31-46-31ZM84-110q-13,0-20.5,10T60-78L110,92q6,20 23,32.5T171,137q17,0 26-14t3-30L130-79q-13-31-46-31Z" />
      <glyph unicode="&#x2022;" glyph-name="bullet" horiz-adv-x="456" d="M125,365q0,43 30,73t73,30t73-30t30-73t-30-73t-73-30t-73,30t-30,73Z" />
      <glyph unicode="&#x2039;" glyph-name="guilsinglleft" horiz-adv-x="351" d="M182,109L80,245q-15,20-15,45t15,45L182,471q24,32 64,32q12,0 17.5-11T262,471L130,297q-5-7 0-14L262,109q7-10 1.5-21T246,77q-40,0-64,32Z" />
      <glyph unicode="&#x203a;" glyph-name="guilsinglright" horiz-adv-x="351" d="M94,109L226,283q5,7 0,14L94,471q-7,10-1.5,21T110,503q40,0 64-32L276,335q15-20 15-45t-15-45L174,109q-24-32-64-32Q98,77 92.5,88T94,109Z" />
    </font>
</defs>
</svg>
