<?xml version="1.0" standalone="no"?>
<!DOCTYPE svg PUBLIC "-//W3C//DTD SVG 1.1//EN" "http://www.w3.org/Graphics/SVG/1.1/DTD/svg11.dtd">
<svg xmlns="http://www.w3.org/2000/svg">
  <defs>
    <font id="MPLUSRounded1c" horiz-adv-x="907">
      <font-face font-family="Rounded Mplus 1c Bold" units-per-em="1000" panose-1="2 11 7 2 2 2 3 2 2 7" ascent="1075" descent="-320" alphabetic="0" />
      <glyph unicode=" " glyph-name="space" horiz-adv-x="284" />
      <glyph unicode="!" glyph-name="exclam" horiz-adv-x="380" d="M184,220q-24,0-41,16.5T125,277L110,673q-1,23 15,40t39,17h54q23,0 39-17t15-40L257,277q-1-24-18-40.5T198,220H184Zm24-80q23,0 39.5-17T264,83V57q0-23-16.5-40T208,0H174q-23,0-39.5,17T118,57V83q0,23 16.5,40T174,140h34Z" />
      <glyph unicode="&quot;" glyph-name="quotedbl" horiz-adv-x="470" d="M77,540L65,713q-1,23 14.5,40T118,770h26q23,0 39-17t14-40L185,540q-1-21-17-35.5T131,490T94.5,504.5T77,540Zm210,0L275,713q-1,23 14.5,40T328,770h26q23,0 39-17t14-40L395,540q-1-21-17-35.5T341,490t-36.5,14.5T287,540Z" />
      <glyph unicode="#" glyph-name="numbersign" horiz-adv-x="692" d="M313,463L282,287q-2-8 7-8h83q8,0 10,8l31,176q2,8-7,8H323q-8,0-10-8ZM98,172q-23,0-38.5,15.5T44,225q0,23 16,38.5T98,279h47q8,0 10,8l31,176q2,8-7,8H149q-23,0-38.5,15.5T95,525q0,22 15.5,37.5T149,578h49q8,0 10,9l16,87q5,24 23,40t43,16h14q22,0 36.5-17T351,674l-16-87q-1-3 1.5-6t5.5-3h83q8,0 10,9l15,87q5,24 23.5,40T517,730h13q22,0 36.5-17T577,674l-15-87q-1-3 1.5-6t5.5-3h26q23,0 38-15t15-38t-15.5-38.5T595,471H550q-8,0-10-8L509,287q-2-8 7-8h28q22,0 37.5-15.5T597,225t-15.5-38T544,172H497q-8,0-10-9L467,56q-5-24-23-40T401,0H388q-22,0-36.5,17T341,56l19,107q1,3-1.5,6t-5.5,3H270q-8,0-10-9L241,56q-5-24-23.5-40T174,0H161q-22,0-36.5,17T114,56l19,107q1,3-1.5,6t-5.5,3H98Z" />
      <glyph unicode="$" glyph-name="dollar" horiz-adv-x="593" d="M292,608q-112-3-112-76q0-69 110-97l1-1q1,0 2,0q3-1 5,1.5t2,5.5V599q0,9-8,9Zm11-485q107,7 107,87q0,37-24,61t-84,41q-8,2-8-6V131q0-8 9-8ZM195,347Q49,410 49,532q0,84 61.5,133T292,715q8,0 8,9v41q0,21 14.5,35.5T350,815t35.5-14.5T400,765V717q0-7 8-9q28-3 55-9q25-5 40.5-25T519,628v-3q0-21-16.5-32.5T465,586q-29,8-57,12q-8,2-8-7V415v-5q-2-8 6-12q75-32 106.5-76T544,212q0-91-61.5-141.5T301,16q-7,0-7-9V-35q0-21-14.5-35.5T244-85T208.5-70.5T194-35V12q0,8-10,10q-29,4-64,14Q96,43 81.5,64.5T67,112v8q0,19 16.5,30t34.5,3q34-14 67-21q3-1 6,1.5t3,5.5V315q0,13 4,21t-3,11Z" />
      <glyph unicode="%" glyph-name="percent" horiz-adv-x="874" d="M629,730q19,0 29-16.5t1-33.5L332,50Q306,0 249,0h-4q-19,0-29,16.5T215,50L542,680q26,50 83,50h4ZM594,188q0-106 63-106t63,106q0,107-63,107T594,188ZM522,335q48,52 135,52t135-52t48-147T792,41.5T657-10T522,41.5T474,188t48,147ZM280,542q0,106-63,106T154,542q0-107 63-107t63,107Zm72-147q-48-52-135-52T82,395T34,542T82,688.5T217,740t135-51.5T400,542T352,395Z" />
      <glyph unicode="&amp;" glyph-name="ampersand" horiz-adv-x="725" d="M283,301q-92-64-92-118q0-86 120-86q76,0 144,36q7,4 1,10L296,300q-7,5-13,1Zm46,338q-44,0-68.5-19T236,570q0-27 12-48.5T306,453q6-8 13-2q62,41 82,64.5T421,567q0,72-92,72ZM304-10Q49-10 49,173q0,51 35,99.5T203,378q7,6 1,12q-57,55-80,96.5T101,573q0,75 60,121t166,46q111,0 168-43.5T552,575q0-53-35-100T398,373q-3-1-3-5t2-6L511,248q1-2 3.5-0.5T517,251v94q0,23 17,39.5T574,401h15q23,0 40-16.5T646,345V122q0-9 6-15l67-67q11-11 5-25.5T702,0H659q-55,0-97,40l-4,4q-6,6-15,2Q420-10 304-10Z" />
      <glyph unicode="&apos;" glyph-name="quotesingle" horiz-adv-x="284" d="M82,547L70,713q-1,23 14.5,40T123,770h40q23,0 39-17t14-40L204,547q-1-24-19-40.5T143,490t-41.5,16.5T82,547Z" />
      <glyph unicode="(" glyph-name="parenleft" horiz-adv-x="394" d="M324-170q-59,0-97,41Q149-42 106.5,68.5T64,300t42.5,231.5T227,729q38,41 97,41h7q16,0 22.5-15T349,728Q194,546 194,300T349-128q11-12 4.5-27T331-170h-7Z" />
      <glyph unicode=")" glyph-name="parenright" horiz-adv-x="394" d="M50-128Q205,54 205,300T50,728q-10,12-4,27t22,15h7q59,0 97-41q79-87 121-197.5T335,300T293,68.5T172-129q-38-41-97-41H68q-16,0-22,15t4,27Z" />
      <glyph unicode="*" glyph-name="asterisk" horiz-adv-x="507" d="M88,533q-22,6-32,25.5T52.5,599T79,630t41,3l82-30q3-1 5.5,1t2.5,5l-2,87q-1,23 14,38.5T259.5,750T297,734.5T312,696l-2-87q0-3 2.5-5t5.5-1l82,30q20,7 40-3t26.5-31T463,558.5T432,533l-83-25q-3-1-4-4t1-5l53-69q13-17 10-39t-21-35t-40-9.5T314,368l-49,72q-2,2-5.5,2t-4.5-2l-49-72q-13-18-35-21.5T131.5,356t-21,35T121,430l53,69q1,2 0,5t-3,4L88,533Z" />
      <glyph unicode="+" glyph-name="plus" horiz-adv-x="734" d="M127,237q-22,0-37.5,15.5T74,290t15.5,37.5T127,343H302q8,0 8,9V523q0,23 17,40t40,17t40-17t17-40V352q0-9 8-9H607q22,0 37.5-15.5T660,290t-15.5-37.5T607,237H432q-8,0-8-9V57q0-23-17-40T367,0T327,17T310,57V228q0,9-8,9H127Z" />
      <glyph unicode="," glyph-name="comma" horiz-adv-x="321" d="M104-110q-22,0-35.5,17T60-55l41,170q6,24 26,39.5T171,170h53q20,0 31.5-17t3.5-36L189-57q-9-24-30.5-38.5T111-110h-7Z" />
      <glyph unicode="-" glyph-name="hyphen" horiz-adv-x="482" d="M128,237q-22,0-38,15.5T74,290t16,37.5T128,343H354q22,0 38-15.5T408,290t-16-37.5T354,237H128Z" />
      <glyph unicode="." glyph-name="period" horiz-adv-x="338" d="M146,0q-23,0-40,17T89,57v56q0,23 17,40t40,17h46q23,0 40-17t17-40V57q0-23-17-40T192,0H146Z" />
      <glyph unicode="/" glyph-name="slash" horiz-adv-x="506" d="M73-40Q53-40 42.5-23T40,12L340,678q11,23 33,37.5T420,730h13q21,0 31.5-17t1.5-35L166,12q-10-23-32-37.5T86-40H73Z" />
      <glyph unicode="0" glyph-name="zero" horiz-adv-x="640" d="M424,571q-34,60-104,60T216,571T182,365t34-206T320,99t104,60t34,206T424,571ZM530.5,79Q461-10 320-10T109.5,79T40,365t69.5,286T320,740t210.5-89T600,365T530.5,79Z" />
      <glyph unicode="1" glyph-name="one" horiz-adv-x="640" d="M148,461q-14-11-29.5-3T103,483v40q0,56 45,91l107,82q45,34 102,34h30q23,0 39.5-17T443,673V57q0-23-16.5-40T387,0H357q-23,0-40,17T300,57V576l-1,1l-1-1L148,461Z" />
      <glyph unicode="2" glyph-name="two" horiz-adv-x="640" d="M560,527q0-94-59.5-180.5T270,117q-2-2-2-3t1-1H505q23,0 40-16.5T562,57T545,17T505,0H138Q115,0 98.5,17T82,57q0,57 43,91Q298,286 357,363t59,150q0,111-119,111q-61,0-148-34q-19-8-35.5,3T97,623v17q0,26 14.5,47.5T150,716q85,24 167,24q117,0 180-56t63-157Z" />
      <glyph unicode="3" glyph-name="three" horiz-adv-x="640" d="M137,617q-23,0-40,16.5T80,673t17,40t40,17H492q23,0 39.5-17T548,673q0-57-42-94L344,432q-1-1-1-2t1-1h16q92,0 145-52.5T558,230q0-115-70-177.5T288-10Q211-10 139,8q-24,6-39,27T85,82V93q0,20 16.5,31.5T138,130q81-27 144-27q66,0 102,32t36,93q0,56-40.5,80.5T237,333H226q-20,0-34.5,15T177,383q0,50 36,83L376,614q1,1 1,2t-1,1H137Z" />
      <glyph unicode="4" glyph-name="four" horiz-adv-x="640" d="M144,263q0-1-0.5-1t-0.5-1t1-1H335q8,0 8,9V546q0,1-1,1h-1L144,263ZM68,150q-22,0-38.5,16T13,205q0,56 32,100L311,684q32,46 89,46h22q23,0 40-17t17-40V269q0-9 8-9h48q23,0 39-16t16-39t-16-39t-39-16H487q-8,0-8-9V57q0-23-17-40T422,0H400q-23,0-40,17T343,57v84q0,9-8,9H68Z" />
      <glyph unicode="5" glyph-name="five" horiz-adv-x="640" d="M146,5q-24,6-39.5,26.5T91,78V88q0,20 16.5,32t35.5,6q75-23 129-23q159,0 159,144q0,119-115,119q-30,0-57-11q-73-30-103-30h-7q-23,0-39,17T95,382l15,291q2,24 18.5,40.5T169,730H481q23,0 39.5-17T537,673t-16.5-39.5T481,617H248q-9,0-9-9l-8-159q0-1 1-1h1l1,1q50,24 108,24q108,0 167.5-59T569,247Q569-10 276-10Q209-10 146,5Z" />
      <glyph unicode="6" glyph-name="six" horiz-adv-x="640" d="M323,391q-61,0-98-39T188,248q0-70 37.5-110.5T323,97q64,0 100.5,38.5T460,248q0,67-37,105T323,391Zm0-401Q50-10 50,320q0,210 82.5,315T368,740q44,0 94-8q24-4 39.5-24T517,663q0-21-16.5-33T463,623q-41,10-91,10q-74,0-121.5-50T193,440v-2l2,1q57,51 158,51q115,0 179.5-63.5T597,250q0-122-74-191T323-10Z" />
      <glyph unicode="7" glyph-name="seven" horiz-adv-x="640" d="M132,617q-23,0-40,16.5T75,673t17,40t40,17H515q23,0 40-17t17-40q0-55-30-106Q410,339 316,54q-8-24-28.5-39T242,0H207q-21,0-33,17t-5,37Q279,359 438,613v2q0,2-1,2H132Z" />
      <glyph unicode="8" glyph-name="eight" horiz-adv-x="640" d="M300,331Q174,290 174,207q0-52 40-83.5T320,92t104.5,31.5T463,207q0,44-32,73T317,331q-9,3-17,0Zm20,307q-58,0-90.5-26T197,543q0-73 118-107q11-2 16,0q114,36 114,107q0,43-33,69t-92,26ZM526,47Q452-10 320-10T114,47T40,200q0,55 36,101.5T183,378q2,0 2,2q0,1-1,1q-58,29-89.5,75T63,557q0,82 68,132.5T320,740t189-50.5T577,557q0-104-124-161q-1,0-1-2q0-1 1-1q147-56 147-193q0-96-74-153Z" />
      <glyph unicode="9" glyph-name="nine" horiz-adv-x="640" d="M317,633q-64,0-100.5-37T180,492q0-74 36.5-113.5T317,339q62,0 98.5,41T452,492q0,64-38,102.5T317,633ZM287,240q-115,0-179.5,65.5T43,490q0,115 74,182.5T317,740q132,0 202.5-79.5T590,420q0-222-81-326T272-10q-50,0-103,9q-24,4-40,23.5T113,67q0,21 16.5,33.5T167,108q52-11 101-11q81,0 128.5,49.5T447,290v2l-2-1q-57-51-158-51Z" />
      <glyph unicode=":" glyph-name="colon" horiz-adv-x="418" d="M186,383q-23,0-40,17t-17,40v57q0,23 17,39.5T186,553h46q23,0 40-16.5T289,497V440q0-23-17-40t-40-17H186ZM186,0q-23,0-40,17T129,57v56q0,23 17,40t40,17h46q23,0 40-17t17-40V57q0-23-17-40T232,0H186Z" />
      <glyph unicode=";" glyph-name="semicolon" horiz-adv-x="413" d="M124-110q-22,0-35.5,17T80-55l41,170q6,24 26,39.5T191,170h53q20,0 31.5-17t3.5-36L209-57q-9-24-30.5-38.5T131-110h-7ZM237,553q24,0 40.5-16.5T294,497V440q0-23-16.5-40T237,383H191q-23,0-40,17t-17,40v57q0,23 17,39.5T191,553h46Z" />
      <glyph unicode="&lt;" glyph-name="less" horiz-adv-x="681" d="M111,196q-24,10-38,30.5T59,273v34q0,26 14,46.5T111,384L539,556q19,8 36-4t17-32v-3q0-26-14.5-47T539,440L140,291q-1,0-1-1t1-1L539,140q24-9 38.5-30T592,63V60q0-20-17-32t-36-4L111,196Z" />
      <glyph unicode="=" glyph-name="equal" horiz-adv-x="754" d="M137,358q-22,0-37.5,16T84,412t15.5,37.5T137,465H617q22,0 37.5-15.5T670,412t-15.5-38T617,358H137Zm0-243q-22,0-37.5,15.5T84,168t15.5,38T137,222H617q22,0 37.5-16T670,168t-15.5-37.5T617,115H137Z" />
      <glyph unicode="&gt;" glyph-name="greater" horiz-adv-x="681" d="M142,24q-19-8-36,4T89,60v3q0,26 14.5,47T142,140L541,289q1,0 1,1t-1,1L142,440q-24,9-38.5,30T89,517v3q0,20 17,32t36,4L570,384q24-10 38-30.5T622,307V273q0-26-14-46.5T570,196L142,24Z" />
      <glyph unicode="?" glyph-name="question" horiz-adv-x="635" d="M134,604q-20-5-37.5,7.5T79,645v8q0,25 16,45t40,24q93,18 187,18q121,0 187.5-47.5T576,567q0-36-9.5-64.5t-30-51.5t-37-36T454,382q-27-19-42-30t-32.5-31T353,279q-22-56-67-56H266q-24,0-40,17.5T215,280q9,36 32.5,68.5t41,46.5T342,436q31,22 45.5,34.5t28,34T429,550q0,77-127,77q-74,0-168-23ZM259,140h33q23,0 40-17t17-40V57q0-23-17-40T292,0H259q-23,0-40,17T202,57V83q0,23 17,40t40,17Z" />
      <glyph unicode="@" glyph-name="at" horiz-adv-x="818" d="M472,256v8q0,51-21.5,80T394,373q-37,0-57.5-28.5T316,260q0-54 21.5-83.5T394,147t56.5,28.5T472,256ZM409,635q164,0 269.5-104.5T784,260q0-78-27-148q-9-24-32-37.5T675,61H529q-20,0-34.5,14T479,109l-1,6v1q-2,0-2-1Q429,53 357,53q-70,0-114,55T199,260q0,100 42.5,153.5T357,467q70,0 119-61q0-1 2-1v1v6q0,20 14,33.5T525,459h12q23,0 40-17t17-40V156q0-8 9-8h66q8,0 11,8q17,49 17,104q0,129-79.5,208.5T409,548q-127,0-207.5-80T121,260T201.5,52T409-28q79,0 137,30q16,8 34,5t28-17q11-14 8-32T598-69q-80-46-189-46Q250-115 142-10T34,260q0,164 106.5,269.5T409,635Z" />
      <glyph unicode="A" glyph-name="A" horiz-adv-x="653" d="M330,606L242,292q-1-3 1-6t5-3H414q3,0 5,3t1,6L332,606q0,1-1,1t-1-1ZM71,0Q50,0 38,17T33,54L240,676q9,24 29.5,39T315,730h36q26,0 46.5-15T426,676L633,54q7-20-5-37T595,0H559q-24,0-44.5,15.5T487,55L455,168q-1,8-11,8H218q-9,0-11-8L175,55q-6-24-26.5-39.5T103,0H71Z" />
      <glyph unicode="B" glyph-name="B" horiz-adv-x="619" d="M217,324V114q0-8 9-10q35-5 66-5q83,0 121.5,30.5T452,223q0,56-44.5,82.5T260,332H225q-8,0-8-8Zm0,292V445q0-9 8-9h29q93,0 134.5,25.5T430,537q0,48-34,71T285,631q-35,0-60-4q-8-2-8-11ZM135-2Q111,0 95,18.5T79,62V668q0,25 16,43.5T136,732q74,8 143,8q280,0 280-183q0-61-41-106T410,393q-1,0-1-1q0-2 1-2q82-12 128.5-60.5T585,210q0-110-72-165T289-10q-76,0-154,8Z" />
      <glyph unicode="C" glyph-name="C" horiz-adv-x="634" d="M377-10Q219-10 126.5,87.5T34,365q0,178 89.5,276.5T374,740q74,0 124-9q24-4 40-24t16-45v-8q0-21-17.5-33T499,614q-49,13-110,13q-99,0-155.5-68T177,365q0-125 58.5-193.5T392,103q66,0 113,12q20,5 37.5-7T560,75V68q0-25-15.5-44.5T504,0Q447-10 377-10Z" />
      <glyph unicode="D" glyph-name="D" horiz-adv-x="680" d="M218,614V116q0-7 8-9q32-5 60-5q117,0 172,63.5T513,375q0,131-56,192T286,628q-28,0-60-5q-8-2-8-9ZM136-3Q111,0 95,18.5T79,62V668q0,25 16,43.5T136,733q64,7 143,7q178,0 272.5-93T646,375q0-192-94.5-288.5T279-10q-79,0-143,7Z" />
      <glyph unicode="E" glyph-name="E" horiz-adv-x="602" d="M136,0Q113,0 96,17T79,57V673q0,23 17,40t40,17H476q23,0 40-17t17-40t-17-39.5T476,617H228q-9,0-9-9V447q0-9 9-9H459q23,0 38.5-16T513,384t-15.5-37.5T459,331H228q-9,0-9-9V122q0-9 9-9H476q23,0 40-16.5T533,57T516,17T476,0H136Z" />
      <glyph unicode="F" glyph-name="F" horiz-adv-x="586" d="M135,0Q112,0 95.5,17T79,57V673q0,23 16.5,40T135,730H465q23,0 40-17t17-40t-17-39.5T465,617H227q-8,0-8-9V433q0-8 8-8H448q22,0 38-15.5T502,371t-16-38.5T448,317H227q-8,0-8-8V57q0-23-17-40T162,0H135Z" />
      <glyph unicode="G" glyph-name="G" horiz-adv-x="705" d="M394-10Q233-10 133.5,90.5T34,365q0,176 99,275.5T407,740q72,0 131-10q24-4 40-23.5T594,662v-4q0-21-17-34t-38-8q-59,13-117,13q-121,0-183.5-66.5T176,365q0-127 61.5-195.5T404,101q43,0 85,12q8,2 8,11V322q0,9-8,9H364q-22,0-37.5,15.5T311,384q0,23 15.5,38.5T364,438H574q23,0 40-17t17-40V90q0-26-15-47T577,15Q492-10 394-10Z" />
      <glyph unicode="H" glyph-name="H" horiz-adv-x="704" d="M135,0Q112,0 95.5,17T79,57V673q0,23 16.5,40T135,730h27q23,0 40-17t17-40V446q0-8 8-8H477q8,0 8,8V673q0,23 17,40t40,17h27q23,0 39.5-17T625,673V57q0-23-16.5-40T569,0H542q-23,0-40,17T485,57V322q0,9-8,9H227q-8,0-8-9V57q0-23-17-40T162,0H135Z" />
      <glyph unicode="I" glyph-name="I" horiz-adv-x="352" d="M156,0q-23,0-40,17T99,57V673q0,23 17,40t40,17h40q23,0 40-17t17-40V57q0-23-17-40T196,0H156Z" />
      <glyph unicode="J" glyph-name="J" horiz-adv-x="556" d="M88,5Q64,11 49,31.5T34,78V89q0,20 16.5,31T86,125q66-22 130-22q65,0 95.5,40.5T342,280V673q0,23 17,40t40,17h32q23,0 39.5-17T487,673V253q0-140-62-201.5T227-10Q152-10 88,5Z" />
      <glyph unicode="K" glyph-name="K" horiz-adv-x="630" d="M135,0Q112,0 95.5,17T79,57V673q0,23 16.5,40T135,730h27q23,0 40-17t17-40V414q0-1 1-1t1,1L422,684q33,46 90,46h50q17,0 25-16t-3-29L354,387q-5-7 0-14L595,46q11-14 3-30T572,0H522q-57,0-89,46L221,346q0,1-1,1t-1-1V57q0-23-17-40T162,0H135Z" />
      <glyph unicode="L" glyph-name="L" horiz-adv-x="599" d="M135,0Q112,0 95.5,17T79,57V673q0,23 16.5,40T135,730h32q23,0 40-17t17-40V125q0-9 8-9H489q23,0 39.5-16.5T545,60V57q0-23-16.5-40T489,0H135Z" />
      <glyph unicode="M" glyph-name="M" horiz-adv-x="838" d="M136,0Q113,0 96,17T79,57V673q0,23 17,40t40,17h25q26,0 48-14t32-37L416,301q0-1 1-1t1,1L593,679q10,23 32,37t48,14h29q23,0 40-17t17-40V57q0-23-17-40T702,0H680q-23,0-40,17T623,57V492q0,1-1,1t-1-1L501,235q-11-23-33.5-37.5T420,183h-6q-25,0-47.5,14.5T333,235L213,492q0,1-1,1t-1-1V57q0-23-17-40T154,0H136Z" />
      <glyph unicode="N" glyph-name="N" horiz-adv-x="704" d="M135,0Q112,0 95.5,17T79,57V673q0,23 16.5,40T135,730h22q57,0 84-50L488,234q0-1 1-1t1,1V673q0,23 17,40t40,17h22q23,0 39.5-17T625,673V57q0-23-16.5-40T569,0H547q-57,0-84,50L216,496q0,1-1,1t-1-1V57q0-23-17-40T157,0H135Z" />
      <glyph unicode="O" glyph-name="O" horiz-adv-x="734" d="M557,365q0,260-190,260T177,365T367,105T557,365ZM610.5,89Q521-10 367-10T123.5,89T34,365t89.5,276T367,740t243.5-99T700,365T610.5,89Z" />
      <glyph unicode="P" glyph-name="P" horiz-adv-x="628" d="M217,616V375q0-7 8-9q38-5 74-5q81,0 123.5,35.5T465,498q0,133-166,133q-36,0-74-5q-8-2-8-10ZM135,0Q112,0 95.5,17T79,57V668q0,24 16,43t40,21q85,8 164,8q150,0 225-59.5T599,508q0-125-72.5-189T312,255q-33,0-87,4q-8,0-8-8V57q0-23-17-40T160,0H135Z" />
      <glyph unicode="Q" glyph-name="Q" horiz-adv-x="741" d="M368,625q-191,0-191-260T368,105q190,0 190,260T368,625Zm0-635Q214-10 124,89T34,365t90,276t244,99t243.5-99T701,365q0-218-147-317q-1,0-1-1q0-2 1-2Q666,1 746-102q11-15 2.5-31.5T721-150H678q-54,0-88,48q-40,56-85,74T368-10Z" />
      <glyph unicode="R" glyph-name="R" horiz-adv-x="634" d="M217,616V399q0-8 9-8h50q178,0 178,127q0,113-165,113q-30,0-63-5q-9-2-9-10ZM136,0Q113,0 96,17T79,57V668q0,24 16,43t40,21q85,8 164,8q147,0 220-54.5T592,532q0-71-38.5-125T450,331q-1,0-1-1q0-2 1-2q48-30 82-118L592,53q7-19-4.5-36T556,0H525q-26,0-47,14.5T448,53L392,207q-18,48-41,63t-79,15H226q-9,0-9-9V57q0-23-16.5-40T161,0H136Z" />
      <glyph unicode="S" glyph-name="S" horiz-adv-x="582" d="M281,308q-120,40-173.5,97T54,543q0,91 61,144t171,53q93,0 162-21q24-7 38.5-28.5T501,643v-9q0-19-17-29.5T449,601q-75,29-153,29q-50,0-76-23t-26-64q0-72 94-103q135-43 187.5-98T528,200Q528-10 269-10q-81,0-147,25Q98,24 84.5,46T71,95v12q0,19 16,27.5t33,0.5q66-33 139-33q127,0 127,96q0,39-24,64.5T281,308Z" />
      <glyph unicode="T" glyph-name="T" horiz-adv-x="648" d="M111,614q-23,0-40,16.5T54,670v3q0,23 17,40t40,17H537q23,0 40-17t17-40v-3q0-23-17-39.5T537,614H403q-8,0-8-9V57q0-23-17-40T338,0H310q-23,0-40,17T253,57V605q0,9-8,9H111Z" />
      <glyph unicode="U" glyph-name="U" horiz-adv-x="678" d="M609,260Q609-10 339-10T69,260V673q0,23 17,40t40,17h28q23,0 40-17t17-40V252q0-78 31.5-112.5T341,105t98.5,34.5T471,252V673q0,23 17,40t40,17h24q23,0 40-17t17-40V260Z" />
      <glyph unicode="V" glyph-name="V" horiz-adv-x="653" d="M240,54L33,676q-7,20 5,37t33,17h36q25,0 46-15.5T180,675L333,138q0-1 1-1t1,1L490,676q7,24 27.5,39T563,730h32q21,0 33-17t5-37L426,54q-8-24-28.5-39T351,0H315q-25,0-45.5,15T240,54Z" />
      <glyph unicode="W" glyph-name="W" horiz-adv-x="878" d="M172,56L44,674q-5,22 9.5,39T90,730h29q25,0 43-16t22-40l83-526q0-1 1-1q2,0 2,1l80,526q4,24 22,40t43,16h60q25,0 43-16t22-40l81-526q0-1 1-1t1,1l83,526q4,24 22,40t43,16h25q22,0 36-17t10-39L714,56q-5-24-24-40T646,0H593q-25,0-43.5,16T527,56L444,582q0,1-1,1t-1-1L359,56q-4-24-22.5-40T293,0H240q-25,0-44,16T172,56Z" />
      <glyph unicode="X" glyph-name="X" horiz-adv-x="632" d="M92,0Q73,0 63,16.5T62,50L229,362q4,6 0,15L67,680q-9,17 1,33.5T97,730h43q26,0 48-14t33-37L326,458q0-1 1-1t1,1L433,679q11,23 33,37t48,14h39q20,0 29.5-16.5T583,680L421,377q-3-7 0-15L588,50q9-17-0.5-33.5T558,0H512q-26,0-48.5,14T431,51L324,282q0,1-1,1t-1-1L215,51q-10-23-32.5-37T134,0H92Z" />
      <glyph unicode="Y" glyph-name="Y" horiz-adv-x="632" d="M247,297L36,680q-9,16 1,33t29,17h48q26,0 48-14t33-37L325,404q0-1 1-1t1,1L457,679q11,23 33,37t48,14h44q19,0 29-17t1-33L401,297q-5-8-5-16V57q0-23-16.5-40T340,0H308q-23,0-39.5,17T252,57V281q0,8-5,16Z" />
      <glyph unicode="Z" glyph-name="Z" horiz-adv-x="632" d="M100,161L398,614v1l1,1q0,1-1,1H126q-23,0-40,16.5T69,673t17,40t40,17H506q23,0 40-17t17-40q0-56-31-104L234,116v-1l-1-1q0-1 1-1H506q23,0 40-16.5T563,57T546,17T506,0H126Q103,0 86,17T69,57q0,56 31,104Z" />
      <glyph unicode="[" glyph-name="bracketleft" horiz-adv-x="502" d="M166-170q-23,0-40,17t-17,40V713q0,23 17,40t40,17H374q20,0 34.5-14T423,722t-14-34.5T375,673H241q-8,0-8-8V-65q0-8 8-8H374q20,0 34.5-14.5T423-122t-14.5-34T374-170H166Z" />
      <glyph unicode="\" glyph-name="backslash" horiz-adv-x="506" d="M355,12L55,678q-8,18 2.5,35T88,730h13q26,0 48-14.5T181,678L481,12q9-18-1.5-35T448-40H435q-25,0-47,14.5T355,12Z" />
      <glyph unicode="]" glyph-name="bracketright" horiz-adv-x="502" d="M261-73q8,0 8,8V665q0,8-8,8H128q-20,0-34.5,14.5T79,722t14.5,34T128,770H336q23,0 40-17t17-40V-113q0-23-17-40t-40-17H128q-20,0-34.5,14T79-122T93.5-87.5T128-73H261Z" />
      <glyph unicode="^" glyph-name="asciicircum" horiz-adv-x="632" d="M77,280q-20,0-30,16.5T46,331L216,679q11,23 33,37t48,14h54q26,0 48-14t33-37L602,331q9-18-1-34.5T571,280H549q-26,0-48,14.5T469,332L324,650L179,332q-11-23-33-37.5T99,280H77Z" />
      <glyph unicode="_" glyph-name="underscore" horiz-adv-x="590" d="M47-170q-20,0-34.5,14T-2-122T12.5-87.5T47-73H543q20,0 34.5-14.5T592-122t-14.5-34T543-170H47Z" />
      <glyph unicode="`" glyph-name="grave" horiz-adv-x="286" d="M137,572L23,761q-10,16-1,32.5T50,810h60q25,0 46.5-14.5T188,757l71-181q7-19-4.5-36T223,523q-26,0-49.5,13T137,572Z" />
      <glyph unicode="a" glyph-name="a" horiz-adv-x="561" d="M314,250q-143,0-143-88q0-32 18.5-52T237,90q57,0 92,35.5T364,223v18q0,9-9,9H314ZM201-10Q133-10 88.5,34.5T44,150q0,87 66.5,135T314,333h41q9,0 9,9v8q0,46-22,64.5T264,433q-58,0-142-21q-18-5-33,6.5T74,449q0,23 14,41.5T124,513q76,17 143,17q128,0 179-46t51-161V57q0-23-16.5-40T441,0H430q-24,0-41,16.5T371,57V71q0,1-1,1q-2,0-2-1Q307-10 201-10Z" />
      <glyph unicode="b" glyph-name="b" horiz-adv-x="607" d="M206,328V192q0-40 34-71t81-31q53,0 84,42.5T436,260q0,170-115,170q-47,0-81-31t-34-71ZM131,0Q108,0 91,17T74,57V693q0,23 17,40t40,17h20q23,0 40-17t17-40V468q0-1 1-1t2,1q65,62 150,62q94,0 150.5-70.5T568,260q0-125-59-197.5T361-10q-91,0-157,74q-1,1-2,1t-1-1l-1-7q-1-24-17.5-40.5T142,0H131Z" />
      <glyph unicode="c" glyph-name="c" horiz-adv-x="508" d="M292-10Q168-10 101,58.5T34,260q0,131 64.5,200.5T282,530q53,0 102-7q23-3 38-21t15-42q0-20-15.5-32T386,420q-39,8-87,8q-63,0-94-40T174,260q0-90 33-129T309,92q49,0 85,9q19,5 34.5-7T444,63q0-24-14.5-42T392-1q-51-9-100-9Z" />
      <glyph unicode="d" glyph-name="d" horiz-adv-x="607" d="M286,430q-115,0-115-170q0-85 31-127.5T286,90q47,0 81,31t34,71V328q0,40-34,71t-81,31ZM246-10Q157-10 98,62.5T39,260q0,129 56.5,199.5T246,530q85,0 150-62q1-1 2-1t1,1V693q0,23 17,40t40,17h20q23,0 40-17t17-40V57q0-23-17-40T476,0H465q-24,0-40.5,16.5T407,57l-1,7q0,1-1,1t-2-1Q337-10 246-10Z" />
      <glyph unicode="e" glyph-name="e" horiz-adv-x="546" d="M281,437q-51,0-78.5-28.5T168,317q0-8 8-8H372q8,0 8,8q-4,120-99,120ZM306-10Q175-10 104.5,58.5T34,260q0,132 63,201t182,69q222,0 228-252q1-24-17-40t-42-16H175q-9,0-7-9q7-67 44.5-97.5T322,85q45,0 100,15q18,5 33.5-6T471,64q0-23-13.5-40.5T422,2Q366-10 306-10Z" />
      <glyph unicode="f" glyph-name="f" horiz-adv-x="526" d="M97,403q-20,0-34,14.5T49,452t14,34t34,14h53q9,0 9,9v24q0,108 47,157.5T355,740q34,0 59-4q21-3 34.5-20.5T462,676q0-18-15-28.5T414,640q-20,2-29,2q-51,0-69.5-21.5T297,537V509q0-9 9-9h98q20,0 34-14t14-34t-14-34.5T404,403H306q-9,0-9-8V57q0-23-17-40T240,0H215q-23,0-39.5,17T159,57V395q0,8-9,8H97Z" />
      <glyph unicode="g" glyph-name="g" horiz-adv-x="591" d="M281,430q-110,0-110-160q0-83 29.5-124T281,105q45,0 77.5,32T391,212V320q0,46-32.5,78T281,430ZM239,5Q151,5 95,75.5T39,270T92.5,462T239,530q47,0 83-17t71-57q1-1 2-1t1,1v7q1,24 18,40.5T455,520h11q23,0 39.5-17T522,463V40q0-270-270-270q-48,0-101,8q-24,4-39.5,23.5T96-154q0,20 16.5,31.5T149-116q48-12 100-12q74,0 108,38.5T391,37V68q0,1-1,1t-2-1Q328,5 239,5Z" />
      <glyph unicode="h" glyph-name="h" horiz-adv-x="601" d="M130,0Q107,0 90.5,17T74,57V693q0,23 16.5,40T130,750h20q23,0 40-17t17-40V461q0-1 1-1t2,1q70,69 154,69q91,0 132-52t41-178V57q0-23-17-40T480,0H464q-23,0-40,17T407,57V280q0,87-18.5,115T319,423q-40,0-76-36t-36-77V57q0-23-17-40T150,0H130Z" />
      <glyph unicode="i" glyph-name="i" horiz-adv-x="338" d="M156,0q-23,0-40,17T99,57V463q0,23 17,40t40,17h26q23,0 40-17t17-40V57q0-23-17-40T182,0H156Zm0,630q-23,0-40,17T99,687v6q0,23 17,40t40,17h26q23,0 40-17t17-40v-6q0-23-17-40t-40-17H156Z" />
      <glyph unicode="j" glyph-name="j" horiz-adv-x="383" d="M38-219q-23-1-38.5,14.5T-16-167q0,21 16,37t38,18q67,4 86.5,28T144,10V463q0,23 17,40t40,17h27q23,0 39.5-17T284,463V10q0-127-49.5-175T38-219ZM228,750q23,0 39.5-17T284,693v-6q0-23-16.5-40T228,630H201q-23,0-40,17t-17,40v6q0,23 17,40t40,17h27Z" />
      <glyph unicode="k" glyph-name="k" horiz-adv-x="563" d="M131,0Q108,0 91,17T74,57V693q0,23 17,40t40,17h20q23,0 40-17t17-40V308q0-1 1-1h1L362,478q37,42 94,42h42q16,0 22.5-15T516,478L333,276q-5-6 0-13L518,43q11-13 3.5-28T498,0H456q-57,0-93,44L210,229q0,1-1,1t-1-1V57q0-23-17-40T151,0H131Z" />
      <glyph unicode="l" glyph-name="l" horiz-adv-x="338" d="M156,0q-23,0-40,17T99,57V693q0,23 17,40t40,17h26q23,0 40-17t17-40V57q0-23-17-40T182,0H156Z" />
      <glyph unicode="m" glyph-name="m" horiz-adv-x="819" d="M125,0Q102,0 85.5,17T69,57V463q0,23 16.5,40T125,520h14q23,0 39.5-16T196,465v-7q0-1 1-1q2,0 2,1q59,72 133,72q45,0 72.5-17T453,453q0-1 2-1q1,0 2,1q63,77 142,77q83,0 119.5-45T755,330V57q0-23-16.5-40T699,0H682q-23,0-40,17T625,57V310q0,73-14,96t-54,23q-26,0-52-24t-26-48V57q0-23-17-40T422,0H405q-23,0-39.5,17T349,57V310q0,72-14.5,95.5T280,429q-26,0-52-24t-26-48V57q0-23-17-40T145,0H125Z" />
      <glyph unicode="n" glyph-name="n" horiz-adv-x="597" d="M126,0Q103,0 86,17T69,57V463q0,23 17,40t40,17h13q24,0 40.5-16.5T197,463v-7q0-1 1-1t2,1q68,74 159,74t132.5-51.5T533,307V57q0-23-17-40T476,0H459q-23,0-39.5,17T403,57V297q0,75-19.5,102.5T314,427q-41,0-76-35t-35-75V57q0-23-17-40T146,0H126Z" />
      <glyph unicode="o" glyph-name="o" horiz-adv-x="574" d="M375.5,391.5Q346,433 287,433t-88.5-41.5T169,260t29.5-131.5T287,87t88.5,41.5T405,260T375.5,391.5Zm98-331Q407-10 287-10T100.5,60.5T34,260t66.5,199.5T287,530t186.5-70.5T540,260T473.5,60.5Z" />
      <glyph unicode="p" glyph-name="p" horiz-adv-x="601" d="M201,328V192q0-40 34.5-71T316,90q53,0 84,43t31,127q0,170-115,170q-46,0-80.5-31T201,328ZM126-220q-23,0-40,17T69-163V463q0,23 17,40t40,17h12q24,0 41-16.5T197,463v-7q0-1 1-1t2,1q36,40 72,57t84,17q94,0 150-70.5T562,260q0-125-58.5-197.5T356-10q-87,0-151,63q-1,1-2,1t-1-1V-163q0-23-16.5-40T146-220H126Z" />
      <glyph unicode="q" glyph-name="q" horiz-adv-x="601" d="M285,430q-115,0-115-170q0-84 31-127t84-43q46,0 80.5,31T400,192V328q0,40-34.5,71T285,430ZM245-10Q156-10 97.5,62.5T39,260q0,129 56,199.5T245,530q48,0 84-17t72-57q1-1 2-1t1,1v7q1,24 18,40.5T463,520h12q23,0 40-17t17-40V-163q0-23-17-40t-40-17H455q-23,0-39.5,17T399-163V53q0,1-1,1t-2-1Q332-10 245-10Z" />
      <glyph unicode="r" glyph-name="r" horiz-adv-x="485" d="M126,0Q103,0 86,17T69,57V463q0,23 17,40t40,17h20q23,0 40-17t17-40V421q0-1 1-1q2,0 2,1q29,40 76,65.5T385,518q21,2 36-13.5T436,468t-15-36t-36-17Q208,401 208,235V57q0-23-17-40T151,0H126Z" />
      <glyph unicode="s" glyph-name="s" horiz-adv-x="518" d="M248,210Q143,233 98.5,273T54,377q0,72 53.5,112.5T266,530q66,0 131-12q22-4 35.5-21.5T446,456q0-19-15-30.5T397,419q-56,14-118,14q-90,0-90-50q0-24 17-40t58-25q115-23 157.5-62T464,142q0-72-54-112T253-10Q186-10 116,6Q94,11 80,29.5T66,72q0,19 15.5,29t33.5,5q65-18 123-18q91,0 91,54q0,26-17.5,41T248,210Z" />
      <glyph unicode="t" glyph-name="t" horiz-adv-x="523" d="M92,403q-20,0-34,14.5T44,452t14,34t34,14h48q9,0 9,9V633q0,23 16.5,40T205,690h20q23,0 40-17t17-40V509q0-9 9-9H405q20,0 34.5-14T454,452t-14.5-34.5T405,403H291q-9,0-9-8V193q0-65 14-84t58-19q24,0 36,2q20,2 35-9t15-30q0-22-14.5-39.5T390-6q-44-4-66-4q-97,0-136,41.5T149,180V395q0,8-9,8H92Z" />
      <glyph unicode="u" glyph-name="u" horiz-adv-x="591" d="M232-10q-88,0-128,48.5T64,203V463q0,23 17,40t40,17h16q23,0 40-17t17-40V217q0-70 19-97t64-27q41,0 76.5,35T389,203V463q0,23 17,40t40,17h20q23,0 39.5-17T522,463V57q0-23-16.5-40T466,0H453q-24,0-40.5,16.5T395,57l-1,7q0,1-1,1t-2-1Q323-10 232-10Z" />
      <glyph unicode="v" glyph-name="v" horiz-adv-x="540" d="M171,54L38,466q-7,20 5.5,37T77,520h30q25,0 45-15.5T178,465L278,78q0-1 1-1t1,1L380,465q6,24 26,39.5T451,520h26q21,0 33.5-17t5.5-37L383,54q-7-24-27.5-39T309,0H245q-25,0-45.5,15T171,54Z" />
      <glyph unicode="w" glyph-name="w" horiz-adv-x="787" d="M145,55L45,465q-5,21 8.5,38T88,520h25q25,0 44-16t23-40l62-353q0-1 1-1q2,0 2,1l63,353q5,24 24,40t43,16h50q25,0 44-16t23-40l63-353q0-1 2-1q1,0 1,1l62,353q5,24 24,40t43,16h21q22,0 35.5-17t7.5-38L651,55q-6-24-25.5-39.5T581,0H531q-24,0-43,16T464,56L399,399q0,1-1,1t-1-1L332,56q-4-24-23-40T265,0H215q-24,0-44,15.5T145,55Z" />
      <glyph unicode="x" glyph-name="x" horiz-adv-x="526" d="M85,0Q66,0 57,16t1,32L186,258q5,7 0,14L63,472q-10,16-1,32t28,16h32q26,0 48.5-13.5T205,470l68-131q0-1 1-1t1,1l68,131q12,23 34,36.5T426,520h28q19,0 28-16t-1-32L358,272q-5-7 0-14L486,48q10-16 1-32T459,0H427q-27,0-49,13.5T344,50L271,190q0,1-1,1t-1-1L196,50q-12-23-34.5-36.5T113,0H85Z" />
      <glyph unicode="y" glyph-name="y" horiz-adv-x="540" d="M203,8L37,467q-6,20 5,36.5T74,520h30q25,0 46-15.5T177,465l93-327q0-1 1-1t1,1L379,466q8,24 29,39t46,15h24q21,0 32.5-17t3.5-36L270-167q-9-24-30-38.5T193-220H169q-20,0-31.5,16.5T134-168L203-8q2,4 2,8t-2,8Z" />
      <glyph unicode="z" glyph-name="z" horiz-adv-x="558" d="M99,135L325,421q0,1 1,1q0,1-1,1H117q-20,0-34,14.5T69,472t14,34t34,14H441q20,0 34-14t14-34q0-48-30-87L233,99q0-1-1-1q0-1 1-1H441q20,0 34-14.5T489,48T475,14T441,0H117Q97,0 83,14T69,48q0,48 30,87Z" />
      <glyph unicode="{" glyph-name="braceleft" horiz-adv-x="534" d="M104,248q-21,2-35.5,16.5T54,300t14.5,35.5T104,352q39,3 57.5,30.5T180,468V610q0,86 36,123t118,37h68q20,0 34-14t14-34t-14-34.5T402,673h-5q-59,0-76-17t-17-83V463q0-65-23.5-101.5T202,302q-2,0-2-2t2-2q55-23 78.5-59.5T304,137V27q0-66 17-83t76-17h5q20,0 34-14.5T450-122t-14-34t-34-14H334q-82,0-118,37T180-10V132q0,58-18.5,85.5T104,248Z" />
      <glyph unicode="|" glyph-name="bar" horiz-adv-x="382" d="M186-220q-23,0-40,17t-17,40V753q0,23 17,40t40,17h10q23,0 40-17t17-40V-163q0-23-17-40t-40-17H186Z" />
      <glyph unicode="}" glyph-name="braceright" horiz-adv-x="534" d="M332,298q2,0 2,2t-2,2q-55,23-78.5,59.5T230,463V573q0,66-17,83t-76,17h-5q-20,0-34,14.5T84,722t14,34t34,14h68q82,0 118-37t36-123V468q0-58 18.5-85.5T430,352q21-2 35.5-16.5T480,300t-14.5-35.5T430,248q-39-3-57.5-30.5T354,132V-10q0-86-36-123T200-170H132q-20,0-34,14T84-122T98-87.5T132-73h5q59,0 76,17t17,83V137q0,65 23.5,101.5T332,298Z" />
      <glyph unicode="~" glyph-name="asciitilde" horiz-adv-x="683" d="M140,263q-13-15-33-17T71,257q-17,15-19.5,36.5T62,333q66,80 159,80q82,0 151-68q47-47 93-47q45,0 81,39q14,15 34,17t35-11q17-15 20-36.5T624,267q-65-80-159-80q-81,0-151,68q-47,47-93,47q-44,0-81-39Z" />
      <glyph unicode="&#xa0;" glyph-name="uni00A0" horiz-adv-x="284" />
      <glyph unicode="&#xa1;" glyph-name="exclamdown" horiz-adv-x="380" d="M164-220q-23,0-39,17t-15,40l15,406q1,24 18,40.5T184,300h14q24,0 41-16.5T257,243l15-406q1-23-15-40t-39-17H164Zm10,600q-23,0-39.5,17T118,437v26q0,23 16.5,40T174,520h34q23,0 39.5-17T264,463V437q0-23-16.5-40T208,380H174Z" />
      <glyph unicode="&#xa2;" glyph-name="cent" horiz-adv-x="527" d="M256,419q-82-27-82-159q0-67 19.5-105T256,102q9-2 9,6V413q0,8-9,6ZM256-6Q34,21 34,260q0,243 222,267q9,2 9,10V640q0,21 14.5,35.5T315,690t35.5-14.5T365,640V536q0-9 8-9q22-2 35-4q23-3 38-21t15-42q0-20-16-32t-36-8q-25,4-35,5q-9,2-9-7V101q0-7 8-7q12,1 43,7q20,5 36-7t16-31q0-24-15-42T415-1L373-7q-8,0-8-9V-130q0-21-14.5-35.5T315-180t-35.5,14.5T265-130V-16q0,8-9,10Z" />
      <glyph unicode="&#xa3;" glyph-name="sterling" horiz-adv-x="622" d="M126,0Q103,0 86,17T69,57V70q0,31 41,58q56,37 56,139v48q0,8-9,8H134q-20,0-34,14.5T86,372t14,34t34,14h23q9,0 9,9V530q0,100 62.5,155T408,740q38,0 75-6q24-4 39.5-25T538,663v-3q0-20-16.5-32T484,621q-28,6-60,6q-64,0-92-26t-28-84V429q0-9 9-9H441q20,0 34-14t14-34t-14-34.5T441,323H313q-9,0-9-8V267q0-55-19-95.5T236,116v-2q0-1 1-1H496q23,0 40-16.5T553,57T536,17T496,0H126Z" />
      <glyph unicode="&#xa4;" glyph-name="currency" horiz-adv-x="646" d="M415,457q-38,38-92,38t-92-38t-38-92t38-92t92-38t92,38t38,92t-38,92ZM68,179l49,48q6,6 1,13Q83,297 83,365t35,125q5,7-1,13L68,551q-14,14-14,34.5T68,620t34.5,14T137,620l48-49q6-6 13-1q58,35 125.5,35T448,570q7-5 13,1l48,49q15,14 35,14t34-14t14-34.5T578,551l-49-48q-6-6-1-13q35-57 35-125T528,240q-5-7 1-13l49-48q14-14 14-34.5T578,110T544,96t-35,14l-48,49q-6,6-13,1q-57-35-124.5-35T198,160q-7,5-13-1l-48-49q-14-14-34.5-14T68,110T54,144.5T68,179Z" />
      <glyph unicode="&#xa5;" glyph-name="yen" horiz-adv-x="642" d="M208,377L41,680q-9,16 1,33t29,17h48q26,0 48-14t33-37L330,404q0-1 1-1t1,1L462,679q11,23 33,37t48,14h44q19,0 29-17t1-33L450,377q-2-2-0.5-4.5T454,370h97q17,0 29-12.5T592,328t-12-29t-29-12H410q-9,0-9-9V222q0-9 9-9H551q17,0 29-12t12-29t-12-29.5T551,130H410q-9,0-9-9V57q0-23-16.5-40T345,0H313q-23,0-39.5,17T257,57v64q0,9-9,9H107q-17,0-29,12.5T66,172t12,29t29,12H248q9,0 9,9v56q0,9-9,9H107q-17,0-29,12T66,328t12,29.5T107,370h97q3,0 4,2.5t0,4.5Z" />
      <glyph unicode="&#xa6;" glyph-name="brokenbar" horiz-adv-x="382" d="M186-140q-23,0-40,17T129-83V163q0,23 17,40t40,17h10q23,0 40-17t17-40V-83q0-23-17-40t-40-17H186Zm0,510q-23,0-40,17t-17,40V673q0,23 17,40t40,17h10q23,0 40-17t17-40V427q0-23-17-40t-40-17H186Z" />
      <glyph unicode="&#xa7;" glyph-name="section" horiz-adv-x="548" d="M205,383q-40-26-40-72q0-39 25.5-60.5T284,215q9-2 24-5.5t18-4.5q9-3 17,2q40,26 40,72q0,39-25.5,60.5T264,375q-9,2-24,5.5T222,385q-9,3-17-2Zm-89,48Q54,476 54,562q0,77 60,127.5T274,740q73,0 141-17q24-6 39-27.5T469,648v-3q0-20-17-30.5T416,610q-63,21-128,21q-52,0-79-19t-27-50q0-30 22.5-48.5T278,485q115-21 165.5-66T494,299q0-84-62-131q-2-2-2-5t2-4q62-45 62-131q0-77-60-127.5T274-150q-73,0-141,17q-24,6-39,27.5T79-58v3q0,20 17,30.5T132-20q63-21 128-21q52,0 79,19t27,50q0,30-22.5,48.5T270,105q-115,21-165.5,66T54,291q0,84 62,131q2,2 2,5t-2,4Z" />
      <glyph unicode="&#xa8;" glyph-name="dieresis" horiz-adv-x="492" d="M346,607q-23,0-40,16.5T289,663v27q0,23 17,40t40,17h10q23,0 40-17t17-40V663q0-23-17-39.5T356,607H346Zm-210,0q-23,0-40,16.5T79,663v27q0,23 17,40t40,17h10q23,0 40-17t17-40V663q0-23-17-39.5T146,607H136Z" />
      <glyph unicode="&#xa9;" glyph-name="copyright" horiz-adv-x="812" d="M430,148q-102,0-160,56T212,365q0,103 56.5,160T426,582q47,0 77-5q18-3 29.5-17T544,527q0-16-12.5-25.5T504,496q-32,7-65,7q-56,0-87.5-35.5T320,365q0-66 34-102.5T443,226q34,0 66,7q15,4 27.5-5T549,203q0-18-11.5-32.5T508,153q-30-5-78-5ZM616,575q-87,87-210,87T196,575T109,365t87-210T406,68t210,87t87,210T616,575Zm53-473Q560-7 406-7T143,102T34,365T143,628T406,737T669,628T778,365T669,102Z" />
      <glyph unicode="&#xaa;" glyph-name="ordfeminine" horiz-adv-x="638" d="M123,180q-16,0-27.5,11.5T84,219t11.5,27T123,257H515q16,0 27.5-11T554,219t-11.5-27.5T515,180H123ZM386,495v12q0,9-9,9H346q-57,0-86-19t-29-52q0-25 15.5-41T285,388q45,0 73,29t28,78Zm-9,88q9,0 9,8v5q0,36-18,51.5T306,663q-43,0-113-17q-15-4-27,5t-12,24q0,18 11,32.5T194,726q68,14 115,14q103,0 143.5-36.5T493,575V366q0-20-15-35t-35-15q-21,0-35.5,14.5T392,366v7l-1,1q-2,0-2-1q-48-65-134-65q-55,0-90,35.5T130,436q0,147 216,147h31Z" />
      <glyph unicode="&#xab;" glyph-name="guillemotleft" horiz-adv-x="728" d="M403,216q-38,27-38,74t38,74L592,497q14,11 30.5,2.5T639,473v-3q0-56-47-88L458,292q-1,0-1-2t1-2l134-90q47-32 47-88v-3q0-18-16.5-26.5T592,83L403,216ZM286,497q14,11 30,2.5T332,473v-3q0-56-47-88L151,292q-1,0-1-2t1-2l134-90q47-32 47-88v-3q0-18-16-26.5T286,83L97,216q-38,27-38,74t38,74L286,497Z" />
      <glyph unicode="&#xac;" glyph-name="logicalnot" horiz-adv-x="672" d="M108,358q-22,0-38,16T54,412t16,37.5T108,465H531q23,0 40-17t17-40V195q0-23-17-40t-40-17h-7q-23,0-39.5,17T468,195V350q0,8-9,8H108Z" />
      <glyph unicode="&#xad;" glyph-name="uni00AD" horiz-adv-x="482" d="M131,233q-23,0-40,17T74,290t17,40t40,17H351q23,0 40-17t17-40t-17-40t-40-17H131Z" />
      <glyph unicode="&#xae;" glyph-name="registered" horiz-adv-x="812" d="M352,496V391q0-8 8-8h27q89,0 89,64q0,60-85,60q-20,0-30-1q-9-2-9-10ZM337,168q-15-15-37-15t-37,15t-15,37V517q0,24 16.5,42.5T305,579q45,3 92,3q184,0 184-125q0-39-23.5-70T495,343q-2,0-2-1l1-1q31-17 52-69l28-68q7-18-4-34.5T539,153q-24,0-44.5,14T466,204l-24,64q-9,24-21,33t-38,9H360q-8,0-8-9V205q0-22-15-37ZM616,575q-87,87-210,87T196,575T109,365t87-210T406,68t210,87t87,210T616,575Zm53-473Q560-7 406-7T143,102T34,365T143,628T406,737T669,628T778,365T669,102Z" />
      <glyph unicode="&#xaf;" glyph-name="macron" horiz-adv-x="482" d="M103,620q-20,0-34.5,14T54,668t14.5,34.5T103,717H379q20,0 34.5-14.5T428,668t-14.5-34T379,620H103Z" />
      <glyph unicode="&#xb0;" glyph-name="degree" horiz-adv-x="404" d="M253,627.5Q232,648 202,648t-51-20.5T130,577t21-51t51-21t51,21t21,51t-21,50.5ZM317,461q-48-48-115-48T87,461T39,577q0,67 47.5,115T202,740t115.5-48T365,577q0-68-48-116Z" />
      <glyph unicode="&#xb1;" glyph-name="plusminus" horiz-adv-x="754" d="M137-40q-22,0-37.5,15.5T84,13T99.5,51T137,67H617q22,0 37.5-16T670,13T654.5-24.5T617-40H137Zm0,373q-22,0-37.5,16T84,387t15.5,37.5T137,440H312q8,0 8,9V593q0,23 17,40t40,17t40-17t17-40V449q0-9 8-9H617q22,0 37.5-15.5T670,387t-15.5-38T617,333H442q-8,0-8-8V180q0-23-17-40t-40-17t-40,17t-17,40V325q0,8-8,8H137Z" />
      <glyph unicode="&#xb2;" glyph-name="uni00B2" horiz-adv-x="390" d="M86,292q-16,0-27.5,11.5T47,331q0,38 30,62q102,82 135,124t33,81q0,59-64,59q-35,0-85-18q-14-5-27,4T56,667q0,20 11.5,36T97,723q52,13 97,13q71,0 109.5-34T342,607q0-52-35-101.5T173,371q-1,0-1-1v-1H307q16,0 27.5-11T346,331t-11.5-27.5T307,292H86Z" />
      <glyph unicode="&#xb3;" glyph-name="uni00B3" horiz-adv-x="390" d="M84,653q-16,0-27,11T46,691t11,27.5T84,730H297q16,0 27-11.5T335,691q0-39-29-63l-94-77v-1v-1h9q55,0 87.5-32T341,428q0-70-41.5-106T178,286q-48,0-89,10q-18,4-28.5,19T50,349q0,15 12,23.5T88,376q47-14 81-14q79,0 79,64q0,31-22,45.5T138,486q-14,0-23.5,9.5T105,518q0,31 24,52l93,81v1v1H84Z" />
      <glyph unicode="&#xb4;" glyph-name="acute" horiz-adv-x="260" d="M75,590q-19,0-28,16t1,32l48,77q13,22 36,35t50,13h53q16,0 23-15t-4-27l-78-89q-38-42-94-42H75Z" />
      <glyph unicode="&#xb5;" glyph-name="mu" horiz-adv-x="597" d="M126-220q-23,0-40,17T69-163V463q0,23 17,40t40,17h13q23,0 40-17t17-40V210q0-67 19-91.5T281,94q44,0 80.5,44.5T398,243V463q0,23 16.5,40T454,520h17q23,0 40-17t17-40V57q0-23-17-40T471,0h-8q-24,0-41,16.5T404,57l-1,15q0,1-1,1t-1-1q-26-38-64.5-60T258-10q-34,0-55,10q-7,4-7-4V-163q0-23-17-40t-40-17H126Z" />
      <glyph unicode="&#xb6;" glyph-name="paragraph" horiz-adv-x="678" d="M250,270q-92,4-156.5,70.5T29,500q0,95 67.5,162.5T259,730H542q23,0 40-17t17-40V-83q0-23-17-40t-40-17h-3q-23,0-40,17T482-83V618q0,9-8,9H384q-9,0-9-9V-83q0-23-16.5-40T319-140h-4q-23,0-39.5,17T259-83V262q0,8-9,8Z" />
      <glyph unicode="&#xb7;" glyph-name="periodcentered" horiz-adv-x="338" d="M146,205q-23,0-40,17T89,262v56q0,23 17,40t40,17h46q23,0 40-17t17-40V262q0-23-17-40t-40-17H146Z" />
      <glyph unicode="&#xb8;" glyph-name="cedilla" horiz-adv-x="408" d="M90-214q-20,4-33,22T44-152q0,17 14,26.5T90-121q25-7 55-7q79,0 79,61q0,17-6,30q-5,12 0.5,24.5T237,0h7q63,0 83-45q12-27 12-53q0-57-47-89.5T154-220q-32,0-64,6Z" />
      <glyph unicode="&#xb9;" glyph-name="uni00B9" horiz-adv-x="390" d="M90,570q-14-10-28.5-2.5T47,592q0,52 43,84l34,25q40,29 89,29q20,0 35-15t15-35V342q0-20-15-35t-35-15t-34.5,15T164,342V624h-1L90,570Z" />
      <glyph unicode="&#xba;" glyph-name="ordmasculine" horiz-adv-x="638" d="M123,180q-16,0-27.5,11.5T84,219t11.5,27T123,257H515q16,0 27.5-11T554,219t-11.5-27.5T515,180H123ZM224,524q0-139 95-139t95,139T319,663T224,524ZM169.5,683Q223,740 319,740t149.5-57T522,524T468.5,365T319,308T169.5,365T116,524t53.5,159Z" />
      <glyph unicode="&#xbb;" glyph-name="guillemotright" horiz-adv-x="728" d="M325,364q38-27 38-74t-38-74L136,83q-14-11-30.5-2.5T89,107v3q0,56 47,88l134,90q1,0 1,2t-1,2L136,382q-47,32-47,88v3q0,18 16.5,26.5T136,497L325,364ZM442,83q-14-11-30-2.5T396,107v3q0,56 47,88l134,90q1,0 1,2t-1,2L443,382q-47,32-47,88v3q0,18 16,26.5t30-2.5L631,364q38-27 38-74t-38-74L442,83Z" />
      <glyph unicode="&#xbc;" glyph-name="onequarter" horiz-adv-x="840" d="M649,169V325v1l-1-1L532,162v-1h1H641q8,0 8,8Zm118-8q16,0 27-11t11-27T794,96.5T767,86H748q-8,0-8-9V45q0-19-13.5-32T694,0T662,13T649,45V77q0,9-8,9H487q-16,0-27,10.5T449,123q0,37 22,68L623,401q27,37 71,37q19,0 32.5-13T740,393V169q0-8 8-8h19ZM193,0q-17,0-25,15t2,29L597,686q28,44 83,44q17,0 25.5-15T704,686L276,44Q248,0 193,0ZM77,570q-13-10-27.5-2.5T35,592q0,53 42,84l34,25q40,29 90,29q20,0 35-15t15-35V342q0-20-15-35t-35-15t-35,15t-15,35V624h-1L77,570Z" />
      <glyph unicode="&#xbd;" glyph-name="onehalf" horiz-adv-x="840" d="M796,315q0-52-35-101.5T627,79q-1,0-1-1l1-1H762q16,0 27-11.5T800,38T789,11T762,0H540q-16,0-27.5,11T501,38q0,39 31,63q102,82 134.5,124T699,306q0,59-64,59q-31,0-85-18q-14-5-27,4t-13,24q0,20 11.5,36T551,431q52,13 97,13q71,0 109.5-34T796,315ZM637,730q17,0 25-15t-2-29L233,44Q205,0 150,0q-17,0-25.5,15T126,44L554,686q28,44 83,44ZM77,570q-13-10-27.5-2.5T35,592q0,53 42,84l34,25q40,29 90,29q20,0 35-15t15-35V342q0-20-15-35t-35-15t-35,15t-15,35V624h-1L77,570Z" />
      <glyph unicode="&#xbe;" glyph-name="threequarters" horiz-adv-x="840" d="M649,169V325v1l-1-1L532,162v-1h1H641q8,0 8,8Zm118-8q16,0 27-11t11-27T794,96.5T767,86H748q-8,0-8-9V45q0-19-13.5-32T694,0T662,13T649,45V77q0,9-8,9H487q-16,0-27,10.5T449,123q0,37 22,68L623,401q27,37 71,37q19,0 32.5-13T740,393V169q0-8 8-8h19ZM692,730q17,0 25-15t-2-29L288,44Q260,0 205,0q-17,0-25.5,15T181,44L609,686q28,44 83,44ZM89,653q-16,0-27.5,11T50,691t11.5,27.5T89,730H301q16,0 27.5-11.5T340,691q0-38-30-63l-93-77l-1-1l1-1h8q55,0 88-32.5T346,428q0-70-42-106T182,286q-47,0-88,10q-18,4-29,19T54,349q0,15 12,23.5T92,376q47-14 81-14q80,0 80,64q0,31-22.5,45.5T142,486q-14,0-23,9t-9,23q0,31 24,52l92,81v1v1H89Z" />
      <glyph unicode="&#xbf;" glyph-name="questiondown" horiz-adv-x="615" d="M343,520h33q23,0 40-17t17-40V437q0-23-17-40t-40-17H343q-23,0-40,17t-17,40v26q0,23 17,40t40,17ZM313-230q-121,0-187.5,47.5T59-57q0,36 9,64.5t29.5,52t37,37.5T181,133q26,19 41,31.5t33,34T282,242q23,55 67,55h20q24,0 40-17.5T420,240q-9-37-32.5-70t-42-49.5T293,77q-31-24-44.5-36t-28-34.5T206-40q0-77 127-77q74,0 168,23q20,5 37.5-7.5T556-135v-8q0-25-16-45t-40-24q-93-18-187-18Z" />
      <glyph unicode="&#xc0;" glyph-name="Agrave" horiz-adv-x="653" d="M242,292q-1-3 1-6t5-3H414q3,0 5,3t1,6L332,606q0,1-1,1t-1-1L242,292ZM71,0Q50,0 38,17T33,54L240,676q9,24 29.5,39T315,730h36q26,0 46.5-15T426,676L633,54q7-20-5-37T595,0H559q-24,0-44.5,15.5T487,55L455,168q-1,8-11,8H218q-9,0-11-8L175,55q-6-24-26.5-39.5T103,0H71ZM263,963q27,0 50-13t36-35l48-77q10-16 1-32t-28-16h-7q-56,0-94,42l-78,89q-11,12-4,27t23,15h53Z" />
      <glyph unicode="&#xc1;" glyph-name="Aacute" horiz-adv-x="653" d="M242,292q-1-3 1-6t5-3H414q3,0 5,3t1,6L332,606q0,1-1,1t-1-1L242,292ZM71,0Q50,0 38,17T33,54L240,676q9,24 29.5,39T315,730h36q26,0 46.5-15T426,676L633,54q7-20-5-37T595,0H559q-24,0-44.5,15.5T487,55L455,168q-1,8-11,8H218q-9,0-11-8L175,55q-6-24-26.5-39.5T103,0H71ZM403,963h53q17,0 23.5-15T475,921l-78-89q-37-42-94-42h-7q-18,0-27.5,16t0.5,32l48,77q14,22 37,35t49,13Z" />
      <glyph unicode="&#xc2;" glyph-name="Acircumflex" horiz-adv-x="653" d="M242,292q-1-3 1-6t5-3H414q3,0 5,3t1,6L332,606q0,1-1,1t-1-1L242,292ZM71,0Q50,0 38,17T33,54L240,676q9,24 29.5,39T315,730h36q26,0 46.5-15T426,676L633,54q7-20-5-37T595,0H559q-24,0-44.5,15.5T487,55L455,168q-1,8-11,8H218q-9,0-11-8L175,55q-6-24-26.5-39.5T103,0H71ZM366,963q58,0 90-45l60-82q11-14 3-30t-26-16H465q-26,0-49,13t-37,35l-44,73q0,1-2,1t-2-1l-44-73q-13-22-36-35t-50-13H173q-18,0-25.5,16t2.5,30l60,82q33,45 90,45h66Z" />
      <glyph unicode="&#xc3;" glyph-name="Atilde" horiz-adv-x="653" d="M242,292q-1-3 1-6t5-3H414q3,0 5,3t1,6L332,606q0,1-1,1t-1-1L242,292ZM71,0Q50,0 38,17T33,54L240,676q9,24 29.5,39T315,730h36q26,0 46.5-15T426,676L633,54q7-20-5-37T595,0H559q-24,0-44.5,15.5T487,55L455,168q-1,8-11,8H218q-9,0-11-8L175,55q-6-24-26.5-39.5T103,0H71ZM486,950q21,0 35.5-14.5T534,901q-14-111-94-111q-52,0-122,45q-43,28-63,28q-9,0-14-5t-8-18q-4-21-18.5-35.5T180,790q-21,0-35.5,14.5T132,840q13,120 94,120q50,0 122-45q44-28 63-28q15,0 20,14q20,49 55,49Z" />
      <glyph unicode="&#xc4;" glyph-name="Adieresis" horiz-adv-x="653" d="M242,292q-1-3 1-6t5-3H414q3,0 5,3t1,6L332,606q0,1-1,1t-1-1L242,292ZM71,0Q50,0 38,17T33,54L240,676q9,24 29.5,39T315,730h36q26,0 46.5-15T426,676L633,54q7-20-5-37T595,0H559q-24,0-44.5,15.5T487,55L455,168q-1,8-11,8H218q-9,0-11-8L175,55q-6-24-26.5-39.5T103,0H71ZM433,947h10q24,0 40.5-17T500,890V863q0-23-16.5-39.5T443,807H433q-23,0-40,16.5T376,863v27q0,23 17,40t40,17Zm-210,0h10q24,0 40.5-17T290,890V863q0-23-16.5-39.5T233,807H223q-23,0-40,16.5T166,863v27q0,23 17,40t40,17Z" />
      <glyph unicode="&#xc5;" glyph-name="Aring" horiz-adv-x="653" d="M242,292q-1-3 1-6t5-3H414q3,0 5,3t1,6L332,606q0,1-1,1t-1-1L242,292ZM71,0Q50,0 38,17T33,54L240,676q9,24 29.5,39T315,730h36q26,0 46.5-15T426,676L633,54q7-20-5-37T595,0H559q-24,0-44.5,15.5T487,55L455,168q-1,8-11,8H218q-9,0-11-8L175,55q-6-24-26.5-39.5T103,0H71ZM283.5,850.5Q304,830 333.5,830T383,850.5T403,900t-20,49.5T333.5,970t-50-20.5T263,900t20.5-49.5Zm-47,146q40.5,40.5 97,40.5T430,996.5T470,900t-40-96.5T333.5,763t-97,40.5T196,900t40.5,96.5Z" />
      <glyph unicode="&#xc6;" glyph-name="AE" horiz-adv-x="823" d="M241,291q0-3 1.5-5.5T247,283H355q9,0 9,9V608q0,9-9,9h-7q-9,0-11-8L241,291ZM71,0Q50,0 38,17T33,54L249,676q9,24 29.5,39T324,730H704q24,0 40.5-17T761,673t-16.5-39.5T704,617H506q-9,0-9-9V447q0-9 9-9H687q23,0 38.5-16T741,384t-15.5-37.5T687,331H506q-9,0-9-9V122q0-9 9-9H704q24,0 40.5-16.5T761,57T744.5,17T704,0H421q-23,0-40,17T364,57V167q0,9-9,9H214q-9,0-11-8L169,54q-7-24-27-39T96,0H71Z" />
      <glyph unicode="&#xc7;" glyph-name="Ccedilla" horiz-adv-x="634" d="M314-6Q183,12 108.5,108T34,365q0,178 89.5,276.5T374,740q68,0 124-10q25-4 40.5-23.5T554,662v-8q0-21-17.5-33T499,614q-49,13-110,13q-99,0-155.5-68T177,365q0-125 59-194t156-69q62,0 113,13q20,5 37.5-7T560,75V68q0-25-15.5-44.5T504,0q-24-4-66-8q-8,0-3-8q29-39 29-82q0-57-47-89.5T279-220q-33,0-64,6q-20,4-33,22t-13,40q0,17 14,26.5t32,4.5q25-7 55-7q79,0 79,61q0,31-20,54q-5,5-15,7Z" />
      <glyph unicode="&#xc8;" glyph-name="Egrave" horiz-adv-x="602" d="M266,963q57,0 86-48l48-77q10-16 1-32t-28-16h-7q-57,0-94,42l-78,89q-11,12-4.5,27T213,963h53ZM136,0Q113,0 96,17T79,57V673q0,23 17,40t40,17H476q23,0 40-17t17-40t-17-39.5T476,617H228q-9,0-9-9V447q0-9 9-9H459q23,0 38.5-16T513,384t-15.5-37.5T459,331H228q-9,0-9-9V122q0-9 9-9H476q23,0 40-16.5T533,57T516,17T476,0H136Z" />
      <glyph unicode="&#xc9;" glyph-name="Eacute" horiz-adv-x="602" d="M346,963h53q17,0 23.5-15T418,921l-78-89q-37-42-94-42h-7q-19,0-28,16t1,32l48,77q29,48 86,48ZM136,0Q113,0 96,17T79,57V673q0,23 17,40t40,17H476q23,0 40-17t17-40t-17-39.5T476,617H228q-9,0-9-9V447q0-9 9-9H459q23,0 38.5-16T513,384t-15.5-37.5T459,331H228q-9,0-9-9V122q0-9 9-9H476q23,0 40-16.5T533,57T516,17T476,0H136Z" />
      <glyph unicode="&#xca;" glyph-name="Ecircumflex" horiz-adv-x="602" d="M339,963q57,0 90-45l60-82q11-14 3-30t-26-16H438q-57,0-86,48l-44,73q0,1-2,1t-2-1l-44-73q-29-48-86-48H146q-18,0-26,16t3,30l60,82q33,45 90,45h66ZM136,0Q113,0 96,17T79,57V673q0,23 17,40t40,17H476q23,0 40-17t17-40t-17-39.5T476,617H228q-9,0-9-9V447q0-9 9-9H459q23,0 38.5-16T513,384t-15.5-37.5T459,331H228q-9,0-9-9V122q0-9 9-9H476q23,0 40-16.5T533,57T516,17T476,0H136Z" />
      <glyph unicode="&#xcb;" glyph-name="Edieresis" horiz-adv-x="602" d="M406,947h10q23,0 40-17t17-40V863q0-23-17-39.5T416,807H406q-23,0-40,16.5T349,863v27q0,23 17,40t40,17Zm-210,0h10q23,0 40-17t17-40V863q0-23-17-39.5T206,807H196q-23,0-40,16.5T139,863v27q0,23 17,40t40,17ZM136,0Q113,0 96,17T79,57V673q0,23 17,40t40,17H476q23,0 40-17t17-40t-17-39.5T476,617H228q-9,0-9-9V447q0-9 9-9H459q23,0 38.5-16T513,384t-15.5-37.5T459,331H228q-9,0-9-9V122q0-9 9-9H476q23,0 40-16.5T533,57T516,17T476,0H136Z" />
      <glyph unicode="&#xcc;" glyph-name="Igrave" horiz-adv-x="321" d="M72,832L-6,921q-12,12-5,27t24,15H66q26,0 49.5-13T153,915l47-77q9-16 0-32t-27-16h-7q-57,0-94,42Zm61-102h40q23,0 40-17t17-40V57q0-23-17-40T173,0H133Q109,0 92.5,17T76,57V673q0,23 16.5,40T133,730Z" />
      <glyph unicode="&#xcd;" glyph-name="Iacute" horiz-adv-x="321" d="M316,963q17,0 23.5-15T335,921l-78-89q-37-42-94-42h-7q-19,0-28,16t1,32l47,77q29,48 87,48h53ZM156,0q-23,0-40,17T99,57V673q0,23 17,40t40,17h40q23,0 40-17t17-40V57q0-23-17-40T196,0H156Z" />
      <glyph unicode="&#xce;" glyph-name="Icircumflex" horiz-adv-x="296" d="M-3,790q-18,0-26,16t3,30l60,82q32,45 90,45h66q57,0 90-45l60-82q10-14 2.5-30T317,790H289q-27,0-50,13t-36,35l-44,73q0,1-2,1t-2-1l-44-73q-14-22-37-35T25,790H-3Zm180-60q23,0 40-17t17-40V57q0-23-17-40T177,0H137Q114,0 97,17T80,57V673q0,23 17,40t40,17h40Z" />
      <glyph unicode="&#xcf;" glyph-name="Idieresis" horiz-adv-x="352" d="M276,947h10q23,0 40-17t17-40V863q0-23-17-39.5T286,807H276q-23,0-40,16.5T219,863v27q0,23 17,40t40,17ZM66,807q-23,0-40,16.5T9,863v27q0,23 17,40t40,17H76q23,0 40-17t17-40V863q0-23-17-39.5T76,807H66ZM253,57q0-23-17-40T196,0H156q-23,0-40,17T99,57V673q0,23 17,40t40,17h40q23,0 40-17t17-40V57Z" />
      <glyph unicode="&#xd0;" glyph-name="Eth" horiz-adv-x="738" d="M276,314V116q0-7 8-9q32-5 60-5q117,0 172,63.5T571,375q0,131-56,192T344,628q-28,0-60-5q-8-2-8-10V438q0-8 8-8h91q23,0 38.5-16T429,376t-15.5-38T375,322H284q-8,0-8-8ZM83,322q-23,0-38.5,16T29,376t15.5,38T83,430h46q8,0 8,8V668q0,25 16,43.5T194,733q64,7 143,7q178,0 272.5-93T704,375q0-192-94.5-288.5T337-10q-79,0-143,7q-25,3-41,21.5T137,62V314q0,8-8,8H83Z" />
      <glyph unicode="&#xd1;" glyph-name="Ntilde" horiz-adv-x="704" d="M135,0Q112,0 95.5,17T79,57V673q0,23 16.5,40T135,730h22q57,0 84-50L488,234q0-1 1-1t1,1V673q0,23 17,40t40,17h22q23,0 39.5-17T625,673V57q0-23-16.5-40T569,0H547q-57,0-84,50L216,496q0,1-1,1t-1-1V57q0-23-17-40T157,0H135ZM450,901q20,49 55,49q21,0 35.5-14.5T553,901q-14-111-94-111q-52,0-122,45q-43,28-63,28q-17,0-22-23q-4-21-18.5-35.5T199,790q-21,0-35.5,14.5T151,840q13,120 94,120q50,0 122-45q43-28 63-28q15,0 20,14Z" />
      <glyph unicode="&#xd2;" glyph-name="Ograve" horiz-adv-x="734" d="M557,365q0,260-190,260T177,365T367,105T557,365ZM610.5,89Q521-10 367-10T123.5,89T34,365t89.5,276T367,740t243.5-99T700,365T610.5,89ZM297,963q57,0 86-48l48-77q10-16 1-32t-28-16h-7q-57,0-94,42l-78,89q-11,12-4.5,27T244,963h53Z" />
      <glyph unicode="&#xd3;" glyph-name="Oacute" horiz-adv-x="734" d="M557,365q0,260-190,260T177,365T367,105T557,365ZM610.5,89Q521-10 367-10T123.5,89T34,365t89.5,276T367,740t243.5-99T700,365T610.5,89ZM437,963h53q17,0 23.5-15T509,921l-78-89q-37-42-94-42h-7q-19,0-28,16t1,32l48,77q29,48 86,48Z" />
      <glyph unicode="&#xd4;" glyph-name="Ocircumflex" horiz-adv-x="734" d="M557,365q0,260-190,260T177,365T367,105T557,365ZM610.5,89Q521-10 367-10T123.5,89T34,365t89.5,276T367,740t243.5-99T700,365T610.5,89ZM400,963q57,0 90-45l60-82q11-14 3-30t-26-16H499q-57,0-86,48l-45,73q0,1-1,1q-2,0-2-1l-44-73q-29-48-86-48H207q-18,0-26,16t3,30l60,82q33,45 90,45h66Z" />
      <glyph unicode="&#xd5;" glyph-name="Otilde" horiz-adv-x="734" d="M557,365q0,260-190,260T177,365T367,105T557,365ZM610.5,89Q521-10 367-10T123.5,89T34,365t89.5,276T367,740t243.5-99T700,365T610.5,89ZM465,901q20,49 55,49q21,0 35.5-14.5T568,901q-14-111-94-111q-52,0-122,45q-43,28-63,28q-17,0-22-23q-5-21-19-35.5T214,790q-21,0-35.5,14.5T166,840q13,120 94,120q50,0 122-45q43-28 63-28q15,0 20,14Z" />
      <glyph unicode="&#xd6;" glyph-name="Odieresis" horiz-adv-x="734" d="M557,365q0,260-190,260T177,365T367,105T557,365ZM610.5,89Q521-10 367-10T123.5,89T34,365t89.5,276T367,740t243.5-99T700,365T610.5,89ZM467,947h10q23,0 40-17t17-40V863q0-23-17-39.5T477,807H467q-23,0-40,16.5T410,863v27q0,23 17,40t40,17Zm-210,0h10q23,0 40-17t17-40V863q0-23-17-39.5T267,807H257q-23,0-40,16.5T200,863v27q0,23 17,40t40,17Z" />
      <glyph unicode="&#xd7;" glyph-name="multiply" horiz-adv-x="583" d="M56,139L200,284q6,6 0,12L56,441q-17,17-17,40t17,40l4,5q17,16 40.5,16T140,526L286,381q6-6 12,0L442,526q17,16 40.5,16T522,526l6-5q16-17 16-40t-16-40L382,296q-6-6 0-12L528,139q16-17 16-40T528,59l-6-5q-16-16-39.5-16T442,54L298,199q-6,6-12,0L140,54q-16-16-39.5-16T60,54l-4,5Q39,76 39,99t17,40Z" />
      <glyph unicode="&#xd8;" glyph-name="Oslash" horiz-adv-x="744" d="M372,625q-190,0-190-260q0-84 19-138q1-2 3-2t4,2L455,599q4,8-2,11q-35,15-81,15ZM536,503L289,131q-4-8 2-11q35-15 81-15q190,0 190,260q0,84-19,138q-1,2-3,2t-4-2ZM117,89q5,7 0,13Q39,200 39,365q0,177 89.5,276T372,740q80,0 146-29q8-3 13,3l8,12q13,19 36.5,24t42.5-8l5-4q19-13 24-36.5T639,659l-13-18q-4-6 1-13q78-98 78-263q0-177-89.5-276T372-10q-80,0-146,29q-8,3-13-3L205,4q-13-19-36.5-24T126-12l-5,4Q102,5 97,28.5T105,71l12,18Z" />
      <glyph unicode="&#xd9;" glyph-name="Ugrave" horiz-adv-x="678" d="M609,260Q609-10 339-10T69,260V673q0,23 17,40t40,17h28q23,0 40-17t17-40V252q0-78 31.5-112.5T341,105t98.5,34.5T471,252V673q0,23 17,40t40,17h24q23,0 40-17t17-40V260ZM299,963q57,0 86-48l48-77q10-16 1-32t-28-16h-7q-57,0-94,42l-78,89q-11,12-4.5,27T246,963h53Z" />
      <glyph unicode="&#xda;" glyph-name="Uacute" horiz-adv-x="678" d="M609,260Q609-10 339-10T69,260V673q0,23 17,40t40,17h28q23,0 40-17t17-40V252q0-78 31.5-112.5T341,105t98.5,34.5T471,252V673q0,23 17,40t40,17h24q23,0 40-17t17-40V260ZM379,963h53q17,0 23.5-15T451,921l-78-89q-37-42-94-42h-7q-19,0-28,16t1,32l48,77q29,48 86,48Z" />
      <glyph unicode="&#xdb;" glyph-name="Ucircumflex" horiz-adv-x="678" d="M609,260Q609-10 339-10T69,260V673q0,23 17,40t40,17h28q23,0 40-17t17-40V252q0-78 31.5-112.5T341,105t98.5,34.5T471,252V673q0,23 17,40t40,17h24q23,0 40-17t17-40V260ZM372,963q57,0 90-45l60-82q11-14 3-30t-26-16H471q-57,0-86,48l-44,73q0,1-2,1t-2-1l-44-73q-29-48-86-48H179q-18,0-26,16t3,30l60,82q33,45 90,45h66Z" />
      <glyph unicode="&#xdc;" glyph-name="Udieresis" horiz-adv-x="678" d="M609,260Q609-10 339-10T69,260V673q0,23 17,40t40,17h28q23,0 40-17t17-40V252q0-78 31.5-112.5T341,105t98.5,34.5T471,252V673q0,23 17,40t40,17h24q23,0 40-17t17-40V260ZM439,947h10q23,0 40-17t17-40V863q0-23-17-39.5T449,807H439q-23,0-40,16.5T382,863v27q0,23 17,40t40,17Zm-210,0h10q23,0 40-17t17-40V863q0-23-17-39.5T239,807H229q-23,0-40,16.5T172,863v27q0,23 17,40t40,17Z" />
      <glyph unicode="&#xdd;" glyph-name="Yacute" horiz-adv-x="632" d="M247,297L36,680q-9,16 1,33t29,17h48q26,0 48-14t33-37L325,404q0-1 1-1t1,1L457,679q11,23 33,37t48,14h44q19,0 29-17t1-33L401,297q-5-8-5-16V57q0-23-16.5-40T340,0H308q-23,0-39.5,17T252,57V281q0,8-5,16ZM364,963h53q16,0 23-15t-4-27l-78-89q-37-42-94-42h-7q-19,0-28,16t1,32l48,77q13,22 36.5,35T364,963Z" />
      <glyph unicode="&#xde;" glyph-name="Thorn" horiz-adv-x="638" d="M217,506V265q0-7 8-9q38-5 74-5q81,0 123.5,35.5T465,388q0,133-166,133q-36,0-74-5q-8-2-8-10ZM135,0Q112,0 95.5,17T79,57V673q0,23 16.5,40T135,730h25q23,0 40-17t17-40V636q0-8 8-8q48,2 74,2q150,0 225-59.5T599,398q0-125-72.5-189T312,145q-33,0-87,4q-8,0-8-8V57q0-23-17-40T160,0H135Z" />
      <glyph unicode="&#xdf;" glyph-name="germandbls" horiz-adv-x="614" d="M130,0Q107,0 90.5,17T74,57V532q0,119 56.5,173.5T314,760q114,0 175-41t61-112q0-39-26-86t-51.5-83T447,390q0-11 21-37.5T513.5,298T559,228.5T580,150Q580-10 385-10q-27,0-67,5q-25,4-40.5,23T262,62v1q0,21 17.5,34t38.5,9q24-4 47-4q79,0 79,71q0,23-20.5,54.5t-45.5,57t-45.5,55T312,390q0,26 55,99t55,104q0,59-102,59q-63,0-85.5-24.5T212,535V57q0-23-17-40T155,0H130Z" />
      <glyph unicode="&#xe0;" glyph-name="agrave" horiz-adv-x="561" d="M314,250q-143,0-143-88q0-32 18.5-52T237,90q57,0 92,35.5T364,223v18q0,9-9,9H314ZM201-10Q133-10 88.5,34.5T44,150q0,87 66.5,135T314,333h41q9,0 9,9v8q0,46-22,64.5T264,433q-58,0-142-21q-18-5-33,6.5T74,449q0,23 14,41.5T124,513q76,17 143,17q128,0 179-46t51-161V57q0-23-16.5-40T441,0H430q-24,0-41,16.5T371,57V71q0,1-1,1q-2,0-2-1Q307-10 201-10Zm8,773q57,0 86-48l48-77q10-16 1-32t-28-16h-7q-57,0-94,42l-78,89q-11,12-4.5,27T156,763h53Z" />
      <glyph unicode="&#xe1;" glyph-name="aacute" horiz-adv-x="561" d="M314,250q-143,0-143-88q0-32 18.5-52T237,90q57,0 92,35.5T364,223v18q0,9-9,9H314ZM201-10Q133-10 88.5,34.5T44,150q0,87 66.5,135T314,333h41q9,0 9,9v8q0,46-22,64.5T264,433q-58,0-142-21q-18-5-33,6.5T74,449q0,23 14,41.5T124,513q76,17 143,17q128,0 179-46t51-161V57q0-23-16.5-40T441,0H430q-24,0-41,16.5T371,57V71q0,1-1,1q-2,0-2-1Q307-10 201-10ZM349,763h53q17,0 23.5-15T421,721l-78-89q-37-42-94-42h-7q-19,0-28,16t1,32l48,77q29,48 86,48Z" />
      <glyph unicode="&#xe2;" glyph-name="acircumflex" horiz-adv-x="561" d="M314,250q-143,0-143-88q0-32 18.5-52T237,90q57,0 92,35.5T364,223v18q0,9-9,9H314ZM201-10Q133-10 88.5,34.5T44,150q0,87 66.5,135T314,333h41q9,0 9,9v8q0,46-22,64.5T264,433q-58,0-142-21q-18-5-33,6.5T74,449q0,23 14,41.5T124,513q76,17 143,17q128,0 179-46t51-161V57q0-23-16.5-40T441,0H430q-24,0-41,16.5T371,57V71q0,1-1,1q-2,0-2-1Q307-10 201-10ZM312,763q57,0 90-45l60-82q11-14 3-30t-26-16H411q-57,0-86,48l-44,73q0,1-2,1t-2-1l-44-73q-29-48-86-48H119q-18,0-26,16t3,30l60,82q33,45 90,45h66Z" />
      <glyph unicode="&#xe3;" glyph-name="atilde" horiz-adv-x="561" d="M314,250q-143,0-143-88q0-32 18.5-52T237,90q57,0 92,35.5T364,223v18q0,9-9,9H314ZM201-10Q133-10 88.5,34.5T44,150q0,87 66.5,135T314,333h41q9,0 9,9v8q0,46-22,64.5T264,433q-58,0-142-21q-18-5-33,6.5T74,449q0,23 14,41.5T124,513q76,17 143,17q128,0 179-46t51-161V57q0-23-16.5-40T441,0H430q-24,0-41,16.5T371,57V71q0,1-1,1q-2,0-2-1Q307-10 201-10ZM432,740q21,0 35.5-14.5T480,691q-14-111-94-111q-52,0-122,45q-43,28-63,28q-17,0-22-23q-4-21-18.5-35.5T126,580q-21,0-35.5,14.5T78,630q13,120 94,120q50,0 122-45q43-28 63-28q15,0 20,14q20,49 55,49Z" />
      <glyph unicode="&#xe4;" glyph-name="adieresis" horiz-adv-x="561" d="M314,250q-143,0-143-88q0-32 18.5-52T237,90q57,0 92,35.5T364,223v18q0,9-9,9H314ZM201-10Q133-10 88.5,34.5T44,150q0,87 66.5,135T314,333h41q9,0 9,9v8q0,46-22,64.5T264,433q-58,0-142-21q-18-5-33,6.5T74,449q0,23 14,41.5T124,513q76,17 143,17q128,0 179-46t51-161V57q0-23-16.5-40T441,0H430q-24,0-41,16.5T371,57V71q0,1-1,1q-2,0-2-1Q307-10 201-10ZM389,747q23,0 40-17t17-40V663q0-23-17-39.5T389,607H379q-23,0-40,16.5T322,663v27q0,23 17,40t40,17h10Zm-220,0h10q23,0 40-17t17-40V663q0-23-17-39.5T179,607H169q-23,0-40,16.5T112,663v27q0,23 17,40t40,17Z" />
      <glyph unicode="&#xe5;" glyph-name="aring" horiz-adv-x="561" d="M314,250q-143,0-143-88q0-32 18.5-52T237,90q57,0 92,35.5T364,223v18q0,9-9,9H314ZM201-10Q133-10 88.5,34.5T44,150q0,87 66.5,135T314,333h41q9,0 9,9v8q0,46-22,64.5T264,433q-58,0-142-21q-18-5-33,6.5T74,449q0,23 14,41.5T124,513q76,17 143,17q128,0 179-46t51-161V57q0-23-16.5-40T441,0H430q-24,0-41,16.5T371,57V71q0,1-1,1q-2,0-2-1Q307-10 201-10Zm28.5,650.5Q250,620 279,620t49.5,20.5T349,690t-20.5,49.5T279,760t-49.5-20.5T209,690t20.5-49.5Zm-47,146Q223,827 279,827t96.5-40.5T416,690t-40.5-96.5T279,553t-96.5,40.5T142,690t40.5,96.5Z" />
      <glyph unicode="&#xe6;" glyph-name="ae" horiz-adv-x="877" d="M314,250q-143,0-143-88q0-33 21.5-52.5T251,90q48,0 80.5,36.5T364,223v18q0,9-8,9H314ZM611,437q-51,0-78.5-28.5T498,317q0-8 8-8H703q8,0 8,8q-4,120-100,120ZM231-10Q144-10 94,33T44,150q0,87 66.5,135T314,333h42q8,0 8,9v8q0,46-22,64.5T264,433q-57,0-141-21q-18-5-33.5,6.5T74,449q0,23 14,41.5T124,513q76,17 144,17q122,0 174-43q7-5 13-1q59,44 154,44q223,0 229-252q1-23-17-39.5T778,222H506q-10,0-8-9q7-67 45-97.5T653,85q45,0 100,15q18,5 33-6t15-30q0-23-13.5-40.5T752,2Q696-10 636-10Q498-10 429,64q-5,6-11,0Q351-10 231-10Z" />
      <glyph unicode="&#xe7;" glyph-name="ccedilla" horiz-adv-x="508" d="M242-7Q141,6 87.5,73.5T34,260q0,131 64.5,200.5T282,530q53,0 102-7q23-3 38-21t15-42q0-20-15.5-32T386,420q-39,8-87,8q-63,0-94-40T174,260q0-90 33-129T309,92q49,0 85,9q19,5 34.5-7T444,63q0-24-15-42T391-1q-8-2-28-4q-3,0-4.5-2.5T359-12q32-42 32-86q0-57-47-89.5T206-220q-32,0-64,6q-20,4-33,22T96-152q0,17 14,26.5t32,4.5q25-7 55-7q79,0 79,61q0,30-20,53q-5,5-14,7Z" />
      <glyph unicode="&#xe8;" glyph-name="egrave" horiz-adv-x="546" d="M281,437q-51,0-78.5-28.5T168,317q0-8 8-8H372q8,0 8,8q-4,120-99,120ZM306-10Q175-10 104.5,58.5T34,260q0,132 63,201t182,69q222,0 228-252q1-24-17-40t-42-16H175q-9,0-7-9q7-67 44.5-97.5T322,85q45,0 100,15q18,5 33.5-6T471,64q0-23-13.5-40.5T422,2Q366-10 306-10ZM239,763q57,0 86-48l48-77q10-16 1-32t-28-16h-7q-57,0-94,42l-78,89q-11,12-4.5,27T186,763h53Z" />
      <glyph unicode="&#xe9;" glyph-name="eacute" horiz-adv-x="546" d="M281,437q-51,0-78.5-28.5T168,317q0-8 8-8H372q8,0 8,8q-4,120-99,120ZM306-10Q175-10 104.5,58.5T34,260q0,132 63,201t182,69q222,0 228-252q1-24-17-40t-42-16H175q-9,0-7-9q7-67 44.5-97.5T322,85q45,0 100,15q18,5 33.5-6T471,64q0-23-13.5-40.5T422,2Q366-10 306-10Zm13,773h53q17,0 23.5-15T391,721l-78-89q-37-42-94-42h-7q-19,0-28,16t1,32l48,77q29,48 86,48Z" />
      <glyph unicode="&#xea;" glyph-name="ecircumflex" horiz-adv-x="546" d="M281,437q-51,0-78.5-28.5T168,317q0-8 8-8H372q8,0 8,8q-4,120-99,120ZM306-10Q175-10 104.5,58.5T34,260q0,132 63,201t182,69q222,0 228-252q1-24-17-40t-42-16H175q-9,0-7-9q7-67 44.5-97.5T322,85q45,0 100,15q18,5 33.5-6T471,64q0-23-13.5-40.5T422,2Q366-10 306-10Zm6,773q57,0 90-45l60-82q11-14 3-30t-26-16H411q-57,0-86,48l-44,73q0,1-2,1t-2-1l-44-73q-29-48-86-48H119q-18,0-26,16t3,30l60,82q33,45 90,45h66Z" />
      <glyph unicode="&#xeb;" glyph-name="edieresis" horiz-adv-x="546" d="M281,437q-51,0-78.5-28.5T168,317q0-8 8-8H372q8,0 8,8q-4,120-99,120ZM306-10Q175-10 104.5,58.5T34,260q0,132 63,201t182,69q222,0 228-252q1-24-17-40t-42-16H175q-9,0-7-9q7-67 44.5-97.5T322,85q45,0 100,15q18,5 33.5-6T471,64q0-23-13.5-40.5T422,2Q366-10 306-10Zm83,757q23,0 40-17t17-40V663q0-23-17-39.5T389,607H379q-23,0-40,16.5T322,663v27q0,23 17,40t40,17h10Zm-220,0h10q23,0 40-17t17-40V663q0-23-17-39.5T179,607H169q-23,0-40,16.5T112,663v27q0,23 17,40t40,17Z" />
      <glyph unicode="&#xec;" glyph-name="igrave" horiz-adv-x="315" d="M65,632l-78,89q-12,12-5,27T6,763H59q26,0 49.5-13T146,715l47-77q9-16 0-32t-27-16h-7q-57,0-94,42ZM167,520q23,0 40-17t17-40V57q0-23-17-40T167,0H141q-24,0-40.5,17T84,57V463q0,23 16.5,40T141,520h26Z" />
      <glyph unicode="&#xed;" glyph-name="iacute" horiz-adv-x="315" d="M317,763q17,0 23.5-15T336,721l-78-89q-37-42-94-42h-7q-19,0-28,16t1,32l47,77q29,48 87,48h53ZM156,0q-23,0-40,17T99,57V463q0,23 17,40t40,17h26q23,0 40-17t17-40V57q0-23-17-40T182,0H156Z" />
      <glyph unicode="&#xee;" glyph-name="icircumflex" horiz-adv-x="280" d="M-11,590q-18,0-26,16t3,30l60,82q32,45 90,45h66q57,0 90-45l60-82q10-14 2.5-30T309,590H281q-27,0-50,13t-36,35l-44,73q0,1-2,1t-2-1l-44-73q-14-22-37-35T17,590H-11Zm173-70q23,0 40-17t17-40V57q0-23-17-40T162,0H136Q113,0 96,17T79,57V463q0,23 17,40t40,17h26Z" />
      <glyph unicode="&#xef;" glyph-name="idieresis" horiz-adv-x="336" d="M268,747h10q23,0 40-17t17-40V663q0-23-17-39.5T278,607H268q-23,0-40,16.5T211,663v27q0,23 17,40t40,17ZM58,607q-23,0-40,16.5T1,663v27q0,23 17,40t40,17H68q23,0 40-17t17-40V663q0-23-17-39.5T68,607H58ZM98,463q0,23 17,40t40,17h26q23,0 40-17t17-40V57q0-23-17-40T181,0H155q-23,0-40,17T98,57V463Z" />
      <glyph unicode="&#xf0;" glyph-name="eth" horiz-adv-x="581" d="M380,386.5Q348,429 290,429t-89.5-42.5T169,261q0-84 33-128t88-44t88.5,44T412,261q0,83-32,125.5ZM473,64Q404-9 290-9T107.5,64T39,261q0,115 67.5,185.5T290,517q40,0 74-20h2v2q-19,43-52,73q-7,5-14,2L159,516q-15-6-30.5,0.5T107,538q-6,16 0.5,31T129,590l83,34q2,1 2,3t-2,3q-31,10-61,14q-20,2-32.5,16.5T106,694t13.5,32T152,738q107-9 185-54q7-4 16-1l105,43q15,6 30.5-0.5T510,704q6-16-0.5-31T488,652l-63-26q-7-4-2-9Q542,490 542,261q0-124-69-197Z" />
      <glyph unicode="&#xf1;" glyph-name="ntilde" horiz-adv-x="597" d="M126,0Q103,0 86,17T69,57V463q0,23 17,40t40,17h13q24,0 40.5-16.5T197,463v-7q0-1 1-1t2,1q68,74 159,74t132.5-51.5T533,307V57q0-23-17-40T476,0H459q-23,0-39.5,17T403,57V297q0,75-19.5,102.5T314,427q-41,0-76-35t-35-75V57q0-23-17-40T146,0H126ZM394,691q20,49 55,49q21,0 35.5-14.5T497,691q-14-111-94-111q-52,0-122,45q-43,28-63,28q-17,0-22-23q-4-21-18.5-35.5T143,580q-21,0-35.5,14.5T95,630q13,120 94,120q50,0 122-45q43-28 63-28q15,0 20,14Z" />
      <glyph unicode="&#xf2;" glyph-name="ograve" horiz-adv-x="574" d="M375.5,391.5Q346,433 287,433t-88.5-41.5T169,260t29.5-131.5T287,87t88.5,41.5T405,260T375.5,391.5Zm98-331Q407-10 287-10T100.5,60.5T34,260t66.5,199.5T287,530t186.5-70.5T540,260T473.5,60.5ZM217,763q57,0 86-48l48-77q10-16 1-32t-28-16h-7q-57,0-94,42l-78,89q-11,12-4.5,27T164,763h53Z" />
      <glyph unicode="&#xf3;" glyph-name="oacute" horiz-adv-x="574" d="M375.5,391.5Q346,433 287,433t-88.5-41.5T169,260t29.5-131.5T287,87t88.5,41.5T405,260T375.5,391.5Zm98-331Q407-10 287-10T100.5,60.5T34,260t66.5,199.5T287,530t186.5-70.5T540,260T473.5,60.5ZM357,763h53q17,0 23.5-15T429,721l-78-89q-37-42-94-42h-7q-19,0-28,16t1,32l48,77q29,48 86,48Z" />
      <glyph unicode="&#xf4;" glyph-name="ocircumflex" horiz-adv-x="574" d="M375.5,391.5Q346,433 287,433t-88.5-41.5T169,260t29.5-131.5T287,87t88.5,41.5T405,260T375.5,391.5Zm98-331Q407-10 287-10T100.5,60.5T34,260t66.5,199.5T287,530t186.5-70.5T540,260T473.5,60.5ZM320,763q57,0 90-45l60-82q11-14 3-30t-26-16H419q-57,0-86,48l-45,73q0,1-1,1q-2,0-2-1l-44-73q-29-48-86-48H127q-18,0-26,16t3,30l60,82q33,45 90,45h66Z" />
      <glyph unicode="&#xf5;" glyph-name="otilde" horiz-adv-x="574" d="M375.5,391.5Q346,433 287,433t-88.5-41.5T169,260t29.5-131.5T287,87t88.5,41.5T405,260T375.5,391.5Zm98-331Q407-10 287-10T100.5,60.5T34,260t66.5,199.5T287,530t186.5-70.5T540,260T473.5,60.5ZM385,691q20,49 55,49q21,0 35.5-14.5T488,691q-14-111-94-111q-52,0-122,45q-43,28-63,28q-17,0-22-23q-5-21-19-35.5T134,580q-21,0-35.5,14.5T86,630q13,120 94,120q50,0 122-45q43-28 63-28q15,0 20,14Z" />
      <glyph unicode="&#xf6;" glyph-name="odieresis" horiz-adv-x="574" d="M375.5,391.5Q346,433 287,433t-88.5-41.5T169,260t29.5-131.5T287,87t88.5,41.5T405,260T375.5,391.5Zm98-331Q407-10 287-10T100.5,60.5T34,260t66.5,199.5T287,530t186.5-70.5T540,260T473.5,60.5ZM387,747h10q23,0 40-17t17-40V663q0-23-17-39.5T397,607H387q-23,0-40,16.5T330,663v27q0,23 17,40t40,17Zm-210,0h10q23,0 40-17t17-40V663q0-23-17-39.5T187,607H177q-23,0-40,16.5T120,663v27q0,23 17,40t40,17Z" />
      <glyph unicode="&#xf7;" glyph-name="divide" horiz-adv-x="734" d="M350,0q-23,0-39.5,17T294,57v43q0,23 16.5,40T350,157h34q23,0 39.5-17T440,100V57q0-23-16.5-40T384,0H350ZM294,480v43q0,23 16.5,40T350,580h34q23,0 39.5-17T440,523V480q0-23-16.5-40T384,423H350q-23,0-39.5,17T294,480ZM127,237q-22,0-37.5,15.5T74,290t15.5,37.5T127,343H607q22,0 37.5-15.5T660,290t-15.5-37.5T607,237H127Z" />
      <glyph unicode="&#xf8;" glyph-name="oslash" horiz-adv-x="584" d="M292,433q-59,0-88.5-41.5T174,260q0-37 7-74q3-8 7-2L351,409q5,7-2,11q-23,13-57,13Zm111-99q-3,8-7,2L233,111q-5-7 2-11q23-13 57-13q59,0 88.5,41.5T410,260q0,37-7,74ZM97,58q5,6-1,14Q39,143 39,260q0,129 66.5,199.5T292,530q66,0 120-24q6-3 11,4l8,11q10,13 26.5,16t29.5-7t16-26.5T496,474l-9-12q-5-6 1-14q57-71 57-188q0-129-66.5-199.5T292-10q-66,0-120,24q-6,3-11-4L153-1q-10-13-26.5-16T97-10T81,16.5T88,46l9,12Z" />
      <glyph unicode="&#xf9;" glyph-name="ugrave" horiz-adv-x="591" d="M232-10q-88,0-128,48.5T64,203V463q0,23 17,40t40,17h16q23,0 40-17t17-40V217q0-70 19-97t64-27q41,0 76.5,35T389,203V463q0,23 17,40t40,17h20q23,0 39.5-17T522,463V57q0-23-16.5-40T466,0H453q-24,0-40.5,16.5T395,57l-1,7q0,1-1,1t-2-1Q323-10 232-10Zm27,773q57,0 86-48l48-77q10-16 1-32t-28-16h-7q-57,0-94,42l-78,89q-11,12-4.5,27T206,763h53Z" />
      <glyph unicode="&#xfa;" glyph-name="uacute" horiz-adv-x="591" d="M232-10q-88,0-128,48.5T64,203V463q0,23 17,40t40,17h16q23,0 40-17t17-40V217q0-70 19-97t64-27q41,0 76.5,35T389,203V463q0,23 17,40t40,17h20q23,0 39.5-17T522,463V57q0-23-16.5-40T466,0H453q-24,0-40.5,16.5T395,57l-1,7q0,1-1,1t-2-1Q323-10 232-10ZM392,763q17,0 23.5-15T411,721l-78-89q-37-42-94-42h-7q-19,0-28,16t1,32l48,77q29,48 86,48h53Z" />
      <glyph unicode="&#xfb;" glyph-name="ucircumflex" horiz-adv-x="591" d="M232-10q-88,0-128,48.5T64,203V463q0,23 17,40t40,17h16q23,0 40-17t17-40V217q0-70 19-97t64-27q41,0 76.5,35T389,203V463q0,23 17,40t40,17h20q23,0 39.5-17T522,463V57q0-23-16.5-40T466,0H453q-24,0-40.5,16.5T395,57l-1,7q0,1-1,1t-2-1Q323-10 232-10ZM332,763q57,0 90-45l60-82q11-14 3-30t-26-16H431q-57,0-86,48l-44,73q0,1-2,1t-2-1l-44-73q-29-48-86-48H139q-18,0-26,16t3,30l60,82q33,45 90,45h66Z" />
      <glyph unicode="&#xfc;" glyph-name="udieresis" horiz-adv-x="591" d="M232-10q-88,0-128,48.5T64,203V463q0,23 17,40t40,17h16q23,0 40-17t17-40V217q0-70 19-97t64-27q41,0 76.5,35T389,203V463q0,23 17,40t40,17h20q23,0 39.5-17T522,463V57q0-23-16.5-40T466,0H453q-24,0-40.5,16.5T395,57l-1,7q0,1-1,1t-2-1Q323-10 232-10ZM409,747q23,0 40-17t17-40V663q0-23-17-39.5T409,607H399q-23,0-40,16.5T342,663v27q0,23 17,40t40,17h10Zm-210,0q23,0 40-17t17-40V663q0-23-17-39.5T199,607H189q-23,0-40,16.5T132,663v27q0,23 17,40t40,17h10Z" />
      <glyph unicode="&#xfd;" glyph-name="yacute" horiz-adv-x="540" d="M203,8L37,467q-6,20 5,36.5T74,520h30q25,0 45.5-15.5T176,465l94-327q0-1 1-1t1,1L379,466q8,24 29,39t46,15h24q21,0 32.5-17t3.5-36L270-167q-9-24-30-38.5T193-220H169q-20,0-31.5,16.5T134-168L203-8q2,4 2,8t-2,8ZM316,763h53q17,0 24-15t-5-27l-78-89q-37-42-94-42h-7q-18,0-27,16t0,32l48,77q14,22 37,35t49,13Z" />
      <glyph unicode="&#xfe;" glyph-name="thorn" horiz-adv-x="601" d="M201,328V192q0-40 34-71t81-31q53,0 84,42.5T431,260q0,170-115,170q-47,0-81-31t-34-71ZM126-220q-23,0-40,17T69-163V693q0,23 17,40t40,17h20q23,0 39.5-17T202,693V468q0-1 1-1t2,1q65,62 151,62q94,0 150-70.5T562,260q0-125-58.5-197.5T356-10q-51,0-88,14T196,52q-1,1-2,1t-1-1V-163q0-23-16.5-40T137-220H126Z" />
      <glyph unicode="&#xff;" glyph-name="ydieresis" horiz-adv-x="540" d="M203,8L37,467q-6,20 5,36.5T74,520h30q25,0 45.5-15.5T176,465l94-327q0-1 1-1t1,1L379,466q8,24 29,39t46,15h24q21,0 32.5-17t3.5-36L270-167q-9-24-30-38.5T193-220H169q-20,0-31.5,16.5T134-168L203-8q2,4 2,8t-2,8ZM376,747h10q24,0 40.5-17T443,690V663q0-23-16.5-39.5T386,607H376q-23,0-40,16.5T319,663v27q0,23 17,40t40,17Zm-200,0q24,0 40.5-17T233,690V663q0-23-16.5-39.5T176,607H166q-23,0-40,16.5T109,663v27q0,23 17,40t40,17h10Z" />
      <glyph unicode="&#x2013;" glyph-name="endash" horiz-adv-x="472" d="M430,333q18,0 31-12.5T474,290t-13-30.5T430,247H42q-18,0-31,12.5T-2,290t13,30.5T42,333H430Z" />
      <glyph unicode="&#x2014;" glyph-name="emdash" horiz-adv-x="946" d="M905,333q18,0 30.5-12.5T948,290t-12.5-30.5T905,247H41q-18,0-30.5,12.5T-2,290t12.5,30.5T41,333H905Z" />
      <glyph unicode="&#x2018;" glyph-name="quoteleft" horiz-adv-x="306" d="M84,490q-20,0-31.5,17T49,543l71,174q10,24 31,38.5T198,770h6q22,0 35.5-17t8.5-38L207,545q-6-24-25.5-39.5T138,490H84Z" />
      <glyph unicode="&#x2019;" glyph-name="quoteright" horiz-adv-x="306" d="M113,490q-21,0-34.5,17T70,545l40,170q6,24 26,39.5T180,770h53q21,0 32.5-17t3.5-36L198,543q-9-24-30.5-38.5T120,490h-7Z" />
      <glyph unicode="&#x201a;" glyph-name="quotesinglbase" horiz-adv-x="321" d="M104-110q-22,0-35.5,17T60-55l41,170q6,24 26,39.5T171,170h53q20,0 31.5-17t3.5-36L189-57q-9-24-30.5-38.5T111-110h-7Z" />
      <glyph unicode="&#x201c;" glyph-name="quotedblleft" horiz-adv-x="500" d="M296,490q-20,0-31.5,17T261,543l72,178q9,22 29,35.5T406,770q20,0 32.5-16t8.5-36L406,545q-6-24-26-39.5T336,490H296ZM80,490q-21,0-32.5,17T44,543l72,178q9,22 29,35.5T190,770q20,0 32.5-16t8.5-36L189,545q-6-24-25.5-39.5T120,490H80Z" />
      <glyph unicode="&#x201d;" glyph-name="quotedblright" horiz-adv-x="500" d="M391,770h40q20,0 32-17t4-36L395,539q-9-22-29.5-35.5T321,490q-20,0-32.5,16T280,542l42,173q6,24 25,39.5T391,770ZM105,490q-20,0-32.5,16T64,542l41,173q6,24 25.5,39.5T175,770h40q20,0 31.5-17t3.5-36L178,539q-9-22-29-35.5T105,490Z" />
      <glyph unicode="&#x201e;" glyph-name="quotedblbase" horiz-adv-x="515" d="M381,170h40q20,0 32-17t4-36L385-61q-9-22-29.5-35.5T311-110q-20,0-32.5,16T270-58l42,173q6,24 25,39.5T381,170ZM95-110q-20,0-32.5,16T54-58L95,115q6,24 25.5,39.5T165,170h40q20,0 31.5-17t3.5-36L168-61q-9-22-29-35.5T95-110Z" />
      <glyph unicode="&#x2022;" glyph-name="bullet" horiz-adv-x="504" d="M119,365q0,55 38.5,94T252,498t94.5-39T385,365t-38.5-94T252,232t-94.5,39T119,365Z" />
      <glyph unicode="&#x2039;" glyph-name="guilsinglleft" horiz-adv-x="385" d="M168,110L74,244q-15,21-15,46t15,46l94,134q32,47 90,47h18q18,0 26.5-16T300,471L175,297q-5-7 0-14L300,109q11-14 2.5-30T276,63H258q-58,0-90,47Z" />
      <glyph unicode="&#x203a;" glyph-name="guilsinglright" horiz-adv-x="385" d="M93,109L218,283q5,7 0,14L93,471q-11,14-2.5,30T117,517h18q26,0 50.5-12.5T225,470l94-134q15-21 15-46t-15-46L225,110q-15-22-39.5-34.5T135,63H117Q99,63 90.5,79T93,109Z" />
    </font>
</defs>
</svg>
