<?xml version="1.0" standalone="no"?>
<!DOCTYPE svg PUBLIC "-//W3C//DTD SVG 1.1//EN" "http://www.w3.org/Graphics/SVG/1.1/DTD/svg11.dtd">
<svg xmlns="http://www.w3.org/2000/svg">
  <defs>
    <font id="ScienceGothic" horiz-adv-x="1298">
      <font-face font-family="Science Gothic Medium" units-per-em="2000" panose-1="0 0 0 0 0 0 0 0 0 0" ascent="2176" descent="-776" alphabetic="0" />
      <glyph unicode=" " glyph-name="gid3" horiz-adv-x="620" />
      <glyph unicode="!" glyph-name="gid74" horiz-adv-x="761" d="M206,114v81q0,86 16.5,103T328,315H433q88,0 105.5-16.5T556,195V114q0-88-17.5-105T433-8H328Q239-8 222.5,9T206,114Zm64,348l-92,938H584L491,462H270Z" />
      <glyph unicode="&quot;" glyph-name="gid105" horiz-adv-x="1158" d="M178,1253v106q0,87 13,102t86,15H391q73,0 86-15t13-102V1253L402,852H266l-88,401Zm490,0v106q0,87 13,102t86,15H881q73,0 86-15t13-102V1253L892,852H756l-88,401Z" />
      <glyph unicode="#" glyph-name="gid85" horiz-adv-x="1135" d="M63,305L98,555H987L951,305H63Zm76,541l35,250h889l-36-250H139ZM180,0L378,1400H582L384,0H180ZM544,0L742,1400H946L748,0H544Z" />
      <glyph unicode="$" glyph-name="gid137" horiz-adv-x="1624" d="M720-164V15H468q-81,0-146,11.5t-111,44t-70,90T117,308v62l292,52V278H720V576H498q-81,0-146.5,12.5T240.5,633T171,723T147,872v231q0,89 25.5,144t72,86T356,1374.5T499,1385H720v179H941V1385h183q79,0 143.5-10.5t111-41.5t72.5-86t26-143v-68l-292-50v139H941V840h202q79,0 144-11t111.5-41.5T1471,702t26-144V309q0-91-24.5-148.5t-70-90t-111-44T1143,15H941V-164H720Zm0,1004v285H439V840H720ZM941,278h264V576H941V278Z" />
      <glyph unicode="%" glyph-name="gid86" horiz-adv-x="2455" d="M370,614q-98,0-155,28.5T158,777v488q0,103 60,128.5T370,1419H776q91,0 152-25.5T989,1265V777q0-107-57.5-135T776,614H370Zm1,188H776v429H371V802ZM648,0l927,1400h233L881,0H648ZM1678-11q-98,0-155,28.5T1466,153V640q0,103 60,129t152,26h406q90,0 151.5-26T2297,640V153q0-108-57.5-136T2084-11H1678Zm1,189h405V606H1679V178Z" />
      <glyph unicode="&amp;" glyph-name="gid73" horiz-adv-x="1684" d="M308-10Q247-10 199,5T117.5,48.5t-51,69T49,210V468q0,62 26,108.5T157,660L445,854q-29,30-49.5,58.5t-34,58.5t-20,64t-6.5,77v38q0,126 72.5,195T613,1414H909q139,0 217.5-68t78.5-188V1016L948,968v192H623v-94l513-515l269,250l178-178L1314,373L1684,0H1285L1105,182L1005,90q-30-28-57.5-47.5T889,11.5T821-5t-86-5H308Zm28,256H803L926,360L624,664L336,469V246Z" />
      <glyph unicode="&apos;" glyph-name="gid104" horiz-adv-x="668" d="M178,1229v106q0,87 13,102t86,15H391q73,0 86-15t13-102V1229L402,828H266l-88,401Z" />
      <glyph unicode="(" glyph-name="gid78" horiz-adv-x="659" d="M649-256H444Q301-117 213.5,105.5T126,600q0,136 23,259t65,232t100.5,200.5T444,1455H649q-62-74-110-168t-81-203.5T407.5,852T390,600t17.5-252T458,116.5t81-204T649-256Z" />
      <glyph unicode=")" glyph-name="gid79" horiz-adv-x="659" d="M10,1455H215q143-139 230.5-361.5T533,599q0-136-23-259T445,108.5T344.5-92T215-256H10Q72-182 120-88t81,203.5T251.5,347T269,599T251.5,851T201,1082.5t-81,204T10,1455Z" />
      <glyph unicode="*" glyph-name="gid84" horiz-adv-x="1016" d="M434,781l5,214L260,875L182,989l201,123L178,1238l83,120l178-120l-5,213H582l-4-218l180,122l78-114L637,1118L839,994L756,875L578,995l4-214H434Z" />
      <glyph unicode="+" glyph-name="gid158" horiz-adv-x="1439" d="M1311,697V477H838V0H601V477H128V697H601v471H838V697h473Z" />
      <glyph unicode="," glyph-name="gid101" horiz-adv-x="705" d="M308-308L199-274L333,0H300Q211,0 194.5,17T178,122v95q0,86 16.5,103T300,337H405q89,0 105.5-16.5T527,217V122q0-46-7.5-75T490-16L308-308Z" />
      <glyph unicode="-" glyph-name="gid90" horiz-adv-x="1026" d="M138,726H888V477H138V726Z" />
      <glyph unicode="." glyph-name="gid99" horiz-adv-x="705" d="M178,114V217q0,86 16.5,103T300,337H404q89,0 106-16.5T527,216V114q0-88-17-105T404-8H300Q211-8 194.5,9T178,114Z" />
      <glyph unicode="/" glyph-name="gid87" horiz-adv-x="990" d="M646,1430H902L345-100H89L646,1430Z" />
      <glyph unicode="0" glyph-name="gid63" horiz-adv-x="1767" d="M549-14Q383-14 290,42.5T197,280v852q0,175 98,228.5T549,1414h667q157,0 255-53.5t98-228.5V280q0-182-93.5-238T1216-14H549ZM503,263h760v874H503q0,0 0,0.5t0,0.5V263q0-1 0-0.5t0,0.5Z" />
      <glyph unicode="1" glyph-name="gid64" horiz-adv-x="888" d="M350,0V1115L79,1101v201l577,114V0H350Z" />
      <glyph unicode="2" glyph-name="gid65" horiz-adv-x="1672" d="M197,0V311q0,103 53.5,182T411,615l688,286q45,18 57,39t12,60v151H516V886L214,946v197q0,68 21,118.5t62.5,84.5t104,51T544,1414h595q82,0 143.5-15t103.5-47.5t63-81t21-115.5V974q0-52-13.5-95.5T1416,799t-66.5-63.5T1258,687L605,418q-59-24-82.5-49.5T499,303V263h712V435l303-51V271q0-166-90.5-218.5T1183,0H197Z" />
      <glyph unicode="3" glyph-name="gid66" horiz-adv-x="1704" d="M197,383l293,53V251h615q48,0 78.5,30.5T1214,360V494q0,43-27.5,69.5T1115,590H712V829h375q44,0 71.5,26.5T1186,925v121q0,47-29.5,75t-74.5,28H502V946L209,999v159q0,64 20.5,111.5t61.5,80T393.5,1398T537,1414h597q85,0 149.5-18.5t108-56.5t65.5-96.5t22-137.5V998q0-130-56-194t-168-84q108-9 180-74.5T1507,434V299q0-86-26.5-145.5T1408,57T1298.5,3T1159-14H525Q376-14 286.5,38T197,254V383Z" />
      <glyph unicode="4" glyph-name="gid67" horiz-adv-x="1655" d="M24,300V550l934,850h307V566h262V300H1265V0H961V300H24ZM398,563H961v507L398,563Z" />
      <glyph unicode="5" glyph-name="gid68" horiz-adv-x="1563" d="M775-12q-60,0-138,2.5T478.5-1t-155,17.5T194,46L131,303q57-13 124-25t149.5-20t183-13.5T813,239q79,0 139,8.5T1052,278t59.5,59.5T1131,434q0,52-15.5,89.5t-56,62.5T949,622.5T769,634q-97,0-184-5T419.5,615.5T268,597T125,575l67,825H1261l-57-269H402L380,846q36,9 82.5,16T565,874.5T686,883t137,3q152,0 267.5-26T1283,779.5t116-140T1438,435q0-143-54.5-230.5T1237.5,69T1026,4.5T775-12Z" />
      <glyph unicode="6" glyph-name="gid69" horiz-adv-x="1640" d="M833-14Q625-14 492-3.5T282.5,55T177,202T148,478q0,210 49.5,383.5t153.5,297T618,1350t391,68q50,0 79-1t40-4l166-241q-12,2-32,3.5t-43.5,2.5t-50.5,1.5t-55,0.5q-189,0-315.5-35t-203-118T486,806T454,461q0-74 18.5-116t63-63.5t118-27T838,249q117,0 186,7.5T1129,284t46.5,55.5T1186,433q0,57-15.5,92T1115,579t-107.5,25T837,610q-61,0-137.5-5.5T547,589.5t-143.5-22T291,541V764q55,24 122,42t139,30.5t145.5,19T839,862q177,0 301-12.5T1342.5,793t114-128T1492,437q0-156-26-246T1367,55.5T1165.5-2T833-14Z" />
      <glyph unicode="7" glyph-name="gid70" horiz-adv-x="1405" d="M64,925v475H1381V1161L795,0H450l592,1135H359V870L64,925Z" />
      <glyph unicode="8" glyph-name="gid71" horiz-adv-x="1774" d="M479,357q0-47 31-78t80-31h594q50,0 80.5,31t30.5,78V477q0,22-7,39.5t-20.5,30t-31.5,20t-41,7.5H578q-22,0-40-7.5t-31-20t-20.5-30T479,477V357Zm786,693q0,45-29.5,73t-76.5,28H617q-48,0-77.5-28T510,1050V930q0-42 27.5-68.5T610,835h554q45,0 73,26.5t28,68.5v120ZM178,276V449q0,141 67.5,195T434,712q-117,17-171.5,83T208,966v170q0,129 81.5,203.5T537,1414h701q165,0 247-74.5t82-203.5V966q0-105-56-171t-171-83q121-13 189-67t68-195V276q0-166-99.5-228T1247-14H527Q453-14 389,0T278,47.5T204.5,137T178,276Z" />
      <glyph unicode="9" glyph-name="gid72" horiz-adv-x="1675" d="M815,1416q209,0 342-23t209-85t105-173t29-287q0-221-50-384T1295,194T1027.5,35.5T639-16q-43,0-74,1t-45,4L354,230q11-2 28.5-3.5T423,224t51-1.5t61-0.5q194,0 321.5,29T1059,354.5T1164,558t30,330q0,91-20,145.5t-65.5,83.5t-119,38T810,1164q-114,0-183-6.5t-105.5-26T473,1076t-12-95q0-55 14-89.5t52-54T633.5,811T811,804q64,0 141,5.5t152.5,15T1247,847t110,26V639q-50-22-113-40t-134.5-31t-148-20.5T809,540q-193,0-319,16.5t-200.5,63T185,749.5T155,965q0,143 26.5,231.5t100,137t202,65.5T815,1416Z" />
      <glyph unicode=":" glyph-name="gid102" horiz-adv-x="705" d="M178,114v93q0,43 2,67t14,36t36.5,14.5T300,327H404q44,0 69-2.5T510,310t14.5-36t2.5-67V114q0-44-2.5-68.5T510,9T473.5-5.5T404-8H300q-45,0-69.5,2.5T194,9T180,45.5T178,114Zm0,686v93q0,44 2,68t14,35.5t36.5,14T300,1013H404q44,0 69-2.5t37-14t14.5-36T527,893V800q0-44-2.5-68.5T510,695t-36.5-14.5T404,678H300q-45,0-69.5,2.5T194,695t-14,36.5T178,800Z" />
      <glyph unicode=";" glyph-name="gid103" horiz-adv-x="705" d="M199-272L344,25l172,2L308-306L199-272ZM178,124v83q0,86 16.5,103T300,327H404q89,0 106-16.5T527,207V124q0-88-17-105T404,2H300Q211,2 194.5,19T178,124Zm0,676v93q0,87 16.5,103.5T300,1013H404q89,0 106-16t17-104V800q0-88-17-105T404,678H300q-89,0-105.5,17T178,800Z" />
      <glyph unicode="&lt;" glyph-name="gid153" horiz-adv-x="1439" d="M1311,0L128,480V688l1183,480V937L447,586l864-352V0Z" />
      <glyph unicode="=" glyph-name="gid155" horiz-adv-x="1439" d="M128,690V909H1311V690H128Zm0-425V484H1311V265H128Z" />
      <glyph unicode="&gt;" glyph-name="gid154" horiz-adv-x="1439" d="M128,1168L1311,688V480L128,0V231L992,582L128,934v234Z" />
      <glyph unicode="?" glyph-name="gid76" horiz-adv-x="1305" d="M469,462V636q0,76 38.5,125T631,827l168,35q46,12 66,39t20,84v183H363V979L99,1029v130q0,137 75.5,196T425,1414H821q177,0 252-58.5t75-195.5V891q0-102-54-159T912,652L808,635q-61-13-71-30.5T727,557V462H469ZM422,114v81q0,86 16.5,103T544,315H648q89,0 106-16.5T771,195V114q0-88-17-105T648-8H544Q455-8 438.5,9T422,114Z" />
      <glyph unicode="@" glyph-name="gid146" horiz-adv-x="1922" d="M168,92V959q0,171 95,222t246,51h901q75,0 138.5-10.5T1657,1181t70.5-83.5T1753,959V383q0-154-76-209t-205-55h-80q-107,0-186,46t-79,106q-18-64-71.5-88T934,159H733q-102,0-147,38T541,323V723q0,83 45.5,120T733,880H951q71,0 115-28t61-67v88h243V370q0-39 19-55t55-16h26q37,0 56,17t19,59V947q0,46-29,74.5T1394,1050H523q-66,0-106.5-19.5T376,947V104q0-52 28-81.5T523-11H1556V-192H509q-160,0-250.5,54.5T168,92ZM786,357h341V681H786V357Z" />
      <glyph unicode="A" glyph-name="gid9" horiz-adv-x="1701" d="M0,0L719,1400H974L1701,0H1341L1186,306H487L331,0H0ZM618,559h442L840,991L618,559Z" />
      <glyph unicode="B" glyph-name="gid10" horiz-adv-x="1640" d="M197,0V1400h957q79,0 144-13t111-48t71-96t25-155V998q0-107-46.5-176T1316,721q107-28 156-105.5T1521,414V317q0-97-25-158.5T1425,62T1314.5,13.5T1170,0H197ZM503,262h610q51,0 76.5,23t25.5,71V492q0,55-25.5,75T1113,587H503V262Zm0,580h596q52,0 77,20t25,75v108q0,48-25,71t-77,23H503V842Z" />
      <glyph unicode="C" glyph-name="gid11" horiz-adv-x="1647" d="M168,1132q0,154 84,218t268,64h641q185,0 269-64t84-218V939l-306-56v257H474V260h742V543l306-60V280q0-162-82.5-228T1169-14H520Q331-14 249.5,52T168,280v852Z" />
      <glyph unicode="D" glyph-name="gid12" horiz-adv-x="1810" d="M503,271H994q97,0 171,23.5T1288.5,370T1363,505.5T1388,709q0,116-25.5,196T1287,1035t-123.5,72T994,1129H503V271ZM197,0V1400h833q144,0 268-43t215-130t142.5-218.5T1707,700q0-188-53.5-321t-145-217t-215-123T1030,0H197Z" />
      <glyph unicode="E" glyph-name="gid13" horiz-adv-x="1602" d="M197,0V1400H1471V1131H503V847h582V586H503V269h988V0H197Z" />
      <glyph unicode="F" glyph-name="gid14" horiz-adv-x="1507" d="M197,0V1400H1439V1129H503V834h522V563H503V0H197Z" />
      <glyph unicode="G" glyph-name="gid15" horiz-adv-x="1760" d="M168,1132q0,154 84,218t268,64h722q186,0 270-64t84-218v-99l-306-63v175H474V255h822V553H881V814h721V280q0-162-82.5-228T1248-14H520Q331-14 249.5,52T168,280v852Z" />
      <glyph unicode="H" glyph-name="gid16" horiz-adv-x="1853" d="M197,0V1400H503V868h847v532h306V0H1350V591H503V0H197Z" />
      <glyph unicode="I" glyph-name="gid17" horiz-adv-x="701" d="M197,0V1400H503V0H197Z" />
      <glyph unicode="J" glyph-name="gid18" horiz-adv-x="1539" d="M1356,1400V268q0-154-83.5-218T1005-14H455Q271-14 186.5,50T102,268V594l306,63V260h642V1400h306Z" />
      <glyph unicode="K" glyph-name="gid19" horiz-adv-x="1714" d="M1571,1400L825,736l1,16L1714,0H1248L438,699h65V0H197V1400H503V736H443l730,664h398Z" />
      <glyph unicode="L" glyph-name="gid20" horiz-adv-x="1414" d="M197,0V1400H503V277h887V0H197Z" />
      <glyph unicode="M" glyph-name="gid21" horiz-adv-x="2014" d="M197,0V1400H468l543-790l530,790h275V0H1510V911L989,135L467,895V0H197Z" />
      <glyph unicode="N" glyph-name="gid22" horiz-adv-x="1863" d="M197,0V1400H431l951-934v934h283V0H1431L481,928V0H197Z" />
      <glyph unicode="O" glyph-name="gid23" horiz-adv-x="1828" d="M168,1132q0,175 98,228.5T520,1414h786q157,0 255.5-53.5T1660,1132V280q0-182-94-238T1306-14H520Q354-14 261,42.5T168,280v852Zm306,5V263h880v874H474Z" />
      <glyph unicode="P" glyph-name="gid24" horiz-adv-x="1600" d="M197,0V1400h971q157,0 255-53.5t98-228.5V771q0-69-22.5-120t-67-83.5T1321,520t-153-15H503V0H197ZM503,776h611q51,0 76,19.5t25,74.5v165q0,49-25,71.5t-76,22.5H503V776Z" />
      <glyph unicode="Q" glyph-name="gid25" horiz-adv-x="1828" d="M168,1132q0,175 98,228.5T520,1414h786q157,0 255.5-53.5T1660,1132V280q0-182-94-238T1306-14H520Q354-14 261,42.5T168,280v852Zm306,5V263h880v874H474ZM1114-282L816,471l206,90l388-843H1114Z" />
      <glyph unicode="R" glyph-name="gid26" horiz-adv-x="1688" d="M197,0V1400h968q157,0 255-53.5t98-228.5V802q0-134-83-200t-249-69h-75L1644,0H1244L722,525H503V0H197ZM503,793h610q50,0 75.5,19.5T1214,888v147q0,49-25.5,71.5T1113,1129H503V793Z" />
      <glyph unicode="S" glyph-name="gid27" horiz-adv-x="1624" d="M117,370l292,52V249h796V576H498q-81,0-146.5,12.5T240.5,633T171,723T147,872v260q0,89 25.5,144t72,85.5T356,1403t143,11h625q79,0 143.5-11t111-41.5T1451,1276t26-143v-97l-292-50v165H439V840h704q79,0 144-11t111.5-41.5T1471,702t26-144V280q0-182-94-238T1143-14H468Q387-14 322-2T211,42t-70,89.5T117,280v90Z" />
      <glyph unicode="T" glyph-name="gid28" horiz-adv-x="1444" d="M569,0V1123H24v277H1420V1123H875V0H569Z" />
      <glyph unicode="U" glyph-name="gid29" horiz-adv-x="1728" d="M183,1400H489V271h750V1400h306V280q0-182-94-238T1192-14H534Q453-14 388-2T277,42t-70,89.5T183,280V1400Z" />
      <glyph unicode="V" glyph-name="gid30" horiz-adv-x="1627" d="M702,0L0,1400H361L834,408l461,992h332L949,0H702Z" />
      <glyph unicode="W" glyph-name="gid31" horiz-adv-x="2039" d="M474,0L0,1400H344L622,519l289,881h243l294-886l290,886h301L1558,0H1310L1014,868L722,0H474Z" />
      <glyph unicode="X" glyph-name="gid32" horiz-adv-x="1562" d="M8,0L572,708L0,1400H404L773,934l361,466h342L965,741L1562,0H1163L761,511L357,0H8Z" />
      <glyph unicode="Y" glyph-name="gid33" horiz-adv-x="1612" d="M666,0V609L0,1400H422L831,872l411,528h370L972,610V0H666Z" />
      <glyph unicode="Z" glyph-name="gid34" horiz-adv-x="1466" d="M74,0V129L903,1138l4-9H159v271H1373V1271L545,262l-4,9h836V0H74Z" />
      <glyph unicode="[" glyph-name="gid80" horiz-adv-x="823" d="M197-256V1448H764V1207H471V-15H764V-256H197Z" />
      <glyph unicode="\" glyph-name="gid88" horiz-adv-x="990" d="M345,1430L902-100H646L89,1430H345Z" />
      <glyph unicode="]" glyph-name="gid81" horiz-adv-x="823" d="M626,1448V-256H59V-15H351V1207H59v241H626Z" />
      <glyph unicode="^" glyph-name="gid124" horiz-adv-x="999" d="M10,850l394,550H594L989,850H736L495,1246L257,850H10Z" />
      <glyph unicode="_" glyph-name="gid93" horiz-adv-x="686" d="M0-317v193H686V-317H0Z" />
      <glyph unicode="`" glyph-name="gid122" horiz-adv-x="706" d="M400,1087L50,1448H345l311-361H400Z" />
      <glyph unicode="a" glyph-name="gid35" horiz-adv-x="1381" d="M390-10Q273-10 205,30.5T137,201V398q0,126 88,163.5T424,599H935V793H439V710L154,763v46q0,127 69.5,165.5T407,1013H968q113,0 183-38.5T1221,806V0H935V150Q909,58 836,24T670-10H390Zm34,213H935V391H424V203Z" />
      <glyph unicode="b" glyph-name="gid36" horiz-adv-x="1433" d="M173-2V1451H459V905q22,57 82.5,83.5T703,1015h320q115,0 189-40t74-171V211q0-134-70-178.5T1023-12H703Q602-12 541.5,15.5T459,100V-2H173ZM459,236h541V769H459V236Z" />
      <glyph unicode="c" glyph-name="gid37" horiz-adv-x="1367" d="M147,212V802q0,114 61.5,162.5T413,1013H987q144,0 205-48.5T1252,802V695L967,640V768H433V236H971V372l285-59V212q0-121-60-171.5T991-10H412Q267-10 207,40.5T147,212Z" />
      <glyph unicode="d" glyph-name="gid38" horiz-adv-x="1441" d="M147,211V802q0,112 61.5,161.5T410,1013H738q101,0 161.5-27T982,903v548h286V0H982V100q-22-56-82.5-83T738-10H410Q268-10 207.5,41T147,211ZM982,768H433V236H982V768Z" />
      <glyph unicode="e" glyph-name="gid39" horiz-adv-x="1401" d="M147,257V782q0,114 70,172.5T434,1013H963q147,0 219-59t72-175V402H433V207H969V313l285-50V252q0-141-76.5-201.5T923-10H459Q299-10 223,51T147,257ZM433,609H969V796H433V609Z" />
      <glyph unicode="f" glyph-name="gid40" horiz-adv-x="841" d="M197,0V786H85v217H197v189q0,137 70,198t206,61H843l-45-217H482V1003H799V786H482V0H197Z" />
      <glyph unicode="g" glyph-name="gid41" horiz-adv-x="1428" d="M433,242H982V766H433V242ZM216-428L166-187H982V107q-22-56-82.5-83T738-3H410Q268-3 207.5,48T147,218V801q0,112 61.5,161.5T410,1012H738q101,0 161.5-27T982,902v101h286V-164q0-86-17-138t-53.5-80T1103-419t-142-9H216Z" />
      <glyph unicode="h" glyph-name="gid42" horiz-adv-x="1397" d="M173,0V1451H459V909q30,52 97,78t185,26H912q173,0 249-60t76-197V0H951V761H459V0H173Z" />
      <glyph unicode="i" glyph-name="gid44" horiz-adv-x="650" d="M182,0V1003H468V0H182Zm-9,1230v89q0,67 12.5,79t80.5,12H384q68,0 80-12t12-79v-89q0-68-12-80t-80-12H266q-68,0-80.5,12T173,1230Z" />
      <glyph unicode="j" glyph-name="gid46" horiz-adv-x="632" d="M-307-187H175V1003H461V-164q0-92-18-145t-55-79.5t-94.5-33T154-428H-254l-53,241ZM166,1230v89q0,67 12.5,79t80.5,12H377q68,0 80.5-12t12.5-79v-89q0-68-12.5-80T377,1138H259q-68,0-80.5,12T166,1230Z" />
      <glyph unicode="k" glyph-name="gid47" horiz-adv-x="1430" d="M173,0V1451H459V548H438l509,455h359L785,544l-1,16L1426,0H1000L431,507h28V0H173Z" />
      <glyph unicode="l" glyph-name="gid48" horiz-adv-x="632" d="M173,0V1451H459V0H173Z" />
      <glyph unicode="m" glyph-name="gid49" horiz-adv-x="2004" d="M173,0V1003H459V909q30,52 97,78t185,26h85q92,0 182.5-24T1134,870q22,71 92,107t208,36h85q173,0 249-60t76-197V0H1558V761H1151V0H866V761H459V0H173Z" />
      <glyph unicode="n" glyph-name="gid50" horiz-adv-x="1397" d="M173,0V1003H459V909q30,52 97,78t185,26H912q173,0 249-60t76-197V0H951V761H459V0H173Z" />
      <glyph unicode="o" glyph-name="gid51" horiz-adv-x="1420" d="M147,211V802q0,112 61.5,161.5T410,1013h600q141,0 202-49.5T1273,802V211q0-119-60-170T1010-10H410Q268-10 207.5,41T147,211Zm286,25H987V768H433V236Z" />
      <glyph unicode="p" glyph-name="gid52" horiz-adv-x="1441" d="M173-428V1003H459V903q22,56 83,83t161,27h328q142,0 202.5-50.5T1294,792V201q0-112-61-161.5T1031-10H703Q603-10 542,17t-83,83V-428H173ZM459,237h550V766H459V237Z" />
      <glyph unicode="q" glyph-name="gid53" horiz-adv-x="1441" d="M147,211V802q0,112 61.5,161.5T410,1013H738q101,0 161.5-27T982,903v100h286V-428H982V100q-22-56-82.5-83T738-10H410Q268-10 207.5,41T147,211Zm286,26H982V768H433V237Z" />
      <glyph unicode="r" glyph-name="gid54" horiz-adv-x="1180" d="M173,0V1003H459V909q30,52 97,78t185,26h56q87,0 148-14.5T1045.5,953t58-79.5T1122,756V687L836,635V761H459V0H173Z" />
      <glyph unicode="s" glyph-name="gid55" horiz-adv-x="1310" d="M137,253l260,50V203H911V394H410q-119,0-185.5,43T158,611V808q0,126 73,165.5T416,1013H908q113,0 181.5-39.5T1158,812V762L898,713v87H419V619H919q114,0 184-37t70-167V202q0-132-67-172T919-10H389Q270-10 203.5,30.5T137,199v54Z" />
      <glyph unicode="t" glyph-name="gid56" horiz-adv-x="880" d="M499-10Q356-10 296,40.5T236,210V786H69v217H236v241H521V1003H814V786H521V207H801L758-10H499Z" />
      <glyph unicode="u" glyph-name="gid57" horiz-adv-x="1386" d="M160,195v808H446V241H940v762h286V195q0-127-65.5-165.5T980-9H404Q289-9 224.5,29.5T160,195Z" />
      <glyph unicode="v" glyph-name="gid58" horiz-adv-x="1227" d="M508,0L4,1003H323L633,350l313,653h276L737,0H508Z" />
      <glyph unicode="w" glyph-name="gid59" horiz-adv-x="1694" d="M375,0L4,1003H300L525,352l221,651H985l225-649l222,649h258L1317,0H1062L850,614L642,0H375Z" />
      <glyph unicode="x" glyph-name="gid60" horiz-adv-x="1221" d="M4,0L429,495L9,1003H376L620,683l260,320h325L784,509L1217,0H841L592,314L337,0H4Z" />
      <glyph unicode="y" glyph-name="gid61" horiz-adv-x="1215" d="M80-428L30-187H362L479,59L4,1003H333L631,382l292,621h287L613-242q-26-54-52-90t-60.5-57T419-419t-113-9H80Z" />
      <glyph unicode="z" glyph-name="gid62" horiz-adv-x="1159" d="M75,0V106L652,790l-7-19H135v232h943V898L500,208l8,25h576V0H75Z" />
      <glyph unicode="{" glyph-name="gid82" horiz-adv-x="861" d="M289,18V300q0,82-45,130T97,478V716q102,0 147,48.5T289,894v270q0,136 81,210t217,74H837V1207H686q-66,0-94-27t-28-85V877q0-112-51.5-182.5T364,597q97-27 148.5-97.5T564,317V97q0-58 28-85t94-27H837V-256H587q-136,0-217,73T289,18Z" />
      <glyph unicode="|" glyph-name="gid94" horiz-adv-x="648" d="M197,1520H450V-480H197V1520Z" />
      <glyph unicode="}" glyph-name="gid83" horiz-adv-x="861" d="M572,1174V892q0-82 45.5-130T765,714V476q-102,0-147.5-48.5T572,298V28q0-136-81-210T274-256H24V-15H176q66,0 94,27t28,85V315q0,112 51.5,182.5T498,595q-97,27-148.5,97.5T298,875v220q0,58-28,85t-94,27H24v241H274q136,0 217-73t81-201Z" />
      <glyph unicode="~" glyph-name="gid126" horiz-adv-x="1439" d="M128,476q21,81 59,135.5t88,87t108,46T500,758q68,0 130-20t118.5-43.5t107-43.5T950,631q23,0 46.5,6t43,19t34.5,33.5t21,48.5l216-38q-20-82-59-136.5T1163.5,476T1056,429.5T939,416q-68,0-130,20.5t-118.5,44T584,524.5T489,545q-23,0-46-6t-43-19t-34.5-33.5T344,438L128,476Z" />
      <glyph unicode="&#xa0;" glyph-name="gid4" horiz-adv-x="620" />
      <glyph unicode="&#xa1;" glyph-name="gid75" horiz-adv-x="761" d="M556,881V801q0-87-17-103.5T434,681H329q-89,0-106,16T206,801v80q0,89 17,105.5T329,1003H434q88,0 105-16.5T556,881ZM491,534l93-938H178l92,938H491Z" />
      <glyph unicode="&#xa2;" glyph-name="gid139" horiz-adv-x="1367" d="M595-100V140H412q-145,0-205,50.5T147,362V952q0,114 61.5,162.5T413,1163H595v237H791V1163H987q144,0 204.5-48.5T1252,952V845L967,791V918H791V386H971V521l285-58V362q0-121-60-171.5T991,140H791V-100H595Zm0,1018H433V386H595V918Z" />
      <glyph unicode="&#xa3;" glyph-name="gid140" horiz-adv-x="1753" d="M39,0V260H246q53,0 76.5,23.5T346,360V571H140V742H346v364q0,154 90,231t287,77h551q186,0 270-64t84-218v-96l-306-56v74q0,53-23.5,76.5T1222,1154H752q-51,0-75.5-25T652,1054V742h445l-35-171H651V483q-1-68-12-123.5T607,260h625q53,0 76.5,23.5T1332,360V463l306-61V294q0-162-82.5-228T1285,0H39Z" />
      <glyph unicode="&#xa4;" glyph-name="gid141" horiz-adv-x="1671" d="M168-50L47,71L274,298q-10,23-15,51t-5,62v591q0,31 4.5,57t14.5,48L47,1332l121,121l249-248q21,4 45.5,6t54.5,2h637q29,0 54-2t46-6l249,248l121-121l-226-225q10-22 14.5-48t4.5-57V411q0-34-4.5-62.5T1398,297L1624,71L1503-50L1254,199q-21-5-46-7t-54-2H517q-30,0-54.5,2T417,199L168-50ZM539,436h592V968H539V436Z" />
      <glyph unicode="&#xa5;" glyph-name="gid142" horiz-adv-x="1612" d="M666,0V362H296V522H666v87H296V769H531L0,1400H422L831,872l411,528h370L1101,769h216V609H972V522h345V362H972V0H666Z" />
      <glyph unicode="&#xa6;" glyph-name="gid95" horiz-adv-x="648" d="M197,1520H450V720H197v800Zm0-1200H450V-480H197V320Z" />
      <glyph unicode="&#xa7;" glyph-name="gid143" horiz-adv-x="1465" d="M450-137q-117,0-182.5,40T202,72v54l260,50V76H981V281H406q-118,0-183.5,42T157,495V776q0,37 6,65t18.5,49.5t29.5,36T251,951q-1,10-1.5,20.5T249,994v206q0,124 69,162t180,38H993q112,0 181.5-38.5T1244,1199v-48l-260-54v90H510V994h560q112,0 181.5-46.5T1321,773V525q0-35-5.5-64T1300,409t-26-40.5T1239,338q2-11 2.5-21t0.5-22V71q0-130-66-169T992-137H450ZM419,495h640V780H419V495Z" />
      <glyph unicode="&#xa8;" glyph-name="gid129" horiz-adv-x="723" d="M117,1141q-68,0-80.5,12.5T24,1234v70q0,67 12.5,79t80.5,12h71q68,0 80.5-12t12.5-79v-70q0-68-12.5-80.5T188,1141H117Zm418,0q-68,0-80.5,12.5T442,1234v70q0,67 12.5,79t80.5,12h71q68,0 80-12t12-79v-70q0-68-12-80.5T606,1141H535Z" />
      <glyph unicode="&#xa9;" glyph-name="gid147" horiz-adv-x="1797" d="M499,552V858q0,114 61.5,162.5T765,1069h260q144,0 204.5-48.5T1290,858V819l-256-52v81H755V552h283v87l256-56V552q0-120-60-170.5T1029,331H764q-145,0-205,50.5T499,552ZM168,1096q0,175 97.5,228.5T520,1378h738q158,0 256-53t98-229V316q0-182-94-238T1258,22H520Q355,22 261.5,79.5T168,316v780Zm194,1V316q0-59 31.5-91.5T520,192h738q95,0 127.5,32.5T1418,316v781q0,52-32,81.5T1258,1208H520q-71,0-114.5-21T362,1097Z" />
      <glyph unicode="&#xaa;" glyph-name="gid150" horiz-adv-x="976" d="M274,778q-79,0-125.5,28.5T102,922v119q0,86 57,111.5T291,1178H637v115H335v-50l-219,40v27q0,87 47,114t123,27H684q77,0 124.5-27T856,1307V785H637v98q-17-60-65.5-82.5T461,778H274Zm47,147H637v113H321V925Z" />
      <glyph unicode="&#xab;" glyph-name="gid117" horiz-adv-x="1018" d="M312,130L69,502L312,873H548L305,502L548,130H312Zm404,0L473,502L716,873H951L708,502L951,130H716Z" />
      <glyph unicode="&#xac;" glyph-name="gid157" horiz-adv-x="1439" d="M1311,265H1074V690H128V909H1311V265Z" />
      <glyph unicode="&#xae;" glyph-name="gid148" horiz-adv-x="835" d="M73,1054v359q0,69 37.5,105.5T217,1555H616q69,0 107-36.5T761,1413V1054q0-69-38-106T616,911H217q-69,0-106.5,37T73,1054Zm70,357V1056q0-40 19-61t58-21H616q40,0 58,21t18,61v355q0,40-19,60.5T614,1492H220q-39,0-58-20.5T143,1411Zm92-11H518q43,0 68-14.5t25-60.5v-91q0-41-22-51t-62-10l114-113H505L396,1172H344V1060H235v340Zm109-147H482q10,0 15,4t5,14v23q0,10-5,14.5t-15,4.5H344v-60Z" />
      <glyph unicode="&#xaf;" glyph-name="gid131" horiz-adv-x="735" d="M24,1181v176H710V1181H24Z" />
      <glyph unicode="&#xb0;" glyph-name="gid152" horiz-adv-x="645" d="M73,1241v135q0,76 41.5,110T252,1520H394q94,0 136-34t42-110V1241q0-81-41-116t-137-35H252q-96,0-137.5,35T73,1241Zm178-2H395v131H251V1239Z" />
      <glyph unicode="&#xb1;" glyph-name="gid160" horiz-adv-x="1439" d="M601,374V777H128V997H601v403H838V997h473V777H838V374H601ZM128,0V219H1311V0H128Z" />
      <glyph unicode="&#xb2;" glyph-name="gid261" horiz-adv-x="1078" d="M158,950v197q0,55 30.5,98t81.5,63l430,171q9,4 10,9.5t1,16.5v58H380V1423l-211,42v133q0,72 50,109.5T364,1745H726q97,0 146.5-33T922,1608V1484q0-54-30-93t-76-56L417,1176q-25-10-36.5-17.5T369,1139v-7H741v95l211-34v-74q0-108-60-138.5T734,950H158Z" />
      <glyph unicode="&#xb3;" glyph-name="gid262" horiz-adv-x="1107" d="M158,1172l206,36v-75H704q18,0 28.5,10t10.5,28v66q0,16-7,27t-21,11H469v165H696q15,0 21.5,11.5T724,1479v60q0,15-9.5,24.5T690,1573H371v-85l-206,36v96q0,33 12,58.5t36.5,42.5t60.5,25.5t84,8.5H724q102,0 154.5-41.5T931,1579v-49q0-78-36-116.5T788,1365q66-2 114-41t48-129v-67q0-101-61-139.5T741,950H351q-85,0-139,24t-54,120v78Z" />
      <glyph unicode="&#xb4;" glyph-name="gid120" horiz-adv-x="706" d="M50,1087l311,361H656L306,1087H50Z" />
      <glyph unicode="&#xb5;" glyph-name="gid156" horiz-adv-x="1412" d="M173-428V1003H457V243H955v760h284V0H955V150Q929,58 859.5,28.5T702-1H639Q545-1 489.5,24.5T413,99V-382L173-428Z" />
      <glyph unicode="&#xb6;" glyph-name="gid144" horiz-adv-x="1227" d="M1030,0H934V1281H819V0H724V505H432q-87,0-153,15T168.5,567.5T101,651T78,771v347q0,175 99,228.5T432,1400h598V0Z" />
      <glyph unicode="&#xb7;" glyph-name="gid96" horiz-adv-x="677" d="M178,556v80q0,86 16.5,102.5T300,755h76q89,0 106-16t17-104V556q0-89-17-105.5T376,434H300q-89,0-105.5,16.5T178,556Z" />
      <glyph unicode="&#xb8;" glyph-name="gid133" horiz-adv-x="425" d="M194-438q-53,0-94,13T24-388l44,78q12-8 34-13.5t45-5.5q34,0 53,16.5T219-267t-19,43.5T147-209q-22,0-43.5-3.5T59-224L162,0h91L205-104q48,0 84.5-10.5T351-145t37.5-49.5T401-263q0-44-15.5-77T343-394.5T278-427t-84-11Z" />
      <glyph unicode="&#xb9;" glyph-name="gid260" horiz-adv-x="627" d="M228,950v589l-165-4v134l378,75V950H228Z" />
      <glyph unicode="&#xba;" glyph-name="gid151" horiz-adv-x="994" d="M110,929v379q0,75 41.5,109T288,1451H706q94,0 136-34t42-109V929q0-81-41-116T706,778H288q-95,0-136.5,35T110,929Zm219,29H665v313H329V958Z" />
      <glyph unicode="&#xbb;" glyph-name="gid118" horiz-adv-x="1018" d="M705,873L949,502L705,130H470L713,502L470,873H705Zm-403,0L545,502L302,130H67L310,502L67,873H302Z" />
      <glyph unicode="&#xbc;" glyph-name="gid263" horiz-adv-x="1824" d="M228,614v589l-165-4v134l378,75V614H228ZM128,0l926,1400h233L360,0H128ZM807,156V331l548,459h207V339h160V156H1562V0H1350V156H807Zm263,182h280V571L1070,338Z" />
      <glyph unicode="&#xbd;" glyph-name="gid264" horiz-adv-x="1866" d="M228,614v589l-165-4v134l378,75V614H228ZM128,0l926,1400h233L360,0H128ZM945,0V197q0,55 30.5,98t82.5,63l430,171q9,4 9.5,9.5T1498,555v58H1168V473L956,515V648q0,72 50,109.5T1151,795h363q96,0 145.5-33T1709,658V534q0-54-30-93t-75-56L1204,226q-25-10-36.5-17.5T1156,189v-7h373v95l211-34V169q0-108-60-138.5T1522,0H945Z" />
      <glyph unicode="&#xbe;" glyph-name="gid265" horiz-adv-x="2305" d="M158,836l206,36V797H704q18,0 28.5,10T743,835v66q0,16-7,27t-21,11H469v165H696q15,0 21.5,11.5T724,1143v60q0,15-9.5,24.5T690,1237H371v-85l-206,36v96q0,33 12,58.5t36.5,42.5t60.5,25.5t84,8.5H724q102,0 154.5-41.5T931,1243v-49q0-78-36-116.5T788,1029q66-2 114-41t48-129V792q0-101-61-139.5T741,614H351q-85,0-139,24T158,758v78ZM608,0l927,1400h233L841,0H608Zm680,156V331l548,459h207V339h159V156H2043V0H1831V156H1288Zm263,182h280V571L1551,338Z" />
      <glyph unicode="&#xbf;" glyph-name="gid77" horiz-adv-x="1305" d="M837,548V373q0-76-39-124.5T674,183L507,147q-47-12-67-38.5T420,25V-158H943V31l264-50V-150q0-136-75.5-195T880-404H484q-176,0-251,58T158-150V118q0,103 54,159.5T394,358l103,17q62,13 71.5,30.5T578,453v95H837Zm47,347V815q0-87-17-103.5T762,695H657q-88,0-105.5,16T534,815v80q0,89 17.5,105.5T657,1017H762q88,0 105-16.5T884,895Z" />
      <glyph unicode="&#xc0;" glyph-name="gid173" horiz-adv-x="1701" d="M0,0L719,1400H974L1701,0H1341L1186,306H487L331,0H0ZM618,559h442L840,991L618,559Zm166,928L441,1800H791l283-313H784Z" />
      <glyph unicode="&#xc1;" glyph-name="gid174" horiz-adv-x="1701" d="M0,0L719,1400H974L1701,0H1341L1186,306H487L331,0H0ZM618,559h442L840,991L618,559Zm12,928l283,313h349L920,1487H630Z" />
      <glyph unicode="&#xc2;" glyph-name="gid175" horiz-adv-x="1701" d="M0,0L719,1400H974L1701,0H1341L1186,306H487L331,0H0ZM618,559h442L840,991L618,559ZM426,1487l298,313H983l295-313H996L850,1672L703,1487H426Z" />
      <glyph unicode="&#xc3;" glyph-name="gid176" horiz-adv-x="1701" d="M0,0L719,1400H974L1701,0H1341L1186,306H487L331,0H0ZM618,559h442L840,991L618,559ZM428,1547q14,73 42,122t65,78.5t80,42.5t87,13q47,0 88.5-12t78-26t68-26.5T996,1726q31,0 56,14.5t35,62.5l188-32q-13-72-41-121t-65.5-79.5T1088,1527t-86-13q-48,0-89.5,12T835,1552.5T767,1579t-59,12q-32,0-57-14t-35-62l-188,32Z" />
      <glyph unicode="&#xc4;" glyph-name="gid177" horiz-adv-x="1701" d="M0,0L719,1400H974L1701,0H1341L1186,306H487L331,0H0ZM618,559h442L840,991L618,559Zm-26,955q-68,0-80.5,12.5T499,1607v82q0,67 12.5,78.5T592,1779h85q68,0 80.5-11.5T770,1689v-82q0-68-12.5-80.5T677,1514H592Zm434,0q-68,0-80,12.5T934,1607v82q0,67 12,78.5t80,11.5h86q68,0 80-11.5t12-78.5v-82q0-68-12-80.5t-80-12.5h-86Z" />
      <glyph unicode="&#xc5;" glyph-name="gid178" horiz-adv-x="1701" d="M0,0L719,1400H974L1701,0H1341L1186,306H487L331,0H0ZM618,559h442L840,991L618,559Zm234,912q-71,0-115.5,8t-68,30t-32,62T628,1675q0,65 8.5,104t32,61.5t68,30.5t115.5,8t115-8t68-30.5t32.5-61.5t8.5-104q0-64-8.5-104t-32.5-62t-68-30t-115-8Zm0,130q46,0 58,16t12,58q0,41-12,57t-58,16q-47,0-59-16t-12-57q0-42 12-58t59-16Z" />
      <glyph unicode="&#xc6;" glyph-name="gid164" horiz-adv-x="2558" d="M0,0L838,1400H2428V1131H1460V847h582V586H1460V269h988V0H1154V306H531L350,0H0ZM679,559h475v570H1015L679,559Z" />
      <glyph unicode="&#xc7;" glyph-name="gid179" horiz-adv-x="1647" d="M168,1132q0,154 84,218t268,64h641q185,0 269-64t84-218V939l-306-56v257H474V260h742V543l306-60V280q0-162-82.5-228T1169-14H520Q331-14 249.5,52T168,280v852ZM823-452q-50,0-91.5,12T654-402l44,78q13-8 35-13.5t43-5.5q36,0 54.5,16.5T849-281q0,28-19,43t-54,15q-20,0-42.5-4T689-238L799,1h91L835-118q97-1 146-41.5T1030-278q0-83-54-128.5T823-452Z" />
      <glyph unicode="&#xc8;" glyph-name="gid180" horiz-adv-x="1602" d="M197,0V1400H1471V1131H503V847h582V586H503V269h988V0H197ZM776,1487L433,1800H783l283-313H776Z" />
      <glyph unicode="&#xc9;" glyph-name="gid181" horiz-adv-x="1602" d="M197,0V1400H1471V1131H503V847h582V586H503V269h988V0H197ZM622,1487l283,313h350L912,1487H622Z" />
      <glyph unicode="&#xca;" glyph-name="gid182" horiz-adv-x="1602" d="M197,0V1400H1471V1131H503V847h582V586H503V269h988V0H197ZM419,1487l297,313H975l296-313H988L842,1672L695,1487H419Z" />
      <glyph unicode="&#xcb;" glyph-name="gid183" horiz-adv-x="1602" d="M197,0V1400H1471V1131H503V847h582V586H503V269h988V0H197ZM584,1514q-68,0-80.5,12.5T491,1607v82q0,67 12.5,78.5T584,1779h86q68,0 80-11.5t12-78.5v-82q0-68-12-80.5T670,1514H584Zm435,0q-68,0-80.5,12.5T926,1607v82q0,67 12.5,78.5T1019,1779h85q68,0 80.5-11.5T1197,1689v-82q0-68-12.5-80.5T1104,1514h-85Z" />
      <glyph unicode="&#xcc;" glyph-name="gid184" horiz-adv-x="701" d="M197,0V1400H503V0H197Zm85,1487L-60,1800H290l282-313H282Z" />
      <glyph unicode="&#xcd;" glyph-name="gid185" horiz-adv-x="701" d="M197,0V1400H503V0H197ZM128,1487l283,313H761L418,1487H128Z" />
      <glyph unicode="&#xce;" glyph-name="gid186" horiz-adv-x="701" d="M197,0V1400H503V0H197ZM-75,1487l297,313H481l296-313H494L348,1672L201,1487H-75Z" />
      <glyph unicode="&#xcf;" glyph-name="gid187" horiz-adv-x="701" d="M197,0V1400H503V0H197ZM90,1514q-68,0-80,12.5T-2,1607v82q0,67 12,78.5T90,1779h86q68,0 80-11.5t12-78.5v-82q0-68-12-80.5T176,1514H90Zm435,0q-68,0-80.5,12.5T432,1607v82q0,67 12.5,78.5T525,1779h85q68,0 80.5-11.5T703,1689v-82q0-68-12.5-80.5T610,1514H525Z" />
      <glyph unicode="&#xd0;" glyph-name="gid166" horiz-adv-x="1810" d="M197,0V583H95V819H197v581h833q144,0 268-43t215-130t142.5-218.5T1707,700q0-188-53.5-321t-145-217t-215-123T1030,0H197ZM503,271H994q97,0 171,23.5T1288.5,370T1363,505.5T1388,709q0,116-25.5,196T1287,1035t-123.5,72T994,1129H503V819H833V583H503V271Z" />
      <glyph unicode="&#xd1;" glyph-name="gid188" horiz-adv-x="1863" d="M197,0V1400H431l951-934v934h283V0H1431L481,928V0H197ZM508,1547q13,73 41.5,122t65.5,78.5t80,42.5t86,13q48,0 89.5-12t77.5-26t68-26.5t60-12.5q31,0 56,14.5t35,62.5l188-32q-13-72-41.5-121t-65.5-79.5t-80-43.5t-87-13q-47,0-88.5,12t-78,26.5t-68,26.5T787,1591q-31,0-56-14t-35-62l-188,32Z" />
      <glyph unicode="&#xd2;" glyph-name="gid189" horiz-adv-x="1828" d="M168,1132q0,175 98,228.5T520,1414h786q157,0 255.5-53.5T1660,1132V280q0-182-94-238T1306-14H520Q354-14 261,42.5T168,280v852Zm306,5V263h880v874H474Zm371,364L502,1814H852l283-313H845Z" />
      <glyph unicode="&#xd3;" glyph-name="gid190" horiz-adv-x="1828" d="M168,1132q0,175 98,228.5T520,1414h786q157,0 255.5-53.5T1660,1132V280q0-182-94-238T1306-14H520Q354-14 261,42.5T168,280v852Zm306,5V263h880v874H474Zm217,364l283,313h350L981,1501H691Z" />
      <glyph unicode="&#xd4;" glyph-name="gid191" horiz-adv-x="1828" d="M168,1132q0,175 98,228.5T520,1414h786q157,0 255.5-53.5T1660,1132V280q0-182-94-238T1306-14H520Q354-14 261,42.5T168,280v852Zm306,5V263h880v874H474Zm14,364l297,313h259l296-313H1057L911,1686L764,1501H488Z" />
      <glyph unicode="&#xd5;" glyph-name="gid192" horiz-adv-x="1828" d="M168,1132q0,175 98,228.5T520,1414h786q157,0 255.5-53.5T1660,1132V280q0-182-94-238T1306-14H520Q354-14 261,42.5T168,280v852Zm306,5V263h880v874H474Zm16,424q13,73 41,122t65.5,78.5t80,42.5t86.5,13q47,0 89-12t78-26t67.5-26.5T1057,1740q31,0 56.5,14.5T1149,1817l187-32q-13-72-41-121t-65.5-79.5t-80-43.5t-86.5-13q-47,0-89,12t-78,26.5T828.5,1593T769,1605q-31,0-56.5-14T678,1529l-188,32Z" />
      <glyph unicode="&#xd6;" glyph-name="gid193" horiz-adv-x="1828" d="M168,1132q0,175 98,228.5T520,1414h786q157,0 255.5-53.5T1660,1132V280q0-182-94-238T1306-14H520Q354-14 261,42.5T168,280v852Zm306,5V263h880v874H474Zm179,391q-68,0-80.5,12.5T560,1621v82q0,67 12.5,78.5T653,1793h85q68,0 80.5-11.5T831,1703v-82q0-68-12.5-80.5T738,1528H653Zm435,0q-68,0-80.5,12.5T995,1621v82q0,67 12.5,78.5T1088,1793h85q68,0 80.5-11.5T1266,1703v-82q0-68-12.5-80.5T1173,1528h-85Z" />
      <glyph unicode="&#xd7;" glyph-name="gid161" horiz-adv-x="1439" d="M365,78L210,233L565,588L209,944l155,155L720,743l356,356l155-155L875,588l355-355L1075,78L720,433L365,78Z" />
      <glyph unicode="&#xd8;" glyph-name="gid194" horiz-adv-x="2042" d="M276,1132q0,175 97.5,228.5T627,1414h786q157,0 255.5-53.5T1767,1132V280q0-182-94-238T1413-14H627Q461-14 368.5,42.5T276,280v852Zm306,8V260h879v880H582ZM287-60L168,75L1755,1460l119-135L287-60Z" />
      <glyph unicode="&#xd9;" glyph-name="gid195" horiz-adv-x="1728" d="M183,1400H489V271h750V1400h306V280q0-182-94-238T1192-14H534Q453-14 388-2T277,42t-70,89.5T183,280V1400Zm613,87L453,1800H803l283-313H796Z" />
      <glyph unicode="&#xda;" glyph-name="gid196" horiz-adv-x="1728" d="M183,1400H489V271h750V1400h306V280q0-182-94-238T1192-14H534Q453-14 388-2T277,42t-70,89.5T183,280V1400Zm459,87l283,313h350L932,1487H642Z" />
      <glyph unicode="&#xdb;" glyph-name="gid197" horiz-adv-x="1728" d="M183,1400H489V271h750V1400h306V280q0-182-94-238T1192-14H534Q453-14 388-2T277,42t-70,89.5T183,280V1400Zm256,87l297,313H995l296-313H1008L862,1672L715,1487H439Z" />
      <glyph unicode="&#xdc;" glyph-name="gid198" horiz-adv-x="1728" d="M183,1400H489V271h750V1400h306V280q0-182-94-238T1192-14H534Q453-14 388-2T277,42t-70,89.5T183,280V1400Zm421,114q-68,0-80.5,12.5T511,1607v82q0,67 12.5,78.5T604,1779h85q68,0 80.5-11.5T782,1689v-82q0-68-12.5-80.5T689,1514H604Zm435,0q-68,0-80.5,12.5T946,1607v82q0,67 12.5,78.5T1039,1779h85q68,0 80.5-11.5T1217,1689v-82q0-68-12.5-80.5T1124,1514h-85Z" />
      <glyph unicode="&#xdd;" glyph-name="gid199" horiz-adv-x="1612" d="M666,0V609L0,1400H422L831,872l411,528h370L972,610V0H666ZM584,1487l283,313h350L874,1487H584Z" />
      <glyph unicode="&#xde;" glyph-name="gid167" horiz-adv-x="1642" d="M173,0V1400H479V1169h662q157,0 255.5-53.5T1495,887V539q0-139-89-204t-265-65H479V0H173ZM479,544h611q51,0 76,19.5t25,74.5V800q0,49-25,72t-76,23H479V544Z" />
      <glyph unicode="&#xdf;" glyph-name="gid170" horiz-adv-x="1391" d="M160,0V1242q0,112 61.5,161.5T423,1453H952q140,0 201.5-49.5T1215,1242V1134q0-70-19.5-115T1132,948q57-17 89.5-58.5T1254,762V198q0-130-66.5-169T1003-10H596V236H968V758H657v245H929v232H446V0H160Z" />
      <glyph unicode="&#xe0;" glyph-name="gid200" horiz-adv-x="1381" d="M390-10Q273-10 205,30.5T137,201V398q0,126 88,163.5T424,599H935V793H439V710L154,763v46q0,127 69.5,165.5T407,1013H968q113,0 183-38.5T1221,806V0H935V150Q909,58 836,24T670-10H390Zm34,213H935V391H424V203Zm241,887L315,1451H610l311-361H665Z" />
      <glyph unicode="&#xe1;" glyph-name="gid201" horiz-adv-x="1381" d="M390-10Q273-10 205,30.5T137,201V398q0,126 88,163.5T424,599H935V793H439V710L154,763v46q0,127 69.5,165.5T407,1013H968q113,0 183-38.5T1221,806V0H935V150Q909,58 836,24T670-10H390Zm34,213H935V391H424V203Zm38,884l311,361h295L718,1087H462Z" />
      <glyph unicode="&#xe2;" glyph-name="gid202" horiz-adv-x="1381" d="M390-10Q273-10 205,30.5T137,201V398q0,126 88,163.5T424,599H935V793H439V710L154,763v46q0,127 69.5,165.5T407,1013H968q113,0 183-38.5T1221,806V0H935V150Q909,58 836,24T670-10H390Zm34,213H935V391H424V203ZM295,1090l303,361H788l300-361H835L689,1300L542,1090H295Z" />
      <glyph unicode="&#xe3;" glyph-name="gid203" horiz-adv-x="1381" d="M390-10Q273-10 205,30.5T137,201V398q0,126 88,163.5T424,599H935V793H439V710L154,763v46q0,127 69.5,165.5T407,1013H968q113,0 183-38.5T1221,806V0H935V150Q909,58 836,24T670-10H390Zm34,213H935V391H424V203ZM278,1158q27,144 102,197.5T541,1409q48,0 89.5-13.5T708,1366t68-29.5t60-13.5q31,0 56,19t35,67l177-31q-27-144-102-198t-161-54q-47,0-88.5,13.5t-78,30t-68,29.5T547,1212q-31,0-56-18.5T456,1127l-178,31Z" />
      <glyph unicode="&#xe4;" glyph-name="gid204" horiz-adv-x="1381" d="M390-10Q273-10 205,30.5T137,201V398q0,126 88,163.5T424,599H935V793H439V710L154,763v46q0,127 69.5,165.5T407,1013H968q113,0 183-38.5T1221,806V0H935V150Q909,58 836,24T670-10H390Zm34,213H935V391H424V203Zm23,938q-68,0-80.5,12.5T354,1234v70q0,67 12.5,79t80.5,12h71q68,0 80.5-12t12.5-79v-70q0-68-12.5-80.5T518,1141H447Zm418,0q-68,0-80.5,12.5T772,1234v70q0,67 12.5,79t80.5,12h71q68,0 80.5-12t12.5-79v-70q0-68-12.5-80.5T936,1141H865Z" />
      <glyph unicode="&#xe5;" glyph-name="gid205" horiz-adv-x="1381" d="M390-10Q273-10 205,30.5T137,201V398q0,126 88,163.5T424,599H935V793H439V710L154,763v46q0,127 69.5,165.5T407,1013H968q113,0 183-38.5T1221,806V0H935V150Q909,58 836,24T670-10H390Zm34,213H935V391H424V203Zm267,877q-67,0-108,7.5T519.5,1116t-30,58.5T482,1273q0,60 7.5,97.5t30,58.5t63.5,28.5t108,7.5t108-7.5t63.5-28.5t30.5-58.5t8-97.5q0-61-8-98.5T862.5,1116T799,1087.5T691,1080Zm0,120q46,0 58.5,16t12.5,57q0,40-12.5,55.5T691,1344t-58-15.5T621,1273q0-41 12-57t58-16Z" />
      <glyph unicode="&#xe6;" glyph-name="gid168" horiz-adv-x="2126" d="M387-10q-59,0-105,8.5T203.5,30T154,93.5T137,198V413q0,63 18.5,102T207,575.5t78.5,29T387,612H915V796H437V709L153,758v50q0,62 18,101.5T222,972t79,32t102,9H890q79,0 138-21t91-68q35,48 100,68.5t150,20.5h361q55,0 101-8t78.5-30t51-61T1979,813V401H1201V207h485V307l285-50V203q0-64-17-105t-49-65T1827-0.5T1722-10H1232q-79,0-140,22.5T998,83q-31-48-90.5-70.5T769-10H387Zm36,217H915V400H423V207Zm778,406h492V796H1201V613Z" />
      <glyph unicode="&#xe7;" glyph-name="gid206" horiz-adv-x="1367" d="M147,212V802q0,114 61.5,162.5T413,1013H987q144,0 205-48.5T1252,802V695L967,640V768H433V236H971V372l285-59V212q0-121-60-171.5T991-10H412Q267-10 207,40.5T147,212ZM681-438q-51,0-92.5,12T511-388l44,78q13-8 35.5-13.5T634-329q35,0 54,16.5T707-267q0,28-19,43t-55,15q-19,0-42-4t-45-11L656,15h46h45L692-104q97-1 146.5-41.5T888-264q0-83-54.5-128.5T681-438Z" />
      <glyph unicode="&#xe8;" glyph-name="gid207" horiz-adv-x="1401" d="M147,257V782q0,114 70,172.5T434,1013H963q147,0 219-59t72-175V402H433V207H969V313l285-50V252q0-141-76.5-201.5T923-10H459Q299-10 223,51T147,257ZM433,609H969V796H433V609Zm239,481L322,1451H617l311-361H672Z" />
      <glyph unicode="&#xe9;" glyph-name="gid208" horiz-adv-x="1401" d="M147,257V782q0,114 70,172.5T434,1013H963q147,0 219-59t72-175V402H433V207H969V313l285-50V252q0-141-76.5-201.5T923-10H459Q299-10 223,51T147,257ZM433,609H969V796H433V609Zm36,478l311,361h295L725,1087H469Z" />
      <glyph unicode="&#xea;" glyph-name="gid209" horiz-adv-x="1401" d="M147,257V782q0,114 70,172.5T434,1013H963q147,0 219-59t72-175V402H433V207H969V313l285-50V252q0-141-76.5-201.5T923-10H459Q299-10 223,51T147,257ZM433,609H969V796H433V609ZM302,1090l303,361H795l300-361H842L696,1300L549,1090H302Z" />
      <glyph unicode="&#xeb;" glyph-name="gid210" horiz-adv-x="1401" d="M147,257V782q0,114 70,172.5T434,1013H963q147,0 219-59t72-175V402H433V207H969V313l285-50V252q0-141-76.5-201.5T923-10H459Q299-10 223,51T147,257ZM433,609H969V796H433V609Zm21,532q-68,0-80.5,12.5T361,1234v70q0,67 12.5,79t80.5,12h71q68,0 80.5-12t12.5-79v-70q0-68-12.5-80.5T525,1141H454Zm418,0q-68,0-80.5,12.5T779,1234v70q0,67 12.5,79t80.5,12h71q68,0 80.5-12t12.5-79v-70q0-68-12.5-80.5T943,1141H872Z" />
      <glyph unicode="&#xec;" glyph-name="gid211" horiz-adv-x="632" d="M173,0V1003H459V0H173ZM290,1090L-61,1451H235l310-361H290Z" />
      <glyph unicode="&#xed;" glyph-name="gid212" horiz-adv-x="632" d="M173,0V1003H459V0H173ZM87,1087l310,361H693L342,1087H87Z" />
      <glyph unicode="&#xee;" glyph-name="gid213" horiz-adv-x="632" d="M173,0V1003H459V0H173ZM-80,1090l302,361H412l301-361H460L314,1300L167,1090H-80Z" />
      <glyph unicode="&#xef;" glyph-name="gid214" horiz-adv-x="632" d="M173,0V1003H459V0H173ZM72,1141q-68,0-80.5,12.5T-21,1234v70q0,67 12.5,79T72,1395h71q68,0 80-12t12-79v-70q0-68-12-80.5T143,1141H72Zm417,0q-68,0-80,12.5T397,1234v70q0,67 12,79t80,12h71q68,0 80.5-12t12.5-79v-70q0-68-12.5-80.5T560,1141H489Z" />
      <glyph unicode="&#xf0;" glyph-name="gid171" horiz-adv-x="1423" d="M410-10Q268-10 207.5,41T147,211V789q0,112 61.5,161.5T410,1000H894q-23,44-53.5,83.5T772,1159l-348-91l-34,131l243,63q-63,37-135.5,66T341,1379l258,82q89-18 169-48.5T918,1337l322,84l34-131l-225-60q105-107 164.5-267T1273,574V211q0-119-60-170T1010-10H410ZM970,754H433V236H987V577q0,48-4.5,92T970,754Z" />
      <glyph unicode="&#xf1;" glyph-name="gid215" horiz-adv-x="1397" d="M173,0V1003H459V909q30,52 97,78t185,26H912q173,0 249-60t76-197V0H951V761H459V0H173ZM292,1168q26,144 101.5,197.5T555,1419q48,0 89.5-13.5T722,1376t68-29.5t59-13.5q32,0 57,19t35,67l177-31q-27-144-102-198t-161-54q-47,0-88.5,13.5t-78,30t-68,29.5T561,1222q-31,0-56-18.5T470,1137l-178,31Z" />
      <glyph unicode="&#xf2;" glyph-name="gid216" horiz-adv-x="1420" d="M147,211V802q0,112 61.5,161.5T410,1013h600q141,0 202-49.5T1273,802V211q0-119-60-170T1010-10H410Q268-10 207.5,41T147,211Zm286,25H987V768H433V236Zm251,854L333,1451H629l310-361H684Z" />
      <glyph unicode="&#xf3;" glyph-name="gid217" horiz-adv-x="1420" d="M147,211V802q0,112 61.5,161.5T410,1013h600q141,0 202-49.5T1273,802V211q0-119-60-170T1010-10H410Q268-10 207.5,41T147,211Zm286,25H987V768H433V236Zm47,851l311,361h295L736,1087H480Z" />
      <glyph unicode="&#xf4;" glyph-name="gid218" horiz-adv-x="1420" d="M147,211V802q0,112 61.5,161.5T410,1013h600q141,0 202-49.5T1273,802V211q0-119-60-170T1010-10H410Q268-10 207.5,41T147,211Zm286,25H987V768H433V236ZM314,1090l302,361H806l301-361H854L708,1300L561,1090H314Z" />
      <glyph unicode="&#xf5;" glyph-name="gid219" horiz-adv-x="1420" d="M147,211V802q0,112 61.5,161.5T410,1013h600q141,0 202-49.5T1273,802V211q0-119-60-170T1010-10H410Q268-10 207.5,41T147,211Zm286,25H987V768H433V236ZM297,1158q26,144 101.5,197.5T560,1409q47,0 89-13.5t78-29.5t67.5-29.5T854,1323q31,0 56.5,19t35.5,67l177-31q-27-144-102-198t-161-54q-48,0-89.5,13.5t-77.5,30T625.5,1199T566,1212q-31,0-56.5-18.5T474,1127l-177,31Z" />
      <glyph unicode="&#xf6;" glyph-name="gid220" horiz-adv-x="1420" d="M147,211V802q0,112 61.5,161.5T410,1013h600q141,0 202-49.5T1273,802V211q0-119-60-170T1010-10H410Q268-10 207.5,41T147,211Zm286,25H987V768H433V236Zm32,905q-68,0-80,12.5T373,1234v70q0,67 12,79t80,12h72q68,0 80-12t12-79v-70q0-68-12-80.5T537,1141H465Zm418,0q-68,0-80.5,12.5T790,1234v70q0,67 12.5,79t80.5,12h71q68,0 80.5-12t12.5-79v-70q0-68-12.5-80.5T954,1141H883Z" />
      <glyph unicode="&#xf7;" glyph-name="gid162" horiz-adv-x="1439" d="M684,49q-69,0-84,16t-15,90v75q0,73 15,89t84,16h72q69,0 85-16t16-89V155q0-74-16-90T756,49H684ZM128,477V697H1311V477H128ZM684,837q-69,0-84,16t-15,89v76q0,72 15,88t84,16h72q69,0 85-16t16-88V942q0-73-16-89t-85-16H684Z" />
      <glyph unicode="&#xf8;" glyph-name="gid221" horiz-adv-x="1547" d="M210,211V802q0,112 61.5,161.5T473,1013h600q140,0 201.5-49.5T1336,802V211q0-119-60-170T1073-10H473Q331-10 270.5,41T210,211Zm283,21h560V769H493V232ZM254-60L147,61L357,245l26,19l669,589l22,13l220,194l106-121L1178,742l-22-12L484,139l-27-20L254-60Z" />
      <glyph unicode="&#xf9;" glyph-name="gid222" horiz-adv-x="1386" d="M160,195v808H446V241H940v762h286V195q0-127-65.5-165.5T980-9H404Q289-9 224.5,29.5T160,195Zm507,895L316,1451H612l310-361H667Z" />
      <glyph unicode="&#xfa;" glyph-name="gid223" horiz-adv-x="1386" d="M160,195v808H446V241H940v762h286V195q0-127-65.5-165.5T980-9H404Q289-9 224.5,29.5T160,195Zm304,892l310,361h296L719,1087H464Z" />
      <glyph unicode="&#xfb;" glyph-name="gid224" horiz-adv-x="1386" d="M160,195v808H446V241H940v762h286V195q0-127-65.5-165.5T980-9H404Q289-9 224.5,29.5T160,195Zm137,895l302,361H789l301-361H837L691,1300L544,1090H297Z" />
      <glyph unicode="&#xfc;" glyph-name="gid225" horiz-adv-x="1386" d="M160,195v808H446V241H940v762h286V195q0-127-65.5-165.5T980-9H404Q289-9 224.5,29.5T160,195Zm289,946q-68,0-80.5,12.5T356,1234v70q0,67 12.5,79t80.5,12h71q68,0 80.5-12t12.5-79v-70q0-68-12.5-80.5T520,1141H449Zm417,0q-68,0-80,12.5T774,1234v70q0,67 12,79t80,12h72q68,0 80-12t12-79v-70q0-68-12-80.5T938,1141H866Z" />
      <glyph unicode="&#xfd;" glyph-name="gid226" horiz-adv-x="1215" d="M80-428L30-187H362L479,59L4,1003H333L631,382l292,621h287L613-242q-26-54-52-90t-60.5-57T419-419t-113-9H80ZM378,1087l311,361H984L634,1087H378Z" />
      <glyph unicode="&#xfe;" glyph-name="gid172" horiz-adv-x="1441" d="M173-428V1451H459V903q22,56 83,83t161,27h328q142,0 202.5-50.5T1294,792V201q0-112-61-161.5T1031-10H703Q603-10 542,17t-83,83V-428H173ZM459,237h550V766H459V237Z" />
      <glyph unicode="&#xff;" glyph-name="gid227" horiz-adv-x="1215" d="M80-428L30-187H362L479,59L4,1003H333L631,382l292,621h287L613-242q-26-54-52-90t-60.5-57T419-419t-113-9H80ZM363,1141q-68,0-80.5,12.5T270,1234v70q0,67 12.5,79t80.5,12h71q68,0 80.5-12t12.5-79v-70q0-68-12.5-80.5T434,1141H363Zm418,0q-68,0-80.5,12.5T688,1234v70q0,67 12.5,79t80.5,12h71q68,0 80.5-12t12.5-79v-70q0-68-12.5-80.5T852,1141H781Z" />
      <glyph unicode="&#x2013;" glyph-name="gid91" horiz-adv-x="1000" d="M0,726H1000V477H0V726Z" />
      <glyph unicode="&#x2014;" glyph-name="gid92" horiz-adv-x="2000" d="M0,726H2000V477H0V726Z" />
      <glyph unicode="&#x2018;" glyph-name="gid106" horiz-adv-x="705" d="M397,1493l109-34L372,1185h33q89,0 105.5-17T527,1063V968q0-86-16.5-103T405,848H300q-89,0-105.5,16.5T178,968v95q0,46 7.5,74.5T215,1201l182,292Z" />
      <glyph unicode="&#x2019;" glyph-name="gid107" horiz-adv-x="705" d="M308,846L199,879l134,275H300q-89,0-105.5,16.5T178,1276v94q0,87 16.5,103.5T300,1490H405q89,0 105.5-16T527,1370v-94q0-47-7.5-75.5T490,1138L308,846Z" />
      <glyph unicode="&#x201a;" glyph-name="gid108" horiz-adv-x="705" d="M308-308L199-274L333,0H300Q211,0 194.5,17T178,122v95q0,86 16.5,103T300,337H405q89,0 105.5-16.5T527,217V122q0-46-7.5-75T490-16L308-308Z" />
      <glyph unicode="&#x201c;" glyph-name="gid109" horiz-adv-x="1232" d="M397,1493l109-34L372,1185h33q89,0 105.5-17T527,1063V968q0-86-16.5-103T405,848H300q-89,0-105.5,16.5T178,968v95q0,46 7.5,74.5T215,1201l182,292Zm528,0l108-34L899,1185h34q88,0 105-17t17-105V968q0-86-17-103T933,848H827q-89,0-105.5,16.5T705,968v95q0,46 7.5,74.5T742,1201l183,292Z" />
      <glyph unicode="&#x201d;" glyph-name="gid110" horiz-adv-x="1232" d="M308,846L199,879l134,275H300q-89,0-105.5,16.5T178,1276v94q0,87 16.5,103.5T300,1490H405q89,0 105.5-16T527,1370v-94q0-47-7.5-75.5T490,1138L308,846Zm527,0L727,879l134,275H827q-89,0-105.5,16.5T705,1276v94q0,87 17,103.5T827,1490H933q88,0 105-16t17-104v-94q0-47-8-75.5t-29-62.5L835,846Z" />
      <glyph unicode="&#x201e;" glyph-name="gid111" horiz-adv-x="1232" d="M308-308L199-274L333,0H300Q211,0 194.5,17T178,122v95q0,86 16.5,103T300,337H405q89,0 105.5-16.5T527,217V122q0-46-7.5-75T490-16L308-308Zm527,0L727-274L861,0H827Q738,0 721.5,17T705,122v95q0,86 17,103t105,17H933q88,0 105-16.5T1055,217V122q0-46-8-75t-29-63L835-308Z" />
      <glyph unicode="&#x2022;" glyph-name="gid98" horiz-adv-x="816" d="M197,504V690q0,86 17,102.5T319,809H495q89,0 106-16t17-104V504q0-88-17-105T496,382H319q-88,0-105,17T197,504Z" />
      <glyph unicode="&#x2039;" glyph-name="gid115" horiz-adv-x="614" d="M312,130L69,502L312,873H548L305,502L548,130H312Z" />
      <glyph unicode="&#x203a;" glyph-name="gid116" horiz-adv-x="614" d="M302,873L545,502L302,130H67L310,502L67,873H302Z" />
    </font>
</defs>
</svg>
