<?xml version="1.0" standalone="no"?>
<!DOCTYPE svg PUBLIC "-//W3C//DTD SVG 1.1//EN" "http://www.w3.org/Graphics/SVG/1.1/DTD/svg11.dtd">
<svg xmlns="http://www.w3.org/2000/svg">
  <defs>
    <font id="AlegreyaSans" horiz-adv-x="525">
      <font-face font-family="Alegreya Sans Medium" units-per-em="1000" panose-1="0 0 6 0 0 0 0 0 0 0" ascent="800" descent="-200" alphabetic="0" />
      <glyph unicode=" " glyph-name="space" horiz-adv-x="160" />
      <glyph unicode="!" glyph-name="exclam" horiz-adv-x="260" d="M190,650L162,226l-59-8L93,230L89,646l10,12l79,5l12-13ZM121,108q25,0 39-14.5T174,53q0-27-15-43T118-6T77.5,9T63,50T79,92t42,16Z" />
      <glyph unicode="&quot;" glyph-name="quotedbl" horiz-adv-x="310" d="M141,632L113,434l-50-7l-8,7l1,200l78,6l7-8Zm128,0L240,434l-50-7l-8,7l2,200l78,6l7-8Z" />
      <glyph unicode="#" glyph-name="numbersign" horiz-adv-x="529" d="M393,361L369,250h99l7-7l-5-54H356L323,32H264l-6,8l32,149H184L151,32H91l-5,8l32,149H27l-7,7l5,54H130l24,111H61l-7,7l5,54H167l32,152h58l7-9L234,422H339l32,152h58l7-9L406,422h97l6-7l-5-54H393Zm-67,0H221L197,250H302l24,111Z" />
      <glyph unicode="$" glyph-name="dollar" horiz-adv-x="437" d="M388,144q0-55-40.5-97T234-4L224-132H175l-9,9L175-5Q105,0 44,26l11,86l11,5q23-22 53.5-36.5T180,61l12,158q-64,26-99,56T58,359q0,57 42,97t114,47l10,140h50l10-9L274,504q51-5 100-24l-14-80l-14-3q-37,28-77,38L257,283q62-26 96.5-56.5T388,144ZM142,371q0-20 14.5-35T199,308l10,129q-31-6-49-25t-18-41ZM239,61q30,7 47.5,26T304,129q0,20-14.5,35.5T249,193L239,61Z" />
      <glyph unicode="%" glyph-name="percent" horiz-adv-x="836" d="M653,655l7-15L191-91L146-65l-5,13L610,681l43-26Zm-460-7q70,0 107-45t37-128q0-90-39.5-137.5T182,290q-71,0-108.5,44.5T36,463q0,90 40.5,137.5T193,648Zm-7-71q-82,0-82-108q0-113 83-113t83,109q0,112-84,112ZM655,353q70,0 107-45t37-128q0-90-39.5-137.5T644-5Q574-5 536,40T498,169q0,89 40.5,136.5T655,353Zm-7-71q-41,0-61-26.5T567,175q0-58 20-86t62-28q83,0 83,109q0,112-84,112Z" />
      <glyph unicode="&amp;" glyph-name="ampersand" horiz-adv-x="701" d="M539,353l-3-8q18-54 18-106q0-63-24-114L662,8V1q-29-31-57-46l-7,1L483,60Q409-8 285-8Q180-8 116,40T52,170q0,110 115,168v5q-35,35-51.5,70.5T99,489q0,74 51.5,116.5T297,648q88,0 160-33l-23-75H420q-61,36-125,36q-53,0-80.5-24T187,483q0-29 13.5-53T248,377L474,176q12,33 12,75q0,54-23,102H396l-5,7l8,65H686l6-7l-7-65H539ZM295,64q83,0 133,44L212,303q-34-21-53-50.5T140,186q0-58 42-90T295,64Z" />
      <glyph unicode="&apos;" glyph-name="quotesingle" horiz-adv-x="182" d="M141,632L113,434l-50-7l-8,7l1,200l78,6l7-8Z" />
      <glyph unicode="(" glyph-name="parenleft" horiz-adv-x="291" d="M286,629v-9q-67-56-96.5-141T159,256q1-134 30.5-216.5T286-99v-9l-36-32H240Q154-77 116,15T77,255q1,153 39,248T240,662h10l36-33Z" />
      <glyph unicode=")" glyph-name="parenright" horiz-adv-x="303" d="M4-108v9Q71-43 100.5,42T131,265q-1,134-30.5,216.5T4,620v9l36,32H50q86-63 124-155t39-240q-1-153-39-248T50-141H40L4-108Z" />
      <glyph unicode="*" glyph-name="asterisk" horiz-adv-x="378" d="M233,730L207,609l-38-4l-6,7l-3,114q29,11 68,11l5-7ZM149,597l-5-37l-9-4L32,589q0,42 10,69l7,2l100-63Zm174,40q21-31 32-62l-5-6L235,556l-17,34l4,9l101,38ZM230,536l64-91q-13-22-47-50l-9,2L193,513l27,24l10-1Zm-56-17l1-10l-58-94q-15,4-31.5,13T54,446v8l87,82l33-17Z" />
      <glyph unicode="+" glyph-name="plus" horiz-adv-x="480" d="M275,468V298H445l7-7l-5-63H275V56l-62-5l-8,7V228H35l-7,7l5,63H205V470l63,6l7-8Z" />
      <glyph unicode="," glyph-name="comma" horiz-adv-x="229" d="M134,106q43-31 43-75q0-74-106-150L38-89l-1,8Q92-36 92,11q0,31-31,53v9q37,24 73,33Z" />
      <glyph unicode="-" glyph-name="hyphen" horiz-adv-x="306" d="M277,300V236L37,200l-9,9v64l240,35l9-8Z" />
      <glyph unicode="." glyph-name="period" horiz-adv-x="229" d="M116,108q25,0 39-14.5T169,53q0-27-15-43T113-6T72.5,9T58,50T73.5,92T116,108Z" />
      <glyph unicode="/" glyph-name="slash" horiz-adv-x="286" d="M295,669L90-114H19l-6,9L218,679h69l8-10Z" />
      <glyph unicode="0" glyph-name="zero" horiz-adv-x="525" d="M270,508q101,0 156.5-65.5T482,256q0-126-58.5-195T257-8Q155-8 99,57.5T43,242q0,127 59.5,196.5T270,508Zm-8-94q-139,0-139-165Q123,82 263,82q69,0 104.5,40.5T403,244q0,85-36,127.5T262,414Z" />
      <glyph unicode="1" glyph-name="one" horiz-adv-x="351" d="M240,495l-6-288L239,0H136l6,196l-1,194L19,356l-9,6v81l215,63l15-11Z" />
      <glyph unicode="2" glyph-name="two" horiz-adv-x="462" d="M235,506q64,0 105-31.5T381,390q0-40-27.5-89T265,184L176,83l2-5H341l87,8l7-7L422-5L312,0H86L49-2L44,2V65L181,209q52,56 76,92t24,64q0,24-18,39t-50,15q-34,0-69.5-17T78,355H67L50,434q92,72 185,72Z" />
      <glyph unicode="3" glyph-name="three" horiz-adv-x="420" d="M196,507q73,0 117.5-36T358,376q0-42-24-81.5T260,229v-4q57-15 86.5-48.5T376,93q0-56-29.5-99T263-72.5T139-96Q92-96 36-87L31-3l7,7Q89-18 144-18q62,0 98.5,27.5T279,85q0,41-29,64.5T166,175H103l-6,7l3,70l44,1q26,0 52,13t42.5,36T255,354q0,33-21.5,51.5T176,424q-30,0-59-13.5T54,369H43L28,446q79,61 168,61Z" />
      <glyph unicode="4" glyph-name="four" horiz-adv-x="490" d="M455,66l-90,2l4-151l-6-8l-78-6l-6,7l3,158H106L31,66l-7,9v66L273,501h94l-3-354h90l6-9l-5-72ZM113,147H283V382h-8L113,147Z" />
      <glyph unicode="5" glyph-name="five" horiz-adv-x="423" d="M386,499l-11-80l-7-7l-82,7H152l-3-137l62-13q91-19 129.5-57.5T379,111q0-61-31-108.5t-87-74T134-98Q92-98 33-87L26-1l8,8Q91-18 148-18q62,0 98.5,31T283,95q0,40-27.5,64T166,194L77,211l-8,9l5,270l14,14l55-3H282l98,5l6-7Z" />
      <glyph unicode="6" glyph-name="six" horiz-adv-x="475" d="M274,354q76,0 119-47.5T436,183q0-54-24-97.5t-69.5-69T234-9Q139-9 90,49T41,212q0,126 76.5,225.5T334,595h6l76-46V539q-115-41-179-92T149,325l7-8q55,37 118,37ZM241,60q49,0 76.5,28T345,169q0,54-26,83t-74,29q-55,0-111-43q-1-8-1-24q0-78 25.5-116T241,60Z" />
      <glyph unicode="7" glyph-name="seven" horiz-adv-x="424" d="M125,501H350l45,2l1-75L214,30L165-101L83-79L77-62L300,417H108l-83-9l-6,10l7,87l99-4Z" />
      <glyph unicode="8" glyph-name="eight" horiz-adv-x="482" d="M250,593q76,0 119.5-38T413,451q0-48-24.5-81T321,310v-5q51-25 80.5-56.5T431,161q0-78-55.5-123.5T228-8Q142-8 93.5,33.5T45,143q0,54 31,89t82,60v5q-41,21-66,54T67,435q0,73 50.5,115.5T250,593Zm-5-72q-44,0-69-22.5T151,438q0-39 25-61t72-40q40,19 62.5,42.5T333,441q0,37-23.5,58.5T245,521ZM230,262q-47-17-73-41t-26-66t28.5-67T237,63q51,0 80,25.5T346,154q0,29-15.5,48.5t-38,31.5T230,262Z" />
      <glyph unicode="9" glyph-name="nine" horiz-adv-x="475" d="M201,148q-76,0-119,47.5T39,319q0,54 24,97.5t69.5,69T241,511q95,0 144-58t49-163q0-126-76.5-225.5T141-93h-6L59-47v10Q174,4 238,55t88,122l-7,8q-55-37-118-37Zm33,294q-49,0-76.5-28T130,333q0-54 26-83t74-29q55,0 111,43q1,8 1,24q0,78-25.5,116T234,442Z" />
      <glyph unicode=":" glyph-name="colon" horiz-adv-x="229" d="M112,108q25,0 39-14.5T165,53q0-27-15-43T109-6T68.5,9T54,50T69.5,92T112,108Zm0,267q25,0 39-14.5T165,320q0-27-15-43t-41-16T68.5,276T54,317t15.5,42T112,375Z" />
      <glyph unicode=";" glyph-name="semicolon" horiz-adv-x="229" d="M130,106q43-31 43-75q0-74-106-150L34-89l-1,8Q88-36 88,11q0,31-31,53v9q37,24 73,33ZM112,375q25,0 39-14.5T165,320q0-27-15-43t-41-16T68.5,276T54,317t15.5,42T112,375Z" />
      <glyph unicode="&lt;" glyph-name="less" horiz-adv-x="480" d="M443,408l-5-9L111,268v-6L440,138L425,80l-10-7L35,221v83l8,10L421,466l22-58Z" />
      <glyph unicode="=" glyph-name="equal" horiz-adv-x="480" d="M452,378l-5-63H35l-7,7l5,63H445l7-7Zm0-175l-5-63H35l-7,7l5,63H445l7-7Z" />
      <glyph unicode="&gt;" glyph-name="greater" horiz-adv-x="480" d="M437,314l8-10V221L65,73L55,80L40,138L369,262v6L42,399l-5,9l22,58L437,314Z" />
      <glyph unicode="?" glyph-name="question" horiz-adv-x="335" d="M85,664q125-7 192.5-48T345,505q0-40-22.5-74.5T258,370l-79-50l-2-4l6-92l-71-9l-8,8L95,340l5,10l94,52q59,34 59,87q0,46-46.5,71.5T62,592l-7,10l19,57l11,5Zm66-556q25,0 39.5-14.5T205,53q0-27-15.5-43T148-6T108,9T94,50t15.5,42T151,108Z" />
      <glyph unicode="@" glyph-name="at" horiz-adv-x="833" d="M806,304q0-144-92-223T451-3l26,185H466Q396,64 323-8H307q-45,22-66,61t-21,99q0,69 27,135.5T327.5,402T457,464h5l69-22l57,23l11-5L549,111l-2-41q90,12 140.5,73T738,301q0,76-33.5,134t-96,90T463,557q-107,0-189-45.5T147,385T102,199q0-106 47.5-183.5T283-103t201-41l4-10l-30-49q-128,2-224,48.5T85.5-21T33,186q0,126 53.5,225.5T238,567t226,56q103,0 180-39.5T763.5,472T806,304ZM333,91q12,0 39,30t61.5,87.5T501,346l1,8l1,13l-64,24q-62,0-98-59.5T305,181q0-48 8-69t20-21Z" />
      <glyph unicode="A" glyph-name="A" horiz-adv-x="587" d="M568,0H462L447,72l-28,89l-136,3l-123-3L130,77L114,0H11L240,642H361L568,0ZM393,245L301,541h-7L189,245l101-2l103,2Z" />
      <glyph unicode="B" glyph-name="B" horiz-adv-x="554" d="M386,334q67-14 99.5-52.5T518,180Q518-4 243-4Q148-4 87,0H86l7,193L86,642l200,1q93,0 144.5-40.5T482,485q0-54-25-92.5T386,334ZM376,473q0,48-27,69t-91,21H190l-3-197l103-3q44,11 65,37.5T376,473ZM260,76q74,0 114,28t40,82q0,86-111,101l-117-1l-1-84l3-123q39-3 72-3Z" />
      <glyph unicode="C" glyph-name="C" horiz-adv-x="519" d="M327,649q98,0 173-44l-19-91l-10-3q-67,52-148,52q-88,0-134.5-59.5T142,326q0-121 47-184T323,79q42,0 83.5,14.5T483,134l10-6l-8-94Q399-8 315-8Q180-8 107,76T34,315q0,160 76.5,247T327,649Z" />
      <glyph unicode="D" glyph-name="D" horiz-adv-x="650" d="M330,646q138,0 212-78t74-224q0-169-81-259.5T302-6Q259-6 199-4.5T87,0H86l7,193L86,642h1l243,4ZM320,76q92,0 140.5,61T509,321q0,124-46.5,182.5T322,562q-55,0-131-4l-5-356l3-119q36-3 72-5t59-2Z" />
      <glyph unicode="E" glyph-name="E" horiz-adv-x="493" d="M466,88l6-9L465,0H86l7,193L86,642H467l6-9l-8-79l-152,4l-122-1l-3-187l116-2l106,3l7-8l-8-79l-113,3l-109-2l-1-83l3-118l122-1l155,5Z" />
      <glyph unicode="F" glyph-name="F" horiz-adv-x="443" d="M191,557l-3-202l101-2l106,3l7-9l-8-78l-114,3l-93-1l-1-69L191,0H86l7,193L86,642H445l7-9l-8-81l-150,6l-103-1Z" />
      <glyph unicode="G" glyph-name="G" horiz-adv-x="599" d="M356,649q101,0 188-43l-21-96l-11-1q-49,29-89,41.5T339,563q-100,0-149-60.5T141,312q0-124 46-179.5T333,77q25,0 49.5,4.5T444,97l3,65l-3,99l97,7l-2-90l3-147Q418-8 327-8Q180-8 107,73.5T34,307q0,166 83.5,254T356,649Z" />
      <glyph unicode="H" glyph-name="H" horiz-adv-x="689" d="M598,202L601,0H498l5,193l-1,87l-164,1l-150-1l-1-78L191,0H89l4,193L89,642H192l-3-276l157-2l155,2l-3,276H603l-5-440Z" />
      <glyph unicode="I" glyph-name="I" horiz-adv-x="279" d="M186,202L191,0H86l7,193L86,642H192l-6-440Z" />
      <glyph unicode="J" glyph-name="J" horiz-adv-x="321" d="M229,212l2-93q0-78-40.5-128.5T50-104L14-47v11Q81-1 108.5,32.5T136,119v83l-4,360L15,561l-9,8l6,73H235l-6-430Z" />
      <glyph unicode="K" glyph-name="K" horiz-adv-x="563" d="M186,202L190,0H87l5,193L87,642H191l-5-440ZM301,340Q417,184 566,22l-1-12Q521-2 466-9L453-3Q301,183 195,335v7L395,584l40,58H548L301,340Z" />
      <glyph unicode="L" glyph-name="L" horiz-adv-x="423" d="M421,77L413,0H83l7,193L83,642H189l-6-440l2-116H414l7-9Z" />
      <glyph unicode="M" glyph-name="M" horiz-adv-x="792" d="M737,0H645L632,195L602,485h-7L430,71H348L195,485h-9L156,204L140,0H53l67,642H238l30-96L391,205h8L529,549l30,93H676L737,0Z" />
      <glyph unicode="N" glyph-name="N" horiz-adv-x="688" d="M596,192L599,0H488L186,481h-7l-1-266L181,0H87l5,190L88,642H197L500,161h8l-2,476l96,7l-6-452Z" />
      <glyph unicode="O" glyph-name="O" horiz-adv-x="639" d="M328,650q133,0 205-82t72-234q0-164-77-253.5T309-9Q177-9 105.5,75.5T34,315q0,161 76.5,248T328,650Zm-8-84q-91,0-135.5-58.5T140,327q0-133 43.5-194.5T318,71q92,0 136,59t44,184q0,131-43.5,191.5T320,566Z" />
      <glyph unicode="P" glyph-name="P" horiz-adv-x="534" d="M304,643q97,0 149.5-49.5T506,451q0-108-66.5-171T257,217H186V202L191,0H86l7,193L86,642l218,1ZM287,297q55,11 83.5,47.5T399,442q0,60-30.5,89T276,562l-85-3l-4-260l100-2Z" />
      <glyph unicode="Q" glyph-name="Q" horiz-adv-x="643" d="M734-126q-20-41-47-66l-9-4Q486-137 334-8q-7-1-22-1Q178-9 106,75.5T34,315q0,161 76.5,248T329,650q133,0 204.5-82T605,332q0-124-45.5-206.5T428,11Q569-82 730-114l4-12ZM140,325q0-129 44-190T320,74q89,0 133.5,59.5T498,318q0,127-44,187T319,565q-92,0-135.5-58T140,325Z" />
      <glyph unicode="R" glyph-name="R" horiz-adv-x="570" d="M380,257Q448,148 541,24l-1-12Q492-4 441-9L429-1Q346,135 295,229H186V202L191,0H86l7,193L86,642l218,1q97,0 150-48.5T507,456q0-64-33.5-115.5T380,257ZM188,313l110-3q101,31 101,138q0,56-30.5,84T276,562l-85-3l-3-246Z" />
      <glyph unicode="S" glyph-name="S" horiz-adv-x="483" d="M274,649q76,0 152-32l-17-94l-16-6q-32,23-66,36t-65,13q-49,0-78-27t-29-63q0-35 29-57.5T275,367q54-26 87.5-47T420,264.5T444,182q0-52-28.5-95.5t-80-69T218-8Q174-8 127,3T38,35L51,137l13,6q37-35 81.5-52.5T228,73q52,0 83,27.5T342,166t-30,61.5T220,280q-53,25-86,45.5T77.5,380T54,462q0,52 28,95t78,67.5T274,649Z" />
      <glyph unicode="T" glyph-name="T" horiz-adv-x="495" d="M477,633l-6-78l-116,6H301l-5-359L301,0H197l6,193l-5,368H144L26,555l-7,9l8,78H471l6-9Z" />
      <glyph unicode="U" glyph-name="U" horiz-adv-x="631" d="M560,316l-1-76q2-118-64-183T308-8Q191-8 129,54.5T69,232l2,89L69,642H171l-4-396q-1-84 36-125T315,80q150,0 149,156l-5,406H563l-3-326Z" />
      <glyph unicode="V" glyph-name="V" horiz-adv-x="573" d="M342,0H220L12,642H118l15-73L280,100h7L450,564l16,78H569L342,0Z" />
      <glyph unicode="W" glyph-name="W" horiz-adv-x="897" d="M668,0H560L447,345h-7L323,0H214L20,642H122l11-69L271,110h8L405,482L354,642H459l16-79L615,110h8L778,567l16,75h96L668,0Z" />
      <glyph unicode="X" glyph-name="X" horiz-adv-x="606" d="M368,335L583,0H458L429,57L298,254L161,51L134,0H26L238,321L31,642H155l29-56L306,400L430,588l27,54H567L368,335Z" />
      <glyph unicode="Y" glyph-name="Y" horiz-adv-x="541" d="M309,184L313,0H210l5,184l-1,39L11,642H121l13-40L261,333h8L410,600l16,42H533L310,228l-1-44Z" />
      <glyph unicode="Z" glyph-name="Z" horiz-adv-x="536" d="M496,567L154,81H398l101,8l5-6L495-2L366,0H96L31-3V72L375,560H148L45,552l-6,6l8,85l395-1l54,1V567Z" />
      <glyph unicode="[" glyph-name="bracketleft" horiz-adv-x="291" d="M287,641V594L174,581V-63L287-75v-47l-5-6L90-118l5,378L90,637l192,10l5-6Z" />
      <glyph unicode="\" glyph-name="backslash" horiz-adv-x="286" d="M-1,669l8,10H76L282-105l-7-9H205L-1,669Z" />
      <glyph unicode="]" glyph-name="bracketright" horiz-adv-x="291" d="M4-122v47L117-62V582L4,594v47l5,6l192-10l-5-378l5-377L9-128l-5,6Z" />
      <glyph unicode="^" glyph-name="asciicircum" horiz-adv-x="431" d="M413,139l-8-9l-57-14L223,420h-6L86,117l-9-5L19,134L171,488l10,6h83L413,139Z" />
      <glyph unicode="_" glyph-name="underscore" horiz-adv-x="447" d="M462-96l-5-58H-8l-7,8l6,58H455l7-8Z" />
      <glyph unicode="`" glyph-name="grave" horiz-adv-x="389" d="M133,708q66-63 171-148l-26-40l-10-1Q166,585 87,643l-2,10l38,54l10,1Z" />
      <glyph unicode="a" glyph-name="a" horiz-adv-x="470" d="M237,470q69,0 109-33t40-92q0-18-6-120q-6-100-6-117q0-19 6.5-26.5T403,74q10,0 30,4l9-7L432,15Q403-3 369-7q-31,3-50,22.5T296,67h-7Q238,13 185-8Q116-7 76.5,28T37,123q0,89 97,111l158,35l1,54q0,37-18.5,56T221,398q-34,0-68-15.5T78,334l-8,5L57,410q88,60 180,60ZM162,179q-18-4-26-13.5T128,136q0-30 16.5-47T189,72q47,0 100,61l3,77L162,179Z" />
      <glyph unicode="b" glyph-name="b" horiz-adv-x="518" d="M301,466q87,0 133-58t46-163q0-122-59-188T257-9Q206-9 155,14L91-12L76-2l7,194L77,694l102,8l-4-305h6q31,27 58,42.5T301,466ZM261,61q58,0 91,41.5T385,228q0,75-26,115.5T284,384q-53,0-110-60l-2-120l3-116q45-27 86-27Z" />
      <glyph unicode="c" glyph-name="c" horiz-adv-x="385" d="M248,470q32,0 65-7t58-19l-17-85l-10-4q-53,31-98,31q-53,0-83-40T133,234q0-77 31-119.5T252,72q50,0 107,30l9-6L358,14Q297-9 236-9Q142-9 89.5,53.5T37,226q0,114 56,179t155,65Z" />
      <glyph unicode="d" glyph-name="d" horiz-adv-x="521" d="M434,203l3-96q1-19 6-26t20-7q11,0 31,4l9-7L493,15Q464-3 430-7q-31,3-50.5,21.5T355,63h-8q-29-25-52-40.5T244-6Q144-6 90.5,55.5T37,229q0,115 60,177.5T264,469q35,0 78-8l-2,233l101,8l-7-499ZM254,399q-57,0-89.5-39T132,244q0-81 30-124t84-43q25,0 48,12t49,41l2,64l-3,182q-48,23-88,23Z" />
      <glyph unicode="e" glyph-name="e" horiz-adv-x="465" d="M411,226l-281-1q1-76 37-115.5T269,70q69,0 135,41l10-6L399,23Q326-9 257-9Q154-9 95.5,54.5T37,228q0,111 58,176t157,65q84,0 129.5-46T427,293q0-23-5-55l-11-12Zm-76,79q0,47-21.5,71T251,400q-46,0-76-29.5T135,287l198,4l2,14Z" />
      <glyph unicode="f" glyph-name="f" horiz-adv-x="314" d="M285,704q39,0 81-9l-6-77l-7-6q-43,19-77,19q-36,0-55-21.5T201,545l-1-86H318l3-7l-6-58H199l-3-191L203,0H101l6,194l-2,200H36l-4,6l5,59h68l-1,69q-1,85 46.5,130.5T285,704Z" />
      <glyph unicode="g" glyph-name="g" horiz-adv-x="492" d="M495,412q-28-9-86-19l-2-4q19-32 19-77q0-74-51-117.5T237,151q-32,0-61,6q-12-10-16.5-17.5T155,124q0-20 25.5-28T261,80q57-7 95-17t65.5-34T449-37q0-44-29-80t-79.5-56.5T228-194q-84,0-130.5,37T51-60Q66-36 87-17t50,38v5Q102,38 83,57.5T64,110q26,37 64,61v5q-34,19-51.5,51.5T59,304q0,76 50.5,119.5T246,467q52,0 92-17q74,12 148,35l9-6V412ZM241,216q46,0 70.5,25T336,312q0,43-23,66t-68,23q-47,0-71.5-23.5T149,309t23.5-69T241,216ZM361-56q0,22-17,34T303-4.5T233,8q-22,2-31,4Q170-8 154-27T138-66q0-27 26.5-44.5T240-128q53,0 87,20t34,52Z" />
      <glyph unicode="h" glyph-name="h" horiz-adv-x="525" d="M364,303q1,38-17.5,59.5T293,384q-57,0-120-60l-2-121L178,0H76l7,194L77,694l102,8l-5-306h6q59,52 123,71q77,0 116.5-35T458,332l-2-130L460,0H358l6,303Z" />
      <glyph unicode="i" glyph-name="i" horiz-adv-x="250" d="M78,193L75,454l100,9l-4-261L174,0H74l4,193Zm48,483q25,0 39-14.5T179,621q0-27-15-43t-41-16T82.5,577T68,618t15.5,42T126,676Z" />
      <glyph unicode="j" glyph-name="j" horiz-adv-x="275" d="M199,461l-8-259l6-180q0-78-34.5-127.5T47-194L10-149v11q50,29 70.5,63.5T101,18l1,175L98,394H10l-7,7l6,58h91l95,4l4-2ZM134,676q25,0 39-14.5T187,621q0-27-15-43t-41-16T90.5,577T76,618t15.5,42T134,676Z" />
      <glyph unicode="k" glyph-name="k" horiz-adv-x="472" d="M171,203L178,0H76l7,194L77,694l102,8l-8-499Zm114,48Q356,150 464,18V6Q438-1 408-4.5T371-9L360-5Q257,125 186,242v7L317,417l25,44H453L285,251Z" />
      <glyph unicode="l" glyph-name="l" horiz-adv-x="254" d="M171,203L178,0H76l7,194L77,694l102,8l-8-499Z" />
      <glyph unicode="m" glyph-name="m" horiz-adv-x="803" d="M642,303q1,38-17.5,59.5T571,384q-57,0-118-58l-2-124L456,0H353l7,303q1,38-17.5,59.5T289,384q-58,0-120-60l-1-122L174,0H72l6,193L73,454l97,9l-1-67h7q59,52 123,71q56,0 92.5-19.5T443,392h6q61,53 132,75q77,0 116.5-35T736,332l-3-130L738,0H636l6,303Z" />
      <glyph unicode="n" glyph-name="n" horiz-adv-x="521" d="M360,303q1,38-17.5,59.5T289,384q-58,0-120-60l-1-122L174,0H72l6,193L73,454l97,9l-1-67h7q59,52 123,71q77,0 116.5-35T454,332l-3-130L456,0H353l7,303Z" />
      <glyph unicode="o" glyph-name="o" horiz-adv-x="492" d="M252,470q97,0 149.5-60.5T454,238q0-119-56-183T239-9Q142-9 89.5,51.5T37,223q0,119 56,183t159,64Zm-6-71q-114,0-114-154q0-94 28-139t86-45q57,0 85,38t28,116q0,94-28,139t-85,45Z" />
      <glyph unicode="p" glyph-name="p" horiz-adv-x="513" d="M296,466q86,0 132.5-57.5T475,244q0-121-59-187T248-9q-35,0-78,8l3-184H72l7,378L72,454l98,9l-1-66h7q32,28 59,43t61,26ZM256,61q60,0 92,43t32,123q0,76-26,116.5T279,384q-27,0-53.5-14.5T168,324l-1-122l2-119q47-22 87-22Z" />
      <glyph unicode="q" glyph-name="q" horiz-adv-x="514" d="M432,468l9-6l-7-260l6-387H340l4,216V52h-8q-25-20-46-33T240-6Q142-6 89.5,55.5T37,226q0,117 59.5,180T261,469q53,0 120-19l51,18ZM253,398q-57,0-89-39T132,240q0-78 29-120.5T242,77q26,0 50,12t52,41l1,62l-3,181q-47,25-89,25Z" />
      <glyph unicode="r" glyph-name="r" horiz-adv-x="334" d="M302,462q11,0 25-2V363l-11-3q-16,5-37,5q-31,0-58-23t-52-74l-1-66L174,0H72l7,193L73,454l97,9l-1-92h7q27,48 60,69.5T302,462Z" />
      <glyph unicode="s" glyph-name="s" horiz-adv-x="376" d="M210,469q60,0 117-23l-14-80l-13-3q-52,35-102,35q-30,0-47.5-16T133,343q0-25 20.5-40T217,270q39-17 63.5-32t42-40T340,136q0-38-20-71.5T261,11T167-9Q98-9 27,22l12,85l11,7q29-25 64-39.5T178,60q32,0 51.5,17.5T249,119q0,25-20,39.5T166,193q-39,17-64,32T59.5,266T42,330q0,61 45,100t123,39Z" />
      <glyph unicode="t" glyph-name="t" horiz-adv-x="327" d="M234,77q33,0 70,18l10-7L304,24Q249-2 202-6Q140,4 112,35.5T84,127l4,72L87,394H24l-4,6l5,59H86v73l90,34l9-8l-2-99H311l4-7l-5-58H181l-5-251q-1-37 12.5-51.5T234,77Z" />
      <glyph unicode="u" glyph-name="u" horiz-adv-x="515" d="M496,71l-9-56Q454-4 422-7q-30,5-47.5,21.5T348,64h-7Q282,11 221-6Q146-6 106,29T67,129l2,125L65,454l101,9l-5-306q-1-37 16.5-58T230,78q53,0 109,50V454l97,9l-7-356q0-18 6-25.5T456,74q12,0 31,4l9-7Z" />
      <glyph unicode="v" glyph-name="v" horiz-adv-x="433" d="M125,396L211,98h7L321,391l16,70h90L264,0H155L17,459l95,5l13-68Z" />
      <glyph unicode="w" glyph-name="w" horiz-adv-x="685" d="M121,399l73-293h7l85,288l17,67h98l11-62l74-293h6l85,288l16,67h87L532,0H435L350,332h-8L243,0H143L18,459l93,5l10-65Z" />
      <glyph unicode="x" glyph-name="x" horiz-adv-x="446" d="M148,415l82-124l77,126l24,44h91L284,235L431,4L324-5L302,47L217,176L132,42L111,0H20L161,233L20,458l108,6l20-49Z" />
      <glyph unicode="y" glyph-name="y" horiz-adv-x="435" d="M116,399L216,106h7L323,390l17,71h88L269,23Q245-45 216-85.5T144.5-150T34-191H25Q1-167-17-131l3,11Q57-107 98-82T173,0L5,459l96,5l15-65Z" />
      <glyph unicode="z" glyph-name="z" horiz-adv-x="417" d="M134,461H336l44,1l2-61L138,68H302l80,8l6-8L380-2L277,0H85L31-2L30,58L275,393H119l-77-8l-6,8l7,70l91-2Z" />
      <glyph unicode="{" glyph-name="braceleft" horiz-adv-x="291" d="M221,656q19,0 57-8l4-8l-9-54q-23,5-36,5q-59,0-59-68q0-19 5-45.5t6-33.5q11-49 11-74q0-74-68-103v-5q33-14 50.5-40.5T200,160q0-27-11-75q-1-7-6-33T178,6q0-70 59-70q13,0 36,5l9-52l-4-8q-25-8-57-8q-61,0-92.5,29.5T97-12q0,28 5,59t6,36q9,49 9,73q0,34-18.5,54.5T41,239v50q76,16 76,83q0,24-9,73q-11,68-11,96q0,56 31.5,85.5T221,656Z" />
      <glyph unicode="|" glyph-name="bar" horiz-adv-x="311" d="M195,793l-1-504V-256l-70-5l-8,10V282l1,512l71,6l7-7Z" />
      <glyph unicode="}" glyph-name="braceright" horiz-adv-x="291" d="M70-127q-19,0-57,8l-4,8l9,54q23-5 36-5q59,0 59,68q0,19-5,45.5T102,85q-11,50-11,74q0,74 68,103v5q-33,14-50.5,40.5T91,369q0,27 11,75q1,7 6,33t5,46q0,70-59,70q-13,0-36-5L9,640l4,8q25,8 57,8q61,0 92.5-29.5T194,541q0-28-5-59t-6-36q-9-49-9-73q0-34 18.5-54.5T250,290V240q-76-16-76-83q0-24 9-73q11-68 11-96q0-56-31.5-85.5T70-127Z" />
      <glyph unicode="~" glyph-name="asciitilde" horiz-adv-x="480" d="M149,248q-11,0-23.5-10T99,214T80,195H69L42,229v10l76,81l11,6q31-5 95-25q34-10 65.5-18t43.5-8t25,11t44,42h10l27-34V284l-76-82l-11-4q-22,3-105,26q-8,2-45.5,13T149,248Z" />
      <glyph unicode="&#xa0;" glyph-name="uni00A0" horiz-adv-x="160" />
      <glyph unicode="&#xa1;" glyph-name="exclamdown" horiz-adv-x="260" d="M73-184l28,424l59,8l10-12l4-416l-10-12l-79-5L73-184Zm69,542q-25,0-39,14.5T89,413q0,27 15,43t41,16t40.5-15T200,416t-16-42t-42-16Z" />
      <glyph unicode="&#xa2;" glyph-name="cent" horiz-adv-x="383" d="M358,69Q303,38 236,35L224-121H174l-8,9L177,41Q109,57 71.5,116T34,266q0,105 47,168.5T212,507l10,146h50l9-9L271,507q53-6 94-31l-15-65l-10-2q-35,22-73,29L241,103h3q57,0 113,32l9-5l-8-61ZM114,274q0-57 17.5-97T182,118l24,318q-44-12-68-54.5T114,274Z" />
      <glyph unicode="&#xa3;" glyph-name="sterling" horiz-adv-x="428" d="M399,67L391-2L280,0H27L22,6l5,58Q99,77 99,166V281H28l-4,6l4,52H98v83q-1,83 46,127.5T279,594q53,0 110-17l-7-72l-7-5q-55,26-103,26q-85,0-85-90V339H326l4-6l-5-52H186V183q0-39-9-63.5T146,73V69H306l88,4l5-6Z" />
      <glyph unicode="&#xa4;" glyph-name="currency" horiz-adv-x="435" d="M410,506V496l-68-63q25-36 25-79q0-40-24-75l69-61l1-10l-44-47l-10,1l-62,68q-36-26-80-26q-41,0-75,24L81,160H71L24,204l1,10l68,61q-26,36-26,79q0,42 24,77L23,492v10l43,46l10-1l63-68q34,25 78,25q40,0 75-23l62,68l10,1l46-44ZM217,447q-39,0-65.5-26.5T125,354t26.5-66T217,262q40,0 66.5,26T310,354t-26.5,66.5T217,447Z" />
      <glyph unicode="&#xa5;" glyph-name="yen" horiz-adv-x="500" d="M477,165l4-5l-3-43H289L291,0H206l3,117H28l-4,5l3,43H210v3l-45,83H28l-4,6l3,43H139L33,500h91l11-31L248,263h7L377,466l15,34h89L365,300H477l5-5l-4-44H336l-47-81v-5H477Z" />
      <glyph unicode="&#xa6;" glyph-name="brokenbar" horiz-adv-x="311" d="M195,793l-1-419l-70-8l-8,7V794l72,6l7-7Zm-1-643V-256l-70-5l-8,10V152l69,8l9-10Z" />
      <glyph unicode="&#xa7;" glyph-name="section" horiz-adv-x="424" d="M295,140q49-44 49-97q0-38-22.5-71t-63-52.5T168-100q-32,0-71,8.5T28-69L40,15l11,7Q81-5 114-19.5T179-34q36,0 57,18.5T257,27q0,23-21.5,42T168,115q-43,25-69,45T54,208T35,273q0,42 25,79t67,60q-47,44-47,94q0,38 22.5,71t62,52.5T253,649q26,0 57-6t59-17l-13-82l-14-3q-56,40-104,40q-32,0-52-18.5T166,521q0-24 21.5-42T254,435q43-26 69.5-45.5T369,342t19-65q0-42-25-78.5T295,140ZM121,294q0-28 23.5-49T218,193l22-13q62,30 62,74q0,30-23,51t-73,53q-13,6-22,13q-63-33-63-77Z" />
      <glyph unicode="&#xa8;" glyph-name="dieresis" horiz-adv-x="389" d="M115,664q23,0 36.5-13.5T165,614q0-25-14.5-40T112,559q-25,0-38,13.5T61,610q0,25 14.5,39.5T115,664Zm164,0q24,0 37-13.5T329,614q0-25-14.5-40T276,559t-37.5,13.5T225,610q0,25 14.5,39.5T279,664Z" />
      <glyph unicode="&#xa9;" glyph-name="copyright" horiz-adv-x="686" d="M342,598q89,0 156.5-38T603,453t37-160T603,133T498.5,26T342-12q-88,0-155.5,38T82,133T45,293T82,453T186.5,560T342,598Zm0-39q-77,0-135.5-33T116,432.5T84,293t32-139.5T206.5,60T342,27T477.5,60t91,93.5T601,293T568.5,432.5t-91,93.5T342,559Zm18-94q45,0 92-20l-13-56l-6-3q-16,10-36,15.5T358,407q-92,0-92-107q0-116 93-116q19,0 41,5.5T439,204l7-3l-6-56q-43-19-86-19q-79,0-119.5,43T194,294t43,126.5T360,465Z" />
      <glyph unicode="&#xaa;" glyph-name="ordfeminine" horiz-adv-x="328" d="M170,650q52,0 80-23t28-65l-3-80q-3-45-3-66q0-24 15-24q11,0 17,5l7-5l-9-47q-21-15-46-15q-23,0-34.5,10.5T204,378h-4q-34-40-73-49q-45,1-71,25T30,421q0,65 69,77l99,18l1,30q0,44-43,44q-37,0-93-36l-7,3L46,613q29,17 61.5,27T170,650ZM135,462q-27-4-27-33q0-19 9.5-29.5T144,389q12,0 26.5,7.5T197,419l1,57l-63-14Z" />
      <glyph unicode="&#xab;" glyph-name="guillemotleft" horiz-adv-x="409" d="M217,216v19L358,410l49-27l2-11L293,227L409,82l-2-11L358,44L217,216ZM43,216v19L184,410l49-27l2-11L119,227L235,82l-2-11L184,44L43,216Z" />
      <glyph unicode="&#xac;" glyph-name="logicalnot" horiz-adv-x="480" d="M427,291V56l-62-5l-8,7V228H33l-7,7l6,63H421l6-7Z" />
      <glyph unicode="&#xad;" glyph-name="uni00AD" horiz-adv-x="306" d="M277,300V236L37,200l-9,9v64l240,35l9-8Z" />
      <glyph unicode="&#xae;" glyph-name="registered" horiz-adv-x="442" d="M221,702q83,0 133.5-50T405,519T354.5,385.5T221,335q-82,0-132.5,50.5T38,519T88.5,652T221,702Zm1-338q69,0 111.5,42.5T376,519T333.5,631T222,673q-70,0-112-42T68,519t42-112.5T222,364Zm75,200q0-18-10-33.5T259,505q24-37 51-68l-1-4q-13-6-40-8l-5,3q-21,32-40,67H192v-4l2-63H153l1,58l-1,137h78q32,0 49-15.5T297,564ZM193,528l34-2q14,6 21,13.5t7,21.5q0,29-38,31l-23-1l-1-63Z" />
      <glyph unicode="&#xaf;" glyph-name="macron" horiz-adv-x="389" d="M342,638l-5-59H55l-7,8l4,58H334l8-7Z" />
      <glyph unicode="&#xb0;" glyph-name="degree" horiz-adv-x="293" d="M147,650q53,0 90-37t37-90t-37-89.5T147,397q-54,0-91,36.5T19,523t37,90t91,37Zm-1-47q-33,0-57-23.5T65,523t24-56.5T146,443q34,0 57.5,23.5T227,523t-23.5,56.5T146,603Z" />
      <glyph unicode="&#xb1;" glyph-name="plusminus" horiz-adv-x="480" d="M275,468V298H445l7-7l-5-63H275V56l-62-5l-8,7V228H35l-7,7l5,63H205V470l63,6l7-8ZM452-39l-5-63H35l-7,7l5,63H445l7-7Z" />
      <glyph unicode="&#xb2;" glyph-name="uni00B2" horiz-adv-x="354" d="M180,706q49,0 80.5-24T292,616q0-29-19-63t-64-89l-59-75l2-2H260l66,3l3-6l-9-67l-86,3H68l-27-1l-4,3v51l96,109q39,46 55.5,70.5T205,597q0,17-12,28t-34,11q-24,0-49.5-13T63,587H53L39,652q72,54 141,54Z" />
      <glyph unicode="&#xb3;" glyph-name="uni00B3" horiz-adv-x="313" d="M146,707q52,0 83.5-24.5T261,617q0-26-15-51t-46-40v-4q74-20 74-90q0-52-46-84.5T108,315q-37,0-72,8l-5,60l6,6q37-10 72-10q38,0 59.5,14.5T190,434q0,23-15.5,35.5T129,483H82l-4,5l1,57h30q25,1 45,17t20,39q0,19-12,29t-35,10q-34,0-78-29H40L26,668q56,39 120,39Z" />
      <glyph unicode="&#xb4;" glyph-name="acute" horiz-adv-x="389" d="M267,707l38-54l-2-10q-79-58-181-124l-10,1L86,560q105,85 171,148l10-1Z" />
      <glyph unicode="&#xb5;" glyph-name="uni00B5" horiz-adv-x="536" d="M507,71L497,15Q466-4 433-7q-30,5-47.5,21.5T359,64h-7Q298,14 240-6q-48,0-81,19l13-198H76l4,378L76,454l96,9V157q-1-37 16.5-58T241,78q53,0 109,51V454l97,9l-7-356q0-19 6-26t21-7q12,0 31,4l9-7Z" />
      <glyph unicode="&#xb6;" glyph-name="paragraph" horiz-adv-x="500" d="M478,633l-8-70H399l-3-375l1-56q0-71-40-121T223-81L195-34v11q56,32 81,67.5T301,127v47l-3,390H245q-50-6-77.5-39.5T140,435t30.5-96.5T258,278l-35-56q-92,20-141,75T33,438q0,98 59.5,151T262,642H470l8-9Z" />
      <glyph unicode="&#xb7;" glyph-name="periodcentered" horiz-adv-x="229" d="M116,305q25,0 39-14.5T169,250q0-27-15-43t-41-16T72.5,206T58,247t15.5,42T116,305Z" />
      <glyph unicode="&#xb8;" glyph-name="cedilla" horiz-adv-x="389" d="M204-50l34-20q22-12 31-25.5t9-31.5q0-31-24-50.5T191-197q-43,0-77,30l9,47l5,2q15-15 28-23t29-8q13,0 21,6.5t8,18.5q0,13-19,22L146-73l24,95h54L204-50Z" />
      <glyph unicode="&#xb9;" glyph-name="uni00B9" horiz-adv-x="265" d="M182,697l-3-241l3-136H95l2,126V612L19,592l-7,4v68l158,43l12-10Z" />
      <glyph unicode="&#xba;" glyph-name="ordmasculine" horiz-adv-x="342" d="M176,650q68,0 103.5-40T315,494q0-80-38-123T167,328q-68,0-103.5,40T28,484q0,81 37.5,123.5T176,650Zm-4-60q-33,0-48-23t-15-74q0-56 15-81.5T172,386t48.5,23T236,484q0,56-15.5,81T172,590Z" />
      <glyph unicode="&#xbb;" glyph-name="guillemotright" horiz-adv-x="409" d="M367,239V220L226,45L177,72l-2,11L291,228L175,373l2,11l49,27L367,239Zm-174,0V220L52,45L3,72L1,83L117,228L1,373l2,11l49,27L193,239Z" />
      <glyph unicode="&#xbc;" glyph-name="onequarter" horiz-adv-x="711" d="M182,639l-3-241l3-136H95l2,126V554L19,534l-7,4v68l158,43l12-10Zm362,16l6-15L82-91L37-65L32-52L501,681l43-26ZM675,92l-55,2l4-88l-5-6L551-3l-5,4l2,94H440l-57-3l-6,8v53L540,382h80l-2-224h56l5-7l-4-59ZM452,158h97V288h-6L452,158Z" />
      <glyph unicode="&#xbd;" glyph-name="onehalf" horiz-adv-x="707" d="M182,639l-3-241l3-136H95l2,126V554L19,534l-7,4v68l158,43l12-10Zm362,16l6-15L82-91L37-65L32-52L501,681l43-26ZM533,386q49,0 80.5-24T645,296q0-29-19-63t-64-89L503,69l2-2H613l66,3l3-6L673-3L587,0H421L394-1l-4,3V53l96,109q39,46 55.5,70.5T558,277q0,17-12,28t-34,11q-24,0-49.5-13T416,267H406l-14,65q72,54 141,54Z" />
      <glyph unicode="&#xbe;" glyph-name="threequarters" horiz-adv-x="759" d="M146,649q52,0 83.5-24.5T261,559q0-26-15-51t-46-40v-4q74-20 74-90q0-52-46-84.5T108,257q-37,0-72,8l-5,60l6,6q37-10 72-10q38,0 59.5,14.5T190,376q0,23-15.5,35.5T129,425H82l-4,5l1,57h30q25,1 45,17t20,39q0,19-12,29t-35,10q-34,0-78-29H40L26,610q56,39 120,39Zm446,6l6-15L130-91L85-65L80-52L549,681l43-26ZM723,92l-55,2l4-88l-5-6L599-3l-5,4l2,94H488l-57-3l-6,8v53L588,382h80l-2-224h56l5-7l-4-59ZM500,158h97V288h-6L500,158Z" />
      <glyph unicode="&#xbf;" glyph-name="questiondown" horiz-adv-x="335" d="M254-198q-125,7-192.5,48T-6-39Q-6,1 16.5,35.5T81,96l79,50l2,4l-6,92l71,9l8-8l9-117l-5-10L145,64Q86,30 86-23q0-46 46.5-71.5T277-126l7-10l-19-57l-11-5ZM188,358q-25,0-39.5,14.5T134,413q0,27 15.5,43T191,472t40-15t14-41t-15.5-42T188,358Z" />
      <glyph unicode="&#xc0;" glyph-name="Agrave" horiz-adv-x="587" d="M568,0H462L447,72l-28,89l-136,3l-123-3L130,77L114,0H11L240,642H361L568,0ZM393,245L301,541h-7L189,245l101-2l103,2ZM214,874q81-48 198-107l-17-44l-10-4q-130,50-204,82l-4,10l26,61l11,2Z" />
      <glyph unicode="&#xc1;" glyph-name="Aacute" horiz-adv-x="587" d="M568,0H462L447,72l-28,89l-136,3l-123-3L130,77L114,0H11L240,642H361L568,0ZM393,245L301,541h-7L189,245l101-2l103,2Zm13,627l27-61l-4-10q-74-32-204-82l-10,4l-17,44q130,67 197,107l11-2Z" />
      <glyph unicode="&#xc2;" glyph-name="Acircumflex" horiz-adv-x="587" d="M568,0H462L447,72l-28,89l-136,3l-123-3L130,77L114,0H11L240,642H361L568,0ZM393,245L301,541h-7L189,245l101-2l103,2ZM160,774q72,49 123,96h24q60-53 124-96l-18-43H401l-35,22l-70,44q-11-7-88-55l-18-11H180l-20,43Z" />
      <glyph unicode="&#xc3;" glyph-name="Atilde" horiz-adv-x="587" d="M568,0H462L447,72l-28,89l-136,3l-123-3L130,77L114,0H11L240,642H361L568,0ZM393,245L301,541h-7L189,245l101-2l103,2Zm66,586v-9l-65-77l-10-5q-18,3-81,20q-59,17-74,17q-10,0-19-8t-25-25l-15-16H160l-31,32v9l65,77l11,4q27-4 82-19q59-17 73-17q10,0 20,8.5T402,844t17,19h10l30-32Z" />
      <glyph unicode="&#xc4;" glyph-name="Adieresis" horiz-adv-x="587" d="M568,0H462L447,72l-28,89l-136,3l-123-3L130,77L114,0H11L240,642H361L568,0ZM393,245L301,541h-7L189,245l101-2l103,2ZM216,845q23,0 36.5-13.5T266,795q0-25-14.5-40T213,740q-25,0-38,13.5T162,791q0,25 14.5,39.5T216,845Zm164,0q24,0 37-13.5T430,795q0-25-14.5-40T377,740t-37.5,13.5T326,791q0,25 14.5,39.5T380,845Z" />
      <glyph unicode="&#xc5;" glyph-name="Aring" horiz-adv-x="587" d="M568,0H462L447,72l-28,89l-136,3l-123-3L130,77L114,0H11L240,642H361L568,0ZM393,245L301,541h-7L189,245l101-2l103,2ZM295,889q42,0 65-23t23-62q0-43-25-66.5T292,714q-40,0-63.5,23T205,801t23.5,64.5T295,889Zm-2-46q-21,0-31.5-10.5T251,803q0-44 43-44q20,0 31.5,10.5T337,801q0,19-11,30.5T293,843Z" />
      <glyph unicode="&#xc6;" glyph-name="AE" horiz-adv-x="814" d="M801,79L793,0H428l-5,72L399,244L172,188L115,77L88,0H-17L309,642H711l6-9l-8-79l-160,5H457l29-213l206,47l8-7l7-73L496,267L521,82H630l164,6l7-9ZM388,323L358,541h-7L220,283l168,40Z" />
      <glyph unicode="&#xc7;" glyph-name="Ccedilla" horiz-adv-x="519" d="M327,649q98,0 173-44l-19-91l-10-3q-67,52-148,52q-88,0-134.5-59.5T142,326q0-121 47-184T323,79q42,0 83.5,14.5T483,134l10-6l-8-94Q399-8 315-8Q180-8 107,76T34,315q0,160 76.5,247T327,649ZM324-50l34-20q22-12 31-25.5t9-31.5q0-31-24-50.5T311-197q-43,0-77,30l9,47l5,2q15-15 28-23t29-8q13,0 21,6.5t8,18.5q0,13-19,22L266-73l24,95h54L324-50Z" />
      <glyph unicode="&#xc8;" glyph-name="Egrave" horiz-adv-x="493" d="M466,88l6-9L465,0H86l7,193L86,642H467l6-9l-8-79l-152,4l-122-1l-3-187l116-2l106,3l7-8l-8-79l-113,3l-109-2l-1-83l3-118l122-1l155,5ZM197,874q81-48 198-107l-17-44l-10-4q-130,50-204,82l-4,10l26,61l11,2Z" />
      <glyph unicode="&#xc9;" glyph-name="Eacute" horiz-adv-x="493" d="M466,88l6-9L465,0H86l7,193L86,642H467l6-9l-8-79l-152,4l-122-1l-3-187l116-2l106,3l7-8l-8-79l-113,3l-109-2l-1-83l3-118l122-1l155,5ZM389,872l27-61l-4-10q-74-32-204-82l-10,4l-17,44q130,67 197,107l11-2Z" />
      <glyph unicode="&#xca;" glyph-name="Ecircumflex" horiz-adv-x="493" d="M466,88l6-9L465,0H86l7,193L86,642H467l6-9l-8-79l-152,4l-122-1l-3-187l116-2l106,3l7-8l-8-79l-113,3l-109-2l-1-83l3-118l122-1l155,5ZM143,774q72,49 123,96h24q60-53 124-96l-18-43H384l-35,22l-70,44q-11-7-88-55l-18-11H163l-20,43Z" />
      <glyph unicode="&#xcb;" glyph-name="Edieresis" horiz-adv-x="493" d="M466,88l6-9L465,0H86l7,193L86,642H467l6-9l-8-79l-152,4l-122-1l-3-187l116-2l106,3l7-8l-8-79l-113,3l-109-2l-1-83l3-118l122-1l155,5ZM199,845q23,0 36.5-13.5T249,795q0-25-14.5-40T196,740q-25,0-38,13.5T145,791q0,25 14.5,39.5T199,845Zm164,0q24,0 37-13.5T413,795q0-25-14.5-40T360,740t-37.5,13.5T309,791q0,25 14.5,39.5T363,845Z" />
      <glyph unicode="&#xcc;" glyph-name="Igrave" horiz-adv-x="279" d="M186,202L191,0H86l7,193L86,642H192l-6-440ZM58,874q81-48 198-107l-17-44l-10-4Q99,769 25,801l-4,10l26,61l11,2Z" />
      <glyph unicode="&#xcd;" glyph-name="Iacute" horiz-adv-x="279" d="M186,202L191,0H86l7,193L86,642H192l-6-440Zm64,670l27-61l-4-10q-74-32-204-82l-10,4L42,767q130,67 197,107l11-2Z" />
      <glyph unicode="&#xce;" glyph-name="Icircumflex" horiz-adv-x="279" d="M186,202L191,0H86l7,193L86,642H192l-6-440ZM4,774q72,49 123,96h24q60-53 124-96l-18-43H245l-35,22l-70,44q-11-7-88-55L34,731H24L4,774Z" />
      <glyph unicode="&#xcf;" glyph-name="Idieresis" horiz-adv-x="279" d="M186,202L191,0H86l7,193L86,642H192l-6-440ZM83,844q22,0 34.5-13T130,795q0-25-14-39.5T79,741q-24,0-36.5,13T30,791t14,38.5T83,844Zm118,0q22,0 35-13t13-36q0-25-14-39.5T198,741q-24,0-37,13t-13,37t14,38.5T201,844Z" />
      <glyph unicode="&#xd0;" glyph-name="Eth" horiz-adv-x="673" d="M353,646q138,0 212-78t74-224q0-169-81-259.5T325-6Q282-6 222-4.5T110,0h-1l7,193l-7,449h1l243,4ZM343,76q92,0 140.5,61T532,321q0,124-46.5,182.5T345,562q-55,0-131-4l-5-356l3-119q36-3 72-5t59-2Zm6,274l-4-63H16l-4,8l4,63H344l5-8Z" />
      <glyph unicode="&#xd1;" glyph-name="Ntilde" horiz-adv-x="688" d="M596,192L599,0H488L186,481h-7l-1-266L181,0H87l5,190L88,642H197L500,161h8l-2,476l96,7l-6-452ZM506,831v-9l-65-77l-10-5q-18,3-81,20q-59,17-74,17q-10,0-19-8t-25-25l-15-16H207l-31,32v9l65,77l11,4q27-4 82-19q59-17 73-17q10,0 20,8.5T449,844t17,19h10l30-32Z" />
      <glyph unicode="&#xd2;" glyph-name="Ograve" horiz-adv-x="639" d="M328,650q133,0 205-82t72-234q0-164-77-253.5T309-9Q177-9 105.5,75.5T34,315q0,161 76.5,248T328,650Zm-8-84q-91,0-135.5-58.5T140,327q0-133 43.5-194.5T318,71q92,0 136,59t44,184q0,131-43.5,191.5T320,566ZM239,874q81-48 198-107l-17-44l-10-4q-130,50-204,82l-4,10l26,61l11,2Z" />
      <glyph unicode="&#xd3;" glyph-name="Oacute" horiz-adv-x="639" d="M328,650q133,0 205-82t72-234q0-164-77-253.5T309-9Q177-9 105.5,75.5T34,315q0,161 76.5,248T328,650Zm-8-84q-91,0-135.5-58.5T140,327q0-133 43.5-194.5T318,71q92,0 136,59t44,184q0,131-43.5,191.5T320,566ZM431,872l27-61l-4-10q-74-32-204-82l-10,4l-17,44q130,67 197,107l11-2Z" />
      <glyph unicode="&#xd4;" glyph-name="Ocircumflex" horiz-adv-x="639" d="M328,650q133,0 205-82t72-234q0-164-77-253.5T309-9Q177-9 105.5,75.5T34,315q0,161 76.5,248T328,650Zm-8-84q-91,0-135.5-58.5T140,327q0-133 43.5-194.5T318,71q92,0 136,59t44,184q0,131-43.5,191.5T320,566ZM185,774q72,49 123,96h24q60-53 124-96l-18-43H426l-35,22l-70,44q-11-7-88-55l-18-11H205l-20,43Z" />
      <glyph unicode="&#xd5;" glyph-name="Otilde" horiz-adv-x="639" d="M328,650q133,0 205-82t72-234q0-164-77-253.5T309-9Q177-9 105.5,75.5T34,315q0,161 76.5,248T328,650Zm-8-84q-91,0-135.5-58.5T140,327q0-133 43.5-194.5T318,71q92,0 136,59t44,184q0,131-43.5,191.5T320,566ZM484,831v-9l-65-77l-10-5q-18,3-81,20q-59,17-74,17q-10,0-19-8t-25-25l-15-16H185l-31,32v9l65,77l11,4q27-4 82-19q59-17 73-17q10,0 20,8.5T427,844t17,19h10l30-32Z" />
      <glyph unicode="&#xd6;" glyph-name="Odieresis" horiz-adv-x="639" d="M328,650q133,0 205-82t72-234q0-164-77-253.5T309-9Q177-9 105.5,75.5T34,315q0,161 76.5,248T328,650Zm-8-84q-91,0-135.5-58.5T140,327q0-133 43.5-194.5T318,71q92,0 136,59t44,184q0,131-43.5,191.5T320,566ZM241,845q23,0 36.5-13.5T291,795q0-25-14.5-40T238,740q-25,0-38,13.5T187,791q0,25 14.5,39.5T241,845Zm164,0q24,0 37-13.5T455,795q0-25-14.5-40T402,740t-37.5,13.5T351,791q0,25 14.5,39.5T405,845Z" />
      <glyph unicode="&#xd7;" glyph-name="multiply" horiz-adv-x="480" d="M410,394V383L290,263L410,143V133L362,92L240,213L118,91L70,133v9L191,263L70,383v11l48,40L240,313L362,434l48-40Z" />
      <glyph unicode="&#xd8;" glyph-name="Oslash" horiz-adv-x="639" d="M492,605q56-38 84.5-106.5T605,334q0-164-77-253.5T309-9Q255-9 210,6L156-109L96-85l-5,9L145,39Q91,79 62.5,149T34,315q0,161 76.5,248T328,650q51,0 98-14l43,93l59-23l6-11l-42-90ZM140,327q0-139 47-199L388,556q-29,10-68,10q-91,0-135.5-58.5T140,327ZM318,71q92,0 136,59t44,184q0,140-49,199L246,83q32-12 72-12Z" />
      <glyph unicode="&#xd9;" glyph-name="Ugrave" horiz-adv-x="631" d="M560,316l-1-76q2-118-64-183T308-8Q191-8 129,54.5T69,232l2,89L69,642H171l-4-396q-1-84 36-125T315,80q150,0 149,156l-5,406H563l-3-326ZM237,874q81-48 198-107l-17-44l-10-4q-130,50-204,82l-4,10l26,61l11,2Z" />
      <glyph unicode="&#xda;" glyph-name="Uacute" horiz-adv-x="631" d="M560,316l-1-76q2-118-64-183T308-8Q191-8 129,54.5T69,232l2,89L69,642H171l-4-396q-1-84 36-125T315,80q150,0 149,156l-5,406H563l-3-326ZM429,872l27-61l-4-10q-74-32-204-82l-10,4l-17,44q130,67 197,107l11-2Z" />
      <glyph unicode="&#xdb;" glyph-name="Ucircumflex" horiz-adv-x="631" d="M560,316l-1-76q2-118-64-183T308-8Q191-8 129,54.5T69,232l2,89L69,642H171l-4-396q-1-84 36-125T315,80q150,0 149,156l-5,406H563l-3-326ZM183,774q72,49 123,96h24q60-53 124-96l-18-43H424l-35,22l-70,44q-11-7-88-55l-18-11H203l-20,43Z" />
      <glyph unicode="&#xdc;" glyph-name="Udieresis" horiz-adv-x="631" d="M560,316l-1-76q2-118-64-183T308-8Q191-8 129,54.5T69,232l2,89L69,642H171l-4-396q-1-84 36-125T315,80q150,0 149,156l-5,406H563l-3-326ZM239,845q23,0 36.5-13.5T289,795q0-25-14.5-40T236,740q-25,0-38,13.5T185,791q0,25 14.5,39.5T239,845Zm164,0q24,0 37-13.5T453,795q0-25-14.5-40T400,740t-37.5,13.5T349,791q0,25 14.5,39.5T403,845Z" />
      <glyph unicode="&#xdd;" glyph-name="Yacute" horiz-adv-x="541" d="M309,184L313,0H210l5,184l-1,39L11,642H121l13-40L261,333h8L410,600l16,42H533L310,228l-1-44Zm68,688l27-61l-4-10q-74-32-204-82l-10,4l-17,44q130,67 197,107l11-2Z" />
      <glyph unicode="&#xde;" glyph-name="Thorn" horiz-adv-x="540" d="M307,536q98,0 150.5-49T510,343q0-110-65-170T260,113l-71-2L191,0H87l5,193L88,535L87,642H192l-1-107l116,1ZM288,192q114,23 114,144q0,59-31,88t-93,32l-88-3l-3-251v-7l101-3Z" />
      <glyph unicode="&#xdf;" glyph-name="germandbls" horiz-adv-x="583" d="M380,371q0-31 21.5-50.5T467,275q36-21 57.5-37.5t37-41.5T577,136q0-39-20-72T497.5,11T404-9Q337-9 267,22l13,85l10,7q29-26 61.5-40T413,60q34,0 53.5,16.5T486,119q0,25-19,42.5T407,203q-38,23-61,40.5t-39.5,45T290,354q0,37 15,60.5T350,465q26,24 39,43t13,48q0,36-24,55.5T312,631q-52,0-81.5-30.5T200,510l-4-309L202,0H101l6,190l-2,204H36l-4,6l5,59h67v39q0,98 57.5,152T317,704q82,0 126-36.5T487,570q0-39-15.5-64T426,451q-23-23-34.5-40T380,371Z" />
      <glyph unicode="&#xe0;" glyph-name="agrave" horiz-adv-x="470" d="M237,470q69,0 109-33t40-92q0-18-6-120q-6-100-6-117q0-19 6.5-26.5T403,74q10,0 30,4l9-7L432,15Q403-3 369-7q-31,3-50,22.5T296,67h-7Q238,13 185-8Q116-7 76.5,28T37,123q0,89 97,111l158,35l1,54q0,37-18.5,56T221,398q-34,0-68-15.5T78,334l-8,5L57,410q88,60 180,60ZM162,179q-18-4-26-13.5T128,136q0-30 16.5-47T189,72q47,0 100,61l3,77L162,179Zm3,529q66-63 171-148l-26-40l-10-1Q198,585 119,643l-2,10l38,54l10,1Z" />
      <glyph unicode="&#xe1;" glyph-name="aacute" horiz-adv-x="470" d="M237,470q69,0 109-33t40-92q0-18-6-120q-6-100-6-117q0-19 6.5-26.5T403,74q10,0 30,4l9-7L432,15Q403-3 369-7q-31,3-50,22.5T296,67h-7Q238,13 185-8Q116-7 76.5,28T37,123q0,89 97,111l158,35l1,54q0,37-18.5,56T221,398q-34,0-68-15.5T78,334l-8,5L57,410q88,60 180,60ZM162,179q-18-4-26-13.5T128,136q0-30 16.5-47T189,72q47,0 100,61l3,77L162,179ZM325,707l38-54l-2-10q-79-58-181-124l-10,1l-26,40q105,85 171,148l10-1Z" />
      <glyph unicode="&#xe2;" glyph-name="acircumflex" horiz-adv-x="470" d="M237,470q69,0 109-33t40-92q0-18-6-120q-6-100-6-117q0-19 6.5-26.5T403,74q10,0 30,4l9-7L432,15Q403-3 369-7q-31,3-50,22.5T296,67h-7Q238,13 185-8Q116-7 76.5,28T37,123q0,89 97,111l158,35l1,54q0,37-18.5,56T221,398q-34,0-68-15.5T78,334l-8,5L57,410q88,60 180,60ZM162,179q-18-4-26-13.5T128,136q0-30 16.5-47T189,72q47,0 100,61l3,77L162,179ZM85,564q57,54 130,137h26q72-83 129-137l-27-40H333q-69,60-105,100q-35-37-105-100H112L85,564Z" />
      <glyph unicode="&#xe3;" glyph-name="atilde" horiz-adv-x="470" d="M237,470q69,0 109-33t40-92q0-18-6-120q-6-100-6-117q0-19 6.5-26.5T403,74q10,0 30,4l9-7L432,15Q403-3 369-7q-31,3-50,22.5T296,67h-7Q238,13 185-8Q116-7 76.5,28T37,123q0,89 97,111l158,35l1,54q0,37-18.5,56T221,398q-34,0-68-15.5T78,334l-8,5L57,410q88,60 180,60ZM162,179q-18-4-26-13.5T128,136q0-30 16.5-47T189,72q47,0 100,61l3,77L162,179ZM391,650v-9l-65-77l-10-5q-18,3-81,20q-59,17-74,17q-10,0-19-8t-25-25l-15-16H92L61,579v9l65,77l11,4q27-4 82-19q59-17 73-17q10,0 20,8.5T334,663t17,19h10l30-32Z" />
      <glyph unicode="&#xe4;" glyph-name="adieresis" horiz-adv-x="470" d="M237,470q69,0 109-33t40-92q0-18-6-120q-6-100-6-117q0-19 6.5-26.5T403,74q10,0 30,4l9-7L432,15Q403-3 369-7q-31,3-50,22.5T296,67h-7Q238,13 185-8Q116-7 76.5,28T37,123q0,89 97,111l158,35l1,54q0,37-18.5,56T221,398q-34,0-68-15.5T78,334l-8,5L57,410q88,60 180,60ZM162,179q-18-4-26-13.5T128,136q0-30 16.5-47T189,72q47,0 100,61l3,77L162,179ZM148,664q23,0 36.5-13.5T198,614q0-25-14.5-40T145,559q-25,0-38,13.5T94,610q0,25 14.5,39.5T148,664Zm164,0q24,0 37-13.5T362,614q0-25-14.5-40T309,559t-37.5,13.5T258,610q0,25 14.5,39.5T312,664Z" />
      <glyph unicode="&#xe5;" glyph-name="aring" horiz-adv-x="470" d="M237,470q69,0 109-33t40-92q0-18-6-120q-6-100-6-117q0-19 6.5-26.5T403,74q10,0 30,4l9-7L432,15Q403-3 369-7q-31,3-50,22.5T296,67h-7Q238,13 185-8Q116-7 76.5,28T37,123q0,89 97,111l158,35l1,54q0,37-18.5,56T221,398q-34,0-68-15.5T78,334l-8,5L57,410q88,60 180,60ZM162,179q-18-4-26-13.5T128,136q0-30 16.5-47T189,72q47,0 100,61l3,77L162,179Zm65,529q42,0 65-23t23-62q0-43-25-66.5T224,533q-40,0-63.5,23T137,620t23.5,64.5T227,708Zm-2-46q-21,0-31.5-10.5T183,622q0-44 43-44q20,0 31.5,10.5T269,620q0,19-11,30.5T225,662Z" />
      <glyph unicode="&#xe6;" glyph-name="ae" horiz-adv-x="685" d="M492,469q78,0 123-51.5T656,270l-10-14L370,216Q378,67 497,67q31,0 65,11.5T626,110l10-6L622,25Q593,9 557.5,0T489-9q-56,0-99,24T322,85Q267,21 191-8Q119-7 77,27.5T35,123q0,47 24.5,77T132,237l155,22v64q0,75-71,75q-59,0-140-64l-8,5L54,410q86,60 174,60q46,0 76.5-17T350,407q26,30 63,46t79,16Zm-13-69q-46,0-78-36.5T369,275v-3l196,32q-1,46-24,71t-62,25ZM189,73q25,0 48,14t59,50q-7,43-8,66L171,182q-24-4-34.5-16T126,133q0-29 17-44.5T189,73Z" />
      <glyph unicode="&#xe7;" glyph-name="ccedilla" horiz-adv-x="385" d="M248,470q32,0 65-7t58-19l-17-85l-10-4q-53,31-98,31q-53,0-83-40T133,234q0-77 31-119.5T252,72q50,0 107,30l9-6L358,14Q297-9 236-9Q142-9 89.5,53.5T37,226q0,114 56,179t155,65Zm0-520l34-20q22-12 31-25.5t9-31.5q0-31-24-50.5T235-197q-43,0-77,30l9,47l5,2q15-15 28-23t29-8q13,0 21,6.5t8,18.5q0,13-19,22L190-73l24,95h54L248-50Z" />
      <glyph unicode="&#xe8;" glyph-name="egrave" horiz-adv-x="465" d="M411,226l-281-1q1-76 37-115.5T269,70q69,0 135,41l10-6L399,23Q326-9 257-9Q154-9 95.5,54.5T37,228q0,111 58,176t157,65q84,0 129.5-46T427,293q0-23-5-55l-11-12Zm-76,79q0,47-21.5,71T251,400q-46,0-76-29.5T135,287l198,4l2,14ZM179,708q66-63 171-148l-26-40l-10-1Q212,585 133,643l-2,10l38,54l10,1Z" />
      <glyph unicode="&#xe9;" glyph-name="eacute" horiz-adv-x="465" d="M411,226l-281-1q1-76 37-115.5T269,70q69,0 135,41l10-6L399,23Q326-9 257-9Q154-9 95.5,54.5T37,228q0,111 58,176t157,65q84,0 129.5-46T427,293q0-23-5-55l-11-12Zm-76,79q0,47-21.5,71T251,400q-46,0-76-29.5T135,287l198,4l2,14Zm4,402l38-54l-2-10q-79-58-181-124l-10,1l-26,40q105,85 171,148l10-1Z" />
      <glyph unicode="&#xea;" glyph-name="ecircumflex" horiz-adv-x="465" d="M411,226l-281-1q1-76 37-115.5T269,70q69,0 135,41l10-6L399,23Q326-9 257-9Q154-9 95.5,54.5T37,228q0,111 58,176t157,65q84,0 129.5-46T427,293q0-23-5-55l-11-12Zm-76,79q0,47-21.5,71T251,400q-46,0-76-29.5T135,287l198,4l2,14ZM99,564q57,54 130,137h26q72-83 129-137l-27-40H347q-69,60-105,100q-35-37-105-100H126L99,564Z" />
      <glyph unicode="&#xeb;" glyph-name="edieresis" horiz-adv-x="465" d="M411,226l-281-1q1-76 37-115.5T269,70q69,0 135,41l10-6L399,23Q326-9 257-9Q154-9 95.5,54.5T37,228q0,111 58,176t157,65q84,0 129.5-46T427,293q0-23-5-55l-11-12Zm-76,79q0,47-21.5,71T251,400q-46,0-76-29.5T135,287l198,4l2,14ZM162,664q23,0 36.5-13.5T212,614q0-25-14.5-40T159,559q-25,0-38,13.5T108,610q0,25 14.5,39.5T162,664Zm164,0q24,0 37-13.5T376,614q0-25-14.5-40T323,559t-37.5,13.5T272,610q0,25 14.5,39.5T326,664Z" />
      <glyph unicode="&#xec;" glyph-name="igrave" horiz-adv-x="250" d="M78,193L75,454l100,9l-4-261L174,0H74l4,193ZM62,708q66-63 171-148l-26-40l-10-1Q95,585 16,643l-2,10l38,54l10,1Z" />
      <glyph unicode="&#xed;" glyph-name="iacute" horiz-adv-x="250" d="M78,193L75,454l100,9l-4-261L174,0H74l4,193ZM222,707l38-54l-2-10Q179,585 77,519l-10,1L41,560q105,85 171,148l10-1Z" />
      <glyph unicode="&#xee;" glyph-name="icircumflex" horiz-adv-x="250" d="M78,193L75,454l100,9l-4-261L174,0H74l4,193ZM-18,564q57,54 130,137h26q72-83 129-137l-27-40H230q-69,60-105,100Q90,587 20,524H9l-27,40Z" />
      <glyph unicode="&#xef;" glyph-name="idieresis" horiz-adv-x="250" d="M78,193L75,454l100,9l-4-261L174,0H74l4,193ZM68,663q22,0 34.5-13T115,614q0-25-14-39.5T64,560q-24,0-36.5,13T15,610t14,38.5T68,663Zm118,0q22,0 35-13t13-36q0-25-14-39.5T183,560q-24,0-37,13t-13,37t14,38.5T186,663Z" />
      <glyph unicode="&#xf0;" glyph-name="eth" horiz-adv-x="492" d="M303,592q73-70 110.5-157.5T451,247q0-123-54.5-189.5T241-9Q146-9 92.5,52T39,224q0,112 54,173.5T246,459q36,0 68-9q-32,56-86,102L109,488l-10,4L78,536l99,53q-55,34-115,59v13l61,46h6q72-33 127-76l114,61l9-3l21-45l-97-52ZM248,59q59,0 86.5,43.5T362,239q0,59-11,112q-44,39-100,39q-123,0-123-166q0-83 31-124t89-41Z" />
      <glyph unicode="&#xf1;" glyph-name="ntilde" horiz-adv-x="521" d="M360,303q1,38-17.5,59.5T289,384q-58,0-120-60l-1-122L174,0H72l6,193L73,454l97,9l-1-67h7q59,52 123,71q77,0 116.5-35T454,332l-3-130L456,0H353l7,303Zm81,347v-9l-65-77l-10-5q-18,3-81,20q-59,17-74,17q-10,0-19-8t-25-25l-15-16H142l-31,32v9l65,77l11,4q27-4 82-19q59-17 73-17q10,0 20,8.5T384,663t17,19h10l30-32Z" />
      <glyph unicode="&#xf2;" glyph-name="ograve" horiz-adv-x="492" d="M252,470q97,0 149.5-60.5T454,238q0-119-56-183T239-9Q142-9 89.5,51.5T37,223q0,119 56,183t159,64Zm-6-71q-114,0-114-154q0-94 28-139t86-45q57,0 85,38t28,116q0,94-28,139t-85,45ZM185,708q66-63 171-148l-26-40l-10-1Q218,585 139,643l-2,10l38,54l10,1Z" />
      <glyph unicode="&#xf3;" glyph-name="oacute" horiz-adv-x="492" d="M252,470q97,0 149.5-60.5T454,238q0-119-56-183T239-9Q142-9 89.5,51.5T37,223q0,119 56,183t159,64Zm-6-71q-114,0-114-154q0-94 28-139t86-45q57,0 85,38t28,116q0,94-28,139t-85,45Zm99,308l38-54l-2-10q-79-58-181-124l-10,1l-26,40q105,85 171,148l10-1Z" />
      <glyph unicode="&#xf4;" glyph-name="ocircumflex" horiz-adv-x="492" d="M252,470q97,0 149.5-60.5T454,238q0-119-56-183T239-9Q142-9 89.5,51.5T37,223q0,119 56,183t159,64Zm-6-71q-114,0-114-154q0-94 28-139t86-45q57,0 85,38t28,116q0,94-28,139t-85,45ZM105,564q57,54 130,137h26q72-83 129-137l-27-40H353q-69,60-105,100q-35-37-105-100H132l-27,40Z" />
      <glyph unicode="&#xf5;" glyph-name="otilde" horiz-adv-x="492" d="M252,470q97,0 149.5-60.5T454,238q0-119-56-183T239-9Q142-9 89.5,51.5T37,223q0,119 56,183t159,64Zm-6-71q-114,0-114-154q0-94 28-139t86-45q57,0 85,38t28,116q0,94-28,139t-85,45ZM411,650v-9l-65-77l-10-5q-18,3-81,20q-59,17-74,17q-10,0-19-8t-25-25l-15-16H112L81,579v9l65,77l11,4q27-4 82-19q59-17 73-17q10,0 20,8.5T354,663t17,19h10l30-32Z" />
      <glyph unicode="&#xf6;" glyph-name="odieresis" horiz-adv-x="492" d="M252,470q97,0 149.5-60.5T454,238q0-119-56-183T239-9Q142-9 89.5,51.5T37,223q0,119 56,183t159,64Zm-6-71q-114,0-114-154q0-94 28-139t86-45q57,0 85,38t28,116q0,94-28,139t-85,45ZM168,664q23,0 36.5-13.5T218,614q0-25-14.5-40T165,559q-25,0-38,13.5T114,610q0,25 14.5,39.5T168,664Zm164,0q24,0 37-13.5T382,614q0-25-14.5-40T329,559t-37.5,13.5T278,610q0,25 14.5,39.5T332,664Z" />
      <glyph unicode="&#xf7;" glyph-name="divide" horiz-adv-x="480" d="M460,291l-5-63H43l-7,7l5,63H453l7-7ZM259,145q23,0 36-13.5T308,95q0-25-14-39.5T257,41q-24,0-37.5,13.5T206,92t14.5,38.5T259,145Zm0,345q23,0 36-13.5T308,440q0-25-14-39.5T257,386q-24,0-37.5,13.5T206,437t14.5,38.5T259,490Z" />
      <glyph unicode="&#xf8;" glyph-name="oslash" horiz-adv-x="492" d="M386,425q33-29 50.5-76.5T454,238q0-119-56-183T239-9Q200-9 165,2L102-119L48-93L45-83L107,35Q37,94 37,223q0,119 56,183t159,64q43,0 76-12l53,101l50-25l6-11l-51-98ZM132,245q0-78 20-124L292,389q-19,10-46,10q-114,0-114-154ZM246,61q57,0 85,38t28,116T340,337L201,70q20-9 45-9Z" />
      <glyph unicode="&#xf9;" glyph-name="ugrave" horiz-adv-x="515" d="M496,71l-9-56Q454-4 422-7q-30,5-47.5,21.5T348,64h-7Q282,11 221-6Q146-6 106,29T67,129l2,125L65,454l101,9l-5-306q-1-37 16.5-58T230,78q53,0 109,50V454l97,9l-7-356q0-18 6-25.5T456,74q12,0 31,4l9-7ZM194,708q66-63 171-148l-26-40l-10-1Q227,585 148,643l-2,10l38,54l10,1Z" />
      <glyph unicode="&#xfa;" glyph-name="uacute" horiz-adv-x="515" d="M496,71l-9-56Q454-4 422-7q-30,5-47.5,21.5T348,64h-7Q282,11 221-6Q146-6 106,29T67,129l2,125L65,454l101,9l-5-306q-1-37 16.5-58T230,78q53,0 109,50V454l97,9l-7-356q0-18 6-25.5T456,74q12,0 31,4l9-7ZM354,707l38-54l-2-10q-79-58-181-124l-10,1l-26,40q105,85 171,148l10-1Z" />
      <glyph unicode="&#xfb;" glyph-name="ucircumflex" horiz-adv-x="515" d="M496,71l-9-56Q454-4 422-7q-30,5-47.5,21.5T348,64h-7Q282,11 221-6Q146-6 106,29T67,129l2,125L65,454l101,9l-5-306q-1-37 16.5-58T230,78q53,0 109,50V454l97,9l-7-356q0-18 6-25.5T456,74q12,0 31,4l9-7ZM114,564q57,54 130,137h26q72-83 129-137l-27-40H362q-69,60-105,100q-35-37-105-100H141l-27,40Z" />
      <glyph unicode="&#xfc;" glyph-name="udieresis" horiz-adv-x="515" d="M496,71l-9-56Q454-4 422-7q-30,5-47.5,21.5T348,64h-7Q282,11 221-6Q146-6 106,29T67,129l2,125L65,454l101,9l-5-306q-1-37 16.5-58T230,78q53,0 109,50V454l97,9l-7-356q0-18 6-25.5T456,74q12,0 31,4l9-7ZM177,664q23,0 36.5-13.5T227,614q0-25-14.5-40T174,559q-25,0-38,13.5T123,610q0,25 14.5,39.5T177,664Zm164,0q24,0 37-13.5T391,614q0-25-14.5-40T338,559t-37.5,13.5T287,610q0,25 14.5,39.5T341,664Z" />
      <glyph unicode="&#xfd;" glyph-name="yacute" horiz-adv-x="435" d="M116,399L216,106h7L323,390l17,71h88L269,23Q245-45 216-85.5T144.5-150T34-191H25Q1-167-17-131l3,11Q57-107 98-82T173,0L5,459l96,5l15-65ZM320,707l38-54l-2-10q-79-58-181-124l-10,1l-26,40q105,85 171,148l10-1Z" />
      <glyph unicode="&#xfe;" glyph-name="thorn" horiz-adv-x="517" d="M300,466q87,0 133-58t46-163q0-122-59-188T256-9Q215-9 174,6l2-191H76l6,378L76,694l102,8l-4-305h6q31,27 58,42.5T300,466ZM260,61q58,0 91,42t33,126q0,74-26,114.5T284,384q-27,0-53.5-14.5T173,324l-2-121l1-114q46-28 88-28Z" />
      <glyph unicode="&#xff;" glyph-name="ydieresis" horiz-adv-x="435" d="M116,399L216,106h7L323,390l17,71h88L269,23Q245-45 216-85.5T144.5-150T34-191H25Q1-167-17-131l3,11Q57-107 98-82T173,0L5,459l96,5l15-65Zm27,265q23,0 36.5-13.5T193,614q0-25-14.5-40T140,559q-25,0-38,13.5T89,610q0,25 14.5,39.5T143,664Zm164,0q24,0 37-13.5T357,614q0-25-14.5-40T304,559t-37.5,13.5T253,610q0,25 14.5,39.5T307,664Z" />
      <glyph unicode="&#x2013;" glyph-name="endash" horiz-adv-x="469" d="M487,284l-5-63H-10l-6,8l5,63H480l7-8Z" />
      <glyph unicode="&#x2014;" glyph-name="emdash" horiz-adv-x="912" d="M930,284l-6-63H-10l-6,8l5,63H922l8-8Z" />
      <glyph unicode="&#x2018;" glyph-name="quoteleft" horiz-adv-x="183" d="M88,417q-28,13-41.5,33T33,499q0,69 81,147l37-25l1-8q-41-44-41-84q0-21 9-36.5T150,467v-9q-28-25-62-41Z" />
      <glyph unicode="&#x2019;" glyph-name="quoteright" horiz-adv-x="183" d="M98,645q28-13 41.5-33T153,563q0-69-81-147L35,441l-1,8q41,44 41,84q0,21-9,36.5T36,595v9q28,25 62,41Z" />
      <glyph unicode="&#x201a;" glyph-name="quotesinglbase" horiz-adv-x="229" d="M134,106q43-31 43-75q0-74-106-150L38-89l-1,8Q92-36 92,11q0,31-31,53v9q37,24 73,33Z" />
      <glyph unicode="&#x201c;" glyph-name="quotedblleft" horiz-adv-x="329" d="M234,417q-28,13-41.5,33T179,499q0,69 81,147l37-25l1-8q-41-44-41-84q0-21 9-36.5T296,467v-9q-28-25-62-41ZM88,417q-28,13-41.5,33T33,499q0,69 81,147l37-25l1-8q-41-44-41-84q0-21 9-36.5T150,467v-9q-28-25-62-41Z" />
      <glyph unicode="&#x201d;" glyph-name="quotedblright" horiz-adv-x="325" d="M240,645q28-13 41.5-33T295,563q0-69-81-147l-37,25l-1,8q41,44 41,84q0,21-9,36.5T178,595v9q28,25 62,41ZM98,645q28-13 41.5-33T153,563q0-69-81-147L35,441l-1,8q41,44 41,84q0,21-9,36.5T36,595v9q28,25 62,41Z" />
      <glyph unicode="&#x201e;" glyph-name="quotedblbase" horiz-adv-x="374" d="M279,106q43-31 43-75q0-74-106-150L183-89l-1,8q55,45 55,92q0,31-31,53v9q37,24 73,33Zm-145,0q43-31 43-75q0-74-106-150L38-89l-1,8Q92-36 92,11q0,31-31,53v9q37,24 73,33Z" />
      <glyph unicode="&#x2022;" glyph-name="bullet" horiz-adv-x="251" d="M127,308q30,0 46-17.5T189,243q0-32-17.5-50.5T124,174q-31,0-48,17.5T59,240t18.5,49.5T127,308Z" />
      <glyph unicode="&#x2039;" glyph-name="guilsinglleft" horiz-adv-x="235" d="M43,216v19L184,410l49-27l2-11L119,227L235,82l-2-11L184,44L43,216Z" />
      <glyph unicode="&#x203a;" glyph-name="guilsinglright" horiz-adv-x="235" d="M197,239V220L56,45L7,72L5,83L121,228L5,373l2,11l49,27L197,239Z" />
    </font>
</defs>
</svg>
