<?xml version="1.0" standalone="no"?>
<!DOCTYPE svg PUBLIC "-//W3C//DTD SVG 1.1//EN" "http://www.w3.org/Graphics/SVG/1.1/DTD/svg11.dtd">
<svg xmlns="http://www.w3.org/2000/svg">
  <defs>
    <font id="AlegreyaSans" horiz-adv-x="558">
      <font-face font-family="Alegreya Sans Black" units-per-em="1000" panose-1="0 0 10 0 0 0 0 0 0 0" ascent="800" descent="-200" alphabetic="0" />
      <glyph unicode=" " glyph-name="space" horiz-adv-x="135" />
      <glyph unicode="!" glyph-name="exclam" horiz-adv-x="274" d="M248,649L196,259L87,243L68,261L51,639l17,22l157,11l23-23ZM129,190q44,0 68.5-25T222,95q0-48-27-76T121-9Q75-9 51,15.5T27,86q0,48 27.5,76T129,190Z" />
      <glyph unicode="&quot;" glyph-name="quotedbl" horiz-adv-x="443" d="M214,634L166,372L78,358L63,369L53,637l151,9l10-12Zm193,0L359,372l-88-14l-15,11L246,637l151,9l10-12Z" />
      <glyph unicode="#" glyph-name="numbersign" horiz-adv-x="587" d="M468,346l-14-90h72l11-12l-8-97H436L418,31H307l-9,12l17,104H223L205,31H94L85,43l17,104H31L20,159l8,97h91l14,90H61L50,358l8,97h92l19,117H277l12-13L272,455h91l19,117H490l12-13L485,455h71l11-12l-8-97H468Zm-122,0H255l-14-90h91l14,90Z" />
      <glyph unicode="$" glyph-name="dollar" horiz-adv-x="469" d="M436,170q0-60-37-108T286-4l-8-138H163l-14,15l7,117Q89-3 24,16L51,177l17,13q39-31 85-51t76-20q24,0 24,16q0,12-13.5,19.5T192,175q-45,16-76,33T62,257.5T39,340q0,62 38,108.5T184,513l7,134H303l17-15l-6-111q56-5 113-25L400,342l-26-7q-35,23-72.5,37T243,386t-21-13t14.5-21T285,331q45-16 75.5-32.5t53-48T436,170Z" />
      <glyph unicode="%" glyph-name="percent" horiz-adv-x="889" d="M693,647l10-24L241-94L159-44l-6,17L617,694l76-47Zm-495,8q76,0 116.5-46T355,476q0-94-45.5-144.5T179,281q-77,0-118,46T20,458q0,95 46.5,146T198,655ZM186,535q-28,0-39.5-15T135,467q0-41 11.5-58.5T187,391q30,0 42,16.5T241,461q0,40-12.5,57T186,535ZM711,367q76,0 116.5-46T868,188q0-94-45.5-144.5T692-7Q615-7 574,39T533,170q0,95 46.5,146T711,367ZM699,247q-28,0-39.5-15T648,179q0-41 11.5-58.5T700,103q30,0 42,16.5T754,173q0,40-12.5,57T699,247Z" />
      <glyph unicode="&amp;" glyph-name="ampersand" horiz-adv-x="730" d="M598,320q2-20 2-57q0-66-24-117L705,28V16Q659-36 601-71H589L474,34Q394-12 280-12Q159-12 90,38.5T21,177q0,107 112,159l1,12Q74,416 74,487q0,77 60.5,122.5T305,655q90,0 170-24L431,488H408q-58,33-110,33q-54,0-54-45q0-16 9-30.5T290,406L469,243q5,23 5,45q0,25-3,43H420l-8,11l12,125H717l11-13L716,331H603l-5-11ZM299,121q39,0 68,10L212,272q-24-28-24-63q0-88 111-88Z" />
      <glyph unicode="&apos;" glyph-name="quotesingle" horiz-adv-x="250" d="M214,634L166,372L78,358L63,369L53,637l151,9l10-12Z" />
      <glyph unicode="(" glyph-name="parenleft" horiz-adv-x="302" d="M300,602V587q-45-50-66.5-131.5T212,251q0-113 21.5-189.5T300-65V-80l-69-57H214Q133-77 94.5,17T56,250q0,150 38.5,249T214,659h17l69-57Z" />
      <glyph unicode=")" glyph-name="parenright" horiz-adv-x="294" d="M-9-80v15Q36-15 57.5,66.5T79,271q0,113-21.5,189.5T-9,587v15l69,57H77q81-60 119.5-154T235,272q0-150-38.5-249T77-137H60L-9-80Z" />
      <glyph unicode="*" glyph-name="asterisk" horiz-adv-x="394" d="M258,741L222,614l-51-6l-9,8l-6,118q43,15 97,17l5-10ZM150,605l-9-51l-11-5L16,579q-1,44 13,97l12,3l109-74Zm198,43q27-39 45-87l-7-8l-132-4l-23,46l5,11l112,42ZM250,533l75-93q-24-33-69-70l-10,4L201,499l37,35l12-1Zm-68-24l2-11L120,398q-38,11-89,42l1,12l104,81l46-24Z" />
      <glyph unicode="+" glyph-name="plus" horiz-adv-x="480" d="M306,469V320H454l12-13l-9-117H306V38L189,29L176,41V190H27L15,203l9,117H176V472l117,9l13-12Z" />
      <glyph unicode="," glyph-name="comma" horiz-adv-x="228" d="M161,183q25-23 36.5-49T209,77q0-58-37-111.5T57-142L-4-89L-6-75Q23-50 36.5-23.5T50,34q0,42-33,75l1,16q72,40 143,58Z" />
      <glyph unicode="-" glyph-name="hyphen" horiz-adv-x="299" d="M273,326l1-120L39,168L25,182V302l234,38l14-14Z" />
      <glyph unicode="." glyph-name="period" horiz-adv-x="228" d="M118,190q44,0 68.5-25T211,95q0-48-27-76T110-9Q64-9 40,15.5T16,86q0,48 27.5,76T118,190Z" />
      <glyph unicode="/" glyph-name="slash" horiz-adv-x="280" d="M326,667L118-118H-17l-11,15L180,683H311l15-16Z" />
      <glyph unicode="0" glyph-name="zero" horiz-adv-x="513" d="M270,524q101,0 157.5-66.5T484,270q0-134-63-208T245-12Q143-12 86,55T29,243q0,132 63.5,206.5T270,524ZM255,342q-41,0-58-19t-17-67q0-52 17-74.5T256,159t60,20.5T334,247q0,52-18.5,73.5T255,342Z" />
      <glyph unicode="1" glyph-name="one" horiz-adv-x="379" d="M303,502L293,210L301,0H103l8,190V299L17,279L5,288V446l270,76l28-20Z" />
      <glyph unicode="2" glyph-name="two" horiz-adv-x="490" d="M254,522q80,0 131-35.5T436,387q0-41-24.5-86.5T329,197l-44-44l3-5h77l97,10l10-12L450-8L306,0H76L40-3L31,4V122L159,232q41,37 61.5,61T241,334q0,23-35,23q-27,0-61-13.5T80,307H59L26,459q124,63 228,63Z" />
      <glyph unicode="3" glyph-name="three" horiz-adv-x="453" d="M219,524q90,0 145-41t55-108q0-37-20-74.5T330,235v-6q48-17 71-50t23-85q0-55-35-97.5t-98-66T145-93Q84-93 27-82L17,62L30,74Q99,54 151,54q43,0 64,11.5T236,101q0,33-46,33H106l-8,12l5,134l45,2q31,2 51,15t20,36q0,17-11,25t-35,8q-23,0-49-8T63,334H43L15,469q47,26 100,40.5T219,524Z" />
      <glyph unicode="4" glyph-name="four" horiz-adv-x="529" d="M499,28l-68,2l6-103L427-86L274-95L264-83l4,115H139L27,28L15,44V167L251,514H431l-4-333h69l11-17L499,28ZM180,181h92l-1,119H260L180,181Z" />
      <glyph unicode="5" glyph-name="five" horiz-adv-x="448" d="M428,510L407,362l-13-14L283,363H204l-2-61l60-13q80-17 117.5-56.5T417,126q0-66-34.5-116T286-67.5T142-95Q79-95 13-81L4,59L17,72Q81,53 145,53q41,0 63.5,13T231,104q0,20-14,31.5T172,152L63,170L52,184l5,314l19,20l63-4H300l117,8l11-12Z" />
      <glyph unicode="6" glyph-name="six" horiz-adv-x="498" d="M303,376q55,0 94-25.5t59.5-67T477,195q0-52-25.5-99.5T373.5,18T245-12Q139-12 78.5,50.5T18,220q0,115 74.5,213.5T303,598h9l124-86V493q-85-34-132.5-61.5T232,371l4-5q35,10 67,10ZM250,113q51,0 51,63q0,33-13.5,49T244,241q-22,0-49-9v-9q0-59 10-84.5T250,113Z" />
      <glyph unicode="7" glyph-name="seven" horiz-adv-x="450" d="M159,514H369l57,2V374L295,89L225-97L69-54L57-24L237,353H128L17,341L8,356L20,519l139-5Z" />
      <glyph unicode="8" glyph-name="eight" horiz-adv-x="515" d="M273,598q90,0 141-41.5T465,445q0-76-80-128v-8q44-23 69-55t25-80q0-87-64.5-136.5T242-12Q141-12 87,30.5T33,141q0,47 25.5,78T136,272v8Q48,328 48,419q0,83 61,131t164,48ZM259,466q-27,0-40-10.5T206,426q0-22 18.5-37T278,360q35,30 35,62q0,20-14.5,32T259,466ZM243,225q-27-10-38.5-22.5T193,169q0-25 16.5-39T258,116q31,0 47,12.5T321,159q0,22-19.5,36.5T243,225Z" />
      <glyph unicode="9" glyph-name="nine" horiz-adv-x="498" d="M195,137q-55,0-94,25.5t-59.5,67T21,318q0,52 25.5,99.5t78,77.5T253,525q106,0 166.5-62.5T480,293q0-115-74.5-213.5T195-85h-9L62,1V20q85,34 132.5,61.5T266,142l-4,5q-35-10-67-10Zm53,263q-51,0-51-63q0-33 13.5-49T254,272q22,0 49,9v9q0,59-10,84.5T248,400Z" />
      <glyph unicode=":" glyph-name="colon" horiz-adv-x="228" d="M113,190q44,0 68.5-25T206,95q0-48-27-76T105-9Q59-9 35,15.5T11,86q0,48 27.5,76T113,190Zm0,255q44,0 68.5-25T206,350q0-48-27-76t-74-28q-46,0-70,24.5T11,341q0,48 27.5,76T113,445Z" />
      <glyph unicode=";" glyph-name="semicolon" horiz-adv-x="228" d="M156,183q25-23 36.5-49T204,77q0-58-37-111.5T52-142L-9-89l-2,14Q18-50 31.5-23.5T45,34q0,42-33,75l1,16q72,40 143,58ZM113,445q44,0 68.5-25T206,350q0-48-27-76t-74-28q-46,0-70,24.5T11,341q0,48 27.5,76T113,445Z" />
      <glyph unicode="&lt;" glyph-name="less" horiz-adv-x="480" d="M448,369l-7-13L164,264v-9l276-91L414,56L398,43L31,177V333l12,17L408,480l40-111Z" />
      <glyph unicode="=" glyph-name="equal" horiz-adv-x="480" d="M466,413l-9-117H27L15,309l9,117H454l12-13Zm0-213L457,83H27L15,96l9,117H454l12-13Z" />
      <glyph unicode="&gt;" glyph-name="greater" horiz-adv-x="480" d="M437,350l12-17V177L82,43L66,56L40,164l276,91v9L39,356l-7,13L72,480L437,350Z" />
      <glyph unicode="?" glyph-name="question" horiz-adv-x="351" d="M83,677q145-6 223-49t78-118q0-43-25.5-80.5T285,367l-58-30l-3-6l7-71L95,240L82,252L69,378l6,11l84,33q48,20 48,58q0,28-35,42T45,542L31,560L66,668l17,9Zm88-487q44,0 68.5-25T264,95q0-48-27-76T163-9Q117-9 93,15.5T69,86q0,48 27.5,76T171,190Z" />
      <glyph unicode="@" glyph-name="at" horiz-adv-x="866" d="M856,327q0-157-109-241T436,2l14,103H435Q401,39 365-5H343Q269,13 241,52T213,154q0,60 24.5,119.5t76,108.5T440,456h6l92-15l103,21l11-8L609,133q56,14 89,65.5T731,321q0,101-66.5,160T485,540q-101,0-178-43.5T188,377T146,204q0-101 47-174T325.5-81T524-119l7-17l-50-89q-140,0-244,47T76-39T19,183q0,133 59,242T244,596.5T491,659q109,0 191.5-39.5T810.5,505T856,327ZM389,150q14,0 34.5,35T475,296l3,21l-64,16q-45,0-45-109q0-74 20-74Z" />
      <glyph unicode="A" glyph-name="A" horiz-adv-x="627" d="M617,0H414L396,107l-1,3l-98,2l-82-4L198,0H2L198,647H440L617,0ZM365,256L321,468H309L253,256l56-1l56,1Z" />
      <glyph unicode="B" glyph-name="B" horiz-adv-x="629" d="M484,333q63-18 91.5-53.5T604,187q0-101-82.5-147.5T275-7Q184-7 60,0L70,190L60,647l289,1q110,0 172-42.5T583,482q0-50-25.5-88.5T484,333ZM379,453q0,35-24.5,48.5T263,515h-9l-4-132l75-3q28,9 41,26t13,47ZM313,125q41,0 64.5,18T401,195q0,23-13.5,37T344,256l-97-2l-1-44l3-81q50-4 64-4Z" />
      <glyph unicode="C" glyph-name="C" horiz-adv-x="514" d="M352,658q86,0 162-27L480,472l-13-8q-26,14-60,22.5T344,495q-61,0-88-35.5T229,341q0-97 31-141.5T357,155q28,0 62.5,5.5T480,176l16-10L480,8Q420-11 341-11Q180-11 98.5,73T17,318q0,162 87.5,251T352,658Z" />
      <glyph unicode="D" glyph-name="D" horiz-adv-x="665" d="M352,651q143,0 219.5-77.5T648,350q0-173-89-266T304-9Q200-9 60,0L70,190L60,647l292,4ZM342,140q47,0 71.5,37.5T438,301q0,73-10,115t-32,60.5T335,495q-38,0-75-4l-7-281l2-62q60-8 87-8Z" />
      <glyph unicode="E" glyph-name="E" horiz-adv-x="541" d="M517,160l11-14L516,0H60L70,190L60,647H524l11-14L522,487l-159,6H260l-2-91h99l104,3l11-14L460,245l-116,3H254l-1-38l2-56h96l166,6Z" />
      <glyph unicode="F" glyph-name="F" horiz-adv-x="481" d="M260,493l-3-116h68l116,3l11-14L440,220l-129,3H253V210L261,0H60L70,190L60,647H492l11-14L490,487l-160,6H260Z" />
      <glyph unicode="G" glyph-name="G" horiz-adv-x="596" d="M382,658q108,0 187-30L526,451H510q-50,25-86.5,36T344,498q-46,0-70.5-15T238,430T227,320q0-73 11-111.5t37.5-54T352,139q14,0 36,4v32l-3,109l183,13l-3-88V32Q449-12 334-12Q177-12 97,71.5T17,310q0,170 94.5,259T382,658Z" />
      <glyph unicode="H" glyph-name="H" horiz-adv-x="711" d="M648,210L656,0H455l10,190l-1,50l-108,2l-93-3l-1-29L270,0H69L79,190L69,647H273l-6-245l101-2l92,2l-5,245H659L648,210Z" />
      <glyph unicode="I" glyph-name="I" horiz-adv-x="327" d="M253,210L261,0H60L70,190L60,647H264L253,210Z" />
      <glyph unicode="J" glyph-name="J" horiz-adv-x="362" d="M293,213l2-89q0-63-21-106T204.5-56T70-112L18-9V7Q69,32 89.5,59T110,130v63l-7,313l-85-3L7,516l8,131H304L293,213Z" />
      <glyph unicode="K" glyph-name="K" horiz-adv-x="628" d="M437,341Q529,197 647,42l-3-22Q539-3 444-12L422,0Q320,175 255,297l-2-87L261,0H60L70,190L60,647H264l-7-270L381,577l34,70H627L437,341Z" />
      <glyph unicode="L" glyph-name="L" horiz-adv-x="452" d="M452,150L440,0H55L65,190L55,647H259L248,210l2-46H441l11-14Z" />
      <glyph unicode="M" glyph-name="M" horiz-adv-x="806" d="M774,0H598l-5,196L582,359H570L466,61H315L229,359H217L203,215L193,0H26L89,647H320l19-92l57-235h12l63,228l23,99H722L774,0Z" />
      <glyph unicode="N" glyph-name="N" horiz-adv-x="710" d="M639,211L647,0H429L247,346H235l-1-112L242,0H60L70,190L60,647H278L460,301h12l-6,339l184,11L639,211Z" />
      <glyph unicode="O" glyph-name="O" horiz-adv-x="653" d="M341,659q141,0 218-83.5T636,340q0-168-84.5-260T312-12Q171-12 94,72.5T17,312q0,166 84.5,256.5T341,659ZM323,499q-39,0-59-13.5T235.5,438T227,339q0-83 9-126t30.5-60T330,136q39,0 59,13.5t28.5,48T426,297q0,82-9,125t-30.5,60T323,499Z" />
      <glyph unicode="P" glyph-name="P" horiz-adv-x="593" d="M367,648q109,0 167.5-53.5T593,442q0-77-36-135.5t-102-91T303,183H254L261,0H60L70,190L60,647l307,1ZM331,323q27,15 39.5,38.5T383,422q0,44-21,64.5T296,509l-36-3l-4-179l75-4Z" />
      <glyph unicode="Q" glyph-name="Q" horiz-adv-x="661" d="M741-78q-39-77-96-127l-14-7Q459-125 328-12H312Q171-12 94,72.5T17,312q0,166 84.5,256.5T341,659q141,0 218-83.5T636,340q0-105-34-181.5T503,39Q620-22 733-60l8-18ZM227,339q0-83 9-126t30.5-60T330,136q39,0 59,13.5t28.5,48T426,297q0,82-9,125t-30.5,60T323,499q-39,0-59-13.5T235.5,438T227,339Z" />
      <glyph unicode="R" glyph-name="R" horiz-adv-x="631" d="M486,255Q558,143 630,47l-3-22Q525-6 426-12L407,4L395,29q-8,16-32,67.5T321,193H254L261,0H60L70,190L60,647l307,1q109,0 168-51.5T594,448q0-57-28.5-107T486,255ZM383,428q0,40-20.5,59.5T296,509l-36-3l-4-167l73-4q28,13 41,35t13,58Z" />
      <glyph unicode="S" glyph-name="S" horiz-adv-x="528" d="M305,659q95,0 188-35L461,461l-28-12q-42,26-83,41t-66,15q-23,0-36.5-9T234,472q0-19 20.5-32.5T323,404q56-25 92-46.5t63-59T505,206q0-61-33.5-110.5T376,17T232-12Q130-12 18,26L47,200l20,12q46-35 98.5-55.5T253,136q28,0 40.5,9.5T306,169q0,21-21.5,35.5T215,240q-55,24-90.5,45.5T63,344.5T37,437q0,63 34,113.5T166,630t139,29Z" />
      <glyph unicode="T" glyph-name="T" horiz-adv-x="519" d="M513,633L502,487l-132,6H358l-5-283L361,0H161l10,190l-5,303H153L20,487L8,501L19,647H502l11-14Z" />
      <glyph unicode="U" glyph-name="U" horiz-adv-x="653" d="M600,319l-1-103q-1-110-74-169T316-12Q185-12 115.5,47T49,216l3,103L46,647H247l-9-404q-1-51 19.5-74T324,146q47,0 68,23t20,74l-9,404H607l-7-328Z" />
      <glyph unicode="V" glyph-name="V" horiz-adv-x="615" d="M423,0H181L4,647H207l18-107l75-361h12l92,349l19,119H619L423,0Z" />
      <glyph unicode="W" glyph-name="W" horiz-adv-x="914" d="M723,0H511L450,234H438L382,0H169L17,647H211l10-100l63-346h12l75,295L337,647H539l14-120l68-326h12l79,334l18,112H914L723,0Z" />
      <glyph unicode="X" glyph-name="X" horiz-adv-x="659" d="M458,342L653,0H414L380,79L322,184L248,69L216,0H13L205,311L7,647H247l35-81l57-102l65,113l30,70H643L458,342Z" />
      <glyph unicode="Y" glyph-name="Y" horiz-adv-x="594" d="M382,170L390,0H190l10,170l-1,31L-8,647H202l16-54l73-195h12l84,188l23,61H614L384,208l-2-38Z" />
      <glyph unicode="Z" glyph-name="Z" horiz-adv-x="570" d="M538,504L263,148H424l123,9l6-9L537-5L359,0H129L28-6V137L308,499H151L31,489l-7,8L38,650l150-3H462l76,1V504Z" />
      <glyph unicode="[" glyph-name="bracketleft" horiz-adv-x="302" d="M311,640V554l-94-15V-13l94-15v-86l-7-9L59-113L70,263L59,639l245,10l7-9Z" />
      <glyph unicode="\" glyph-name="backslash" horiz-adv-x="280" d="M-28,667l15,16H118L326-103l-11-15H180L-28,667Z" />
      <glyph unicode="]" glyph-name="bracketright" horiz-adv-x="302" d="M-9-114v86L85-13V539L-9,554v86l7,9l245-10L232,263l11-376L-2-123l-7,9Z" />
      <glyph unicode="^" glyph-name="asciicircum" horiz-adv-x="460" d="M449,161l-13-16L328,119L237,370h-9L136,118l-13-7L12,151L142,491l17,11H315L449,161Z" />
      <glyph unicode="_" glyph-name="underscore" horiz-adv-x="438" d="M453-104l-9-107H-3l-12,13L-6-91H441l12-13Z" />
      <glyph unicode="`" glyph-name="grave" horiz-adv-x="388" d="M137,755q99-85 201-161l-44-72l-17-1Q196,558 54,630l-3,17l69,107l17,1Z" />
      <glyph unicode="a" glyph-name="a" horiz-adv-x="503" d="M258,484q92,0 142-37.5T450,339q0-20-4-106q-4-76-4-85q0-11 3.5-16t10.5-5t17,3l12-10L468,20Q431-6 375-10q-29,2-51.5,20T289,61h-7Q238,10 182-11Q106-10 60.5,31.5T15,145q0,111 115,127l142,19v12q0,26-10.5,37T225,351q-56,0-145-48l-12,8L47,434q46,24 101.5,37T258,484ZM215,198q-14-2-20.5-10.5T188,162q0-40 37-40q24,0 47,16v68l-57-8Z" />
      <glyph unicode="b" glyph-name="b" horiz-adv-x="534" d="M333,479q88,0 137.5-61.5T520,248q0-126-65-193T277-12q-63,0-135,25L60-12L43,7l8,183L44,689l194,13l-6-298h5q42,50 96,75ZM266,108q35,0 53,24.5T337,217q0,55-16.5,81.5T269,325q-20,0-38-11l-2-99l1-101q20-6 36-6Z" />
      <glyph unicode="c" glyph-name="c" horiz-adv-x="384" d="M260,484q68,0 122-24L351,312l-14-7q-27,11-44,16t-32,5q-31,0-46-18.5T200,249q0-57 17.5-83T273,140q31,0 85,15l13-11L351,1Q299-12 226-12Q125-12 69.5,50.5T14,228q0,122 64.5,189T260,484Z" />
      <glyph unicode="d" glyph-name="d" horiz-adv-x="535" d="M480,210l1-61q0-12 3-17t10-5t17,3l12-10L506,20Q469-6 413-10q-32,2-56.5,20T318,60h-7Q271,17 217-9Q122-9 68,55T14,229q0,123 66,187.5T261,481q15,0 37-3l-3,211l194,13l-9-492ZM255,352q-33,0-46-18t-13-69q0-69 14-99.5T254,135q25,0 47,20l1,36l-2,151q-23,10-45,10Z" />
      <glyph unicode="e" glyph-name="e" horiz-adv-x="485" d="M442,196l-248-2q9-35 34-51.5T297,126q49,0 143,25l14-10L424,9Q345-12 277-12Q153-12 83.5,54T14,236q0,115 66,181t181,66q99,0 153.5-52T469,286q0-30-6-65l-21-25ZM304,306q0,53-45,53q-55,0-67-71l110,4l2,14Z" />
      <glyph unicode="f" glyph-name="f" horiz-adv-x="360" d="M340,704q46,0 96-9L425,554l-13-9q-61,24-93,24q-20,0-30.5-9.5T277,527l-1-60H382l5-10l-8-103H274l-3-144L279,0H84l9,190L91,354H20l-5,10l8,103H89v25q0,102 65.5,157T340,704Z" />
      <glyph unicode="g" glyph-name="g" horiz-adv-x="516" d="M535,382q-26-4-62-6l-2-4q9-22 9-48q0-78-61-124T253,154q-27,0-53,3q-3-7-3-12q0-15 20-20t69-10q61-5 103-14.5t73-38T493-20q0-53-30-93t-85.5-62T248-197q-103,0-158,36.5T35-60Q70-24 113,3V9Q44,37 44,112q35,34 76,61v6q-40,19-61,52.5T38,311q0,80 60.5,125.5T265,482q62,0 111-20q72,16 146,48l13-11V382ZM257,264q30,0 44,12.5T315,317t-12.5,39T262,367q-33,0-45.5-10.5T204,320q0-31 12-43.5T257,264ZM333-54q0,20-23.5,27T233-14l-31,3q-16-16-16-36q0-48 79-48q35,0 51.5,9T333-54Z" />
      <glyph unicode="h" glyph-name="h" horiz-adv-x="549" d="M316,0l10,264q0,61-47,61q-23,0-47-14l-2-101L238,0H43l9,190L45,689l194,13l-5-298h5q53,53 117,74q75,0 114.5-34T508,346l-4-136L511,0H316Z" />
      <glyph unicode="i" glyph-name="i" horiz-adv-x="284" d="M52,190L45,461l194,13l-9-264L238,0H43l9,190Zm93,538q44,0 68.5-25T238,633q0-48-27-76t-74-28q-46,0-70,24.5T43,624q0,48 27.5,76T145,728Z" />
      <glyph unicode="j" glyph-name="j" horiz-adv-x="306" d="M263,472l-9-262l7-175q0-80-46-136.5T72-197L7-111v16Q42-76 59-45.5T76,31V190L72,354H8L-2,365L6,467H77l181,9l5-4ZM159,728q44,0 68.5-25T252,633q0-48-27-76t-74-28q-46,0-70,24.5T57,624q0,48 27.5,76T159,728Z" />
      <glyph unicode="k" glyph-name="k" horiz-adv-x="540" d="M407,263q47-96 127-231l-1-20Q468-1 350-12L330-2Q271,106 230,221V210L238,0H43l9,190L45,689l194,13l-8-428l76,142l21,56H527L407,263Z" />
      <glyph unicode="l" glyph-name="l" horiz-adv-x="282" d="M230,210L238,0H43l9,190L45,689l194,13l-9-492Z" />
      <glyph unicode="m" glyph-name="m" horiz-adv-x="814" d="M583,0l10,265q0,61-47,61q-22,0-47-13l-3-103L504,0H311l10,265q0,61-48,61q-23,0-48-14V210L233,0H40l9,190L42,461l183,13V404h7q53,53 117,74q55,0 91.5-19T491,404h5q52,51 126,74q74,0 113-34t38-98l-4-136L776,0H583Z" />
      <glyph unicode="n" glyph-name="n" horiz-adv-x="544" d="M311,0l10,264q0,61-47,61q-23,0-47-14V210L235,0H40l9,190L42,461l185,13V404h7q52,52 117,74q75,0 114.5-34T503,346l-4-136L506,0H311Z" />
      <glyph unicode="o" glyph-name="o" horiz-adv-x="497" d="M257,484q112,0 169-60t57-177q0-128-61.5-193.5T240-12Q128-12 71,47.5T14,223q0,129 61.5,195T257,484ZM243,353q-20,0-30-7.5T199.5,318T196,257q0-61 4.5-90.5t16.5-41T254,114q20,0 29.5,7.5t13,28T300,211q0,60-4.5,89.5t-16.5,41T243,353Z" />
      <glyph unicode="p" glyph-name="p" horiz-adv-x="529" d="M329,479q88,0 137-61t49-170q0-124-63.5-192T273-12q-20,0-43,3l4-176H40l8,375L41,461l185,13V404h7q42,50 96,75ZM262,108q37,0 53.5,26T332,217q0,56-16,82t-51,26q-22,0-39-12V210l2-97q20-5 34-5Z" />
      <glyph unicode="q" glyph-name="q" horiz-adv-x="529" d="M473,484l16-9l-9-265l7-395H293l9,198V46h-7Q259,10 217-9Q121-9 67.5,55T14,228q0,82 30.5,139t84,85.5T249,481q34,0 59-6.5T370,454l103,30ZM253,352q-33,0-45-19.5T196,259q0-64 14.5-94T254,135q25,0 47,20l1,33l-3,154q-23,10-46,10Z" />
      <glyph unicode="r" glyph-name="r" horiz-adv-x="376" d="M351,473q13,0 23-2V296l-19-6q-13,8-36,8q-22,0-46.5-10T227,260V210L235,0H40l9,190L42,461l185,13V386h9q43,87 115,87Z" />
      <glyph unicode="s" glyph-name="s" horiz-adv-x="402" d="M232,483q73,0 148-25L355,323l-22-7q-34,21-69,33.5T209,362q-26,0-26-18q0-13 15-22t49-21q43-16 71-31t49-43.5T388,154T366,72.5t-70-61T175-12Q93-12 7,14L30,157l16,12q37-29 80.5-46T199,106q28,0 28,19q0,13-15,22t-49,21q-43,16-71.5,31T42,242.5T21,316q0,47 25,85t72.5,60T232,483Z" />
      <glyph unicode="t" glyph-name="t" horiz-adv-x="361" d="M280,142q26,0 60,12l12-15L334,31Q313,18 284,7.5T228-7Q149-7 104,29T59,125l6,104L64,354H2l-5,10L5,467H64l-1,85l181,48l12-11l-5-122h98l5-10l-8-103H247l-6-169q0-24 8.5-33.5T280,142Z" />
      <glyph unicode="u" glyph-name="u" horiz-adv-x="536" d="M524,120L507,20Q459-11 407-10Q349,2 323,74H311q-28-31-55-50.5T196-6Q122-6 81.5,28T41,126l3,103L38,461l185,13V203q0-30 10-42.5T264,148q13,0 22.5,3.5T307,163V461l185,13L481,148q0-11 3.5-16t10.5-5t17,3l12-10Z" />
      <glyph unicode="v" glyph-name="v" horiz-adv-x="468" d="M195,381l35-202h10l45,190l18,103H471L331,0H119L0,469l182,7l13-95Z" />
      <glyph unicode="w" glyph-name="w" horiz-adv-x="725" d="M191,387l27-196h10l38,185l17,96H471l9-85l31-195h10l35,184l18,96H734L597,0H414L371,234H359L309,0H118L5,469l176,7l10-89Z" />
      <glyph unicode="x" glyph-name="x" horiz-adv-x="490" d="M231,407l29-63l36,72l27,55H490L365,238L490,5L285-8L260,64l-28,64L194,55L170,0H2L125,234L0,468l209,7l22-68Z" />
      <glyph unicode="y" glyph-name="y" horiz-adv-x="471" d="M190,386l51-197h10l47,179l19,104H481L343,49Q320-20 288-64.5t-81-75T80-194l-13,2Q17-145-18-76l7,17Q81-45 159,0L-12,469l186,7l16-90Z" />
      <glyph unicode="z" glyph-name="z" horiz-adv-x="438" d="M148,472H347l66,1V359L224,120h96l95,7l10-12L413-3L271,0H105L20-5V109L212,352H122l-95-7L17,357L29,475l119-3Z" />
      <glyph unicode="{" glyph-name="braceleft" horiz-adv-x="302" d="M218,659q41,0 80-12l7-13l-15-96q-18,5-33,5q-22,0-34-12.5T211,495q0-20 13-53q5-14 9-30t4-28q0-33-18-60t-52-43v-7q34-16 52-43t18-58q0-23-14-61q-5-13-8.5-27T211,60q0-23 12-35.5T257,12q15,0 33,5l15-96l-7-13q-39-12-80-12q-77,0-118,32.5T59,20q0,21 4,43.5T72,106q9,38 9,58q0,47-55,70v87q55,23 55,70q0,20-9,58q-5,20-9,42.5T59,535q0,59 41,91.5T218,659Z" />
      <glyph unicode="|" glyph-name="bar" horiz-adv-x="300" d="M226,797l-5-503l1-539L90-256L75-240l1,519l1,520l135,11l14-13Z" />
      <glyph unicode="}" glyph-name="braceright" horiz-adv-x="302" d="M84-104Q43-104 4-92L-3-79L12,17q18-5 33-5q22,0 34,12.5T91,60q0,20-13,53q-5,14-9,30t-4,28q0,33 18,60t52,43v7q-34,16-52,43T65,382q0,23 14,61q5,13 8.5,27T91,495q0,23-12,35.5T45,543q-15,0-33-5L-3,634l7,13q39,12 80,12q77,0 118-32.5T243,535q0-21-4-43.5T230,449q-9-38-9-58q0-47 55-70V234q-55-23-55-70q0-20 9-58q5-20 9-42.5T243,20q0-59-41-91.5T84-104Z" />
      <glyph unicode="~" glyph-name="asciitilde" horiz-adv-x="480" d="M151,212q-16,0-31-12.5t-28.5-28T73,151H57L6,214v16L98,345l16,7q32-6 107-29q9-3 51-15.5T331,295q15,0 29.5,12T389,334.5T408,356h16l50-63V277L383,162l-16-6q-30,4-115,31q-32,10-61,17.5T151,212Z" />
      <glyph unicode="&#xa0;" glyph-name="uni00A0" horiz-adv-x="135" />
      <glyph unicode="&#xa1;" glyph-name="exclamdown" horiz-adv-x="274" d="M37-174L89,216l109,16l19-18l17-378l-17-22L60-197L37-174ZM156,285q-44,0-68.5,25T63,380q0,48 27,76t74,28q46,0 70-24.5T258,389q0-48-27.5-76T156,285Z" />
      <glyph unicode="&#xa2;" glyph-name="cent" horiz-adv-x="382" d="M273,179q31,0 85,15l13-11L351,40q-36-8-55-10l-8-159H153l-14,15l8,153Q82,61 48,119T14,267q0,96 40.5,158.5T170,511l7,151H308l19-16l-7-128q38-8 62-19L351,351l-14-7q-27,11-44,16t-32,5q-31,0-46-18.5T200,288q0-57 17.5-83T273,179Z" />
      <glyph unicode="&#xa3;" glyph-name="sterling" horiz-adv-x="481" d="M461,127L448-5L291,0H17L11,9l8,108q40,10 56.5,31.5T92,208v41H17l-6,9l8,95H90v39q-1,98 63.5,151.5T338,597q63,0 122-13L449,449l-12-8q-71,32-117,32q-30,0-44-12t-14-38l-1-70H398l5-9l-7-95H259v-2q0-41-8-64t-33-51v-5H345l111,8l5-8Z" />
      <glyph unicode="&#xa4;" glyph-name="currency" horiz-adv-x="434" d="M458,490V474l-72-61q17-36 17-74q0-32-13-65l72-55l3-17l-84-89H365l-59,71q-34-18-76-18q-34,0-67,14l-54-70l-17-3L3,191l1,16l70,59q-17,34-17,73q0,35 14,68L1,462l-3,17l84,89l16-1l60-71q35,16 72,16q33,0 65-13l57,72l17,3l89-84ZM230,411q-34,0-53-19t-19-53t19-53t53-19t53,19t19,53t-19,53t-53,19Z" />
      <glyph unicode="&#xa5;" glyph-name="yen" horiz-adv-x="579" d="M417,240l-32-55H547l8-7l-6-79H366l5-99H201l6,99H41l-6,9l5,77H188l-27,55H41l-6,9l5,77h77L23,511H201l15-45l71-144h10l81,138l20,51H572L466,326h81l8-7l-6-79H417Z" />
      <glyph unicode="&#xa6;" glyph-name="brokenbar" horiz-adv-x="300" d="M226,797l-4-415L89,365L76,376l1,423l135,11l14-13Zm-5-652l1-390L90-256L75-240l1,386l130,15l15-16Z" />
      <glyph unicode="&#xa7;" glyph-name="section" horiz-adv-x="446" d="M341,173q25-18 39-41.5T394,75q0-46-27.5-85t-77-62T179-95q-36,0-84.5,7.5T8-68L32,77L48,88q38-29 79.5-46T199,25t30,16q0,11-15,18.5T166,77q-47,16-79,31.5T31,154T7,231q0,46 23.5,88T94,390q-49,35-49,95q0,47 28,87t78,63.5T262,659q34,0 74-7t70-18L383,496l-22-8q-35,22-68.5,34.5T237,535q-14,0-21-5t-7-12q0-11 15.5-19T273,480q46-15 78.5-30.5t56.5-45T432,330t-24.5-87T341,173ZM171,283q0-20 16-33.5T234,223q33,25 33,54q0,21-17,34.5T200,339q-29-27-29-56Z" />
      <glyph unicode="&#xa8;" glyph-name="dieresis" horiz-adv-x="388" d="M102,717q38,0 59.5-21.5T183,635q0-42-23.5-66.5T95,544q-40,0-61,21.5T13,627q0,42 24,66t65,24Zm193,0q38,0 59.5-21.5T376,635q0-42-23.5-66.5T288,544q-40,0-61,21.5T206,627q0,42 24,66t65,24Z" />
      <glyph unicode="&#xa9;" glyph-name="copyright" horiz-adv-x="689" d="M344,598q91,0 160-38T611,453t38-160T611,133T504,26T344-12q-90,0-159,38T78,133T40,293T78,453T185,560t159,38Zm0-61q-71,0-126-30.5t-85.5-86T102,293t30.5-127.5t85.5-86T344,49q72,0 127,30.5t85.5,86T587,293T556.5,420.5t-85.5,86T344,537Zm30-73q37,0 84-9L436,355l-7-5q-12,5-29,8t-31,3q-26,0-36-11t-10-43q0-40 12.5-57.5T378,232q24,0 58,4l10-6l-10-99q-12-2-35-2H368q-179,0-179,163q0,81 48.5,126.5T374,464Z" />
      <glyph unicode="&#xaa;" glyph-name="ordfeminine" horiz-adv-x="364" d="M187,655q66,0 101-26t35-74q0-28-3-70l-2-56q0-9 2-12.5t7-3.5q8,0 12,2l9-8l-13-71q-15-11-28.5-15.5T276,316q-30,0-44.5,10.5T208,364h-5q-29-34-70-49q-54,0-86,29T15,423q0,77 81,89l99,12l1,5q0,17-7.5,24T164,560q-40,0-103-32l-8,5L38,622q33,16 72,24.5t77,8.5ZM158,459q-10-2-14.5-7T139,436q0-27 25-27q16,0 31,9v45l-37-4Z" />
      <glyph unicode="&#xab;" glyph-name="guillemotleft" horiz-adv-x="466" d="M254,214v27L379,425l91-47l4-17L394,230l80-130l-4-17L379,36L254,214ZM48,214v27L173,425l91-47l4-17L188,230l80-130l-4-17L173,36L48,214Z" />
      <glyph unicode="&#xac;" glyph-name="logicalnot" horiz-adv-x="480" d="M440,311V38L323,29L310,41V190H27L15,203l9,117H434l6-9Z" />
      <glyph unicode="&#xad;" glyph-name="uni00AD" horiz-adv-x="299" d="M273,326l1-120L39,168L25,182V302l234,38l14-14Z" />
      <glyph unicode="&#xae;" glyph-name="registered" horiz-adv-x="454" d="M227,703q86,0 139-53t53-139T366,372T227,319T88,372T35,511T88,650t139,53Zm0-342q68,0 109,41.5T377,511q0,68-41,109T227,661q-67,0-108.5-41T77,511q0-67 41.5-108.5T227,361Zm93,192q0-17-9.5-32.5T284,495q25-35 48-62l-1-7q-19-7-62-11l-8,5q-17,30-29,56H207l3-57H146l3,56l-3,140l100,1q35,0 54.5-16.5T320,553Zm-67-5q0,11-7,16t-23,6l-13-1l-2-48l27-2q10,6 14,12t4,17Z" />
      <glyph unicode="&#xaf;" glyph-name="macron" horiz-adv-x="388" d="M343,678l-9-107H58L46,584l9,107H331l12-13Z" />
      <glyph unicode="&#xb0;" glyph-name="degree" horiz-adv-x="292" d="M146,659q37,0 68-18t49-49t18-68t-18-68t-49-49t-68-18T78,407T29,456T11,524t18,68t49,49t68,18Zm0-79q-25,0-40.5-15.5T90,524t15.5-40.5T146,468t40.5,15.5T202,524t-15.5,40.5T146,580Z" />
      <glyph unicode="&#xb1;" glyph-name="plusminus" horiz-adv-x="480" d="M306,469V320H454l12-13l-9-117H306V38L189,29L176,41V190H27L15,203l9,117H176V472l117,9l13-12ZM466-28l-9-117H27L15-132L24-15H454l12-13Z" />
      <glyph unicode="&#xb2;" glyph-name="uni00B2" horiz-adv-x="375" d="M192,707q59,0 97.5-27T328,604q0-29-18-63t-59-82l-35-40l2-3h56l72,7l7-9L337,301l-108,6H59l-26-2l-7,5v84l90,89q34,34 49,52.5T180,569q0,20-26,20q-19,0-44-11T63,549H47L22,657q92,50 170,50Z" />
      <glyph unicode="&#xb3;" glyph-name="uni00B3" horiz-adv-x="337" d="M161,708q67,0 107.5-28T309,607q0-58-61-91v-4q35-11 51.5-33T316,422q0-56-55.5-89.5T114,299q-44,0-86,8L19,409l10,9q46-14 88-14q30,0 43.5,5.5T174,428q0,17-28,17H84l-7,8l2,95l33,2q22,1 34.5,8T159,578q0,10-7,14t-24,4q-26,0-78-19H35L12,672q34,17 72.5,26.5T161,708Z" />
      <glyph unicode="&#xb4;" glyph-name="acute" horiz-adv-x="388" d="M269,754l69-107l-3-17Q193,558 112,521l-17,1L51,594q102,76 201,161l17-1Z" />
      <glyph unicode="&#xb5;" glyph-name="uni00B5" horiz-adv-x="552" d="M534,120L517,20Q469-11 417-10Q359,2 333,74H321Q295,28 258-6q-21,0-39,3l14-182H49l4,375L48,461l185,13V210l-1-8l1,1q0-30 10-42.5T274,148q13,0 22.5,3.5T317,163V461l185,13L491,148q0-11 3.5-16t10.5-5t17,3l12-10Z" />
      <glyph unicode="&#xb6;" glyph-name="paragraph" horiz-adv-x="564" d="M556,634L544,499H484l-7-286l2-69q0-59-21-101.5t-71.5-76T248-95L198-6V10q53,26 74.5,54T294,137v56l-7,307H256q-17-8-26.5-31T220,412q0-31 12-63.5T267,287l-69-97q-91,25-139.5,84T10,418q0,110 71,169.5T284,647H545l11-13Z" />
      <glyph unicode="&#xb7;" glyph-name="periodcentered" horiz-adv-x="228" d="M118,360q44,0 68.5-25T211,265q0-48-27-76t-74-28q-46,0-70,24.5T16,256q0,48 27.5,76T118,360Z" />
      <glyph unicode="&#xb8;" glyph-name="cedilla" horiz-adv-x="388" d="M222-43l34-19q24-13 34-28.5T300-125q0-37-29.5-60.5T190-209q-49,0-92,24l11,75l8,3q15-13 32-20.5t28-7.5q16,0 16,14q0,9-12,15L131-79L153,33h83L222-43Z" />
      <glyph unicode="&#xb9;" glyph-name="uni00B9" horiz-adv-x="296" d="M238,692l-7-244l6-141H87l6,127V547L13,535l-9,6V654l213,52l21-14Z" />
      <glyph unicode="&#xba;" glyph-name="ordmasculine" horiz-adv-x="356" d="M185,655q157,0 157-163q0-178-171-178Q14,314 14,477q0,178 171,178Zm-9-93q-20,0-26-13t-6-55q0-39 3-57.5t10.5-26T180,403q20,0 26.5,14t6.5,58q0,37-3,55t-11,25t-23,7Z" />
      <glyph unicode="&#xbb;" glyph-name="guillemotright" horiz-adv-x="466" d="M418,250V223L293,39L202,86l-4,17l80,131L198,364l4,17l91,47L418,250Zm-206,0V223L87,39L-4,86l-4,17L72,234L-8,364l4,17l91,47L212,250Z" />
      <glyph unicode="&#xbc;" glyph-name="onequarter" horiz-adv-x="818" d="M238,639l-7-244l6-141H87l6,127V494L13,482l-9,6V601l213,52l21-14Zm375,8l10-24L161-94L79-44L73-27L537,694l76-47ZM794,69l-46,1l5-61l-8-9L630-6l-8,8l3,70H538l-83-3l-9,11v88L612,393H748l-3-215h47l8-12l-6-97ZM570,178h58l-1,64h-8l-49-64Z" />
      <glyph unicode="&#xbd;" glyph-name="onehalf" horiz-adv-x="808" d="M238,639l-7-244l6-141H87l6,127V494L13,482l-9,6V601l213,52l21-14Zm375,8l10-24L161-94L79-44L73-27L537,694l76-47Zm12-247q59,0 97.5-27T761,297q0-29-18-63t-59-82l-35-40l2-3h56l72,7l7-9L770-6L662,0H492L466-2l-7,5V87l90,89q35,35 49.5,53T613,262q0,20-26,20q-19,0-44-11t-47-29H480L455,350q92,50 170,50Z" />
      <glyph unicode="&#xbe;" glyph-name="threequarters" horiz-adv-x="859" d="M161,655q67,0 107.5-28T309,554q0-58-61-91v-4q35-11 51.5-33T316,369q0-56-55.5-89.5T114,246q-44,0-86,8L19,356l10,9q46-14 88-14q30,0 43.5,5.5T174,375q0,17-28,17H84l-7,8l2,95l33,2q22,1 34.5,8T159,525q0,10-7,14t-24,4q-26,0-78-19H35L12,619q34,17 72.5,26.5T161,655Zm493-8l10-24L202-94L120-44l-6,17L578,694l76-47ZM835,69l-46,1l5-61l-8-9L671-6l-8,8l3,70H579l-83-3l-9,11v88L653,393H789l-3-215h47l8-12l-6-97ZM611,178h58l-1,64h-8l-49-64Z" />
      <glyph unicode="&#xbf;" glyph-name="questiondown" horiz-adv-x="351" d="M273-202q-145,6-223,49T-28-35Q-28,8-2.5,45.5T71,108l58,30l3,6l-7,71l136,20l13-12L287,97l-6-11L197,53Q149,33 149-5q0-28 35-42T311-67l14-18L290-193l-17-9ZM185,285q-44,0-68.5,25T92,380q0,48 27,76t74,28q46,0 70-24.5T287,389q0-48-27.5-76T185,285Z" />
      <glyph unicode="&#xc0;" glyph-name="Agrave" horiz-adv-x="627" d="M617,0H414L396,107l-1,3l-98,2l-82-4L198,0H2L198,647H440L617,0ZM365,256L321,468H309L253,256l56-1l56,1ZM237,918q107-63 225-123l-30-79l-17-4q-106,27-238,69l-6,16l49,117l17,4Z" />
      <glyph unicode="&#xc1;" glyph-name="Aacute" horiz-adv-x="627" d="M617,0H414L396,107l-1,3l-98,2l-82-4L198,0H2L198,647H440L617,0ZM365,256L321,468H309L253,256l56-1l56,1Zm63,658l49-117l-6-16q-132-42-238-69l-17,4l-30,79q118,60 225,123l17-4Z" />
      <glyph unicode="&#xc2;" glyph-name="Acircumflex" horiz-adv-x="627" d="M617,0H414L396,107l-1,3l-98,2l-82-4L198,0H2L198,647H440L617,0ZM365,256L321,468H309L253,256l56-1l56,1ZM147,797q90,62 153,119h34q63-57 153-119l-34-76H435L317,781L199,721H181l-34,76Z" />
      <glyph unicode="&#xc3;" glyph-name="Atilde" horiz-adv-x="627" d="M617,0H414L396,107l-1,3l-98,2l-82-4L198,0H2L198,647H440L617,0ZM365,256L321,468H309L253,256l56-1l56,1ZM510,861V845L429,732l-16-6q-27,3-86,20q-8,2-32.5,8T260,760q-17,0-30-13t-39-45H175l-57,55v16l81,113l16,6q27-3 86-20q8-2 32.5-8t34.5-6q17,0 30,13t39,45h16l57-55Z" />
      <glyph unicode="&#xc4;" glyph-name="Adieresis" horiz-adv-x="627" d="M617,0H414L396,107l-1,3l-98,2l-82-4L198,0H2L198,647H440L617,0ZM365,256L321,468H309L253,256l56-1l56,1ZM222,892q38,0 59.5-21.5T303,810q0-42-23.5-66.5T215,719q-40,0-61,21.5T133,802q0,42 24,66t65,24Zm193,0q38,0 59.5-21.5T496,810q0-42-23.5-66.5T408,719q-40,0-61,21.5T326,802q0,42 24,66t65,24Z" />
      <glyph unicode="&#xc5;" glyph-name="Aring" horiz-adv-x="627" d="M617,0H414L396,107l-1,3l-98,2l-82-4L198,0H2L198,647H440L617,0ZM365,256L321,468H309L253,256l56-1l56,1ZM319,931q106,0 106-104q0-55-29-84.5T311,713q-106,0-106,107q0,55 29,83t85,28Zm-5-78q-19,0-26.5-6.5T280,823q0-19 8-26.5t28-7.5q19,0 26.5,7t7.5,24q0,18-8,25.5T314,853Z" />
      <glyph unicode="&#xc6;" glyph-name="AE" horiz-adv-x="840" d="M840,146L828,0H392l-5,107l-5,66L211,121l-1-2L176,0H-20L256,647H776l11-14L774,487l-149,6H549l8-114l169,54l14-11l18-138L568,229l5-75h91l165,6l11-14ZM369,322L357,468H345L278,294l91,28Z" />
      <glyph unicode="&#xc7;" glyph-name="Ccedilla" horiz-adv-x="514" d="M352,658q86,0 162-27L480,472l-13-8q-26,14-60,22.5T344,495q-61,0-88-35.5T229,341q0-97 31-141.5T357,155q28,0 62.5,5.5T480,176l16-10L480,8Q420-11 341-11Q180-11 98.5,73T17,318q0,162 87.5,251T352,658ZM351-42l34-19q24-13 34-28.5T429-124q0-37-29.5-60.5T319-208q-49,0-92,24l11,75l8,3q15-13 32-20.5t28-7.5q16,0 16,14q0,9-12,15L260-78L282,34h83L351-42Z" />
      <glyph unicode="&#xc8;" glyph-name="Egrave" horiz-adv-x="541" d="M517,160l11-14L516,0H60L70,190L60,647H524l11-14L522,487l-159,6H260l-2-91h99l104,3l11-14L460,245l-116,3H254l-1-38l2-56h96l166,6ZM214,918q107-63 225-123l-30-79l-17-4q-106,27-238,69l-6,16l49,117l17,4Z" />
      <glyph unicode="&#xc9;" glyph-name="Eacute" horiz-adv-x="541" d="M517,160l11-14L516,0H60L70,190L60,647H524l11-14L522,487l-159,6H260l-2-91h99l104,3l11-14L460,245l-116,3H254l-1-38l2-56h96l166,6ZM405,914l49-117l-6-16q-132-42-238-69l-17,4l-30,79q118,60 225,123l17-4Z" />
      <glyph unicode="&#xca;" glyph-name="Ecircumflex" horiz-adv-x="541" d="M517,160l11-14L516,0H60L70,190L60,647H524l11-14L522,487l-159,6H260l-2-91h99l104,3l11-14L460,245l-116,3H254l-1-38l2-56h96l166,6ZM124,797q90,62 153,119h34q63-57 153-119l-34-76H412L294,781L176,721H158l-34,76Z" />
      <glyph unicode="&#xcb;" glyph-name="Edieresis" horiz-adv-x="541" d="M517,160l11-14L516,0H60L70,190L60,647H524l11-14L522,487l-159,6H260l-2-91h99l104,3l11-14L460,245l-116,3H254l-1-38l2-56h96l166,6ZM199,892q38,0 59.5-21.5T280,810q0-42-23.5-66.5T192,719q-40,0-61,21.5T110,802q0,42 24,66t65,24Zm193,0q38,0 59.5-21.5T473,810q0-42-23.5-66.5T385,719q-40,0-61,21.5T303,802q0,42 24,66t65,24Z" />
      <glyph unicode="&#xcc;" glyph-name="Igrave" horiz-adv-x="327" d="M253,210L261,0H60L70,190L60,647H264L253,210ZM84,918q107-63 225-123l-30-79l-17-4Q156,739 24,781l-6,16L67,914l17,4Z" />
      <glyph unicode="&#xcd;" glyph-name="Iacute" horiz-adv-x="327" d="M253,210L261,0H60L70,190L60,647H264L253,210Zm22,704l49-117l-6-16Q186,739 80,712l-17,4L33,795q118,60 225,123l17-4Z" />
      <glyph unicode="&#xce;" glyph-name="Icircumflex" horiz-adv-x="327" d="M253,210L261,0H60L70,190L60,647H264L253,210ZM-6,797q90,62 153,119h34q63-57 153-119l-34-76H282L164,781L46,721H28L-6,797Z" />
      <glyph unicode="&#xcf;" glyph-name="Idieresis" horiz-adv-x="327" d="M253,210L261,0H60L70,190L60,647H264L253,210ZM83,884q35,0 54-19.5T156,809q0-38-21.5-60T76,727q-36,0-55,19.5T2,802q0,38 21.5,60T83,884Zm166,0q35,0 54.5-19.5T323,809q0-38-21.5-60T243,727t-56,19.5T168,802q0,38 21.5,60T249,884Z" />
      <glyph unicode="&#xd0;" glyph-name="Eth" horiz-adv-x="695" d="M382,651q143,0 219.5-77.5T678,350q0-173-89-266T334-9Q230-9 90,0l10,190L90,647l292,4ZM372,140q47,0 71.5,37.5T468,301q0,73-10,115t-32,60.5T365,495q-38,0-75-4l-7-281l2-62q60-8 87-8Zm5,227l-7-117H25l-9,13l6,117H368l9-13Z" />
      <glyph unicode="&#xd1;" glyph-name="Ntilde" horiz-adv-x="710" d="M639,211L647,0H429L247,346H235l-1-112L242,0H60L70,190L60,647H278L460,301h12l-6,339l184,11L639,211ZM550,861V845L469,732l-16-6q-27,3-86,20q-8,2-32.5,8T300,760q-17,0-30-13t-39-45H215l-57,55v16l81,113l16,6q27-3 86-20q8-2 32.5-8t34.5-6q17,0 30,13t39,45h16l57-55Z" />
      <glyph unicode="&#xd2;" glyph-name="Ograve" horiz-adv-x="653" d="M341,659q141,0 218-83.5T636,340q0-168-84.5-260T312-12Q171-12 94,72.5T17,312q0,166 84.5,256.5T341,659ZM323,499q-39,0-59-13.5T235.5,438T227,339q0-83 9-126t30.5-60T330,136q39,0 59,13.5t28.5,48T426,297q0,82-9,125t-30.5,60T323,499ZM249,918q107-63 225-123l-30-79l-17-4q-106,27-238,69l-6,16l49,117l17,4Z" />
      <glyph unicode="&#xd3;" glyph-name="Oacute" horiz-adv-x="653" d="M341,659q141,0 218-83.5T636,340q0-168-84.5-260T312-12Q171-12 94,72.5T17,312q0,166 84.5,256.5T341,659ZM323,499q-39,0-59-13.5T235.5,438T227,339q0-83 9-126t30.5-60T330,136q39,0 59,13.5t28.5,48T426,297q0,82-9,125t-30.5,60T323,499ZM440,914l49-117l-6-16q-132-42-238-69l-17,4l-30,79q118,60 225,123l17-4Z" />
      <glyph unicode="&#xd4;" glyph-name="Ocircumflex" horiz-adv-x="653" d="M341,659q141,0 218-83.5T636,340q0-168-84.5-260T312-12Q171-12 94,72.5T17,312q0,166 84.5,256.5T341,659ZM323,499q-39,0-59-13.5T235.5,438T227,339q0-83 9-126t30.5-60T330,136q39,0 59,13.5t28.5,48T426,297q0,82-9,125t-30.5,60T323,499ZM159,797q90,62 153,119h34q63-57 153-119l-34-76H447L329,781L211,721H193l-34,76Z" />
      <glyph unicode="&#xd5;" glyph-name="Otilde" horiz-adv-x="653" d="M341,659q141,0 218-83.5T636,340q0-168-84.5-260T312-12Q171-12 94,72.5T17,312q0,166 84.5,256.5T341,659ZM323,499q-39,0-59-13.5T235.5,438T227,339q0-83 9-126t30.5-60T330,136q39,0 59,13.5t28.5,48T426,297q0,82-9,125t-30.5,60T323,499ZM522,861V845L441,732l-16-6q-27,3-86,20q-8,2-32.5,8T272,760q-17,0-30-13t-39-45H187l-57,55v16l81,113l16,6q27-3 86-20q8-2 32.5-8t34.5-6q17,0 30,13t39,45h16l57-55Z" />
      <glyph unicode="&#xd6;" glyph-name="Odieresis" horiz-adv-x="653" d="M341,659q141,0 218-83.5T636,340q0-168-84.5-260T312-12Q171-12 94,72.5T17,312q0,166 84.5,256.5T341,659ZM323,499q-39,0-59-13.5T235.5,438T227,339q0-83 9-126t30.5-60T330,136q39,0 59,13.5t28.5,48T426,297q0,82-9,125t-30.5,60T323,499ZM234,892q38,0 59.5-21.5T315,810q0-42-23.5-66.5T227,719q-40,0-61,21.5T145,802q0,42 24,66t65,24Zm193,0q38,0 59.5-21.5T508,810q0-42-23.5-66.5T420,719q-40,0-61,21.5T338,802q0,42 24,66t65,24Z" />
      <glyph unicode="&#xd7;" glyph-name="multiply" horiz-adv-x="480" d="M437,378l1-18L333,255L437,150V132L348,56L241,163L133,55L44,132v17L149,255L44,360v18l89,76L241,347L348,454l89-76Z" />
      <glyph unicode="&#xd8;" glyph-name="Oslash" horiz-adv-x="653" d="M545,590q91-85 91-250q0-168-84.5-260T312-12q-29,0-61,5L187-139L63-92L55-75L117,51Q68,92 42.5,158.5T17,312q0,166 84.5,256.5T341,659q38,0 72-6l62,126l120-46l12-19L545,590ZM330,136q39,0 59,13.5t28.5,48T426,297q0,82-9,125t-30.5,60T323,499q-39,0-59-13.5T235.5,438T227,339q0-83 9-126t30.5-60T330,136Z" />
      <glyph unicode="&#xd9;" glyph-name="Ugrave" horiz-adv-x="653" d="M600,319l-1-103q-1-110-74-169T316-12Q185-12 115.5,47T49,216l3,103L46,647H247l-9-404q-1-51 19.5-74T324,146q47,0 68,23t20,74l-9,404H607l-7-328ZM249,918q107-63 225-123l-30-79l-17-4q-106,27-238,69l-6,16l49,117l17,4Z" />
      <glyph unicode="&#xda;" glyph-name="Uacute" horiz-adv-x="653" d="M600,319l-1-103q-1-110-74-169T316-12Q185-12 115.5,47T49,216l3,103L46,647H247l-9-404q-1-51 19.5-74T324,146q47,0 68,23t20,74l-9,404H607l-7-328ZM440,914l49-117l-6-16q-132-42-238-69l-17,4l-30,79q118,60 225,123l17-4Z" />
      <glyph unicode="&#xdb;" glyph-name="Ucircumflex" horiz-adv-x="653" d="M600,319l-1-103q-1-110-74-169T316-12Q185-12 115.5,47T49,216l3,103L46,647H247l-9-404q-1-51 19.5-74T324,146q47,0 68,23t20,74l-9,404H607l-7-328ZM159,797q90,62 153,119h34q63-57 153-119l-34-76H447L329,781L211,721H193l-34,76Z" />
      <glyph unicode="&#xdc;" glyph-name="Udieresis" horiz-adv-x="653" d="M600,319l-1-103q-1-110-74-169T316-12Q185-12 115.5,47T49,216l3,103L46,647H247l-9-404q-1-51 19.5-74T324,146q47,0 68,23t20,74l-9,404H607l-7-328ZM234,892q38,0 59.5-21.5T315,810q0-42-23.5-66.5T227,719q-40,0-61,21.5T145,802q0,42 24,66t65,24Zm193,0q38,0 59.5-21.5T508,810q0-42-23.5-66.5T420,719q-40,0-61,21.5T338,802q0,42 24,66t65,24Z" />
      <glyph unicode="&#xdd;" glyph-name="Yacute" horiz-adv-x="594" d="M382,170L390,0H190l10,170l-1,31L-8,647H202l16-54l73-195h12l84,188l23,61H614L384,208l-2-38Zm28,744l49-117l-6-16q-132-42-238-69l-17,4l-30,79q118,60 225,123l17-4Z" />
      <glyph unicode="&#xde;" glyph-name="Thorn" horiz-adv-x="602" d="M373,558q112,0 170.5-52T602,350q0-119-76.5-184.5T308,100l-49-1l4-99H60L70,190L62,554l-2,3h2l-2,90H266l-2-89H373ZM336,240q27,15 40,36t13,58q0,44-20.5,63T301,418l-41-3l-4-171l80-4Z" />
      <glyph unicode="&#xdf;" glyph-name="germandbls" horiz-adv-x="659" d="M488,379q0-21 15.5-35T554,309q35-20 57-37t38-45.5T665,157q0-71-51-120T459-12q-77,0-156,26l23,143l16,12q33-29 72-46t65-17q24,0 24,16q0,13-13,23.5T449,172q-38,22-62,41.5T344.5,265T326,342q0,38 12,60.5T373,450q17,18 25.5,32t8.5,35q0,52-62,52q-33,0-52-16t-20-56l-5-287L276,0H81l9,190L87,354H20l-5,10l8,103H85v5q0,73 34.5,125.5t96,79.5T357,704q105,0 158.5-44T569,549q0-36-13-60t-37-52q-16-19-23.5-31T488,379Z" />
      <glyph unicode="&#xe0;" glyph-name="agrave" horiz-adv-x="503" d="M258,484q92,0 142-37.5T450,339q0-20-4-106q-4-76-4-85q0-11 3.5-16t10.5-5t17,3l12-10L468,20Q431-6 375-10q-29,2-51.5,20T289,61h-7Q238,10 182-11Q106-10 60.5,31.5T15,145q0,111 115,127l142,19v12q0,26-10.5,37T225,351q-56,0-145-48l-12,8L47,434q46,24 101.5,37T258,484ZM215,198q-14-2-20.5-10.5T188,162q0-40 37-40q24,0 47,16v68l-57-8ZM189,755q99-85 201-161l-44-72l-17-1q-81,37-223,109l-3,17l69,107l17,1Z" />
      <glyph unicode="&#xe1;" glyph-name="aacute" horiz-adv-x="503" d="M258,484q92,0 142-37.5T450,339q0-20-4-106q-4-76-4-85q0-11 3.5-16t10.5-5t17,3l12-10L468,20Q431-6 375-10q-29,2-51.5,20T289,61h-7Q238,10 182-11Q106-10 60.5,31.5T15,145q0,111 115,127l142,19v12q0,26-10.5,37T225,351q-56,0-145-48l-12,8L47,434q46,24 101.5,37T258,484ZM215,198q-14-2-20.5-10.5T188,162q0-40 37-40q24,0 47,16v68l-57-8ZM340,754l69-107l-3-17Q264,558 183,521l-17,1l-44,72q102,76 201,161l17-1Z" />
      <glyph unicode="&#xe2;" glyph-name="acircumflex" horiz-adv-x="503" d="M258,484q92,0 142-37.5T450,339q0-20-4-106q-4-76-4-85q0-11 3.5-16t10.5-5t17,3l12-10L468,20Q431-6 375-10q-29,2-51.5,20T289,61h-7Q238,10 182-11Q106-10 60.5,31.5T15,145q0,111 115,127l142,19v12q0,26-10.5,37T225,351q-56,0-145-48l-12,8L47,434q46,24 101.5,37T258,484ZM215,198q-14-2-20.5-10.5T188,162q0-40 37-40q24,0 47,16v68l-57-8ZM66,602q69,58 163,150h34q70-70 163-150l-47-72H361q-76,48-115,78q-39-30-115-78H113L66,602Z" />
      <glyph unicode="&#xe3;" glyph-name="atilde" horiz-adv-x="503" d="M258,484q92,0 142-37.5T450,339q0-20-4-106q-4-76-4-85q0-11 3.5-16t10.5-5t17,3l12-10L468,20Q431-6 375-10q-29,2-51.5,20T289,61h-7Q238,10 182-11Q106-10 60.5,31.5T15,145q0,111 115,127l142,19v12q0,26-10.5,37T225,351q-56,0-145-48l-12,8L47,434q46,24 101.5,37T258,484ZM215,198q-14-2-20.5-10.5T188,162q0-40 37-40q24,0 47,16v68l-57-8ZM441,686V670L360,557l-16-6q-27,3-86,20q-8,2-32.5,8T191,585q-17,0-30-13t-39-45H106L49,582v16l81,113l16,6q27-3 86-20q8-2 32.5-8t34.5-6q17,0 30,13t39,45h16l57-55Z" />
      <glyph unicode="&#xe4;" glyph-name="adieresis" horiz-adv-x="503" d="M258,484q92,0 142-37.5T450,339q0-20-4-106q-4-76-4-85q0-11 3.5-16t10.5-5t17,3l12-10L468,20Q431-6 375-10q-29,2-51.5,20T289,61h-7Q238,10 182-11Q106-10 60.5,31.5T15,145q0,111 115,127l142,19v12q0,26-10.5,37T225,351q-56,0-145-48l-12,8L47,434q46,24 101.5,37T258,484ZM215,198q-14-2-20.5-10.5T188,162q0-40 37-40q24,0 47,16v68l-57-8ZM153,717q38,0 59.5-21.5T234,635q0-42-23.5-66.5T146,544q-40,0-61,21.5T64,627q0,42 24,66t65,24Zm193,0q38,0 59.5-21.5T427,635q0-42-23.5-66.5T339,544q-40,0-61,21.5T257,627q0,42 24,66t65,24Z" />
      <glyph unicode="&#xe5;" glyph-name="aring" horiz-adv-x="503" d="M258,484q92,0 142-37.5T450,339q0-20-4-106q-4-76-4-85q0-11 3.5-16t10.5-5t17,3l12-10L468,20Q431-6 375-10q-29,2-51.5,20T289,61h-7Q238,10 182-11Q106-10 60.5,31.5T15,145q0,111 115,127l142,19v12q0,26-10.5,37T225,351q-56,0-145-48l-12,8L47,434q46,24 101.5,37T258,484ZM215,198q-14-2-20.5-10.5T188,162q0-40 37-40q24,0 47,16v68l-57-8Zm35,558q106,0 106-104q0-55-29-84.5T242,538q-106,0-106,107q0,55 29,83t85,28Zm-5-78q-19,0-26.5-6.5T211,648q0-19 8-26.5t28-7.5q19,0 26.5,7t7.5,24q0,18-8,25.5T245,678Z" />
      <glyph unicode="&#xe6;" glyph-name="ae" horiz-adv-x="712" d="M671,219L426,205q5-41 27.5-58.5T524,129q62,0 134,24l14-10L642,9Q611-1 574-6.5T506-12Q381-12 321,60Q268,14 209-11Q121-10 68,29T15,139q0,53 29.5,89.5T130,269l137,8v26q0,26-10,36.5T221,350q-55,0-144-48l-12,8L44,435q44,23 97.5,36T246,484q82,0 124-35q54,34 126,34q92,0 143-53.5T690,279q0-12-2-38l-17-22ZM485,357q-26,0-43.5-19T423,288l97,9q1,7 1,18q0,22-8.5,32T485,357ZM224,123q22,0 54,21q-6,23-9,49l-53-5q-14-2-20-9t-6-21q0-35 34-35Z" />
      <glyph unicode="&#xe7;" glyph-name="ccedilla" horiz-adv-x="384" d="M260,484q68,0 122-24L351,312l-14-7q-27,11-44,16t-32,5q-31,0-46-18.5T200,249q0-57 17.5-83T273,140q31,0 85,15l13-11L351,1Q299-12 226-12Q125-12 69.5,50.5T14,228q0,122 64.5,189T260,484ZM258-42l34-19q24-13 34-28.5T336-124q0-37-29.5-60.5T226-208q-49,0-92,24l11,75l8,3q15-13 32-20.5t28-7.5q16,0 16,14q0,9-12,15L167-78L189,34h83L258-42Z" />
      <glyph unicode="&#xe8;" glyph-name="egrave" horiz-adv-x="485" d="M442,196l-248-2q9-35 34-51.5T297,126q49,0 143,25l14-10L424,9Q345-12 277-12Q153-12 83.5,54T14,236q0,115 66,181t181,66q99,0 153.5-52T469,286q0-30-6-65l-21-25ZM304,306q0,53-45,53q-55,0-67-71l110,4l2,14ZM195,754q99-85 201-161l-44-72l-17-1q-81,37-223,109l-3,17l69,107l17,1Z" />
      <glyph unicode="&#xe9;" glyph-name="eacute" horiz-adv-x="485" d="M442,196l-248-2q9-35 34-51.5T297,126q49,0 143,25l14-10L424,9Q345-12 277-12Q153-12 83.5,54T14,236q0,115 66,181t181,66q99,0 153.5-52T469,286q0-30-6-65l-21-25ZM304,306q0,53-45,53q-55,0-67-71l110,4l2,14Zm42,447l69-107l-3-17Q270,557 189,520l-17,1l-44,72q102,76 201,161l17-1Z" />
      <glyph unicode="&#xea;" glyph-name="ecircumflex" horiz-adv-x="485" d="M442,196l-248-2q9-35 34-51.5T297,126q49,0 143,25l14-10L424,9Q345-12 277-12Q153-12 83.5,54T14,236q0,115 66,181t181,66q99,0 153.5-52T469,286q0-30-6-65l-21-25ZM304,306q0,53-45,53q-55,0-67-71l110,4l2,14ZM72,601q69,58 163,150h34q70-70 163-150l-47-72H367q-76,48-115,78q-39-30-115-78H119L72,601Z" />
      <glyph unicode="&#xeb;" glyph-name="edieresis" horiz-adv-x="485" d="M442,196l-248-2q9-35 34-51.5T297,126q49,0 143,25l14-10L424,9Q345-12 277-12Q153-12 83.5,54T14,236q0,115 66,181t181,66q99,0 153.5-52T469,286q0-30-6-65l-21-25ZM304,306q0,53-45,53q-55,0-67-71l110,4l2,14ZM159,716q38,0 59.5-21.5T240,634q0-42-23.5-66.5T152,543q-40,0-61,21.5T70,626q0,42 24,66t65,24Zm193,0q38,0 59.5-21.5T433,634q0-42-23.5-66.5T345,543q-40,0-61,21.5T263,626q0,42 24,66t65,24Z" />
      <glyph unicode="&#xec;" glyph-name="igrave" horiz-adv-x="284" d="M52,190L45,461l194,13l-9-264L238,0H43l9,190ZM83,755q99-85 201-161l-44-72l-17-1Q142,558 0,630l-3,17L66,754l17,1Z" />
      <glyph unicode="&#xed;" glyph-name="iacute" horiz-adv-x="284" d="M52,190L45,461l194,13l-9-264L238,0H43l9,190ZM235,754l69-107l-3-17Q159,558 78,521l-17,1L17,594q102,76 201,161l17-1Z" />
      <glyph unicode="&#xee;" glyph-name="icircumflex" horiz-adv-x="284" d="M52,190L45,461l194,13l-9-264L238,0H43l9,190ZM-39,602q69,58 163,150h34q70-70 163-150l-47-72H256q-76,48-115,78q-39-30-115-78H8l-47,72Z" />
      <glyph unicode="&#xef;" glyph-name="idieresis" horiz-adv-x="284" d="M52,190L45,461l194,13l-9-264L238,0H43l9,190ZM62,709q35,0 54-19.5T135,634q0-38-21.5-60T55,552q-36,0-55,19.5T-19,627q0,38 21.5,60T62,709Zm166,0q35,0 54.5-19.5T302,634q0-38-21.5-60T222,552t-56,19.5T147,627q0,38 21.5,60T228,709Z" />
      <glyph unicode="&#xf0;" glyph-name="eth" horiz-adv-x="507" d="M327,599Q484,452 484,250q0-127-62.5-194.5T243-12Q136-12 78.5,47T21,223q0,116 56,176t166,60h2q-23,28-56,52L78,439l-15,5L24,514l78,50q-20,11-69,34v22l127,92h11q44-24 81-51l100,64l16-4l38-71l-79-51ZM256,112q21,0 31,9.5t14,33t4,72.5q0,53-4,88q-19,11-46,11q-23,0-34-7.5t-16-29T200,225q0-46 5.5-70.5t17-33.5t33.5-9Z" />
      <glyph unicode="&#xf1;" glyph-name="ntilde" horiz-adv-x="544" d="M311,0l10,264q0,61-47,61q-23,0-47-14V210L235,0H40l9,190L42,461l185,13V404h7q52,52 117,74q75,0 114.5-34T503,346l-4-136L506,0H311ZM487,686V670L406,557l-16-6q-27,3-86,20q-8,2-32.5,8T237,585q-17,0-30-13t-39-45H152L95,582v16l81,113l16,6q27-3 86-20q8-2 32.5-8t34.5-6q17,0 30,13t39,45h16l57-55Z" />
      <glyph unicode="&#xf2;" glyph-name="ograve" horiz-adv-x="497" d="M257,484q112,0 169-60t57-177q0-128-61.5-193.5T240-12Q128-12 71,47.5T14,223q0,129 61.5,195T257,484ZM243,353q-20,0-30-7.5T199.5,318T196,257q0-61 4.5-90.5t16.5-41T254,114q20,0 29.5,7.5t13,28T300,211q0,60-4.5,89.5t-16.5,41T243,353ZM194,755q99-85 201-161l-44-72l-17-1q-81,37-223,109l-3,17l69,107l17,1Z" />
      <glyph unicode="&#xf3;" glyph-name="oacute" horiz-adv-x="497" d="M257,484q112,0 169-60t57-177q0-128-61.5-193.5T240-12Q128-12 71,47.5T14,223q0,129 61.5,195T257,484ZM243,353q-20,0-30-7.5T199.5,318T196,257q0-61 4.5-90.5t16.5-41T254,114q20,0 29.5,7.5t13,28T300,211q0,60-4.5,89.5t-16.5,41T243,353ZM345,754l69-107l-3-17Q269,558 188,521l-17,1l-44,72q102,76 201,161l17-1Z" />
      <glyph unicode="&#xf4;" glyph-name="ocircumflex" horiz-adv-x="497" d="M257,484q112,0 169-60t57-177q0-128-61.5-193.5T240-12Q128-12 71,47.5T14,223q0,129 61.5,195T257,484ZM243,353q-20,0-30-7.5T199.5,318T196,257q0-61 4.5-90.5t16.5-41T254,114q20,0 29.5,7.5t13,28T300,211q0,60-4.5,89.5t-16.5,41T243,353ZM71,602q69,58 163,150h34q70-70 163-150l-47-72H366q-76,48-115,78q-39-30-115-78H118L71,602Z" />
      <glyph unicode="&#xf5;" glyph-name="otilde" horiz-adv-x="497" d="M257,484q112,0 169-60t57-177q0-128-61.5-193.5T240-12Q128-12 71,47.5T14,223q0,129 61.5,195T257,484ZM243,353q-20,0-30-7.5T199.5,318T196,257q0-61 4.5-90.5t16.5-41T254,114q20,0 29.5,7.5t13,28T300,211q0,60-4.5,89.5t-16.5,41T243,353ZM446,686V670L365,557l-16-6q-27,3-86,20q-8,2-32.5,8T196,585q-17,0-30-13t-39-45H111L54,582v16l81,113l16,6q27-3 86-20q8-2 32.5-8t34.5-6q17,0 30,13t39,45h16l57-55Z" />
      <glyph unicode="&#xf6;" glyph-name="odieresis" horiz-adv-x="497" d="M257,484q112,0 169-60t57-177q0-128-61.5-193.5T240-12Q128-12 71,47.5T14,223q0,129 61.5,195T257,484ZM243,353q-20,0-30-7.5T199.5,318T196,257q0-61 4.5-90.5t16.5-41T254,114q20,0 29.5,7.5t13,28T300,211q0,60-4.5,89.5t-16.5,41T243,353ZM158,717q38,0 59.5-21.5T239,635q0-42-23.5-66.5T151,544q-40,0-61,21.5T69,627q0,42 24,66t65,24Zm193,0q38,0 59.5-21.5T432,635q0-42-23.5-66.5T344,544q-40,0-61,21.5T262,627q0,42 24,66t65,24Z" />
      <glyph unicode="&#xf7;" glyph-name="divide" horiz-adv-x="480" d="M466,307l-9-117H27L15,203l9,117H454l12-13ZM254,172q36,0 56-20t20-57q0-40-22.5-62.5T247,10T189.5,30T170,87q0,40 22.5,62.5T254,172Zm0,325q36,0 56-20t20-57q0-40-22.5-62.5T247,335t-57.5,20T170,412q0,40 22.5,62.5T254,497Z" />
      <glyph unicode="&#xf8;" glyph-name="oslash" horiz-adv-x="497" d="M435,413q48-58 48-166q0-128-61.5-193.5T240-12q-29,0-61,5L101-135L-9-79l-4,16L61,59Q14,118 14,223q0,129 61.5,195T257,484q30,0 60-5l71,115l105-55l9-17L435,413ZM254,114q20,0 29.5,7.5t13,28T300,211q0,60-4.5,89.5t-16.5,41T243,353q-20,0-30-7.5T199.5,318T196,257q0-61 4.5-90.5t16.5-41T254,114Z" />
      <glyph unicode="&#xf9;" glyph-name="ugrave" horiz-adv-x="536" d="M524,120L507,20Q459-11 407-10Q349,2 323,74H311q-28-31-55-50.5T196-6Q122-6 81.5,28T41,126l3,103L38,461l185,13V203q0-30 10-42.5T264,148q13,0 22.5,3.5T307,163V461l185,13L481,148q0-11 3.5-16t10.5-5t17,3l12-10ZM206,755q99-85 201-161l-44-72l-17-1q-81,37-223,109l-3,17l69,107l17,1Z" />
      <glyph unicode="&#xfa;" glyph-name="uacute" horiz-adv-x="536" d="M524,120L507,20Q459-11 407-10Q349,2 323,74H311q-28-31-55-50.5T196-6Q122-6 81.5,28T41,126l3,103L38,461l185,13V203q0-30 10-42.5T264,148q13,0 22.5,3.5T307,163V461l185,13L481,148q0-11 3.5-16t10.5-5t17,3l12-10ZM357,754l69-107l-3-17Q281,558 200,521l-17,1l-44,72q102,76 201,161l17-1Z" />
      <glyph unicode="&#xfb;" glyph-name="ucircumflex" horiz-adv-x="536" d="M524,120L507,20Q459-11 407-10Q349,2 323,74H311q-28-31-55-50.5T196-6Q122-6 81.5,28T41,126l3,103L38,461l185,13V203q0-30 10-42.5T264,148q13,0 22.5,3.5T307,163V461l185,13L481,148q0-11 3.5-16t10.5-5t17,3l12-10ZM83,602q69,58 163,150h34q70-70 163-150l-47-72H378q-76,48-115,78q-39-30-115-78H130L83,602Z" />
      <glyph unicode="&#xfc;" glyph-name="udieresis" horiz-adv-x="536" d="M524,120L507,20Q459-11 407-10Q349,2 323,74H311q-28-31-55-50.5T196-6Q122-6 81.5,28T41,126l3,103L38,461l185,13V203q0-30 10-42.5T264,148q13,0 22.5,3.5T307,163V461l185,13L481,148q0-11 3.5-16t10.5-5t17,3l12-10ZM170,717q38,0 59.5-21.5T251,635q0-42-23.5-66.5T163,544q-40,0-61,21.5T81,627q0,42 24,66t65,24Zm193,0q38,0 59.5-21.5T444,635q0-42-23.5-66.5T356,544q-40,0-61,21.5T274,627q0,42 24,66t65,24Z" />
      <glyph unicode="&#xfd;" glyph-name="yacute" horiz-adv-x="471" d="M190,386l51-197h10l47,179l19,104H481L343,49Q320-20 288-64.5t-81-75T80-194l-13,2Q17-145-18-76l7,17Q81-45 159,0L-12,469l186,7l16-90ZM336,754l69-107l-3-17Q260,558 179,521l-17,1l-44,72q102,76 201,161l17-1Z" />
      <glyph unicode="&#xfe;" glyph-name="thorn" horiz-adv-x="533" d="M332,479q88,0 137.5-61.5T519,248q0-126-65-193T276-12q-21,0-45,3l3-176H44l6,375L43,689l194,13l-6-298h5q42,49 96,75ZM263,108q36,0 54.5,25.5T336,222q0,53-15.5,78T270,325q-19,0-40-12l-2-98l2-102q20-5 33-5Z" />
      <glyph unicode="&#xff;" glyph-name="ydieresis" horiz-adv-x="471" d="M190,386l51-197h10l47,179l19,104H481L343,49Q320-20 288-64.5t-81-75T80-194l-13,2Q17-145-18-76l7,17Q81-45 159,0L-12,469l186,7l16-90ZM149,717q38,0 59.5-21.5T230,635q0-42-23.5-66.5T142,544q-40,0-61,21.5T60,627q0,42 24,66t65,24Zm193,0q38,0 59.5-21.5T423,635q0-42-23.5-66.5T335,544q-40,0-61,21.5T253,627q0,42 24,66t65,24Z" />
      <glyph unicode="&#x2013;" glyph-name="endash" horiz-adv-x="443" d="M462,312l-9-117H-7l-12,13l9,117H450l12-13Z" />
      <glyph unicode="&#x2014;" glyph-name="emdash" horiz-adv-x="841" d="M860,312l-9-117H-7l-12,13l9,117H848l12-13Z" />
      <glyph unicode="&#x2018;" glyph-name="quoteleft" horiz-adv-x="253" d="M95,342q-31,21-45.5,49T35,458q0,49 28,97.5T149,658l65-42l3-12q-39-43-39-88q0-30 9.5-50.5T220,428V413q-66-49-125-71Z" />
      <glyph unicode="&#x2019;" glyph-name="quoteright" horiz-adv-x="253" d="M159,659q31-21 45.5-49T219,543q0-49-28-97.5T105,343L40,385l-3,12q39,44 39,88q0,30-9.5,50.5T34,573v15q66,49 125,71Z" />
      <glyph unicode="&#x201a;" glyph-name="quotesinglbase" horiz-adv-x="228" d="M161,183q25-23 36.5-49T209,77q0-58-37-111.5T57-142L-4-89L-6-75Q23-50 36.5-23.5T50,34q0,42-33,75l1,16q72,40 143,58Z" />
      <glyph unicode="&#x201c;" glyph-name="quotedblleft" horiz-adv-x="458" d="M300,342q-31,21-45.5,49T240,458q0,49 28,97.5T354,658l65-42l3-12q-39-43-39-88q0-30 9.5-50.5T425,428V413q-66-49-125-71ZM95,342q-31,21-45.5,49T35,458q0,49 28,97.5T149,658l65-42l3-12q-39-43-39-88q0-30 9.5-50.5T220,428V413q-66-49-125-71Z" />
      <glyph unicode="&#x201d;" glyph-name="quotedblright" horiz-adv-x="448" d="M354,659q31-21 45.5-49T414,543q0-49-28-97.5T300,343l-65,42l-3,12q39,44 39,88q0,30-9.5,50.5T229,573v15q66,49 125,71Zm-195,0q31-21 45.5-49T219,543q0-49-28-97.5T105,343L40,385l-3,12q39,44 39,88q0,30-9.5,50.5T34,573v15q66,49 125,71Z" />
      <glyph unicode="&#x201e;" glyph-name="quotedblbase" horiz-adv-x="433" d="M366,183q25-23 36.5-49T414,77q0-58-37-111.5T262-142L201-89l-2,14q29,25 42.5,51.5T255,34q0,42-33,75l1,16q72,40 143,58Zm-205,0q25-23 36.5-49T209,77q0-58-37-111.5T57-142L-4-89L-6-75Q23-50 36.5-23.5T50,34q0,42-33,75l1,16q72,40 143,58Z" />
      <glyph unicode="&#x2022;" glyph-name="bullet" horiz-adv-x="302" d="M157,397q61,0 94.5-34.5T285,266q0-66-37.5-104.5T146,123q-63,0-96.5,33.5T16,254q0,66 38,104.5T157,397Z" />
      <glyph unicode="&#x2039;" glyph-name="guilsinglleft" horiz-adv-x="260" d="M48,214v27L173,425l91-47l4-17L188,230l80-130l-4-17L173,36L48,214Z" />
      <glyph unicode="&#x203a;" glyph-name="guilsinglright" horiz-adv-x="260" d="M217,250V223L92,39L1,86l-4,17L77,234L-3,364l4,17l91,47L217,250Z" />
    </font>
</defs>
</svg>
